M48
; DRILL file {KiCad (6.0.4)} date Sun May  1 20:55:45 2022
; FORMAT={-:-/ absolute / metric / decimal}
; #@! TF.CreationDate,2022-05-01T20:55:45-04:00
; #@! TF.GenerationSoftware,Kicad,Pcbnew,(6.0.4)
; #@! TF.FileFunction,Plated,1,2,PTH
FMAT,2
METRIC
; #@! TA.AperFunction,Plated,PTH,ViaDrill
T1C0.400
; #@! TA.AperFunction,Plated,PTH,ComponentDrill
T2C1.000
; #@! TA.AperFunction,Plated,PTH,ComponentDrill
T3C1.020
; #@! TA.AperFunction,Plated,PTH,ComponentDrill
T4C1.500
%
G90
G05
T1
X127.254Y-79.248
X127.254Y-87.376
X159.512Y-104.902
X160.782Y-103.378
X180.086Y-51.562
T2
X29.11Y-89.427
X34.04Y-71.026
X36.644Y-91.446
X39.037Y-52.643
X41.574Y-73.045
X46.571Y-54.662
X49.77Y-85.924
X54.701Y-67.523
X57.304Y-87.943
X59.631Y-49.122
X62.235Y-69.542
X67.165Y-51.141
X69.404Y-86.254
X74.334Y-67.853
X76.938Y-88.273
X79.15Y-49.422
X81.869Y-69.872
X86.572Y-95.785
X86.684Y-51.441
X91.503Y-77.384
X94.106Y-97.804
X96.433Y-58.983
X99.037Y-79.403
X101.489Y-113.719
X102.31Y-110.652
X103.124Y-107.616
X103.946Y-104.549
X103.967Y-61.002
X108.876Y-86.148
X109.023Y-115.738
X109.845Y-112.671
X110.658Y-109.635
X111.48Y-106.568
X113.807Y-67.747
X116.41Y-88.167
X121.341Y-69.766
X177.484Y-69.862
X182.415Y-88.262
X185.019Y-67.843
X187.345Y-106.663
X188.167Y-109.73
X188.989Y-112.797
X189.811Y-115.864
X189.949Y-86.244
X194.858Y-61.097
X194.88Y-104.645
X195.701Y-107.711
X196.523Y-110.778
X197.345Y-113.845
X199.789Y-79.498
X202.392Y-59.079
X204.719Y-97.899
X207.323Y-77.48
X212.026Y-51.567
X212.253Y-95.88
X216.957Y-69.968
X219.561Y-49.548
X221.887Y-88.369
X224.491Y-67.949
X229.422Y-86.35
X231.545Y-51.267
X236.59Y-69.637
X239.079Y-49.248
X241.521Y-88.038
X244.125Y-67.619
X249.055Y-86.019
X252.321Y-54.74
X257.251Y-73.141
X259.855Y-52.721
X262.182Y-91.542
X264.785Y-71.122
X269.716Y-89.523
T3
X140.208Y-46.736
X140.208Y-49.276
X140.208Y-51.816
X140.208Y-54.356
X140.208Y-56.896
X140.208Y-59.436
X140.208Y-61.976
X140.208Y-64.516
X140.208Y-67.056
X140.208Y-69.596
X140.208Y-72.136
X140.208Y-74.676
X140.208Y-77.216
X140.208Y-79.756
X140.208Y-82.296
X140.208Y-84.836
X140.208Y-87.376
X140.208Y-89.916
X140.208Y-92.456
X140.208Y-94.996
X146.558Y-94.766
X149.098Y-94.766
X151.638Y-94.766
X157.988Y-46.736
X157.988Y-49.276
X157.988Y-51.816
X157.988Y-54.356
X157.988Y-56.896
X157.988Y-59.436
X157.988Y-61.976
X157.988Y-64.516
X157.988Y-67.056
X157.988Y-69.596
X157.988Y-72.136
X157.988Y-74.676
X157.988Y-77.216
X157.988Y-79.756
X157.988Y-82.296
X157.988Y-84.836
X157.988Y-87.376
X157.988Y-89.916
X157.988Y-92.456
X157.988Y-94.996
T4
X32.114Y-78.563
X37.044Y-60.162
X38.905Y-77.753
X41.975Y-41.762
X43.835Y-59.353
X48.766Y-40.952
X52.72Y-75.046
X57.651Y-56.645
X59.511Y-74.236
X62.581Y-38.244
X64.442Y-55.835
X69.372Y-37.434
X71.679Y-110.707
X72.354Y-75.376
X77.284Y-56.975
X78.507Y-111.089
X79.145Y-74.566
X82.215Y-38.574
X84.075Y-56.165
X89.006Y-37.764
X89.522Y-84.907
X93.451Y-117.639
X94.452Y-66.506
X96.313Y-84.097
X99.437Y-48.119
X100.11Y-119.201
X101.243Y-65.696
X106.228Y-47.309
X106.95Y-93.685
X111.88Y-75.284
X113.631Y-130.834
X113.741Y-92.875
X116.865Y-56.898
X118.671Y-74.474
X119.917Y-133.528
X123.656Y-56.088
X174.654Y-58.951
X179.53Y-77.366
X180.13Y-54.854
X180.573Y-136.112
X183.267Y-129.826
X184.461Y-95.767
X185.007Y-73.27
X189.937Y-91.67
X191.973Y-50.202
X196.85Y-68.617
X197.45Y-46.105
X199.899Y-121.9
X201.78Y-87.018
X202.326Y-64.52
X203.644Y-116.177
X207.256Y-82.921
X209.087Y-40.685
X214.018Y-59.086
X214.564Y-36.588
X218.948Y-77.487
X219.494Y-54.989
X221.007Y-113.817
X224.425Y-73.39
X225.689Y-108.832
X228.721Y-40.355
X233.651Y-58.756
X234.197Y-36.258
X238.582Y-77.157
X239.128Y-54.659
X244.058Y-73.06
X249.436Y-43.844
X254.366Y-62.245
X254.912Y-39.747
X259.297Y-80.646
X259.843Y-58.148
X264.773Y-76.549
T0
M30
