M48
; DRILL file {KiCad (6.0.4)} date Sun May  1 20:55:45 2022
; FORMAT={-:-/ absolute / metric / decimal}
; #@! TF.CreationDate,2022-05-01T20:55:45-04:00
; #@! TF.GenerationSoftware,Kicad,Pcbnew,(6.0.4)
; #@! TF.FileFunction,NonPlated,1,2,NPTH
FMAT,2
METRIC
; #@! TA.AperFunction,NonPlated,NPTH,ComponentDrill
T1C1.500
; #@! TA.AperFunction,NonPlated,NPTH,ComponentDrill
T2C1.750
; #@! TA.AperFunction,NonPlated,NPTH,ComponentDrill
T3C1.800
; #@! TA.AperFunction,NonPlated,NPTH,ComponentDrill
T4C4.000
%
G90
G05
T1
X146.673Y-49.896
X151.523Y-49.896
T2
X30.23Y-80.688
X35.16Y-62.287
X40.043Y-83.318
X40.091Y-43.886
X44.974Y-64.917
X49.904Y-46.516
X50.836Y-77.17
X55.766Y-58.769
X60.65Y-79.8
X60.697Y-40.369
X65.58Y-61.399
X69.454Y-112.472
X70.469Y-77.501
X70.511Y-42.998
X75.4Y-59.1
X78.663Y-116.766
X80.283Y-80.13
X80.33Y-40.699
X85.214Y-61.729
X87.638Y-87.031
X90.144Y-43.328
X90.954Y-118.991
X92.568Y-68.63
X97.452Y-89.661
X97.553Y-50.244
X99.277Y-124.819
X102.382Y-71.26
X105.066Y-95.81
X107.367Y-52.874
X109.996Y-77.409
X110.937Y-131.732
X114.88Y-98.44
X114.981Y-59.023
X118.121Y-138.916
X119.81Y-80.039
X124.795Y-61.652
X174.085Y-61.733
X178.961Y-80.149
X181.471Y-138.806
X183.891Y-98.55
X183.899Y-59.104
X188.656Y-131.622
X188.775Y-77.519
X191.404Y-52.984
X193.705Y-95.92
X196.28Y-71.399
X200.315Y-124.709
X201.211Y-89.8
X201.218Y-50.354
X206.094Y-68.77
X208.518Y-43.468
X208.638Y-118.881
X211.025Y-87.17
X213.449Y-61.868
X218.332Y-40.838
X218.379Y-80.269
X220.93Y-116.656
X223.262Y-59.239
X228.152Y-43.137
X228.193Y-77.64
X230.138Y-112.362
X233.082Y-61.538
X237.965Y-40.508
X238.013Y-79.939
X242.896Y-58.909
X247.826Y-77.309
X248.867Y-46.626
X253.797Y-65.027
X258.68Y-43.996
X258.728Y-83.428
X263.611Y-62.397
X268.541Y-80.798
T3
X146.373Y-46.866
X151.823Y-46.866
T4
X35.136Y-82.003
X40.067Y-63.602
X44.997Y-45.201
X55.743Y-78.485
X60.673Y-60.084
X65.604Y-41.683
X74.058Y-114.619
X75.376Y-78.815
X80.307Y-60.415
X85.237Y-42.014
X92.545Y-88.346
X95.115Y-121.905
X97.475Y-69.945
X102.46Y-51.559
X109.973Y-97.125
X114.529Y-135.324
X114.903Y-78.724
X119.888Y-60.338
X178.992Y-60.418
X183.868Y-78.834
X185.063Y-135.214
X188.798Y-97.235
X196.311Y-51.669
X201.187Y-70.084
X204.477Y-121.795
X206.118Y-88.485
X213.425Y-42.153
X218.355Y-60.554
X223.286Y-78.955
X225.534Y-114.509
X233.058Y-41.822
X237.989Y-60.223
X242.919Y-78.624
X253.774Y-45.311
X258.704Y-63.712
X263.635Y-82.113
T0
M30
