M48
; DRILL file {KiCad (6.0.4)} date Mon Apr 18 23:02:18 2022
; FORMAT={-:-/ absolute / metric / decimal}
; #@! TF.CreationDate,2022-04-18T23:02:18-04:00
; #@! TF.GenerationSoftware,Kicad,Pcbnew,(6.0.4)
; #@! TF.FileFunction,NonPlated,1,2,NPTH
FMAT,2
METRIC
; #@! TA.AperFunction,NonPlated,NPTH,ComponentDrill
T1C1.500
; #@! TA.AperFunction,NonPlated,NPTH,ComponentDrill
T2C1.700
; #@! TA.AperFunction,NonPlated,NPTH,ComponentDrill
T3C1.800
; #@! TA.AperFunction,NonPlated,NPTH,ComponentDrill
T4C3.400
%
G90
G05
T1
X146.673Y-49.896
X151.523Y-49.896
T2
X29.824Y-80.579
X34.754Y-62.179
X39.685Y-43.778
X40.449Y-83.426
X45.38Y-65.026
X50.31Y-46.625
X50.43Y-77.062
X55.361Y-58.661
X60.291Y-40.26
X61.055Y-79.909
X65.986Y-61.508
X69.074Y-112.295
X70.064Y-77.392
X70.916Y-43.107
X74.994Y-58.991
X79.043Y-116.944
X79.925Y-40.59
X80.689Y-80.239
X85.619Y-61.838
X87.232Y-86.923
X90.55Y-43.437
X90.61Y-118.75
X92.163Y-68.522
X97.147Y-50.135
X97.857Y-89.77
X99.621Y-125.06
X102.788Y-71.369
X104.66Y-95.701
X107.773Y-52.982
X109.591Y-77.3
X110.64Y-131.435
X114.575Y-58.914
X115.285Y-98.548
X118.418Y-139.213
X120.216Y-80.147
X125.201Y-61.761
X173.679Y-61.842
X178.555Y-80.257
X181.174Y-139.103
X183.486Y-98.658
X184.304Y-58.995
X188.953Y-131.325
X189.18Y-77.41
X190.998Y-53.092
X194.111Y-95.811
X195.875Y-71.508
X199.971Y-124.95
X200.805Y-89.909
X201.624Y-50.245
X206.5Y-68.661
X208.112Y-43.576
X208.982Y-118.64
X211.43Y-87.062
X213.043Y-61.977
X217.973Y-80.378
X218.738Y-40.729
X220.549Y-116.834
X223.668Y-59.13
X227.746Y-43.246
X228.599Y-77.531
X230.518Y-112.185
X232.676Y-61.647
X237.607Y-80.048
X238.371Y-40.399
X243.302Y-58.8
X248.232Y-77.201
X248.461Y-46.735
X253.391Y-65.136
X258.322Y-83.536
X259.086Y-43.888
X264.017Y-62.289
X268.947Y-80.689
T3
X146.373Y-46.866
X151.823Y-46.866
T4
X35.136Y-82.003
X40.067Y-63.602
X44.997Y-45.201
X55.743Y-78.485
X60.673Y-60.084
X65.604Y-41.683
X74.058Y-114.619
X75.376Y-78.815
X80.307Y-60.415
X85.237Y-42.014
X92.545Y-88.346
X95.115Y-121.905
X97.475Y-69.945
X102.46Y-51.559
X109.973Y-97.125
X114.529Y-135.324
X114.903Y-78.724
X119.888Y-60.338
X178.992Y-60.418
X183.868Y-78.834
X185.063Y-135.214
X188.798Y-97.235
X196.311Y-51.669
X201.187Y-70.084
X204.477Y-121.795
X206.118Y-88.485
X213.425Y-42.153
X218.355Y-60.554
X223.286Y-78.955
X225.534Y-114.509
X233.058Y-41.822
X237.989Y-60.223
X242.919Y-78.624
X253.774Y-45.311
X258.704Y-63.712
X263.635Y-82.113
T0
M30
