%TF.GenerationSoftware,KiCad,Pcbnew,(6.0.4)*%
%TF.CreationDate,2022-04-18T20:51:41-04:00*%
%TF.ProjectId,crowboard,63726f77-626f-4617-9264-2e6b69636164,rev?*%
%TF.SameCoordinates,Original*%
%TF.FileFunction,Legend,Bot*%
%TF.FilePolarity,Positive*%
%FSLAX46Y46*%
G04 Gerber Fmt 4.6, Leading zero omitted, Abs format (unit mm)*
G04 Created by KiCad (PCBNEW (6.0.4)) date 2022-04-18 20:51:41*
%MOMM*%
%LPD*%
G01*
G04 APERTURE LIST*
G04 Aperture macros list*
%AMRotRect*
0 Rectangle, with rotation*
0 The origin of the aperture is its center*
0 $1 length*
0 $2 width*
0 $3 Rotation angle, in degrees counterclockwise*
0 Add horizontal line*
21,1,$1,$2,0,0,$3*%
G04 Aperture macros list end*
%ADD10C,0.150000*%
%ADD11C,2.000000*%
%ADD12C,3.400000*%
%ADD13C,1.700000*%
%ADD14RotRect,1.600000X1.200000X345.000000*%
%ADD15RotRect,1.600000X1.600000X345.000000*%
%ADD16C,1.600000*%
%ADD17RotRect,1.600000X1.200000X15.000000*%
%ADD18RotRect,1.600000X1.600000X15.000000*%
%ADD19O,1.700000X1.700000*%
%ADD20R,1.700000X1.700000*%
%ADD21O,1.800000X1.800000*%
%ADD22O,1.500000X1.500000*%
G04 APERTURE END LIST*
D10*
%TO.C,D11*%
X36575635Y-72780505D02*
X36368580Y-73553246D01*
X36552566Y-73602545D01*
X36672817Y-73595327D01*
X36766131Y-73541452D01*
X36822648Y-73477717D01*
X36898884Y-73340388D01*
X36928464Y-73229997D01*
X36931105Y-73072949D01*
X36914028Y-72989494D01*
X36860153Y-72896180D01*
X36759621Y-72829804D01*
X36575635Y-72780505D01*
X37753145Y-73096018D02*
X37311579Y-72977701D01*
X37532362Y-73036859D02*
X37325307Y-73809600D01*
X37281292Y-73679489D01*
X37227417Y-73586175D01*
X37163682Y-73529658D01*
X38489088Y-73293213D02*
X38047522Y-73174896D01*
X38268305Y-73234055D02*
X38061250Y-74006795D01*
X38017235Y-73876684D01*
X37963360Y-73783370D01*
X37899626Y-73726854D01*
%TO.C,D7*%
X199627032Y-61643719D02*
X199419976Y-60870979D01*
X199235990Y-60920277D01*
X199135459Y-60986654D01*
X199081584Y-61079968D01*
X199064506Y-61163422D01*
X199067148Y-61320470D01*
X199096727Y-61430862D01*
X199172964Y-61568191D01*
X199229480Y-61631925D01*
X199322794Y-61685800D01*
X199443046Y-61693018D01*
X199627032Y-61643719D01*
X198720830Y-61058314D02*
X198205670Y-61196351D01*
X198743899Y-61880354D01*
%TO.C,D20*%
X262387980Y-73588239D02*
X262180925Y-72815499D01*
X261996939Y-72864798D01*
X261896407Y-72931174D01*
X261842533Y-73024488D01*
X261825455Y-73107942D01*
X261828097Y-73264991D01*
X261857676Y-73375382D01*
X261933913Y-73512711D01*
X261990429Y-73576446D01*
X262083743Y-73630320D01*
X262203994Y-73637538D01*
X262387980Y-73588239D01*
X261464701Y-73086289D02*
X261418044Y-73059351D01*
X261334590Y-73042274D01*
X261150604Y-73091572D01*
X261086870Y-73148089D01*
X261059932Y-73194746D01*
X261042855Y-73278200D01*
X261062574Y-73351795D01*
X261128951Y-73452326D01*
X261688834Y-73775575D01*
X261210471Y-73903752D01*
X260525052Y-73259189D02*
X260451458Y-73278908D01*
X260387723Y-73335425D01*
X260360786Y-73382082D01*
X260343708Y-73465536D01*
X260346350Y-73622584D01*
X260395649Y-73806570D01*
X260471885Y-73943899D01*
X260528402Y-74007634D01*
X260575059Y-74034571D01*
X260658513Y-74051649D01*
X260732107Y-74031929D01*
X260795842Y-73975413D01*
X260822779Y-73928756D01*
X260839857Y-73845301D01*
X260837215Y-73688253D01*
X260787916Y-73504267D01*
X260711680Y-73366938D01*
X260655163Y-73303204D01*
X260608506Y-73276266D01*
X260525052Y-73259189D01*
%TO.C,D4*%
X99336584Y-60835985D02*
X99129529Y-61608726D01*
X99313515Y-61658024D01*
X99433766Y-61650807D01*
X99527080Y-61596932D01*
X99583597Y-61533197D01*
X99659833Y-61395868D01*
X99689412Y-61285477D01*
X99692054Y-61128428D01*
X99674977Y-61044974D01*
X99621102Y-60951660D01*
X99520570Y-60885284D01*
X99336584Y-60835985D01*
X100302463Y-61646938D02*
X100440499Y-61131778D01*
X100039598Y-61892017D02*
X100003509Y-61290761D01*
X100481872Y-61418938D01*
%TO.C,D15*%
X111411808Y-87902295D02*
X111204753Y-88675036D01*
X111388739Y-88724335D01*
X111508990Y-88717117D01*
X111602304Y-88663242D01*
X111658821Y-88599507D01*
X111735057Y-88462178D01*
X111764637Y-88351787D01*
X111767278Y-88194739D01*
X111750201Y-88111284D01*
X111696326Y-88017970D01*
X111595794Y-87951594D01*
X111411808Y-87902295D01*
X112589318Y-88217808D02*
X112147752Y-88099491D01*
X112368535Y-88158649D02*
X112161480Y-88931390D01*
X112117465Y-88801279D01*
X112063590Y-88707965D01*
X111999855Y-88651448D01*
X113081409Y-89177884D02*
X112713437Y-89079286D01*
X112775238Y-88701455D01*
X112802175Y-88748112D01*
X112865910Y-88804629D01*
X113049896Y-88853928D01*
X113133350Y-88836850D01*
X113180007Y-88809912D01*
X113236524Y-88746178D01*
X113285822Y-88562192D01*
X113268745Y-88478738D01*
X113241807Y-88432081D01*
X113178073Y-88375564D01*
X112994087Y-88326265D01*
X112910633Y-88343343D01*
X112863976Y-88370280D01*
%TO.C,D25*%
X106481306Y-106303182D02*
X106274251Y-107075923D01*
X106458237Y-107125222D01*
X106578488Y-107118004D01*
X106671802Y-107064129D01*
X106728319Y-107000394D01*
X106804555Y-106863065D01*
X106834135Y-106752674D01*
X106836776Y-106595626D01*
X106819699Y-106512171D01*
X106765824Y-106418857D01*
X106665292Y-106352481D01*
X106481306Y-106303182D01*
X107029914Y-107199524D02*
X107056852Y-107246181D01*
X107120586Y-107302698D01*
X107304572Y-107351996D01*
X107388026Y-107334919D01*
X107434683Y-107307981D01*
X107491200Y-107244247D01*
X107510919Y-107170652D01*
X107503702Y-107050401D01*
X107180453Y-106490518D01*
X107658816Y-106618695D01*
X108150907Y-107578771D02*
X107782935Y-107480173D01*
X107844736Y-107102342D01*
X107871673Y-107148999D01*
X107935408Y-107205516D01*
X108119394Y-107254815D01*
X108202848Y-107237737D01*
X108249505Y-107210799D01*
X108306022Y-107147065D01*
X108355320Y-106963079D01*
X108338243Y-106879625D01*
X108311305Y-106832968D01*
X108247571Y-106776451D01*
X108063585Y-106727152D01*
X107980131Y-106744230D01*
X107933474Y-106771167D01*
%TO.C,D17*%
X204925505Y-79946008D02*
X204718450Y-79173268D01*
X204534464Y-79222567D01*
X204433932Y-79288943D01*
X204380058Y-79382257D01*
X204362980Y-79465711D01*
X204365622Y-79622760D01*
X204395201Y-79733151D01*
X204471438Y-79870480D01*
X204527954Y-79934215D01*
X204621268Y-79988089D01*
X204741519Y-79995307D01*
X204925505Y-79946008D01*
X203747996Y-80261521D02*
X204189562Y-80143204D01*
X203968779Y-80202363D02*
X203761724Y-79429622D01*
X203864897Y-79520294D01*
X203958211Y-79574169D01*
X204041665Y-79591246D01*
X203283360Y-79557799D02*
X202768200Y-79695836D01*
X203306430Y-80379838D01*
%TO.C,D19*%
X241727279Y-70085002D02*
X241520224Y-69312262D01*
X241336238Y-69361561D01*
X241235706Y-69427937D01*
X241181832Y-69521251D01*
X241164754Y-69604705D01*
X241167396Y-69761754D01*
X241196975Y-69872145D01*
X241273212Y-70009474D01*
X241329728Y-70073209D01*
X241423042Y-70127083D01*
X241543293Y-70134301D01*
X241727279Y-70085002D01*
X240549770Y-70400515D02*
X240991336Y-70282198D01*
X240770553Y-70341357D02*
X240563498Y-69568616D01*
X240666671Y-69659288D01*
X240759985Y-69713163D01*
X240843439Y-69730240D01*
X240181798Y-70499113D02*
X240034609Y-70538552D01*
X239951155Y-70521474D01*
X239904498Y-70494537D01*
X239801325Y-70403865D01*
X239725088Y-70266536D01*
X239646210Y-69972159D01*
X239663288Y-69888705D01*
X239690225Y-69842048D01*
X239753960Y-69785531D01*
X239901148Y-69746092D01*
X239984603Y-69763169D01*
X240031259Y-69790107D01*
X240087776Y-69853841D01*
X240137075Y-70037827D01*
X240119997Y-70121281D01*
X240093060Y-70167938D01*
X240029325Y-70224455D01*
X239882137Y-70263894D01*
X239798683Y-70246817D01*
X239752026Y-70219879D01*
X239695509Y-70156145D01*
%TO.C,D14*%
X94038109Y-79138274D02*
X93831054Y-79911015D01*
X94015040Y-79960314D01*
X94135291Y-79953096D01*
X94228605Y-79899221D01*
X94285122Y-79835486D01*
X94361358Y-79698157D01*
X94390938Y-79587766D01*
X94393579Y-79430718D01*
X94376502Y-79347263D01*
X94322627Y-79253949D01*
X94222095Y-79187573D01*
X94038109Y-79138274D01*
X95215619Y-79453787D02*
X94774053Y-79335470D01*
X94994836Y-79394628D02*
X94787781Y-80167369D01*
X94743766Y-80037258D01*
X94689891Y-79943944D01*
X94626156Y-79887427D01*
X95739931Y-80146423D02*
X95877968Y-79631263D01*
X95477067Y-80391502D02*
X95440978Y-79790245D01*
X95919341Y-79918422D01*
%TO.C,D23*%
X71939345Y-88008436D02*
X71732290Y-88781177D01*
X71916276Y-88830476D01*
X72036527Y-88823258D01*
X72129841Y-88769383D01*
X72186358Y-88705648D01*
X72262594Y-88568319D01*
X72292174Y-88457928D01*
X72294815Y-88300880D01*
X72277738Y-88217425D01*
X72223863Y-88124111D01*
X72123331Y-88057735D01*
X71939345Y-88008436D01*
X72487953Y-88904778D02*
X72514891Y-88951435D01*
X72578625Y-89007952D01*
X72762611Y-89057250D01*
X72846065Y-89040173D01*
X72892722Y-89013235D01*
X72949239Y-88949501D01*
X72968958Y-88875906D01*
X72961741Y-88755655D01*
X72638492Y-88195772D01*
X73116855Y-88323949D01*
X73167380Y-89165708D02*
X73645743Y-89293885D01*
X73467041Y-88930489D01*
X73577433Y-88960069D01*
X73660887Y-88942991D01*
X73707544Y-88916053D01*
X73764061Y-88852319D01*
X73813359Y-88668333D01*
X73796282Y-88584879D01*
X73769344Y-88538222D01*
X73705610Y-88481705D01*
X73484827Y-88422547D01*
X73401373Y-88439624D01*
X73354716Y-88466562D01*
%TO.C,D18*%
X222093767Y-70415283D02*
X221886712Y-69642543D01*
X221702726Y-69691842D01*
X221602194Y-69758218D01*
X221548320Y-69851532D01*
X221531242Y-69934986D01*
X221533884Y-70092035D01*
X221563463Y-70202426D01*
X221639700Y-70339755D01*
X221696216Y-70403490D01*
X221789530Y-70457364D01*
X221909781Y-70464582D01*
X222093767Y-70415283D01*
X220916258Y-70730796D02*
X221357824Y-70612479D01*
X221137041Y-70671638D02*
X220929986Y-69898897D01*
X221033159Y-69989569D01*
X221126473Y-70043444D01*
X221209927Y-70060521D01*
X220356374Y-70407547D02*
X220420109Y-70351031D01*
X220447046Y-70304374D01*
X220464124Y-70220920D01*
X220454264Y-70184122D01*
X220397747Y-70120388D01*
X220351091Y-70093450D01*
X220267636Y-70076373D01*
X220120448Y-70115812D01*
X220056713Y-70172329D01*
X220029776Y-70218986D01*
X220012698Y-70302440D01*
X220022558Y-70339237D01*
X220079075Y-70402971D01*
X220125732Y-70429909D01*
X220209186Y-70446986D01*
X220356374Y-70407547D01*
X220439828Y-70424625D01*
X220486485Y-70451562D01*
X220543002Y-70515297D01*
X220582441Y-70662486D01*
X220565364Y-70745940D01*
X220538426Y-70792597D01*
X220474692Y-70849113D01*
X220327503Y-70888553D01*
X220244049Y-70871475D01*
X220197392Y-70844538D01*
X220140875Y-70780803D01*
X220101436Y-70633614D01*
X220118514Y-70550160D01*
X220145451Y-70503503D01*
X220209186Y-70446986D01*
%TO.C,D12*%
X57236335Y-69277268D02*
X57029280Y-70050009D01*
X57213266Y-70099308D01*
X57333517Y-70092090D01*
X57426831Y-70038215D01*
X57483348Y-69974480D01*
X57559584Y-69837151D01*
X57589164Y-69726760D01*
X57591805Y-69569712D01*
X57574728Y-69486257D01*
X57520853Y-69392943D01*
X57420321Y-69326567D01*
X57236335Y-69277268D01*
X58413845Y-69592781D02*
X57972279Y-69474464D01*
X58193062Y-69533622D02*
X57986007Y-70306363D01*
X57941992Y-70176252D01*
X57888117Y-70082938D01*
X57824382Y-70026421D01*
X58520887Y-70370805D02*
X58547824Y-70417462D01*
X58611559Y-70473979D01*
X58795545Y-70523278D01*
X58878999Y-70506200D01*
X58925656Y-70479263D01*
X58982172Y-70415528D01*
X59001892Y-70341934D01*
X58994674Y-70221683D01*
X58671425Y-69661799D01*
X59149788Y-69789976D01*
%TO.C,D22*%
X52305833Y-87678155D02*
X52098778Y-88450896D01*
X52282764Y-88500195D01*
X52403015Y-88492977D01*
X52496329Y-88439102D01*
X52552846Y-88375367D01*
X52629082Y-88238038D01*
X52658662Y-88127647D01*
X52661303Y-87970599D01*
X52644226Y-87887144D01*
X52590351Y-87793830D01*
X52489819Y-87727454D01*
X52305833Y-87678155D01*
X52854441Y-88574497D02*
X52881379Y-88621154D01*
X52945113Y-88677671D01*
X53129099Y-88726969D01*
X53212553Y-88709892D01*
X53259210Y-88682954D01*
X53315727Y-88619220D01*
X53335446Y-88545625D01*
X53328229Y-88425374D01*
X53004980Y-87865491D01*
X53483343Y-87993668D01*
X53590385Y-88771692D02*
X53617322Y-88818349D01*
X53681057Y-88874866D01*
X53865043Y-88924165D01*
X53948497Y-88907087D01*
X53995154Y-88880150D01*
X54051670Y-88816415D01*
X54071390Y-88742821D01*
X54064172Y-88622570D01*
X53740923Y-88062686D01*
X54219286Y-88190863D01*
%TO.C,D24*%
X89107607Y-97539161D02*
X88900552Y-98311902D01*
X89084538Y-98361201D01*
X89204789Y-98353983D01*
X89298103Y-98300108D01*
X89354620Y-98236373D01*
X89430856Y-98099044D01*
X89460436Y-97988653D01*
X89463077Y-97831605D01*
X89446000Y-97748150D01*
X89392125Y-97654836D01*
X89291593Y-97588460D01*
X89107607Y-97539161D01*
X89656215Y-98435503D02*
X89683153Y-98482160D01*
X89746887Y-98538677D01*
X89930873Y-98587975D01*
X90014327Y-98570898D01*
X90060984Y-98543960D01*
X90117501Y-98480226D01*
X90137220Y-98406631D01*
X90130003Y-98286380D01*
X89806754Y-97726497D01*
X90285117Y-97854674D01*
X90809429Y-98547310D02*
X90947466Y-98032150D01*
X90546565Y-98792389D02*
X90510476Y-98191132D01*
X90988839Y-98319309D01*
%TO.C,D3*%
X82053619Y-51274526D02*
X81846564Y-52047267D01*
X82030550Y-52096565D01*
X82150801Y-52089348D01*
X82244115Y-52035473D01*
X82300632Y-51971738D01*
X82376868Y-51834409D01*
X82406447Y-51724018D01*
X82409089Y-51566969D01*
X82392012Y-51483515D01*
X82338137Y-51390201D01*
X82237605Y-51323825D01*
X82053619Y-51274526D01*
X82545710Y-52234602D02*
X83024073Y-52362779D01*
X82845371Y-51999383D01*
X82955763Y-52028963D01*
X83039217Y-52011885D01*
X83085874Y-51984948D01*
X83142391Y-51921213D01*
X83191690Y-51737227D01*
X83174612Y-51653773D01*
X83147675Y-51607116D01*
X83083940Y-51550600D01*
X82863157Y-51491441D01*
X82779703Y-51508518D01*
X82733046Y-51535456D01*
%TO.C,D21*%
X31645132Y-91181392D02*
X31438077Y-91954133D01*
X31622063Y-92003432D01*
X31742314Y-91996214D01*
X31835628Y-91942339D01*
X31892145Y-91878604D01*
X31968381Y-91741275D01*
X31997961Y-91630884D01*
X32000602Y-91473836D01*
X31983525Y-91390381D01*
X31929650Y-91297067D01*
X31829118Y-91230691D01*
X31645132Y-91181392D01*
X32193740Y-92077734D02*
X32220678Y-92124391D01*
X32284412Y-92180908D01*
X32468398Y-92230206D01*
X32551852Y-92213129D01*
X32598509Y-92186191D01*
X32655026Y-92122457D01*
X32674745Y-92048862D01*
X32667528Y-91928611D01*
X32344279Y-91368728D01*
X32822642Y-91496905D01*
X33558585Y-91694100D02*
X33117019Y-91575783D01*
X33337802Y-91634942D02*
X33130747Y-92407682D01*
X33086732Y-92277571D01*
X33032857Y-92184257D01*
X32969123Y-92127741D01*
%TO.C,D6*%
X182253333Y-70407739D02*
X182046277Y-69634999D01*
X181862291Y-69684297D01*
X181761760Y-69750674D01*
X181707885Y-69843988D01*
X181690807Y-69927442D01*
X181693449Y-70084490D01*
X181723028Y-70194882D01*
X181799265Y-70332211D01*
X181855781Y-70395945D01*
X181949095Y-70449820D01*
X182069347Y-70457038D01*
X182253333Y-70407739D01*
X180942362Y-69930792D02*
X181089551Y-69891353D01*
X181173005Y-69908430D01*
X181219662Y-69935368D01*
X181322836Y-70026040D01*
X181399072Y-70163369D01*
X181477950Y-70457746D01*
X181460872Y-70541200D01*
X181433935Y-70587857D01*
X181370200Y-70644374D01*
X181223012Y-70683813D01*
X181139558Y-70666735D01*
X181092901Y-70639798D01*
X181036384Y-70576063D01*
X180987085Y-70392077D01*
X181004163Y-70308623D01*
X181031100Y-70261966D01*
X181094835Y-70205450D01*
X181242023Y-70166010D01*
X181325477Y-70183088D01*
X181372134Y-70210025D01*
X181428651Y-70273760D01*
%TO.C,D1*%
X41940517Y-54496010D02*
X41733462Y-55268751D01*
X41917448Y-55318049D01*
X42037699Y-55310832D01*
X42131013Y-55256957D01*
X42187530Y-55193222D01*
X42263766Y-55055893D01*
X42293345Y-54945502D01*
X42295987Y-54788453D01*
X42278910Y-54704999D01*
X42225035Y-54611685D01*
X42124503Y-54545309D01*
X41940517Y-54496010D01*
X43118027Y-54811523D02*
X42676461Y-54693205D01*
X42897244Y-54752364D02*
X42690188Y-55525105D01*
X42646173Y-55394994D01*
X42592299Y-55301680D01*
X42528564Y-55245163D01*
%TO.C,D36*%
X193304060Y-110177730D02*
X193097005Y-109404990D01*
X192913019Y-109454289D01*
X192812487Y-109520665D01*
X192758613Y-109613979D01*
X192741535Y-109697433D01*
X192744177Y-109854482D01*
X192773756Y-109964873D01*
X192849993Y-110102202D01*
X192906509Y-110165937D01*
X192999823Y-110219811D01*
X193120074Y-110227029D01*
X193304060Y-110177730D01*
X192397859Y-109592325D02*
X191919495Y-109720503D01*
X192255954Y-109945862D01*
X192145562Y-109975441D01*
X192081828Y-110031958D01*
X192054890Y-110078614D01*
X192037813Y-110162069D01*
X192087112Y-110346054D01*
X192143628Y-110409789D01*
X192190285Y-110436726D01*
X192273739Y-110453804D01*
X192494522Y-110394645D01*
X192558257Y-110338129D01*
X192585194Y-110291472D01*
X191257146Y-109897978D02*
X191404335Y-109858539D01*
X191487789Y-109875617D01*
X191534446Y-109902554D01*
X191637620Y-109993226D01*
X191713856Y-110130555D01*
X191792734Y-110424933D01*
X191775657Y-110508387D01*
X191748719Y-110555044D01*
X191684985Y-110611560D01*
X191537796Y-110651000D01*
X191454342Y-110633922D01*
X191407685Y-110606985D01*
X191351168Y-110543250D01*
X191301869Y-110359264D01*
X191318947Y-110275810D01*
X191345884Y-110229153D01*
X191409619Y-110172636D01*
X191556808Y-110133197D01*
X191640262Y-110150275D01*
X191686919Y-110177212D01*
X191743435Y-110240947D01*
%TO.C,D34*%
X194947561Y-116311359D02*
X194740506Y-115538619D01*
X194556520Y-115587918D01*
X194455988Y-115654294D01*
X194402114Y-115747608D01*
X194385036Y-115831062D01*
X194387678Y-115988111D01*
X194417257Y-116098502D01*
X194493494Y-116235831D01*
X194550010Y-116299566D01*
X194643324Y-116353440D01*
X194763575Y-116360658D01*
X194947561Y-116311359D01*
X194041360Y-115725954D02*
X193562996Y-115854132D01*
X193899455Y-116079491D01*
X193789063Y-116109070D01*
X193725329Y-116165587D01*
X193698391Y-116212243D01*
X193681314Y-116295698D01*
X193730613Y-116479683D01*
X193787129Y-116543418D01*
X193833786Y-116570355D01*
X193917240Y-116587433D01*
X194138023Y-116528274D01*
X194201758Y-116471758D01*
X194228695Y-116425101D01*
X192969666Y-116289188D02*
X193107703Y-116804348D01*
X193074773Y-115945511D02*
X193406656Y-116448170D01*
X192928293Y-116576347D01*
%TO.C,D26*%
X192482309Y-107110915D02*
X192275254Y-106338175D01*
X192091268Y-106387474D01*
X191990736Y-106453850D01*
X191936862Y-106547164D01*
X191919784Y-106630618D01*
X191922426Y-106787667D01*
X191952005Y-106898058D01*
X192028242Y-107035387D01*
X192084758Y-107099122D01*
X192178072Y-107152996D01*
X192298323Y-107160214D01*
X192482309Y-107110915D01*
X191559030Y-106608965D02*
X191512373Y-106582027D01*
X191428919Y-106564950D01*
X191244933Y-106614248D01*
X191181199Y-106670765D01*
X191154261Y-106717422D01*
X191137184Y-106800876D01*
X191156903Y-106874471D01*
X191223280Y-106975002D01*
X191783163Y-107298251D01*
X191304800Y-107426428D01*
X190435395Y-106831163D02*
X190582584Y-106791724D01*
X190666038Y-106808802D01*
X190712695Y-106835739D01*
X190815869Y-106926411D01*
X190892105Y-107063740D01*
X190970983Y-107358118D01*
X190953906Y-107441572D01*
X190926968Y-107488229D01*
X190863234Y-107544745D01*
X190716045Y-107584185D01*
X190632591Y-107567107D01*
X190585934Y-107540170D01*
X190529417Y-107476435D01*
X190480118Y-107292449D01*
X190497196Y-107208995D01*
X190524133Y-107162338D01*
X190587868Y-107105821D01*
X190735057Y-107066382D01*
X190818511Y-107083460D01*
X190865168Y-107110397D01*
X190921684Y-107174132D01*
%TO.C,D27*%
X209856008Y-98346895D02*
X209648953Y-97574155D01*
X209464967Y-97623454D01*
X209364435Y-97689830D01*
X209310561Y-97783144D01*
X209293483Y-97866598D01*
X209296125Y-98023647D01*
X209325704Y-98134038D01*
X209401941Y-98271367D01*
X209458457Y-98335102D01*
X209551771Y-98388976D01*
X209672022Y-98396194D01*
X209856008Y-98346895D01*
X208932729Y-97844945D02*
X208886072Y-97818007D01*
X208802618Y-97800930D01*
X208618632Y-97850228D01*
X208554898Y-97906745D01*
X208527960Y-97953402D01*
X208510883Y-98036856D01*
X208530602Y-98110451D01*
X208596979Y-98210982D01*
X209156862Y-98534231D01*
X208678499Y-98662408D01*
X208213863Y-97958686D02*
X207698703Y-98096723D01*
X208236933Y-98780725D01*
%TO.C,D29*%
X246657782Y-88485889D02*
X246450727Y-87713149D01*
X246266741Y-87762448D01*
X246166209Y-87828824D01*
X246112335Y-87922138D01*
X246095257Y-88005592D01*
X246097899Y-88162641D01*
X246127478Y-88273032D01*
X246203715Y-88410361D01*
X246260231Y-88474096D01*
X246353545Y-88527970D01*
X246473796Y-88535188D01*
X246657782Y-88485889D01*
X245734503Y-87983939D02*
X245687846Y-87957001D01*
X245604392Y-87939924D01*
X245420406Y-87989222D01*
X245356672Y-88045739D01*
X245329734Y-88092396D01*
X245312657Y-88175850D01*
X245332376Y-88249445D01*
X245398753Y-88349976D01*
X245958636Y-88673225D01*
X245480273Y-88801402D01*
X245112301Y-88900000D02*
X244965112Y-88939439D01*
X244881658Y-88922361D01*
X244835001Y-88895424D01*
X244731828Y-88804752D01*
X244655591Y-88667423D01*
X244576713Y-88373046D01*
X244593791Y-88289592D01*
X244620728Y-88242935D01*
X244684463Y-88186418D01*
X244831651Y-88146979D01*
X244915106Y-88164056D01*
X244961762Y-88190994D01*
X245018279Y-88254728D01*
X245067578Y-88438714D01*
X245050500Y-88522168D01*
X245023563Y-88568825D01*
X244959828Y-88625342D01*
X244812640Y-88664781D01*
X244729186Y-88647704D01*
X244682529Y-88620766D01*
X244626012Y-88557032D01*
%TO.C,D2*%
X62534810Y-50974979D02*
X62327755Y-51747720D01*
X62511741Y-51797018D01*
X62631992Y-51789801D01*
X62725306Y-51735926D01*
X62781823Y-51672191D01*
X62858059Y-51534862D01*
X62887638Y-51424471D01*
X62890280Y-51267422D01*
X62873203Y-51183968D01*
X62819328Y-51090654D01*
X62718796Y-51024278D01*
X62534810Y-50974979D01*
X63083418Y-51871321D02*
X63110355Y-51917978D01*
X63174090Y-51974494D01*
X63358076Y-52023793D01*
X63441530Y-52006716D01*
X63488187Y-51979778D01*
X63544704Y-51916044D01*
X63564423Y-51842449D01*
X63557205Y-51722198D01*
X63233956Y-51162315D01*
X63712320Y-51290492D01*
%TO.C,D33*%
X104024272Y-115472957D02*
X103817217Y-116245698D01*
X104001203Y-116294997D01*
X104121454Y-116287779D01*
X104214768Y-116233904D01*
X104271285Y-116170169D01*
X104347521Y-116032840D01*
X104377101Y-115922449D01*
X104379742Y-115765401D01*
X104362665Y-115681946D01*
X104308790Y-115588632D01*
X104208258Y-115522256D01*
X104024272Y-115472957D01*
X104516363Y-116433033D02*
X104994727Y-116561211D01*
X104816025Y-116197815D01*
X104926416Y-116227394D01*
X105009870Y-116210316D01*
X105056527Y-116183379D01*
X105113044Y-116119644D01*
X105162343Y-115935659D01*
X105145265Y-115852204D01*
X105118328Y-115805547D01*
X105054593Y-115749031D01*
X104833810Y-115689872D01*
X104750356Y-115706950D01*
X104703699Y-115733887D01*
X105252307Y-116630229D02*
X105730670Y-116758406D01*
X105551968Y-116395010D01*
X105662360Y-116424590D01*
X105745814Y-116407512D01*
X105792471Y-116380574D01*
X105848988Y-116316840D01*
X105898286Y-116132854D01*
X105881209Y-116049400D01*
X105854271Y-116002743D01*
X105790537Y-115946226D01*
X105569754Y-115887068D01*
X105486300Y-115904145D01*
X105439643Y-115931083D01*
%TO.C,D9*%
X236314102Y-51813448D02*
X236107046Y-51040708D01*
X235923060Y-51090006D01*
X235822529Y-51156383D01*
X235768654Y-51249697D01*
X235751576Y-51333151D01*
X235754218Y-51490199D01*
X235783797Y-51600591D01*
X235860034Y-51737920D01*
X235916550Y-51801654D01*
X236009864Y-51855529D01*
X236130116Y-51862747D01*
X236314102Y-51813448D01*
X235504564Y-52030363D02*
X235357375Y-52069802D01*
X235273921Y-52052725D01*
X235227264Y-52025787D01*
X235124090Y-51935115D01*
X235047854Y-51797786D01*
X234968976Y-51503409D01*
X234986053Y-51419955D01*
X235012991Y-51373298D01*
X235076725Y-51316781D01*
X235223914Y-51277342D01*
X235307368Y-51294420D01*
X235354025Y-51321357D01*
X235410542Y-51385092D01*
X235459841Y-51569078D01*
X235442763Y-51652532D01*
X235415826Y-51699189D01*
X235352091Y-51755705D01*
X235204902Y-51795144D01*
X235121448Y-51778067D01*
X235074791Y-51751129D01*
X235018275Y-51687395D01*
%TO.C,D16*%
X187551807Y-88710028D02*
X187344752Y-87937288D01*
X187160766Y-87986587D01*
X187060234Y-88052963D01*
X187006360Y-88146277D01*
X186989282Y-88229731D01*
X186991924Y-88386780D01*
X187021503Y-88497171D01*
X187097740Y-88634500D01*
X187154256Y-88698235D01*
X187247570Y-88752109D01*
X187367821Y-88759327D01*
X187551807Y-88710028D01*
X186374298Y-89025541D02*
X186815864Y-88907224D01*
X186595081Y-88966383D02*
X186388026Y-88193642D01*
X186491199Y-88284314D01*
X186584513Y-88338189D01*
X186667967Y-88355266D01*
X185504893Y-88430276D02*
X185652082Y-88390837D01*
X185735536Y-88407915D01*
X185782193Y-88434852D01*
X185885367Y-88525524D01*
X185961603Y-88662853D01*
X186040481Y-88957231D01*
X186023404Y-89040685D01*
X185996466Y-89087342D01*
X185932732Y-89143858D01*
X185785543Y-89183298D01*
X185702089Y-89166220D01*
X185655432Y-89139283D01*
X185598915Y-89075548D01*
X185549616Y-88891562D01*
X185566694Y-88808108D01*
X185593631Y-88761451D01*
X185657366Y-88704934D01*
X185804555Y-88665495D01*
X185888009Y-88682573D01*
X185934666Y-88709510D01*
X185991182Y-88773245D01*
%TO.C,D28*%
X227024270Y-88816170D02*
X226817215Y-88043430D01*
X226633229Y-88092729D01*
X226532697Y-88159105D01*
X226478823Y-88252419D01*
X226461745Y-88335873D01*
X226464387Y-88492922D01*
X226493966Y-88603313D01*
X226570203Y-88740642D01*
X226626719Y-88804377D01*
X226720033Y-88858251D01*
X226840284Y-88865469D01*
X227024270Y-88816170D01*
X226100991Y-88314220D02*
X226054334Y-88287282D01*
X225970880Y-88270205D01*
X225786894Y-88319503D01*
X225723160Y-88376020D01*
X225696222Y-88422677D01*
X225679145Y-88506131D01*
X225698864Y-88579726D01*
X225765241Y-88680257D01*
X226325124Y-89003506D01*
X225846761Y-89131683D01*
X225286877Y-88808434D02*
X225350612Y-88751918D01*
X225377549Y-88705261D01*
X225394627Y-88621807D01*
X225384767Y-88585009D01*
X225328250Y-88521275D01*
X225281594Y-88494337D01*
X225198139Y-88477260D01*
X225050951Y-88516699D01*
X224987216Y-88573216D01*
X224960279Y-88619873D01*
X224943201Y-88703327D01*
X224953061Y-88740124D01*
X225009578Y-88803858D01*
X225056235Y-88830796D01*
X225139689Y-88847873D01*
X225286877Y-88808434D01*
X225370331Y-88825512D01*
X225416988Y-88852449D01*
X225473505Y-88916184D01*
X225512944Y-89063373D01*
X225495867Y-89146827D01*
X225468929Y-89193484D01*
X225405195Y-89250000D01*
X225258006Y-89289440D01*
X225174552Y-89272362D01*
X225127895Y-89245425D01*
X225071378Y-89181690D01*
X225031939Y-89034501D01*
X225049017Y-88951047D01*
X225075954Y-88904390D01*
X225139689Y-88847873D01*
%TO.C,D30*%
X267318483Y-91989126D02*
X267111428Y-91216386D01*
X266927442Y-91265685D01*
X266826910Y-91332061D01*
X266773036Y-91425375D01*
X266755958Y-91508829D01*
X266758600Y-91665878D01*
X266788179Y-91776269D01*
X266864416Y-91913598D01*
X266920932Y-91977333D01*
X267014246Y-92031207D01*
X267134497Y-92038425D01*
X267318483Y-91989126D01*
X266412282Y-91403721D02*
X265933918Y-91531899D01*
X266270377Y-91757258D01*
X266159985Y-91786837D01*
X266096251Y-91843354D01*
X266069313Y-91890010D01*
X266052236Y-91973465D01*
X266101535Y-92157450D01*
X266158051Y-92221185D01*
X266204708Y-92248122D01*
X266288162Y-92265200D01*
X266508945Y-92206041D01*
X266572680Y-92149525D01*
X266599617Y-92102868D01*
X265455555Y-91660076D02*
X265381961Y-91679795D01*
X265318226Y-91736312D01*
X265291289Y-91782969D01*
X265274211Y-91866423D01*
X265276853Y-92023471D01*
X265326152Y-92207457D01*
X265402388Y-92344786D01*
X265458905Y-92408521D01*
X265505562Y-92435458D01*
X265589016Y-92452536D01*
X265662610Y-92432816D01*
X265726345Y-92376300D01*
X265753282Y-92329643D01*
X265770360Y-92246188D01*
X265767718Y-92089140D01*
X265718419Y-91905154D01*
X265642183Y-91767825D01*
X265585666Y-91704091D01*
X265539009Y-91677153D01*
X265455555Y-91660076D01*
%TO.C,D10*%
X257457477Y-55187352D02*
X257250422Y-54414612D01*
X257066436Y-54463911D01*
X256965904Y-54530287D01*
X256912030Y-54623601D01*
X256894952Y-54707055D01*
X256897594Y-54864104D01*
X256927173Y-54974495D01*
X257003410Y-55111824D01*
X257059926Y-55175559D01*
X257153240Y-55229433D01*
X257273491Y-55236651D01*
X257457477Y-55187352D01*
X256279968Y-55502865D02*
X256721534Y-55384548D01*
X256500751Y-55443707D02*
X256293696Y-54670966D01*
X256396869Y-54761638D01*
X256490183Y-54815513D01*
X256573637Y-54832590D01*
X255594549Y-54858302D02*
X255520955Y-54878021D01*
X255457220Y-54934538D01*
X255430283Y-54981195D01*
X255413205Y-55064649D01*
X255415847Y-55221697D01*
X255465146Y-55405683D01*
X255541382Y-55543012D01*
X255597899Y-55606747D01*
X255644556Y-55633684D01*
X255728010Y-55650762D01*
X255801604Y-55631042D01*
X255865339Y-55574526D01*
X255892276Y-55527869D01*
X255909354Y-55444414D01*
X255906712Y-55287366D01*
X255857413Y-55103380D01*
X255781177Y-54966051D01*
X255724660Y-54902317D01*
X255678003Y-54875379D01*
X255594549Y-54858302D01*
%TO.C,D8*%
X216795293Y-52112994D02*
X216588237Y-51340254D01*
X216404251Y-51389552D01*
X216303720Y-51455929D01*
X216249845Y-51549243D01*
X216232767Y-51632697D01*
X216235409Y-51789745D01*
X216264988Y-51900137D01*
X216341225Y-52037466D01*
X216397741Y-52101200D01*
X216491055Y-52155075D01*
X216611307Y-52162293D01*
X216795293Y-52112994D01*
X215793843Y-51908063D02*
X215857578Y-51851546D01*
X215884515Y-51804889D01*
X215901593Y-51721435D01*
X215891733Y-51684638D01*
X215835216Y-51620903D01*
X215788559Y-51593966D01*
X215705105Y-51576888D01*
X215557916Y-51616327D01*
X215494182Y-51672844D01*
X215467244Y-51719501D01*
X215450167Y-51802955D01*
X215460027Y-51839752D01*
X215516543Y-51903487D01*
X215563200Y-51930424D01*
X215646654Y-51947502D01*
X215793843Y-51908063D01*
X215877297Y-51925140D01*
X215923954Y-51952078D01*
X215980471Y-52015812D01*
X216019910Y-52163001D01*
X216002832Y-52246455D01*
X215975895Y-52293112D01*
X215912160Y-52349629D01*
X215764972Y-52389068D01*
X215681518Y-52371990D01*
X215634861Y-52345053D01*
X215578344Y-52281318D01*
X215538905Y-52134130D01*
X215555982Y-52050675D01*
X215582920Y-52004018D01*
X215646654Y-51947502D01*
%TO.C,D32*%
X104846022Y-112406143D02*
X104638967Y-113178884D01*
X104822953Y-113228183D01*
X104943204Y-113220965D01*
X105036518Y-113167090D01*
X105093035Y-113103355D01*
X105169271Y-112966026D01*
X105198851Y-112855635D01*
X105201492Y-112698587D01*
X105184415Y-112615132D01*
X105130540Y-112521818D01*
X105030008Y-112455442D01*
X104846022Y-112406143D01*
X105338113Y-113366219D02*
X105816477Y-113494397D01*
X105637775Y-113131001D01*
X105748166Y-113160580D01*
X105831620Y-113143502D01*
X105878277Y-113116565D01*
X105934794Y-113052830D01*
X105984093Y-112868845D01*
X105967015Y-112785390D01*
X105940078Y-112738733D01*
X105876343Y-112682217D01*
X105655560Y-112623058D01*
X105572106Y-112640136D01*
X105525449Y-112667073D01*
X106130574Y-113499680D02*
X106157511Y-113546337D01*
X106221246Y-113602854D01*
X106405232Y-113652153D01*
X106488686Y-113635075D01*
X106535343Y-113608138D01*
X106591859Y-113544403D01*
X106611579Y-113470809D01*
X106604361Y-113350558D01*
X106281112Y-112790674D01*
X106759475Y-112918851D01*
%TO.C,D13*%
X76869848Y-69607549D02*
X76662793Y-70380290D01*
X76846779Y-70429589D01*
X76967030Y-70422371D01*
X77060344Y-70368496D01*
X77116861Y-70304761D01*
X77193097Y-70167432D01*
X77222677Y-70057041D01*
X77225318Y-69899993D01*
X77208241Y-69816538D01*
X77154366Y-69723224D01*
X77053834Y-69656848D01*
X76869848Y-69607549D01*
X78047358Y-69923062D02*
X77605792Y-69804745D01*
X77826575Y-69863903D02*
X77619520Y-70636644D01*
X77575505Y-70506533D01*
X77521630Y-70413219D01*
X77457895Y-70356702D01*
X78097883Y-70764821D02*
X78576246Y-70892998D01*
X78397544Y-70529602D01*
X78507936Y-70559182D01*
X78591390Y-70542104D01*
X78638047Y-70515166D01*
X78694564Y-70451432D01*
X78743862Y-70267446D01*
X78726785Y-70183992D01*
X78699847Y-70137335D01*
X78636113Y-70080818D01*
X78415330Y-70021660D01*
X78331876Y-70038737D01*
X78285219Y-70065675D01*
%TO.C,D35*%
X194125810Y-113244544D02*
X193918755Y-112471804D01*
X193734769Y-112521103D01*
X193634237Y-112587479D01*
X193580363Y-112680793D01*
X193563285Y-112764247D01*
X193565927Y-112921296D01*
X193595506Y-113031687D01*
X193671743Y-113169016D01*
X193728259Y-113232751D01*
X193821573Y-113286625D01*
X193941824Y-113293843D01*
X194125810Y-113244544D01*
X193219609Y-112659139D02*
X192741245Y-112787317D01*
X193077704Y-113012676D01*
X192967312Y-113042255D01*
X192903578Y-113098772D01*
X192876640Y-113145428D01*
X192859563Y-113228883D01*
X192908862Y-113412868D01*
X192965378Y-113476603D01*
X193012035Y-113503540D01*
X193095489Y-113520618D01*
X193316272Y-113461459D01*
X193380007Y-113404943D01*
X193406944Y-113358286D01*
X192042099Y-112974652D02*
X192410071Y-112876054D01*
X192545466Y-113234166D01*
X192498809Y-113207229D01*
X192415355Y-113190151D01*
X192231369Y-113239450D01*
X192167634Y-113295967D01*
X192140697Y-113342624D01*
X192123619Y-113426078D01*
X192172918Y-113610064D01*
X192229435Y-113673799D01*
X192276092Y-113700736D01*
X192359546Y-113717814D01*
X192543532Y-113668515D01*
X192607266Y-113611998D01*
X192634204Y-113565341D01*
%TO.C,D31*%
X105462335Y-110106032D02*
X105255280Y-110878773D01*
X105439266Y-110928072D01*
X105559517Y-110920854D01*
X105652831Y-110866979D01*
X105709348Y-110803244D01*
X105785584Y-110665915D01*
X105815164Y-110555524D01*
X105817805Y-110398476D01*
X105800728Y-110315021D01*
X105746853Y-110221707D01*
X105646321Y-110155331D01*
X105462335Y-110106032D01*
X105954426Y-111066108D02*
X106432790Y-111194286D01*
X106254088Y-110830890D01*
X106364479Y-110860469D01*
X106447933Y-110843391D01*
X106494590Y-110816454D01*
X106551107Y-110752719D01*
X106600406Y-110568734D01*
X106583328Y-110485279D01*
X106556391Y-110438622D01*
X106492656Y-110382106D01*
X106271873Y-110322947D01*
X106188419Y-110340025D01*
X106141762Y-110366962D01*
X107375788Y-110618740D02*
X106934222Y-110500423D01*
X107155005Y-110559582D02*
X106947950Y-111332322D01*
X106903935Y-111202211D01*
X106850060Y-111108897D01*
X106786326Y-111052381D01*
%TO.C,D5*%
X116710283Y-69600006D02*
X116503228Y-70372747D01*
X116687214Y-70422045D01*
X116807465Y-70414828D01*
X116900779Y-70360953D01*
X116957296Y-70297218D01*
X117033532Y-70159889D01*
X117063111Y-70049498D01*
X117065753Y-69892449D01*
X117048676Y-69808995D01*
X116994801Y-69715681D01*
X116894269Y-69649305D01*
X116710283Y-69600006D01*
X117643940Y-70678399D02*
X117275969Y-70579802D01*
X117337769Y-70201970D01*
X117364707Y-70248627D01*
X117428441Y-70305144D01*
X117612427Y-70354443D01*
X117695881Y-70337365D01*
X117742538Y-70310428D01*
X117799055Y-70246693D01*
X117848354Y-70062707D01*
X117831276Y-69979253D01*
X117804339Y-69932596D01*
X117740604Y-69876080D01*
X117556618Y-69826781D01*
X117473164Y-69843858D01*
X117426507Y-69870796D01*
%TO.C,D11*%
X39695391Y-73330607D02*
X40089831Y-71858536D01*
X40212504Y-71891406D02*
X39818063Y-73363477D01*
X40457849Y-71957146D02*
X35550946Y-70642345D01*
X39967158Y-71825666D02*
X39572718Y-73297737D01*
X35550946Y-70642345D02*
X35156505Y-72114416D01*
X39450046Y-73264867D02*
X39844486Y-71792796D01*
X40063408Y-73429217D02*
X40457849Y-71957146D01*
X35156505Y-72114416D02*
X40063408Y-73429217D01*
X39327373Y-73231997D02*
X39721813Y-71759926D01*
X39940736Y-73396347D02*
X40335176Y-71924276D01*
%TO.C,D7*%
X200390737Y-58826147D02*
X200785177Y-60298218D01*
X200636082Y-58760407D02*
X201030523Y-60232478D01*
X200907850Y-60265348D02*
X200513410Y-58793277D01*
X200662505Y-60331088D02*
X200268065Y-58859017D01*
X196368965Y-61481539D02*
X201275868Y-60166738D01*
X200881427Y-58694667D02*
X195974524Y-60009468D01*
X195974524Y-60009468D02*
X196368965Y-61481539D01*
X201153195Y-60199608D02*
X200758755Y-58727537D01*
X200539832Y-60363958D02*
X200145392Y-58891887D01*
X201275868Y-60166738D02*
X200881427Y-58694667D01*
%TO.C,D20*%
X262783714Y-70869265D02*
X263178154Y-72341336D01*
X263668845Y-72209856D02*
X263274404Y-70737785D01*
X263029059Y-70803525D02*
X263423500Y-72275596D01*
X258367501Y-72052586D02*
X258761942Y-73524657D01*
X258761942Y-73524657D02*
X263668845Y-72209856D01*
X262932809Y-72407076D02*
X262538369Y-70935005D01*
X263300827Y-72308466D02*
X262906387Y-70836395D01*
X263274404Y-70737785D02*
X258367501Y-72052586D01*
X263055482Y-72374206D02*
X262661042Y-70902135D01*
X263546172Y-72242726D02*
X263151732Y-70770655D01*
%TO.C,D4*%
X97943923Y-58599227D02*
X97549482Y-60071298D01*
X102850826Y-59914028D02*
X97943923Y-58599227D01*
X101843023Y-61221749D02*
X102237463Y-59749678D01*
X102605481Y-59848288D02*
X102211040Y-61320359D01*
X101720350Y-61188879D02*
X102114790Y-59716808D01*
X97549482Y-60071298D02*
X102456385Y-61386099D01*
X102333713Y-61353229D02*
X102728153Y-59881158D01*
X102456385Y-61386099D02*
X102850826Y-59914028D01*
X102088368Y-61287489D02*
X102482808Y-59815418D01*
X102360135Y-59782548D02*
X101965695Y-61254619D01*
%TO.C,D15*%
X114531564Y-88452397D02*
X114926004Y-86980326D01*
X109992678Y-87236206D02*
X114899581Y-88551007D01*
X110387119Y-85764135D02*
X109992678Y-87236206D01*
X114776909Y-88518137D02*
X115171349Y-87046066D01*
X114899581Y-88551007D02*
X115294022Y-87078936D01*
X114163546Y-88353787D02*
X114557986Y-86881716D01*
X114803331Y-86947456D02*
X114408891Y-88419527D01*
X115048677Y-87013196D02*
X114654236Y-88485267D01*
X114286219Y-88386657D02*
X114680659Y-86914586D01*
X115294022Y-87078936D02*
X110387119Y-85764135D01*
%TO.C,D25*%
X109872829Y-105348343D02*
X109478389Y-106820414D01*
X105456617Y-104165022D02*
X105062176Y-105637093D01*
X109355717Y-106787544D02*
X109750157Y-105315473D01*
X110363520Y-105479823D02*
X105456617Y-104165022D01*
X105062176Y-105637093D02*
X109969079Y-106951894D01*
X110118175Y-105414083D02*
X109723734Y-106886154D01*
X109601062Y-106853284D02*
X109995502Y-105381213D01*
X109233044Y-106754674D02*
X109627484Y-105282603D01*
X109969079Y-106951894D02*
X110363520Y-105479823D01*
X109846407Y-106919024D02*
X110240847Y-105446953D01*
%TO.C,D17*%
X201299467Y-79882426D02*
X206206370Y-78567625D01*
X200905026Y-78410355D02*
X201299467Y-79882426D01*
X205838352Y-78666235D02*
X205443912Y-77194164D01*
X205566584Y-77161294D02*
X205961025Y-78633365D01*
X206083697Y-78600495D02*
X205689257Y-77128424D01*
X205811929Y-77095554D02*
X200905026Y-78410355D01*
X205593007Y-78731975D02*
X205198567Y-77259904D01*
X205470334Y-78764845D02*
X205075894Y-77292774D01*
X206206370Y-78567625D02*
X205811929Y-77095554D01*
X205321239Y-77227034D02*
X205715679Y-78699105D01*
%TO.C,D19*%
X242613703Y-67234548D02*
X237706800Y-68549349D01*
X237706800Y-68549349D02*
X238101241Y-70021420D01*
X242123013Y-67366028D02*
X242517453Y-68838099D01*
X242885471Y-68739489D02*
X242491031Y-67267418D01*
X242640126Y-68805229D02*
X242245686Y-67333158D01*
X242272108Y-68903839D02*
X241877668Y-67431768D01*
X243008144Y-68706619D02*
X242613703Y-67234548D01*
X242368358Y-67300288D02*
X242762799Y-68772359D01*
X238101241Y-70021420D02*
X243008144Y-68706619D01*
X242394781Y-68870969D02*
X242000341Y-67398898D01*
%TO.C,D14*%
X97429632Y-78183435D02*
X97035192Y-79655506D01*
X92618979Y-78472185D02*
X97525882Y-79786986D01*
X96912520Y-79622636D02*
X97306960Y-78150565D01*
X97157865Y-79688376D02*
X97552305Y-78216305D01*
X97920323Y-78314915D02*
X93013420Y-77000114D01*
X97525882Y-79786986D02*
X97920323Y-78314915D01*
X96789847Y-79589766D02*
X97184287Y-78117695D01*
X97403210Y-79754116D02*
X97797650Y-78282045D01*
X97674978Y-78249175D02*
X97280537Y-79721246D01*
X93013420Y-77000114D02*
X92618979Y-78472185D01*
%TO.C,D23*%
X75576214Y-87119337D02*
X75181773Y-88591408D01*
X70520215Y-87342347D02*
X75427118Y-88657148D01*
X70914656Y-85870276D02*
X70520215Y-87342347D01*
X75330868Y-87053597D02*
X74936428Y-88525668D01*
X75304446Y-88624278D02*
X75698886Y-87152207D01*
X74691083Y-88459928D02*
X75085523Y-86987857D01*
X75427118Y-88657148D02*
X75821559Y-87185077D01*
X75821559Y-87185077D02*
X70914656Y-85870276D01*
X75059101Y-88558538D02*
X75453541Y-87086467D01*
X74813756Y-88492798D02*
X75208196Y-87020727D01*
%TO.C,D18*%
X223374632Y-69036900D02*
X222980191Y-67564829D01*
X222489501Y-67696309D02*
X222883941Y-69168380D01*
X223251959Y-69069770D02*
X222857519Y-67597699D01*
X222980191Y-67564829D02*
X218073288Y-68879630D01*
X223006614Y-69135510D02*
X222612174Y-67663439D01*
X218073288Y-68879630D02*
X218467729Y-70351701D01*
X218467729Y-70351701D02*
X223374632Y-69036900D01*
X222638596Y-69234120D02*
X222244156Y-67762049D01*
X222734846Y-67630569D02*
X223129287Y-69102640D01*
X222761269Y-69201250D02*
X222366829Y-67729179D01*
%TO.C,D12*%
X60724108Y-69925980D02*
X61118549Y-68453909D01*
X59988073Y-69728760D02*
X60382513Y-68256689D01*
X60627858Y-68322429D02*
X60233418Y-69794500D01*
X56211646Y-67139108D02*
X55817205Y-68611179D01*
X60110746Y-69761630D02*
X60505186Y-68289559D01*
X60873204Y-68388169D02*
X60478763Y-69860240D01*
X55817205Y-68611179D02*
X60724108Y-69925980D01*
X61118549Y-68453909D02*
X56211646Y-67139108D01*
X60601436Y-69893110D02*
X60995876Y-68421039D01*
X60356091Y-69827370D02*
X60750531Y-68355299D01*
%TO.C,D22*%
X55057571Y-88129647D02*
X55452011Y-86657576D01*
X50886703Y-87012066D02*
X55793606Y-88326867D01*
X55942702Y-86789056D02*
X55548261Y-88261127D01*
X55425589Y-88228257D02*
X55820029Y-86756186D01*
X55670934Y-88293997D02*
X56065374Y-86821926D01*
X51281144Y-85539995D02*
X50886703Y-87012066D01*
X55180244Y-88162517D02*
X55574684Y-86690446D01*
X56188047Y-86854796D02*
X51281144Y-85539995D01*
X55697356Y-86723316D02*
X55302916Y-88195387D01*
X55793606Y-88326867D02*
X56188047Y-86854796D01*
%TO.C,D24*%
X92989821Y-96715802D02*
X88082918Y-95401001D01*
X92472708Y-98155003D02*
X92867148Y-96682932D01*
X88082918Y-95401001D02*
X87688477Y-96873072D01*
X92227363Y-98089263D02*
X92621803Y-96617192D01*
X92499130Y-96584322D02*
X92104690Y-98056393D01*
X92744476Y-96650062D02*
X92350035Y-98122133D01*
X91982018Y-98023523D02*
X92376458Y-96551452D01*
X92595380Y-98187873D02*
X92989821Y-96715802D01*
X91859345Y-97990653D02*
X92253785Y-96518582D01*
X87688477Y-96873072D02*
X92595380Y-98187873D01*
%TO.C,D3*%
X84560058Y-51660290D02*
X84954498Y-50188219D01*
X85322516Y-50286829D02*
X84928075Y-51758900D01*
X85173420Y-51824640D02*
X85567861Y-50352569D01*
X84805403Y-51726030D02*
X85199843Y-50253959D01*
X84437385Y-51627420D02*
X84831825Y-50155349D01*
X85077170Y-50221089D02*
X84682730Y-51693160D01*
X80660958Y-49037768D02*
X80266517Y-50509839D01*
X80266517Y-50509839D02*
X85173420Y-51824640D01*
X85567861Y-50352569D02*
X80660958Y-49037768D01*
X85050748Y-51791770D02*
X85445188Y-50319699D01*
%TO.C,D21*%
X35527346Y-90358033D02*
X30620443Y-89043232D01*
X35132905Y-91830104D02*
X35527346Y-90358033D01*
X30620443Y-89043232D02*
X30226002Y-90515303D01*
X34396870Y-91632884D02*
X34791310Y-90160813D01*
X35282001Y-90292293D02*
X34887560Y-91764364D01*
X35036655Y-90226553D02*
X34642215Y-91698624D01*
X34764888Y-91731494D02*
X35159328Y-90259423D01*
X30226002Y-90515303D02*
X35132905Y-91830104D01*
X35010233Y-91797234D02*
X35404673Y-90325163D01*
X34519543Y-91665754D02*
X34913983Y-90193683D01*
%TO.C,D6*%
X178995266Y-70245559D02*
X183902169Y-68930758D01*
X183507728Y-67458687D02*
X178600825Y-68773488D01*
X183166133Y-69127978D02*
X182771693Y-67655907D01*
X183288806Y-69095108D02*
X182894366Y-67623037D01*
X178600825Y-68773488D02*
X178995266Y-70245559D01*
X183779496Y-68963628D02*
X183385056Y-67491557D01*
X183017038Y-67590167D02*
X183411478Y-69062238D01*
X183902169Y-68930758D02*
X183507728Y-67458687D01*
X183534151Y-69029368D02*
X183139711Y-67557297D01*
X183262383Y-67524427D02*
X183656824Y-68996498D01*
%TO.C,D1*%
X44446956Y-54881774D02*
X44841396Y-53409703D01*
X45454759Y-53574053D02*
X40547856Y-52259252D01*
X44324283Y-54848904D02*
X44718723Y-53376833D01*
X44692301Y-54947514D02*
X45086741Y-53475443D01*
X45060318Y-55046124D02*
X45454759Y-53574053D01*
X44937646Y-55013254D02*
X45332086Y-53541183D01*
X45209414Y-53508313D02*
X44814973Y-54980384D01*
X44964068Y-53442573D02*
X44569628Y-54914644D01*
X40547856Y-52259252D02*
X40153415Y-53731323D01*
X40153415Y-53731323D02*
X45060318Y-55046124D01*
%TO.C,D36*%
X194584925Y-108799347D02*
X194190484Y-107327276D01*
X189283581Y-108642077D02*
X189678022Y-110114148D01*
X193945139Y-107393016D02*
X194339580Y-108865087D01*
X193971562Y-108963697D02*
X193577122Y-107491626D01*
X193848889Y-108996567D02*
X193454449Y-107524496D01*
X189678022Y-110114148D02*
X194584925Y-108799347D01*
X194216907Y-108897957D02*
X193822467Y-107425886D01*
X194190484Y-107327276D02*
X189283581Y-108642077D01*
X194462252Y-108832217D02*
X194067812Y-107360146D01*
X193699794Y-107458756D02*
X194094234Y-108930827D01*
%TO.C,D34*%
X195343295Y-113592385D02*
X195737735Y-115064456D01*
X195860408Y-115031586D02*
X195465968Y-113559515D01*
X195833985Y-113460905D02*
X190927082Y-114775706D01*
X195588640Y-113526645D02*
X195983081Y-114998716D01*
X190927082Y-114775706D02*
X191321523Y-116247777D01*
X191321523Y-116247777D02*
X196228426Y-114932976D01*
X195615063Y-115097326D02*
X195220623Y-113625255D01*
X195492390Y-115130196D02*
X195097950Y-113658125D01*
X196105753Y-114965846D02*
X195711313Y-113493775D01*
X196228426Y-114932976D02*
X195833985Y-113460905D01*
%TO.C,D26*%
X193395156Y-105831142D02*
X193000716Y-104359071D01*
X188461830Y-105575262D02*
X188856271Y-107047333D01*
X193027138Y-105929752D02*
X192632698Y-104457681D01*
X188856271Y-107047333D02*
X193763174Y-105732532D01*
X193763174Y-105732532D02*
X193368733Y-104260461D01*
X193640501Y-105765402D02*
X193246061Y-104293331D01*
X192878043Y-104391941D02*
X193272483Y-105864012D01*
X193149811Y-105896882D02*
X192755371Y-104424811D01*
X193123388Y-104326201D02*
X193517829Y-105798272D01*
X193368733Y-104260461D02*
X188461830Y-105575262D01*
%TO.C,D27*%
X210251742Y-95627921D02*
X210646182Y-97099992D01*
X211014200Y-97001382D02*
X210619760Y-95529311D01*
X210400837Y-97165732D02*
X210006397Y-95693661D01*
X205835529Y-96811242D02*
X206229970Y-98283313D01*
X210742432Y-95496441D02*
X205835529Y-96811242D01*
X210523510Y-97132862D02*
X210129070Y-95660791D01*
X211136873Y-96968512D02*
X210742432Y-95496441D01*
X206229970Y-98283313D02*
X211136873Y-96968512D01*
X210497087Y-95562181D02*
X210891528Y-97034252D01*
X210768855Y-97067122D02*
X210374415Y-95595051D01*
%TO.C,D29*%
X247815974Y-87140376D02*
X247421534Y-85668305D01*
X247202611Y-87304726D02*
X246808171Y-85832655D01*
X247570629Y-87206116D02*
X247176189Y-85734045D01*
X247298861Y-85701175D02*
X247693302Y-87173246D01*
X247325284Y-87271856D02*
X246930844Y-85799785D01*
X247053516Y-85766915D02*
X247447956Y-87238986D01*
X242637303Y-86950236D02*
X243031744Y-88422307D01*
X247938647Y-87107506D02*
X247544206Y-85635435D01*
X243031744Y-88422307D02*
X247938647Y-87107506D01*
X247544206Y-85635435D02*
X242637303Y-86950236D01*
%TO.C,D2*%
X65041249Y-51360743D02*
X65435689Y-49888672D01*
X65803707Y-49987282D02*
X65409266Y-51459353D01*
X60747708Y-50210292D02*
X65654611Y-51525093D01*
X65654611Y-51525093D02*
X66049052Y-50053022D01*
X65531939Y-51492223D02*
X65926379Y-50020152D01*
X65286594Y-51426483D02*
X65681034Y-49954412D01*
X61142149Y-48738221D02*
X60747708Y-50210292D01*
X64918576Y-51327873D02*
X65313016Y-49855802D01*
X65558361Y-49921542D02*
X65163921Y-51393613D01*
X66049052Y-50053022D02*
X61142149Y-48738221D01*
%TO.C,D33*%
X107415795Y-114518118D02*
X107021355Y-115990189D01*
X102999583Y-113334797D02*
X102605142Y-114806868D01*
X107389373Y-116088799D02*
X107783813Y-114616728D01*
X106898683Y-115957319D02*
X107293123Y-114485248D01*
X102605142Y-114806868D02*
X107512045Y-116121669D01*
X107661141Y-114583858D02*
X107266700Y-116055929D01*
X106776010Y-115924449D02*
X107170450Y-114452378D01*
X107512045Y-116121669D02*
X107906486Y-114649598D01*
X107144028Y-116023059D02*
X107538468Y-114550988D01*
X107906486Y-114649598D02*
X102999583Y-113334797D01*
%TO.C,D9*%
X233056035Y-51651268D02*
X237962938Y-50336467D01*
X237568497Y-48864396D02*
X232661594Y-50179197D01*
X237226902Y-50533687D02*
X236832462Y-49061616D01*
X237349575Y-50500817D02*
X236955135Y-49028746D01*
X237323152Y-48930136D02*
X237717593Y-50402207D01*
X237077807Y-48995876D02*
X237472247Y-50467947D01*
X237840265Y-50369337D02*
X237445825Y-48897266D01*
X237962938Y-50336467D02*
X237568497Y-48864396D01*
X237594920Y-50435077D02*
X237200480Y-48963006D01*
X232661594Y-50179197D02*
X233056035Y-51651268D01*
%TO.C,D16*%
X188832672Y-87331645D02*
X188438231Y-85859574D01*
X183531328Y-87174375D02*
X183925769Y-88646446D01*
X188438231Y-85859574D02*
X183531328Y-87174375D01*
X188464654Y-87430255D02*
X188070214Y-85958184D01*
X188096636Y-87528865D02*
X187702196Y-86056794D01*
X188219309Y-87495995D02*
X187824869Y-86023924D01*
X183925769Y-88646446D02*
X188832672Y-87331645D01*
X187947541Y-85991054D02*
X188341981Y-87463125D01*
X188192886Y-85925314D02*
X188587327Y-87397385D01*
X188709999Y-87364515D02*
X188315559Y-85892444D01*
%TO.C,D28*%
X223003791Y-87280517D02*
X223398232Y-88752588D01*
X228182462Y-87470657D02*
X227788022Y-85998586D01*
X227665349Y-86031456D02*
X228059790Y-87503527D01*
X227569099Y-87635007D02*
X227174659Y-86162936D01*
X223398232Y-88752588D02*
X228305135Y-87437787D01*
X228305135Y-87437787D02*
X227910694Y-85965716D01*
X227420004Y-86097196D02*
X227814444Y-87569267D01*
X227937117Y-87536397D02*
X227542677Y-86064326D01*
X227691772Y-87602137D02*
X227297332Y-86130066D01*
X227910694Y-85965716D02*
X223003791Y-87280517D01*
%TO.C,D30*%
X268476675Y-90643613D02*
X268082235Y-89171542D01*
X263298004Y-90453473D02*
X263692445Y-91925544D01*
X267985985Y-90775093D02*
X267591545Y-89303022D01*
X268599348Y-90610743D02*
X268204907Y-89138672D01*
X267714217Y-89270152D02*
X268108657Y-90742223D01*
X267959562Y-89204412D02*
X268354003Y-90676483D01*
X263692445Y-91925544D02*
X268599348Y-90610743D01*
X267863312Y-90807963D02*
X267468872Y-89335892D01*
X268204907Y-89138672D02*
X263298004Y-90453473D01*
X268231330Y-90709353D02*
X267836890Y-89237282D01*
%TO.C,D10*%
X258124979Y-53973319D02*
X257730539Y-52501248D01*
X258343901Y-52336898D02*
X253436998Y-53651699D01*
X258002306Y-54006189D02*
X257607866Y-52534118D01*
X253436998Y-53651699D02*
X253831439Y-55123770D01*
X253831439Y-55123770D02*
X258738342Y-53808969D01*
X258370324Y-53907579D02*
X257975884Y-52435508D01*
X258098556Y-52402638D02*
X258492997Y-53874709D01*
X258615669Y-53841839D02*
X258221229Y-52369768D01*
X257853211Y-52468378D02*
X258247651Y-53940449D01*
X258738342Y-53808969D02*
X258343901Y-52336898D01*
%TO.C,D8*%
X217708093Y-50833233D02*
X217313653Y-49361162D01*
X218076111Y-50734623D02*
X217681671Y-49262552D01*
X218049688Y-49163942D02*
X213142785Y-50478743D01*
X218321456Y-50668883D02*
X217927016Y-49196812D01*
X217830766Y-50800363D02*
X217436326Y-49328292D01*
X217804343Y-49229682D02*
X218198784Y-50701753D01*
X217558998Y-49295422D02*
X217953438Y-50767493D01*
X213142785Y-50478743D02*
X213537226Y-51950814D01*
X218444129Y-50636013D02*
X218049688Y-49163942D01*
X213537226Y-51950814D02*
X218444129Y-50636013D01*
%TO.C,D32*%
X108237545Y-111451304D02*
X107843105Y-112923375D01*
X108728236Y-111582784D02*
X103821333Y-110267983D01*
X103426892Y-111740054D02*
X108333795Y-113054855D01*
X103821333Y-110267983D02*
X103426892Y-111740054D01*
X108333795Y-113054855D02*
X108728236Y-111582784D01*
X107597760Y-112857635D02*
X107992200Y-111385564D01*
X108211123Y-113021985D02*
X108605563Y-111549914D01*
X107720433Y-112890505D02*
X108114873Y-111418434D01*
X108482891Y-111517044D02*
X108088450Y-112989115D01*
X107965778Y-112956245D02*
X108360218Y-111484174D01*
%TO.C,D13*%
X75450718Y-68941460D02*
X80357621Y-70256261D01*
X80506717Y-68718450D02*
X80112276Y-70190521D01*
X79621586Y-70059041D02*
X80016026Y-68586970D01*
X75845159Y-67469389D02*
X75450718Y-68941460D01*
X80752062Y-68784190D02*
X75845159Y-67469389D01*
X79744259Y-70091911D02*
X80138699Y-68619840D01*
X80234949Y-70223391D02*
X80629389Y-68751320D01*
X80261371Y-68652710D02*
X79866931Y-70124781D01*
X79989604Y-70157651D02*
X80384044Y-68685580D01*
X80357621Y-70256261D02*
X80752062Y-68784190D01*
%TO.C,D35*%
X190499772Y-113180962D02*
X195406675Y-111866161D01*
X194521544Y-110525570D02*
X194915984Y-111997641D01*
X195284002Y-111899031D02*
X194889562Y-110426960D01*
X195406675Y-111866161D02*
X195012234Y-110394090D01*
X195038657Y-111964771D02*
X194644217Y-110492700D01*
X194793312Y-112030511D02*
X194398872Y-110558440D01*
X194670639Y-112063381D02*
X194276199Y-110591310D01*
X194766889Y-110459830D02*
X195161330Y-111931901D01*
X195012234Y-110394090D02*
X190105331Y-111708891D01*
X190105331Y-111708891D02*
X190499772Y-113180962D01*
%TO.C,D31*%
X109296424Y-108480897D02*
X108901983Y-109952968D01*
X104240425Y-108703907D02*
X109147328Y-110018708D01*
X109541769Y-108546637D02*
X104634866Y-107231836D01*
X109051078Y-108415157D02*
X108656638Y-109887228D01*
X109024656Y-109985838D02*
X109419096Y-108513767D01*
X108411293Y-109821488D02*
X108805733Y-108349417D01*
X109147328Y-110018708D02*
X109541769Y-108546637D01*
X104634866Y-107231836D02*
X104240425Y-108703907D01*
X108533966Y-109854358D02*
X108928406Y-108382287D01*
X108779311Y-109920098D02*
X109173751Y-108448027D01*
%TO.C,D5*%
X115317622Y-67363248D02*
X114923181Y-68835319D01*
X119830084Y-70150120D02*
X120224525Y-68678049D01*
X119462067Y-70051510D02*
X119856507Y-68579439D01*
X119707412Y-70117250D02*
X120101852Y-68645179D01*
X119979180Y-68612309D02*
X119584739Y-70084380D01*
X120224525Y-68678049D02*
X115317622Y-67363248D01*
X119094049Y-69952900D02*
X119488489Y-68480829D01*
X114923181Y-68835319D02*
X119830084Y-70150120D01*
X119216722Y-69985770D02*
X119611162Y-68513699D01*
X119733834Y-68546569D02*
X119339394Y-70018640D01*
%TD*%
%LPC*%
D11*
%TO.C,MX24*%
X86731487Y-90722562D03*
X91017597Y-94045101D03*
D12*
X92544629Y-88346139D03*
D13*
X87232037Y-86922634D03*
X97857221Y-89769644D03*
%TD*%
D14*
%TO.C,D11*%
X39159473Y-72398128D03*
D15*
X41574288Y-73045175D03*
D16*
X34040066Y-71026387D03*
D14*
X36454881Y-71673434D03*
%TD*%
D17*
%TO.C,D7*%
X199977492Y-59725756D03*
D18*
X202392307Y-59078709D03*
D17*
X197272900Y-60450450D03*
D16*
X194858085Y-61097497D03*
%TD*%
D11*
%TO.C,MX2*%
X59790719Y-44059782D03*
X64076829Y-47382321D03*
D13*
X60291269Y-40259854D03*
X70916453Y-43106864D03*
D12*
X65603861Y-41683359D03*
%TD*%
D18*
%TO.C,D20*%
X264785284Y-71121827D03*
D17*
X262370469Y-71768874D03*
X259665877Y-72493568D03*
D16*
X257251062Y-73140615D03*
%TD*%
D11*
%TO.C,MX28*%
X219439865Y-83919142D03*
X224813014Y-84653491D03*
D13*
X217973390Y-80378034D03*
D12*
X223285982Y-78954529D03*
D13*
X228598574Y-77531024D03*
%TD*%
D15*
%TO.C,D4*%
X103967265Y-61002057D03*
D14*
X101552450Y-60355010D03*
D16*
X96433043Y-58983269D03*
D14*
X98847858Y-59630316D03*
%TD*%
%TO.C,D15*%
X113995646Y-87519918D03*
D15*
X116410461Y-88166965D03*
D16*
X108876239Y-86148177D03*
D14*
X111291054Y-86795224D03*
%TD*%
D15*
%TO.C,D25*%
X111479959Y-106567852D03*
D14*
X109065144Y-105920805D03*
X106360552Y-105196111D03*
D16*
X103945737Y-104549064D03*
%TD*%
D11*
%TO.C,MX11*%
X34253848Y-65978465D03*
X38539958Y-69301004D03*
D12*
X40066990Y-63602042D03*
D13*
X34754398Y-62178537D03*
X45379582Y-65025547D03*
%TD*%
D17*
%TO.C,D17*%
X204907994Y-78126643D03*
D18*
X207322809Y-77479596D03*
D17*
X202203402Y-78851337D03*
D16*
X199788587Y-79498384D03*
%TD*%
D18*
%TO.C,D19*%
X244124583Y-67618590D03*
D17*
X241709768Y-68265637D03*
X239005176Y-68990331D03*
D16*
X236590361Y-69637378D03*
%TD*%
D11*
%TO.C,MX3*%
X79424231Y-44390063D03*
X83710341Y-47712602D03*
D13*
X79924781Y-40590135D03*
D12*
X85237373Y-42013640D03*
D13*
X90549965Y-43437145D03*
%TD*%
D14*
%TO.C,D14*%
X96621947Y-78755897D03*
D15*
X99036762Y-79402944D03*
D14*
X93917355Y-78031203D03*
D16*
X91502540Y-77384156D03*
%TD*%
D14*
%TO.C,D23*%
X74523183Y-87626059D03*
D15*
X76937998Y-88273106D03*
D14*
X71818591Y-86901365D03*
D16*
X69403776Y-86254318D03*
%TD*%
D11*
%TO.C,MX17*%
X197341101Y-75048980D03*
X202714250Y-75783329D03*
D13*
X195874626Y-71507872D03*
D12*
X201187218Y-70084367D03*
D13*
X206499810Y-68660862D03*
%TD*%
D11*
%TO.C,MX35*%
X202560575Y-127775631D03*
X207860846Y-126627968D03*
D13*
X199971409Y-124949641D03*
D12*
X204476745Y-121794971D03*
D13*
X208982081Y-118640301D03*
%TD*%
D17*
%TO.C,D18*%
X222076256Y-68595918D03*
D18*
X224491071Y-67948871D03*
D16*
X216956849Y-69967659D03*
D17*
X219371664Y-69320612D03*
%TD*%
D15*
%TO.C,D12*%
X62234988Y-69541938D03*
D14*
X59820173Y-68894891D03*
X57115581Y-68170197D03*
D16*
X54700766Y-67523150D03*
%TD*%
D11*
%TO.C,MX21*%
X29323346Y-84379352D03*
X33609456Y-87701891D03*
D13*
X29823896Y-80579424D03*
D12*
X35136488Y-82002929D03*
D13*
X40449080Y-83426434D03*
%TD*%
D15*
%TO.C,D22*%
X57304486Y-87942825D03*
D14*
X54889671Y-87295778D03*
X52185079Y-86571084D03*
D16*
X49770264Y-85924037D03*
%TD*%
D14*
%TO.C,D24*%
X91691445Y-97156784D03*
D15*
X94106260Y-97803831D03*
D16*
X86572038Y-95785043D03*
D14*
X88986853Y-96432090D03*
%TD*%
D15*
%TO.C,D3*%
X86684300Y-51440598D03*
D14*
X84269485Y-50793551D03*
X81564893Y-50068857D03*
D16*
X79150078Y-49421810D03*
%TD*%
D15*
%TO.C,D21*%
X36643785Y-91446062D03*
D14*
X34228970Y-90799015D03*
X31524378Y-90074321D03*
D16*
X29109563Y-89427274D03*
%TD*%
D11*
%TO.C,MX9*%
X229212372Y-46787087D03*
X234585521Y-47521436D03*
D13*
X238371081Y-40398969D03*
X227745897Y-43245979D03*
D12*
X233058489Y-41822474D03*
%TD*%
D11*
%TO.C,MX22*%
X49929713Y-80861556D03*
X54215823Y-84184095D03*
D12*
X55742855Y-78485133D03*
D13*
X50430263Y-77061628D03*
X61055447Y-79908638D03*
%TD*%
D11*
%TO.C,MX1*%
X39184351Y-47577578D03*
X43470461Y-50900117D03*
D13*
X39684901Y-43777650D03*
X50310085Y-46624660D03*
D12*
X44997493Y-45201155D03*
%TD*%
D11*
%TO.C,MX26*%
X184952238Y-102199329D03*
X190325387Y-102933678D03*
D13*
X194110947Y-95811211D03*
D12*
X188798355Y-97234716D03*
D13*
X183485763Y-98658221D03*
%TD*%
D11*
%TO.C,MX33*%
X108306094Y-134475730D03*
X110356704Y-139496188D03*
D12*
X114528634Y-135324258D03*
D13*
X110639547Y-131435171D03*
X118417721Y-139213345D03*
%TD*%
D11*
%TO.C,MX5*%
X114074858Y-62713926D03*
X118360968Y-66036465D03*
D13*
X114575408Y-58913998D03*
D12*
X119888000Y-60337503D03*
D13*
X125200592Y-61761008D03*
%TD*%
D17*
%TO.C,D6*%
X182603793Y-68489776D03*
D18*
X185018608Y-67842729D03*
D16*
X177484386Y-69861517D03*
D17*
X179899201Y-69214470D03*
%TD*%
D15*
%TO.C,D1*%
X46571198Y-54662082D03*
D14*
X44156383Y-54015035D03*
D16*
X39036976Y-52643294D03*
D14*
X41451791Y-53290341D03*
%TD*%
D11*
%TO.C,MX30*%
X259788412Y-87077540D03*
X265161561Y-87811889D03*
D13*
X258321937Y-83536432D03*
X268947121Y-80689422D03*
D12*
X263634529Y-82112927D03*
%TD*%
D11*
%TO.C,MX10*%
X249927406Y-50275766D03*
X255300555Y-51010115D03*
D13*
X248460931Y-46734658D03*
X259086115Y-43887648D03*
D12*
X253773523Y-45311153D03*
%TD*%
D11*
%TO.C,MX6*%
X175145566Y-65382997D03*
X180518715Y-66117346D03*
D12*
X178991683Y-60418384D03*
D13*
X173679091Y-61841889D03*
X184304275Y-58994879D03*
%TD*%
D11*
%TO.C,MX14*%
X91661990Y-72321675D03*
X95948100Y-75644214D03*
D13*
X102787724Y-71368757D03*
X92162540Y-68521747D03*
D12*
X97475132Y-69945252D03*
%TD*%
D18*
%TO.C,D36*%
X195701364Y-107711318D03*
D17*
X193286549Y-108358365D03*
D16*
X188167142Y-109730106D03*
D17*
X190581957Y-109083059D03*
%TD*%
D11*
%TO.C,MX16*%
X180021735Y-83798442D03*
X185394884Y-84532791D03*
D12*
X183867852Y-78833829D03*
D13*
X178555260Y-80257334D03*
X189180444Y-77410324D03*
%TD*%
D11*
%TO.C,MX23*%
X69563226Y-81191837D03*
X73849336Y-84514376D03*
D13*
X70063776Y-77391909D03*
X80688960Y-80238919D03*
D12*
X75376368Y-78815414D03*
%TD*%
D11*
%TO.C,MX13*%
X74493729Y-62790950D03*
X78779839Y-66113489D03*
D12*
X80306871Y-60414527D03*
D13*
X85619463Y-61838032D03*
X74994279Y-58991022D03*
%TD*%
D11*
%TO.C,MX19*%
X234142875Y-65187974D03*
X239516024Y-65922323D03*
D12*
X237988992Y-60223361D03*
D13*
X232676400Y-61646866D03*
X243301584Y-58799856D03*
%TD*%
D11*
%TO.C,MX32*%
X88839957Y-122149865D03*
X91731207Y-126737966D03*
D12*
X95115308Y-121904969D03*
D13*
X99620644Y-125059639D03*
X90609972Y-118750299D03*
%TD*%
D19*
%TO.C,U1*%
X151638000Y-94766000D03*
D20*
X149098000Y-94766000D03*
D19*
X146558000Y-94766000D03*
X157988000Y-46736000D03*
X157988000Y-49276000D03*
D20*
X157988000Y-51816000D03*
D19*
X157988000Y-54356000D03*
X157988000Y-56896000D03*
X157988000Y-59436000D03*
X157988000Y-61976000D03*
D20*
X157988000Y-64516000D03*
D19*
X157988000Y-67056000D03*
X157988000Y-69596000D03*
X157988000Y-72136000D03*
X157988000Y-74676000D03*
D20*
X157988000Y-77216000D03*
D19*
X157988000Y-79756000D03*
X157988000Y-82296000D03*
X157988000Y-84836000D03*
X157988000Y-87376000D03*
D20*
X157988000Y-89916000D03*
D19*
X157988000Y-92456000D03*
X157988000Y-94996000D03*
X140208000Y-94996000D03*
X140208000Y-92456000D03*
D20*
X140208000Y-89916000D03*
D19*
X140208000Y-87376000D03*
X140208000Y-84836000D03*
X140208000Y-82296000D03*
X140208000Y-79756000D03*
D20*
X140208000Y-77216000D03*
D19*
X140208000Y-74676000D03*
X140208000Y-72136000D03*
X140208000Y-69596000D03*
X140208000Y-67056000D03*
D20*
X140208000Y-64516000D03*
D19*
X140208000Y-61976000D03*
X140208000Y-59436000D03*
X140208000Y-56896000D03*
X140208000Y-54356000D03*
D20*
X140208000Y-51816000D03*
D19*
X140208000Y-49276000D03*
X140208000Y-46736000D03*
D21*
X146373000Y-46866000D03*
D22*
X146673000Y-49896000D03*
D21*
X151823000Y-46866000D03*
D22*
X151523000Y-49896000D03*
%TD*%
D17*
%TO.C,D34*%
X194930050Y-114491994D03*
D18*
X197344865Y-113844947D03*
D17*
X192225458Y-115216688D03*
D16*
X189810643Y-115863735D03*
%TD*%
D18*
%TO.C,D26*%
X194879613Y-104644503D03*
D17*
X192464798Y-105291550D03*
D16*
X187345391Y-106663291D03*
D17*
X189760206Y-106016244D03*
%TD*%
D11*
%TO.C,MX34*%
X184214892Y-141436800D03*
X189235350Y-139386190D03*
D13*
X188952507Y-131325173D03*
X181174333Y-139103347D03*
D12*
X185063420Y-135214260D03*
%TD*%
D11*
%TO.C,MX15*%
X109090022Y-81100254D03*
X113376132Y-84422793D03*
D12*
X114903164Y-78723831D03*
D13*
X120215756Y-80147336D03*
X109590572Y-77300326D03*
%TD*%
D11*
%TO.C,MX7*%
X192464931Y-56633534D03*
X197838080Y-57367883D03*
D13*
X190998456Y-53092426D03*
X201623640Y-50245416D03*
D12*
X196311048Y-51668921D03*
%TD*%
D11*
%TO.C,MX25*%
X104159519Y-99501141D03*
X108445629Y-102823680D03*
D13*
X104660069Y-95701213D03*
D12*
X109972661Y-97124718D03*
D13*
X115285253Y-98548223D03*
%TD*%
D18*
%TO.C,D27*%
X212253312Y-95880483D03*
D17*
X209838497Y-96527530D03*
D16*
X204719090Y-97899271D03*
D17*
X207133905Y-97252224D03*
%TD*%
%TO.C,D29*%
X246640271Y-86666524D03*
D18*
X249055086Y-86019477D03*
D17*
X243935679Y-87391218D03*
D16*
X241520864Y-88038265D03*
%TD*%
D14*
%TO.C,D2*%
X64750676Y-50494004D03*
D15*
X67165491Y-51141051D03*
D16*
X59631269Y-49122263D03*
D14*
X62046084Y-49769310D03*
%TD*%
D15*
%TO.C,D33*%
X109022925Y-115737627D03*
D14*
X106608110Y-115090580D03*
X103903518Y-114365886D03*
D16*
X101488703Y-113718839D03*
%TD*%
D11*
%TO.C,MX20*%
X254857909Y-68676653D03*
X260231058Y-69411002D03*
D13*
X253391434Y-65135545D03*
D12*
X258704026Y-63712040D03*
D13*
X264016618Y-62288535D03*
%TD*%
D11*
%TO.C,MX4*%
X96646826Y-53935346D03*
X100932936Y-57257885D03*
D13*
X107772560Y-52982428D03*
D12*
X102459968Y-51558923D03*
D13*
X97147376Y-50135418D03*
%TD*%
D17*
%TO.C,D9*%
X236664562Y-49895485D03*
D18*
X239079377Y-49248438D03*
D16*
X231545155Y-51267226D03*
D17*
X233959970Y-50620179D03*
%TD*%
D11*
%TO.C,MX27*%
X202271604Y-93449867D03*
X207644753Y-94184216D03*
D13*
X200805129Y-89908759D03*
D12*
X206117721Y-88485254D03*
D13*
X211430313Y-87061749D03*
%TD*%
D11*
%TO.C,MX36*%
X222607981Y-120066371D03*
X228027019Y-119856526D03*
D13*
X220548878Y-116833710D03*
X230518264Y-112184910D03*
D12*
X225533571Y-114509310D03*
%TD*%
D17*
%TO.C,D16*%
X187534296Y-86890663D03*
D18*
X189949111Y-86243616D03*
D17*
X184829704Y-87615357D03*
D16*
X182414889Y-88262404D03*
%TD*%
D18*
%TO.C,D28*%
X229421574Y-86349758D03*
D17*
X227006759Y-86996805D03*
D16*
X221887352Y-88368546D03*
D17*
X224302167Y-87721499D03*
%TD*%
%TO.C,D30*%
X267300972Y-90169761D03*
D18*
X269715787Y-89522714D03*
D16*
X262181565Y-91541502D03*
D17*
X264596380Y-90894455D03*
%TD*%
%TO.C,D10*%
X257439966Y-53367987D03*
D18*
X259854781Y-52720940D03*
D16*
X252320559Y-54739728D03*
D17*
X254735374Y-54092681D03*
%TD*%
D11*
%TO.C,MX8*%
X209578859Y-47117368D03*
X214952008Y-47851717D03*
D13*
X208112384Y-43576260D03*
X218737568Y-40729250D03*
D12*
X213424976Y-42152755D03*
%TD*%
D17*
%TO.C,D8*%
X217145753Y-50195031D03*
D18*
X219560568Y-49547984D03*
D16*
X212026346Y-51566772D03*
D17*
X214441161Y-50919725D03*
%TD*%
D11*
%TO.C,MX29*%
X239073378Y-83588861D03*
X244446527Y-84323210D03*
D13*
X248232087Y-77200743D03*
X237606903Y-80047753D03*
D12*
X242919495Y-78624248D03*
%TD*%
D14*
%TO.C,D32*%
X107429860Y-112023766D03*
D15*
X109844675Y-112670813D03*
D16*
X102310453Y-110652025D03*
D14*
X104725268Y-111299072D03*
%TD*%
D15*
%TO.C,D13*%
X81868501Y-69872219D03*
D14*
X79453686Y-69225172D03*
X76749094Y-68500478D03*
D16*
X74334279Y-67853431D03*
%TD*%
D18*
%TO.C,D35*%
X196523114Y-110778132D03*
D17*
X194108299Y-111425179D03*
D16*
X188988892Y-112796920D03*
D17*
X191403707Y-112149873D03*
%TD*%
D15*
%TO.C,D31*%
X110658208Y-109634666D03*
D14*
X108243393Y-108987619D03*
X105538801Y-108262925D03*
D16*
X103123986Y-107615878D03*
%TD*%
D15*
%TO.C,D5*%
X121340964Y-69766078D03*
D14*
X118926149Y-69119031D03*
D16*
X113806742Y-67747290D03*
D14*
X116221557Y-68394337D03*
%TD*%
D11*
%TO.C,MX12*%
X54860216Y-62460669D03*
X59146326Y-65783208D03*
D13*
X55360766Y-58660741D03*
X65985950Y-61507751D03*
D12*
X60673358Y-60084246D03*
%TD*%
D11*
%TO.C,MX18*%
X214509362Y-65518255D03*
X219882511Y-66252604D03*
D13*
X223668071Y-59130137D03*
D12*
X218355479Y-60553642D03*
D13*
X213042887Y-61977147D03*
%TD*%
D11*
%TO.C,MX31*%
X67920994Y-115950186D03*
X71565034Y-119966524D03*
D12*
X74058482Y-114619308D03*
D13*
X79043175Y-116943708D03*
X69073789Y-112294908D03*
%TD*%
M02*
