%FSLAX45Y45*%
G04 Gerber Fmt 4.5, Leading zero omitted, Abs format (unit mm)*
G04 Created by KiCad (PCBNEW (6.0.4)) date 2022-04-18 22:39:16*
%MOMM*%
%LPD*%
G01*
G04 APERTURE LIST*
%TA.AperFunction,Profile*%
%ADD10C,0.100000*%
%TD*%
%ADD11C,0.200000*%
%ADD12C,0.150000*%
%ADD13C,0.170000*%
%ADD14C,0.180000*%
%ADD15C,0.340000*%
G04 APERTURE END LIST*
D10*
X27530000Y-8885000D02*
X23820000Y-11912500D01*
X22092500Y-12717500D02*
X20212500Y-13507500D01*
X13805000Y-4487500D02*
X13155000Y-5360000D01*
X23820000Y-11912500D02*
X22092500Y-12717500D01*
X9745000Y-13517500D02*
X7865000Y-12727500D01*
X7865000Y-12727500D02*
X6140000Y-11922500D01*
X6140000Y-11922500D02*
X2345000Y-8875000D01*
X16017500Y-4487500D02*
X13805000Y-4487500D01*
X16732500Y-5370000D02*
X16017500Y-4487500D01*
X18567500Y-4877500D02*
X16732500Y-5370000D01*
X18465000Y-4492500D02*
X18567500Y-4877500D01*
X20297500Y-4002500D02*
X18465000Y-4492500D01*
X20175000Y-3542500D02*
X20297500Y-4002500D01*
X22015000Y-3047500D02*
X20175000Y-3542500D01*
X22140000Y-3507500D02*
X22015000Y-3047500D01*
X23980000Y-3017500D02*
X22140000Y-3507500D01*
X24205000Y-3857500D02*
X23980000Y-3017500D01*
X26052500Y-3365000D02*
X24205000Y-3857500D01*
X11310000Y-4865000D02*
X13155000Y-5360000D01*
X11412500Y-4482500D02*
X11310000Y-4865000D01*
X9567500Y-3990000D02*
X11412500Y-4482500D01*
X9690000Y-3527500D02*
X9567500Y-3990000D01*
X7850000Y-3035000D02*
X9690000Y-3527500D01*
X7725000Y-3495000D02*
X7850000Y-3035000D01*
X5887500Y-3002500D02*
X7725000Y-3495000D01*
X5662500Y-3845000D02*
X5887500Y-3002500D01*
X3825000Y-3352500D02*
X5662500Y-3845000D01*
X2345000Y-8875000D02*
X3825000Y-3352500D01*
X11452500Y-14880000D02*
X9745000Y-13517500D01*
X12800000Y-13532500D02*
X11452500Y-14880000D01*
X17160000Y-13522500D02*
X12800000Y-13532500D01*
X18507500Y-14867500D02*
X17160000Y-13522500D01*
X20212500Y-13507500D02*
X18507500Y-14867500D01*
X26052500Y-3365000D02*
X27530000Y-8885000D01*
D11*
D12*
X14592300Y-4914600D02*
X14742300Y-5064600D01*
X14742300Y-4914600D02*
X14592300Y-5064600D01*
X15077300Y-4914600D02*
X15227300Y-5064600D01*
X15227300Y-4914600D02*
X15077300Y-5064600D01*
D13*
X3067390Y-8057942D02*
G75*
G03*
X3067390Y-8057942I-85000J0D01*
G01*
X3560440Y-6217854D02*
G75*
G03*
X3560440Y-6217854I-85000J0D01*
G01*
X4053490Y-4377765D02*
G75*
G03*
X4053490Y-4377765I-85000J0D01*
G01*
X4129908Y-8342643D02*
G75*
G03*
X4129908Y-8342643I-85000J0D01*
G01*
X4622958Y-6502555D02*
G75*
G03*
X4622958Y-6502555I-85000J0D01*
G01*
X5116009Y-4662466D02*
G75*
G03*
X5116009Y-4662466I-85000J0D01*
G01*
X5128026Y-7706163D02*
G75*
G03*
X5128026Y-7706163I-85000J0D01*
G01*
X5621077Y-5866074D02*
G75*
G03*
X5621077Y-5866074I-85000J0D01*
G01*
X6114127Y-4025985D02*
G75*
G03*
X6114127Y-4025985I-85000J0D01*
G01*
X6190545Y-7990864D02*
G75*
G03*
X6190545Y-7990864I-85000J0D01*
G01*
X6683595Y-6150775D02*
G75*
G03*
X6683595Y-6150775I-85000J0D01*
G01*
X6992379Y-11229491D02*
G75*
G03*
X6992379Y-11229491I-85000J0D01*
G01*
X7091378Y-7739191D02*
G75*
G03*
X7091378Y-7739191I-85000J0D01*
G01*
X7176645Y-4310686D02*
G75*
G03*
X7176645Y-4310686I-85000J0D01*
G01*
X7584428Y-5899102D02*
G75*
G03*
X7584428Y-5899102I-85000J0D01*
G01*
X7989317Y-11694371D02*
G75*
G03*
X7989317Y-11694371I-85000J0D01*
G01*
X8077478Y-4059013D02*
G75*
G03*
X8077478Y-4059013I-85000J0D01*
G01*
X8153896Y-8023892D02*
G75*
G03*
X8153896Y-8023892I-85000J0D01*
G01*
X8646946Y-6183803D02*
G75*
G03*
X8646946Y-6183803I-85000J0D01*
G01*
X8808204Y-8692263D02*
G75*
G03*
X8808204Y-8692263I-85000J0D01*
G01*
X9139997Y-4343715D02*
G75*
G03*
X9139997Y-4343715I-85000J0D01*
G01*
X9145997Y-11875030D02*
G75*
G03*
X9145997Y-11875030I-85000J0D01*
G01*
X9301254Y-6852175D02*
G75*
G03*
X9301254Y-6852175I-85000J0D01*
G01*
X9799738Y-5013542D02*
G75*
G03*
X9799738Y-5013542I-85000J0D01*
G01*
X9870722Y-8976964D02*
G75*
G03*
X9870722Y-8976964I-85000J0D01*
G01*
X10047064Y-12505964D02*
G75*
G03*
X10047064Y-12505964I-85000J0D01*
G01*
X10363772Y-7136876D02*
G75*
G03*
X10363772Y-7136876I-85000J0D01*
G01*
X10551007Y-9570121D02*
G75*
G03*
X10551007Y-9570121I-85000J0D01*
G01*
X10862256Y-5298243D02*
G75*
G03*
X10862256Y-5298243I-85000J0D01*
G01*
X11044057Y-7730033D02*
G75*
G03*
X11044057Y-7730033I-85000J0D01*
G01*
X11148955Y-13143517D02*
G75*
G03*
X11148955Y-13143517I-85000J0D01*
G01*
X11542541Y-5891400D02*
G75*
G03*
X11542541Y-5891400I-85000J0D01*
G01*
X11613525Y-9854822D02*
G75*
G03*
X11613525Y-9854822I-85000J0D01*
G01*
X11926772Y-13921334D02*
G75*
G03*
X11926772Y-13921334I-85000J0D01*
G01*
X12106576Y-8014734D02*
G75*
G03*
X12106576Y-8014734I-85000J0D01*
G01*
X12605059Y-6176101D02*
G75*
G03*
X12605059Y-6176101I-85000J0D01*
G01*
X17452909Y-6184189D02*
G75*
G03*
X17452909Y-6184189I-85000J0D01*
G01*
X17940526Y-8025733D02*
G75*
G03*
X17940526Y-8025733I-85000J0D01*
G01*
X18202433Y-13910335D02*
G75*
G03*
X18202433Y-13910335I-85000J0D01*
G01*
X18433576Y-9865822D02*
G75*
G03*
X18433576Y-9865822I-85000J0D01*
G01*
X18515428Y-5899488D02*
G75*
G03*
X18515428Y-5899488I-85000J0D01*
G01*
X18980251Y-13132517D02*
G75*
G03*
X18980251Y-13132517I-85000J0D01*
G01*
X19003044Y-7741032D02*
G75*
G03*
X19003044Y-7741032I-85000J0D01*
G01*
X19184846Y-5309243D02*
G75*
G03*
X19184846Y-5309243I-85000J0D01*
G01*
X19496095Y-9581121D02*
G75*
G03*
X19496095Y-9581121I-85000J0D01*
G01*
X19672463Y-7150787D02*
G75*
G03*
X19672463Y-7150787I-85000J0D01*
G01*
X20082141Y-12494964D02*
G75*
G03*
X20082141Y-12494964I-85000J0D01*
G01*
X20165513Y-8990876D02*
G75*
G03*
X20165513Y-8990876I-85000J0D01*
G01*
X20247364Y-5024542D02*
G75*
G03*
X20247364Y-5024542I-85000J0D01*
G01*
X20734981Y-6866086D02*
G75*
G03*
X20734981Y-6866086I-85000J0D01*
G01*
X20896238Y-4357626D02*
G75*
G03*
X20896238Y-4357626I-85000J0D01*
G01*
X20983208Y-11864030D02*
G75*
G03*
X20983208Y-11864030I-85000J0D01*
G01*
X21228031Y-8706175D02*
G75*
G03*
X21228031Y-8706175I-85000J0D01*
G01*
X21389289Y-6197715D02*
G75*
G03*
X21389289Y-6197715I-85000J0D01*
G01*
X21882339Y-8037803D02*
G75*
G03*
X21882339Y-8037803I-85000J0D01*
G01*
X21958757Y-4072925D02*
G75*
G03*
X21958757Y-4072925I-85000J0D01*
G01*
X22139888Y-11683371D02*
G75*
G03*
X22139888Y-11683371I-85000J0D01*
G01*
X22451807Y-5913014D02*
G75*
G03*
X22451807Y-5913014I-85000J0D01*
G01*
X22859590Y-4324598D02*
G75*
G03*
X22859590Y-4324598I-85000J0D01*
G01*
X22944857Y-7753102D02*
G75*
G03*
X22944857Y-7753102I-85000J0D01*
G01*
X23136826Y-11218491D02*
G75*
G03*
X23136826Y-11218491I-85000J0D01*
G01*
X23352640Y-6164687D02*
G75*
G03*
X23352640Y-6164687I-85000J0D01*
G01*
X23845690Y-8004775D02*
G75*
G03*
X23845690Y-8004775I-85000J0D01*
G01*
X23922108Y-4039897D02*
G75*
G03*
X23922108Y-4039897I-85000J0D01*
G01*
X24415158Y-5879986D02*
G75*
G03*
X24415158Y-5879986I-85000J0D01*
G01*
X24908209Y-7720074D02*
G75*
G03*
X24908209Y-7720074I-85000J0D01*
G01*
X24931093Y-4673466D02*
G75*
G03*
X24931093Y-4673466I-85000J0D01*
G01*
X25424143Y-6513554D02*
G75*
G03*
X25424143Y-6513554I-85000J0D01*
G01*
X25917194Y-8353643D02*
G75*
G03*
X25917194Y-8353643I-85000J0D01*
G01*
X25993611Y-4388765D02*
G75*
G03*
X25993611Y-4388765I-85000J0D01*
G01*
X26486662Y-6228853D02*
G75*
G03*
X26486662Y-6228853I-85000J0D01*
G01*
X26979712Y-8068942D02*
G75*
G03*
X26979712Y-8068942I-85000J0D01*
G01*
D14*
X14637300Y-4596600D02*
X14637300Y-4776600D01*
X14547300Y-4686600D02*
X14727300Y-4686600D01*
X15182300Y-4596600D02*
X15182300Y-4776600D01*
X15092300Y-4686600D02*
X15272300Y-4686600D01*
D15*
X3633858Y-8320502D02*
X3633858Y-8080084D01*
X3393439Y-8080084D01*
X3393439Y-8320502D01*
X3633858Y-8320502D01*
X4126908Y-6480413D02*
X4126908Y-6239995D01*
X3886490Y-6239995D01*
X3886490Y-6480413D01*
X4126908Y-6480413D01*
X4619959Y-4640325D02*
X4619959Y-4399906D01*
X4379540Y-4399906D01*
X4379540Y-4640325D01*
X4619959Y-4640325D01*
X5694495Y-7968723D02*
X5694495Y-7728304D01*
X5454076Y-7728304D01*
X5454076Y-7968723D01*
X5694495Y-7968723D01*
X6187545Y-6128634D02*
X6187545Y-5888215D01*
X5947126Y-5888215D01*
X5947126Y-6128634D01*
X6187545Y-6128634D01*
X6680595Y-4288545D02*
X6680595Y-4048127D01*
X6440177Y-4048127D01*
X6440177Y-4288545D01*
X6680595Y-4288545D01*
X7526057Y-11582140D02*
X7526057Y-11341721D01*
X7285639Y-11341721D01*
X7285639Y-11582140D01*
X7526057Y-11582140D01*
X7657846Y-8001751D02*
X7657846Y-7761332D01*
X7417427Y-7761332D01*
X7417427Y-8001751D01*
X7657846Y-8001751D01*
X8150896Y-6161662D02*
X8150896Y-5921243D01*
X7910478Y-5921243D01*
X7910478Y-6161662D01*
X8150896Y-6161662D01*
X8643947Y-4321573D02*
X8643947Y-4081155D01*
X8403528Y-4081155D01*
X8403528Y-4321573D01*
X8643947Y-4321573D01*
X9374672Y-8954823D02*
X9374672Y-8714405D01*
X9134254Y-8714405D01*
X9134254Y-8954823D01*
X9374672Y-8954823D01*
X9631740Y-12310706D02*
X9631740Y-12070288D01*
X9391322Y-12070288D01*
X9391322Y-12310706D01*
X9631740Y-12310706D01*
X9867723Y-7114734D02*
X9867723Y-6874316D01*
X9627304Y-6874316D01*
X9627304Y-7114734D01*
X9867723Y-7114734D01*
X10366206Y-5276102D02*
X10366206Y-5035683D01*
X10125788Y-5035683D01*
X10125788Y-5276102D01*
X10366206Y-5276102D01*
X11117475Y-9832681D02*
X11117475Y-9592263D01*
X10877057Y-9592263D01*
X10877057Y-9832681D01*
X11117475Y-9832681D01*
X11573073Y-13652635D02*
X11573073Y-13412216D01*
X11332654Y-13412216D01*
X11332654Y-13652635D01*
X11573073Y-13652635D01*
X11610526Y-7992592D02*
X11610526Y-7752174D01*
X11370107Y-7752174D01*
X11370107Y-7992592D01*
X11610526Y-7992592D01*
X12109009Y-6153960D02*
X12109009Y-5913541D01*
X11868591Y-5913541D01*
X11868591Y-6153960D01*
X12109009Y-6153960D01*
X18019378Y-6162048D02*
X18019378Y-5921629D01*
X17778959Y-5921629D01*
X17778959Y-6162048D01*
X18019378Y-6162048D01*
X18506995Y-8003592D02*
X18506995Y-7763174D01*
X18266576Y-7763174D01*
X18266576Y-8003592D01*
X18506995Y-8003592D01*
X18626551Y-13641635D02*
X18626551Y-13401217D01*
X18386133Y-13401217D01*
X18386133Y-13641635D01*
X18626551Y-13641635D01*
X19000045Y-9843681D02*
X19000045Y-9603262D01*
X18759626Y-9603262D01*
X18759626Y-9843681D01*
X19000045Y-9843681D01*
X19751314Y-5287101D02*
X19751314Y-5046683D01*
X19510896Y-5046683D01*
X19510896Y-5287101D01*
X19751314Y-5287101D01*
X20238931Y-7128646D02*
X20238931Y-6888227D01*
X19998513Y-6888227D01*
X19998513Y-7128646D01*
X20238931Y-7128646D01*
X20567884Y-12299706D02*
X20567884Y-12059288D01*
X20327465Y-12059288D01*
X20327465Y-12299706D01*
X20567884Y-12299706D01*
X20731981Y-8968735D02*
X20731981Y-8728316D01*
X20491563Y-8728316D01*
X20491563Y-8968735D01*
X20731981Y-8968735D01*
X21462707Y-4335485D02*
X21462707Y-4095066D01*
X21222288Y-4095066D01*
X21222288Y-4335485D01*
X21462707Y-4335485D01*
X21955757Y-6175573D02*
X21955757Y-5935155D01*
X21715339Y-5935155D01*
X21715339Y-6175573D01*
X21955757Y-6175573D01*
X22448807Y-8015662D02*
X22448807Y-7775244D01*
X22208389Y-7775244D01*
X22208389Y-8015662D01*
X22448807Y-8015662D01*
X22673566Y-11571140D02*
X22673566Y-11330722D01*
X22433148Y-11330722D01*
X22433148Y-11571140D01*
X22673566Y-11571140D01*
X23426058Y-4302457D02*
X23426058Y-4062038D01*
X23185640Y-4062038D01*
X23185640Y-4302457D01*
X23426058Y-4302457D01*
X23919108Y-6142545D02*
X23919108Y-5902127D01*
X23678690Y-5902127D01*
X23678690Y-6142545D01*
X23919108Y-6142545D01*
X24412159Y-7982634D02*
X24412159Y-7742215D01*
X24171740Y-7742215D01*
X24171740Y-7982634D01*
X24412159Y-7982634D01*
X25497562Y-4651325D02*
X25497562Y-4410906D01*
X25257143Y-4410906D01*
X25257143Y-4651325D01*
X25497562Y-4651325D01*
X25990612Y-6491413D02*
X25990612Y-6250995D01*
X25750193Y-6250995D01*
X25750193Y-6491413D01*
X25990612Y-6491413D01*
X26483662Y-8331502D02*
X26483662Y-8091083D01*
X26243244Y-8091083D01*
X26243244Y-8331502D01*
X26483662Y-8331502D01*
D11*
X2597619Y-15195476D02*
X2597619Y-14995476D01*
X2645238Y-14995476D01*
X2673810Y-15005000D01*
X2692857Y-15024048D01*
X2702381Y-15043095D01*
X2711905Y-15081190D01*
X2711905Y-15109762D01*
X2702381Y-15147857D01*
X2692857Y-15166905D01*
X2673810Y-15185952D01*
X2645238Y-15195476D01*
X2597619Y-15195476D01*
X2797619Y-15195476D02*
X2797619Y-15062143D01*
X2797619Y-15100238D02*
X2807143Y-15081190D01*
X2816667Y-15071667D01*
X2835714Y-15062143D01*
X2854762Y-15062143D01*
X2921428Y-15195476D02*
X2921428Y-15062143D01*
X2921428Y-14995476D02*
X2911905Y-15005000D01*
X2921428Y-15014524D01*
X2930952Y-15005000D01*
X2921428Y-14995476D01*
X2921428Y-15014524D01*
X3045238Y-15195476D02*
X3026190Y-15185952D01*
X3016667Y-15166905D01*
X3016667Y-14995476D01*
X3150000Y-15195476D02*
X3130952Y-15185952D01*
X3121428Y-15166905D01*
X3121428Y-14995476D01*
X3378571Y-15195476D02*
X3378571Y-14995476D01*
X3445238Y-15138333D01*
X3511905Y-14995476D01*
X3511905Y-15195476D01*
X3692857Y-15195476D02*
X3692857Y-15090714D01*
X3683333Y-15071667D01*
X3664286Y-15062143D01*
X3626190Y-15062143D01*
X3607143Y-15071667D01*
X3692857Y-15185952D02*
X3673809Y-15195476D01*
X3626190Y-15195476D01*
X3607143Y-15185952D01*
X3597619Y-15166905D01*
X3597619Y-15147857D01*
X3607143Y-15128809D01*
X3626190Y-15119286D01*
X3673809Y-15119286D01*
X3692857Y-15109762D01*
X3788095Y-15062143D02*
X3788095Y-15262143D01*
X3788095Y-15071667D02*
X3807143Y-15062143D01*
X3845238Y-15062143D01*
X3864286Y-15071667D01*
X3873809Y-15081190D01*
X3883333Y-15100238D01*
X3883333Y-15157381D01*
X3873809Y-15176428D01*
X3864286Y-15185952D01*
X3845238Y-15195476D01*
X3807143Y-15195476D01*
X3788095Y-15185952D01*
X3969048Y-15176428D02*
X3978571Y-15185952D01*
X3969048Y-15195476D01*
X3959524Y-15185952D01*
X3969048Y-15176428D01*
X3969048Y-15195476D01*
X3969048Y-15071667D02*
X3978571Y-15081190D01*
X3969048Y-15090714D01*
X3959524Y-15081190D01*
X3969048Y-15071667D01*
X3969048Y-15090714D01*
D12*
X2190000Y-15450000D02*
X2340000Y-15600000D01*
X2340000Y-15450000D02*
X2190000Y-15600000D01*
D11*
X2702381Y-15615476D02*
X2588095Y-15615476D01*
X2645238Y-15615476D02*
X2645238Y-15415476D01*
X2626190Y-15444048D01*
X2607143Y-15463095D01*
X2588095Y-15472619D01*
X2788095Y-15596428D02*
X2797619Y-15605952D01*
X2788095Y-15615476D01*
X2778571Y-15605952D01*
X2788095Y-15596428D01*
X2788095Y-15615476D01*
X2978571Y-15415476D02*
X2883333Y-15415476D01*
X2873809Y-15510714D01*
X2883333Y-15501190D01*
X2902381Y-15491667D01*
X2950000Y-15491667D01*
X2969048Y-15501190D01*
X2978571Y-15510714D01*
X2988095Y-15529762D01*
X2988095Y-15577381D01*
X2978571Y-15596428D01*
X2969048Y-15605952D01*
X2950000Y-15615476D01*
X2902381Y-15615476D01*
X2883333Y-15605952D01*
X2873809Y-15596428D01*
X3111905Y-15415476D02*
X3130952Y-15415476D01*
X3150000Y-15425000D01*
X3159524Y-15434524D01*
X3169048Y-15453571D01*
X3178571Y-15491667D01*
X3178571Y-15539286D01*
X3169048Y-15577381D01*
X3159524Y-15596428D01*
X3150000Y-15605952D01*
X3130952Y-15615476D01*
X3111905Y-15615476D01*
X3092857Y-15605952D01*
X3083333Y-15596428D01*
X3073809Y-15577381D01*
X3064286Y-15539286D01*
X3064286Y-15491667D01*
X3073809Y-15453571D01*
X3083333Y-15434524D01*
X3092857Y-15425000D01*
X3111905Y-15415476D01*
X3302381Y-15415476D02*
X3321428Y-15415476D01*
X3340476Y-15425000D01*
X3350000Y-15434524D01*
X3359524Y-15453571D01*
X3369048Y-15491667D01*
X3369048Y-15539286D01*
X3359524Y-15577381D01*
X3350000Y-15596428D01*
X3340476Y-15605952D01*
X3321428Y-15615476D01*
X3302381Y-15615476D01*
X3283333Y-15605952D01*
X3273809Y-15596428D01*
X3264286Y-15577381D01*
X3254762Y-15539286D01*
X3254762Y-15491667D01*
X3264286Y-15453571D01*
X3273809Y-15434524D01*
X3283333Y-15425000D01*
X3302381Y-15415476D01*
X3454762Y-15615476D02*
X3454762Y-15482143D01*
X3454762Y-15501190D02*
X3464286Y-15491667D01*
X3483333Y-15482143D01*
X3511905Y-15482143D01*
X3530952Y-15491667D01*
X3540476Y-15510714D01*
X3540476Y-15615476D01*
X3540476Y-15510714D02*
X3550000Y-15491667D01*
X3569048Y-15482143D01*
X3597619Y-15482143D01*
X3616667Y-15491667D01*
X3626190Y-15510714D01*
X3626190Y-15615476D01*
X3721428Y-15615476D02*
X3721428Y-15482143D01*
X3721428Y-15501190D02*
X3730952Y-15491667D01*
X3750000Y-15482143D01*
X3778571Y-15482143D01*
X3797619Y-15491667D01*
X3807143Y-15510714D01*
X3807143Y-15615476D01*
X3807143Y-15510714D02*
X3816667Y-15491667D01*
X3835714Y-15482143D01*
X3864286Y-15482143D01*
X3883333Y-15491667D01*
X3892857Y-15510714D01*
X3892857Y-15615476D01*
X4283333Y-15405952D02*
X4111905Y-15663095D01*
X4540476Y-15415476D02*
X4559524Y-15415476D01*
X4578571Y-15425000D01*
X4588095Y-15434524D01*
X4597619Y-15453571D01*
X4607143Y-15491667D01*
X4607143Y-15539286D01*
X4597619Y-15577381D01*
X4588095Y-15596428D01*
X4578571Y-15605952D01*
X4559524Y-15615476D01*
X4540476Y-15615476D01*
X4521429Y-15605952D01*
X4511905Y-15596428D01*
X4502381Y-15577381D01*
X4492857Y-15539286D01*
X4492857Y-15491667D01*
X4502381Y-15453571D01*
X4511905Y-15434524D01*
X4521429Y-15425000D01*
X4540476Y-15415476D01*
X4692857Y-15596428D02*
X4702381Y-15605952D01*
X4692857Y-15615476D01*
X4683333Y-15605952D01*
X4692857Y-15596428D01*
X4692857Y-15615476D01*
X4826190Y-15415476D02*
X4845238Y-15415476D01*
X4864286Y-15425000D01*
X4873810Y-15434524D01*
X4883333Y-15453571D01*
X4892857Y-15491667D01*
X4892857Y-15539286D01*
X4883333Y-15577381D01*
X4873810Y-15596428D01*
X4864286Y-15605952D01*
X4845238Y-15615476D01*
X4826190Y-15615476D01*
X4807143Y-15605952D01*
X4797619Y-15596428D01*
X4788095Y-15577381D01*
X4778571Y-15539286D01*
X4778571Y-15491667D01*
X4788095Y-15453571D01*
X4797619Y-15434524D01*
X4807143Y-15425000D01*
X4826190Y-15415476D01*
X5073810Y-15415476D02*
X4978571Y-15415476D01*
X4969048Y-15510714D01*
X4978571Y-15501190D01*
X4997619Y-15491667D01*
X5045238Y-15491667D01*
X5064286Y-15501190D01*
X5073810Y-15510714D01*
X5083333Y-15529762D01*
X5083333Y-15577381D01*
X5073810Y-15596428D01*
X5064286Y-15605952D01*
X5045238Y-15615476D01*
X4997619Y-15615476D01*
X4978571Y-15605952D01*
X4969048Y-15596428D01*
X5178571Y-15615476D02*
X5216667Y-15615476D01*
X5235714Y-15605952D01*
X5245238Y-15596428D01*
X5264286Y-15567857D01*
X5273810Y-15529762D01*
X5273810Y-15453571D01*
X5264286Y-15434524D01*
X5254762Y-15425000D01*
X5235714Y-15415476D01*
X5197619Y-15415476D01*
X5178571Y-15425000D01*
X5169048Y-15434524D01*
X5159524Y-15453571D01*
X5159524Y-15501190D01*
X5169048Y-15520238D01*
X5178571Y-15529762D01*
X5197619Y-15539286D01*
X5235714Y-15539286D01*
X5254762Y-15529762D01*
X5264286Y-15520238D01*
X5273810Y-15501190D01*
X5464286Y-15615476D02*
X5350000Y-15615476D01*
X5407143Y-15615476D02*
X5407143Y-15415476D01*
X5388095Y-15444048D01*
X5369048Y-15463095D01*
X5350000Y-15472619D01*
X5540476Y-15415476D02*
X5540476Y-15453571D01*
X5616667Y-15415476D02*
X5616667Y-15453571D01*
X5911905Y-15691667D02*
X5902381Y-15682143D01*
X5883333Y-15653571D01*
X5873809Y-15634524D01*
X5864286Y-15605952D01*
X5854762Y-15558333D01*
X5854762Y-15520238D01*
X5864286Y-15472619D01*
X5873809Y-15444048D01*
X5883333Y-15425000D01*
X5902381Y-15396428D01*
X5911905Y-15386905D01*
X5978571Y-15434524D02*
X5988095Y-15425000D01*
X6007143Y-15415476D01*
X6054762Y-15415476D01*
X6073809Y-15425000D01*
X6083333Y-15434524D01*
X6092857Y-15453571D01*
X6092857Y-15472619D01*
X6083333Y-15501190D01*
X5969048Y-15615476D01*
X6092857Y-15615476D01*
X6330952Y-15615476D02*
X6330952Y-15415476D01*
X6416667Y-15615476D02*
X6416667Y-15510714D01*
X6407143Y-15491667D01*
X6388095Y-15482143D01*
X6359524Y-15482143D01*
X6340476Y-15491667D01*
X6330952Y-15501190D01*
X6540476Y-15615476D02*
X6521428Y-15605952D01*
X6511905Y-15596428D01*
X6502381Y-15577381D01*
X6502381Y-15520238D01*
X6511905Y-15501190D01*
X6521428Y-15491667D01*
X6540476Y-15482143D01*
X6569048Y-15482143D01*
X6588095Y-15491667D01*
X6597619Y-15501190D01*
X6607143Y-15520238D01*
X6607143Y-15577381D01*
X6597619Y-15596428D01*
X6588095Y-15605952D01*
X6569048Y-15615476D01*
X6540476Y-15615476D01*
X6721428Y-15615476D02*
X6702381Y-15605952D01*
X6692857Y-15586905D01*
X6692857Y-15415476D01*
X6873809Y-15605952D02*
X6854762Y-15615476D01*
X6816667Y-15615476D01*
X6797619Y-15605952D01*
X6788095Y-15586905D01*
X6788095Y-15510714D01*
X6797619Y-15491667D01*
X6816667Y-15482143D01*
X6854762Y-15482143D01*
X6873809Y-15491667D01*
X6883333Y-15510714D01*
X6883333Y-15529762D01*
X6788095Y-15548809D01*
X6959524Y-15605952D02*
X6978571Y-15615476D01*
X7016667Y-15615476D01*
X7035714Y-15605952D01*
X7045238Y-15586905D01*
X7045238Y-15577381D01*
X7035714Y-15558333D01*
X7016667Y-15548809D01*
X6988095Y-15548809D01*
X6969048Y-15539286D01*
X6959524Y-15520238D01*
X6959524Y-15510714D01*
X6969048Y-15491667D01*
X6988095Y-15482143D01*
X7016667Y-15482143D01*
X7035714Y-15491667D01*
X7111905Y-15691667D02*
X7121428Y-15682143D01*
X7140476Y-15653571D01*
X7150000Y-15634524D01*
X7159524Y-15605952D01*
X7169048Y-15558333D01*
X7169048Y-15520238D01*
X7159524Y-15472619D01*
X7150000Y-15444048D01*
X7140476Y-15425000D01*
X7121428Y-15396428D01*
X7111905Y-15386905D01*
X7473809Y-15691667D02*
X7464286Y-15682143D01*
X7445238Y-15653571D01*
X7435714Y-15634524D01*
X7426190Y-15605952D01*
X7416667Y-15558333D01*
X7416667Y-15520238D01*
X7426190Y-15472619D01*
X7435714Y-15444048D01*
X7445238Y-15425000D01*
X7464286Y-15396428D01*
X7473809Y-15386905D01*
X7550000Y-15482143D02*
X7550000Y-15615476D01*
X7550000Y-15501190D02*
X7559524Y-15491667D01*
X7578571Y-15482143D01*
X7607143Y-15482143D01*
X7626190Y-15491667D01*
X7635714Y-15510714D01*
X7635714Y-15615476D01*
X7759524Y-15615476D02*
X7740476Y-15605952D01*
X7730952Y-15596428D01*
X7721428Y-15577381D01*
X7721428Y-15520238D01*
X7730952Y-15501190D01*
X7740476Y-15491667D01*
X7759524Y-15482143D01*
X7788095Y-15482143D01*
X7807143Y-15491667D01*
X7816667Y-15501190D01*
X7826190Y-15520238D01*
X7826190Y-15577381D01*
X7816667Y-15596428D01*
X7807143Y-15605952D01*
X7788095Y-15615476D01*
X7759524Y-15615476D01*
X7883333Y-15482143D02*
X7959524Y-15482143D01*
X7911905Y-15415476D02*
X7911905Y-15586905D01*
X7921428Y-15605952D01*
X7940476Y-15615476D01*
X7959524Y-15615476D01*
X8178571Y-15482143D02*
X8178571Y-15682143D01*
X8178571Y-15491667D02*
X8197619Y-15482143D01*
X8235714Y-15482143D01*
X8254762Y-15491667D01*
X8264286Y-15501190D01*
X8273809Y-15520238D01*
X8273809Y-15577381D01*
X8264286Y-15596428D01*
X8254762Y-15605952D01*
X8235714Y-15615476D01*
X8197619Y-15615476D01*
X8178571Y-15605952D01*
X8388095Y-15615476D02*
X8369048Y-15605952D01*
X8359524Y-15586905D01*
X8359524Y-15415476D01*
X8550000Y-15615476D02*
X8550000Y-15510714D01*
X8540476Y-15491667D01*
X8521429Y-15482143D01*
X8483333Y-15482143D01*
X8464286Y-15491667D01*
X8550000Y-15605952D02*
X8530952Y-15615476D01*
X8483333Y-15615476D01*
X8464286Y-15605952D01*
X8454762Y-15586905D01*
X8454762Y-15567857D01*
X8464286Y-15548809D01*
X8483333Y-15539286D01*
X8530952Y-15539286D01*
X8550000Y-15529762D01*
X8616667Y-15482143D02*
X8692857Y-15482143D01*
X8645238Y-15415476D02*
X8645238Y-15586905D01*
X8654762Y-15605952D01*
X8673810Y-15615476D01*
X8692857Y-15615476D01*
X8835714Y-15605952D02*
X8816667Y-15615476D01*
X8778571Y-15615476D01*
X8759524Y-15605952D01*
X8750000Y-15586905D01*
X8750000Y-15510714D01*
X8759524Y-15491667D01*
X8778571Y-15482143D01*
X8816667Y-15482143D01*
X8835714Y-15491667D01*
X8845238Y-15510714D01*
X8845238Y-15529762D01*
X8750000Y-15548809D01*
X9016667Y-15615476D02*
X9016667Y-15415476D01*
X9016667Y-15605952D02*
X8997619Y-15615476D01*
X8959524Y-15615476D01*
X8940476Y-15605952D01*
X8930952Y-15596428D01*
X8921429Y-15577381D01*
X8921429Y-15520238D01*
X8930952Y-15501190D01*
X8940476Y-15491667D01*
X8959524Y-15482143D01*
X8997619Y-15482143D01*
X9016667Y-15491667D01*
X9092857Y-15691667D02*
X9102381Y-15682143D01*
X9121429Y-15653571D01*
X9130952Y-15634524D01*
X9140476Y-15605952D01*
X9150000Y-15558333D01*
X9150000Y-15520238D01*
X9140476Y-15472619D01*
X9130952Y-15444048D01*
X9121429Y-15425000D01*
X9102381Y-15396428D01*
X9092857Y-15386905D01*
D13*
X2340000Y-15795000D02*
G75*
G03*
X2340000Y-15795000I-85000J0D01*
G01*
D11*
X2702381Y-15885476D02*
X2588095Y-15885476D01*
X2645238Y-15885476D02*
X2645238Y-15685476D01*
X2626190Y-15714048D01*
X2607143Y-15733095D01*
X2588095Y-15742619D01*
X2788095Y-15866428D02*
X2797619Y-15875952D01*
X2788095Y-15885476D01*
X2778571Y-15875952D01*
X2788095Y-15866428D01*
X2788095Y-15885476D01*
X2864286Y-15685476D02*
X2997619Y-15685476D01*
X2911905Y-15885476D01*
X3111905Y-15685476D02*
X3130952Y-15685476D01*
X3150000Y-15695000D01*
X3159524Y-15704524D01*
X3169048Y-15723571D01*
X3178571Y-15761667D01*
X3178571Y-15809286D01*
X3169048Y-15847381D01*
X3159524Y-15866428D01*
X3150000Y-15875952D01*
X3130952Y-15885476D01*
X3111905Y-15885476D01*
X3092857Y-15875952D01*
X3083333Y-15866428D01*
X3073809Y-15847381D01*
X3064286Y-15809286D01*
X3064286Y-15761667D01*
X3073809Y-15723571D01*
X3083333Y-15704524D01*
X3092857Y-15695000D01*
X3111905Y-15685476D01*
X3302381Y-15685476D02*
X3321428Y-15685476D01*
X3340476Y-15695000D01*
X3350000Y-15704524D01*
X3359524Y-15723571D01*
X3369048Y-15761667D01*
X3369048Y-15809286D01*
X3359524Y-15847381D01*
X3350000Y-15866428D01*
X3340476Y-15875952D01*
X3321428Y-15885476D01*
X3302381Y-15885476D01*
X3283333Y-15875952D01*
X3273809Y-15866428D01*
X3264286Y-15847381D01*
X3254762Y-15809286D01*
X3254762Y-15761667D01*
X3264286Y-15723571D01*
X3273809Y-15704524D01*
X3283333Y-15695000D01*
X3302381Y-15685476D01*
X3454762Y-15885476D02*
X3454762Y-15752143D01*
X3454762Y-15771190D02*
X3464286Y-15761667D01*
X3483333Y-15752143D01*
X3511905Y-15752143D01*
X3530952Y-15761667D01*
X3540476Y-15780714D01*
X3540476Y-15885476D01*
X3540476Y-15780714D02*
X3550000Y-15761667D01*
X3569048Y-15752143D01*
X3597619Y-15752143D01*
X3616667Y-15761667D01*
X3626190Y-15780714D01*
X3626190Y-15885476D01*
X3721428Y-15885476D02*
X3721428Y-15752143D01*
X3721428Y-15771190D02*
X3730952Y-15761667D01*
X3750000Y-15752143D01*
X3778571Y-15752143D01*
X3797619Y-15761667D01*
X3807143Y-15780714D01*
X3807143Y-15885476D01*
X3807143Y-15780714D02*
X3816667Y-15761667D01*
X3835714Y-15752143D01*
X3864286Y-15752143D01*
X3883333Y-15761667D01*
X3892857Y-15780714D01*
X3892857Y-15885476D01*
X4283333Y-15675952D02*
X4111905Y-15933095D01*
X4540476Y-15685476D02*
X4559524Y-15685476D01*
X4578571Y-15695000D01*
X4588095Y-15704524D01*
X4597619Y-15723571D01*
X4607143Y-15761667D01*
X4607143Y-15809286D01*
X4597619Y-15847381D01*
X4588095Y-15866428D01*
X4578571Y-15875952D01*
X4559524Y-15885476D01*
X4540476Y-15885476D01*
X4521429Y-15875952D01*
X4511905Y-15866428D01*
X4502381Y-15847381D01*
X4492857Y-15809286D01*
X4492857Y-15761667D01*
X4502381Y-15723571D01*
X4511905Y-15704524D01*
X4521429Y-15695000D01*
X4540476Y-15685476D01*
X4692857Y-15866428D02*
X4702381Y-15875952D01*
X4692857Y-15885476D01*
X4683333Y-15875952D01*
X4692857Y-15866428D01*
X4692857Y-15885476D01*
X4826190Y-15685476D02*
X4845238Y-15685476D01*
X4864286Y-15695000D01*
X4873810Y-15704524D01*
X4883333Y-15723571D01*
X4892857Y-15761667D01*
X4892857Y-15809286D01*
X4883333Y-15847381D01*
X4873810Y-15866428D01*
X4864286Y-15875952D01*
X4845238Y-15885476D01*
X4826190Y-15885476D01*
X4807143Y-15875952D01*
X4797619Y-15866428D01*
X4788095Y-15847381D01*
X4778571Y-15809286D01*
X4778571Y-15761667D01*
X4788095Y-15723571D01*
X4797619Y-15704524D01*
X4807143Y-15695000D01*
X4826190Y-15685476D01*
X5064286Y-15685476D02*
X5026190Y-15685476D01*
X5007143Y-15695000D01*
X4997619Y-15704524D01*
X4978571Y-15733095D01*
X4969048Y-15771190D01*
X4969048Y-15847381D01*
X4978571Y-15866428D01*
X4988095Y-15875952D01*
X5007143Y-15885476D01*
X5045238Y-15885476D01*
X5064286Y-15875952D01*
X5073810Y-15866428D01*
X5083333Y-15847381D01*
X5083333Y-15799762D01*
X5073810Y-15780714D01*
X5064286Y-15771190D01*
X5045238Y-15761667D01*
X5007143Y-15761667D01*
X4988095Y-15771190D01*
X4978571Y-15780714D01*
X4969048Y-15799762D01*
X5254762Y-15685476D02*
X5216667Y-15685476D01*
X5197619Y-15695000D01*
X5188095Y-15704524D01*
X5169048Y-15733095D01*
X5159524Y-15771190D01*
X5159524Y-15847381D01*
X5169048Y-15866428D01*
X5178571Y-15875952D01*
X5197619Y-15885476D01*
X5235714Y-15885476D01*
X5254762Y-15875952D01*
X5264286Y-15866428D01*
X5273810Y-15847381D01*
X5273810Y-15799762D01*
X5264286Y-15780714D01*
X5254762Y-15771190D01*
X5235714Y-15761667D01*
X5197619Y-15761667D01*
X5178571Y-15771190D01*
X5169048Y-15780714D01*
X5159524Y-15799762D01*
X5369048Y-15885476D02*
X5407143Y-15885476D01*
X5426190Y-15875952D01*
X5435714Y-15866428D01*
X5454762Y-15837857D01*
X5464286Y-15799762D01*
X5464286Y-15723571D01*
X5454762Y-15704524D01*
X5445238Y-15695000D01*
X5426190Y-15685476D01*
X5388095Y-15685476D01*
X5369048Y-15695000D01*
X5359524Y-15704524D01*
X5350000Y-15723571D01*
X5350000Y-15771190D01*
X5359524Y-15790238D01*
X5369048Y-15799762D01*
X5388095Y-15809286D01*
X5426190Y-15809286D01*
X5445238Y-15799762D01*
X5454762Y-15790238D01*
X5464286Y-15771190D01*
X5540476Y-15685476D02*
X5540476Y-15723571D01*
X5616667Y-15685476D02*
X5616667Y-15723571D01*
X5911905Y-15961667D02*
X5902381Y-15952143D01*
X5883333Y-15923571D01*
X5873809Y-15904524D01*
X5864286Y-15875952D01*
X5854762Y-15828333D01*
X5854762Y-15790238D01*
X5864286Y-15742619D01*
X5873809Y-15714048D01*
X5883333Y-15695000D01*
X5902381Y-15666428D01*
X5911905Y-15656905D01*
X5969048Y-15685476D02*
X6102381Y-15685476D01*
X6016667Y-15885476D01*
X6169048Y-15704524D02*
X6178571Y-15695000D01*
X6197619Y-15685476D01*
X6245238Y-15685476D01*
X6264286Y-15695000D01*
X6273809Y-15704524D01*
X6283333Y-15723571D01*
X6283333Y-15742619D01*
X6273809Y-15771190D01*
X6159524Y-15885476D01*
X6283333Y-15885476D01*
X6521428Y-15885476D02*
X6521428Y-15685476D01*
X6607143Y-15885476D02*
X6607143Y-15780714D01*
X6597619Y-15761667D01*
X6578571Y-15752143D01*
X6550000Y-15752143D01*
X6530952Y-15761667D01*
X6521428Y-15771190D01*
X6730952Y-15885476D02*
X6711905Y-15875952D01*
X6702381Y-15866428D01*
X6692857Y-15847381D01*
X6692857Y-15790238D01*
X6702381Y-15771190D01*
X6711905Y-15761667D01*
X6730952Y-15752143D01*
X6759524Y-15752143D01*
X6778571Y-15761667D01*
X6788095Y-15771190D01*
X6797619Y-15790238D01*
X6797619Y-15847381D01*
X6788095Y-15866428D01*
X6778571Y-15875952D01*
X6759524Y-15885476D01*
X6730952Y-15885476D01*
X6911905Y-15885476D02*
X6892857Y-15875952D01*
X6883333Y-15856905D01*
X6883333Y-15685476D01*
X7064286Y-15875952D02*
X7045238Y-15885476D01*
X7007143Y-15885476D01*
X6988095Y-15875952D01*
X6978571Y-15856905D01*
X6978571Y-15780714D01*
X6988095Y-15761667D01*
X7007143Y-15752143D01*
X7045238Y-15752143D01*
X7064286Y-15761667D01*
X7073809Y-15780714D01*
X7073809Y-15799762D01*
X6978571Y-15818809D01*
X7150000Y-15875952D02*
X7169048Y-15885476D01*
X7207143Y-15885476D01*
X7226190Y-15875952D01*
X7235714Y-15856905D01*
X7235714Y-15847381D01*
X7226190Y-15828333D01*
X7207143Y-15818809D01*
X7178571Y-15818809D01*
X7159524Y-15809286D01*
X7150000Y-15790238D01*
X7150000Y-15780714D01*
X7159524Y-15761667D01*
X7178571Y-15752143D01*
X7207143Y-15752143D01*
X7226190Y-15761667D01*
X7302381Y-15961667D02*
X7311905Y-15952143D01*
X7330952Y-15923571D01*
X7340476Y-15904524D01*
X7350000Y-15875952D01*
X7359524Y-15828333D01*
X7359524Y-15790238D01*
X7350000Y-15742619D01*
X7340476Y-15714048D01*
X7330952Y-15695000D01*
X7311905Y-15666428D01*
X7302381Y-15656905D01*
X7664286Y-15961667D02*
X7654762Y-15952143D01*
X7635714Y-15923571D01*
X7626190Y-15904524D01*
X7616667Y-15875952D01*
X7607143Y-15828333D01*
X7607143Y-15790238D01*
X7616667Y-15742619D01*
X7626190Y-15714048D01*
X7635714Y-15695000D01*
X7654762Y-15666428D01*
X7664286Y-15656905D01*
X7740476Y-15752143D02*
X7740476Y-15885476D01*
X7740476Y-15771190D02*
X7750000Y-15761667D01*
X7769048Y-15752143D01*
X7797619Y-15752143D01*
X7816667Y-15761667D01*
X7826190Y-15780714D01*
X7826190Y-15885476D01*
X7950000Y-15885476D02*
X7930952Y-15875952D01*
X7921428Y-15866428D01*
X7911905Y-15847381D01*
X7911905Y-15790238D01*
X7921428Y-15771190D01*
X7930952Y-15761667D01*
X7950000Y-15752143D01*
X7978571Y-15752143D01*
X7997619Y-15761667D01*
X8007143Y-15771190D01*
X8016667Y-15790238D01*
X8016667Y-15847381D01*
X8007143Y-15866428D01*
X7997619Y-15875952D01*
X7978571Y-15885476D01*
X7950000Y-15885476D01*
X8073809Y-15752143D02*
X8150000Y-15752143D01*
X8102381Y-15685476D02*
X8102381Y-15856905D01*
X8111905Y-15875952D01*
X8130952Y-15885476D01*
X8150000Y-15885476D01*
X8369048Y-15752143D02*
X8369048Y-15952143D01*
X8369048Y-15761667D02*
X8388095Y-15752143D01*
X8426190Y-15752143D01*
X8445238Y-15761667D01*
X8454762Y-15771190D01*
X8464286Y-15790238D01*
X8464286Y-15847381D01*
X8454762Y-15866428D01*
X8445238Y-15875952D01*
X8426190Y-15885476D01*
X8388095Y-15885476D01*
X8369048Y-15875952D01*
X8578571Y-15885476D02*
X8559524Y-15875952D01*
X8550000Y-15856905D01*
X8550000Y-15685476D01*
X8740476Y-15885476D02*
X8740476Y-15780714D01*
X8730952Y-15761667D01*
X8711905Y-15752143D01*
X8673810Y-15752143D01*
X8654762Y-15761667D01*
X8740476Y-15875952D02*
X8721429Y-15885476D01*
X8673810Y-15885476D01*
X8654762Y-15875952D01*
X8645238Y-15856905D01*
X8645238Y-15837857D01*
X8654762Y-15818809D01*
X8673810Y-15809286D01*
X8721429Y-15809286D01*
X8740476Y-15799762D01*
X8807143Y-15752143D02*
X8883333Y-15752143D01*
X8835714Y-15685476D02*
X8835714Y-15856905D01*
X8845238Y-15875952D01*
X8864286Y-15885476D01*
X8883333Y-15885476D01*
X9026190Y-15875952D02*
X9007143Y-15885476D01*
X8969048Y-15885476D01*
X8950000Y-15875952D01*
X8940476Y-15856905D01*
X8940476Y-15780714D01*
X8950000Y-15761667D01*
X8969048Y-15752143D01*
X9007143Y-15752143D01*
X9026190Y-15761667D01*
X9035714Y-15780714D01*
X9035714Y-15799762D01*
X8940476Y-15818809D01*
X9207143Y-15885476D02*
X9207143Y-15685476D01*
X9207143Y-15875952D02*
X9188095Y-15885476D01*
X9150000Y-15885476D01*
X9130952Y-15875952D01*
X9121429Y-15866428D01*
X9111905Y-15847381D01*
X9111905Y-15790238D01*
X9121429Y-15771190D01*
X9130952Y-15761667D01*
X9150000Y-15752143D01*
X9188095Y-15752143D01*
X9207143Y-15761667D01*
X9283333Y-15961667D02*
X9292857Y-15952143D01*
X9311905Y-15923571D01*
X9321429Y-15904524D01*
X9330952Y-15875952D01*
X9340476Y-15828333D01*
X9340476Y-15790238D01*
X9330952Y-15742619D01*
X9321429Y-15714048D01*
X9311905Y-15695000D01*
X9292857Y-15666428D01*
X9283333Y-15656905D01*
D14*
X2250000Y-15995000D02*
X2250000Y-16175000D01*
X2160000Y-16085000D02*
X2340000Y-16085000D01*
D11*
X2702381Y-16175476D02*
X2588095Y-16175476D01*
X2645238Y-16175476D02*
X2645238Y-15975476D01*
X2626190Y-16004048D01*
X2607143Y-16023095D01*
X2588095Y-16032619D01*
X2788095Y-16156428D02*
X2797619Y-16165952D01*
X2788095Y-16175476D01*
X2778571Y-16165952D01*
X2788095Y-16156428D01*
X2788095Y-16175476D01*
X2911905Y-16061190D02*
X2892857Y-16051667D01*
X2883333Y-16042143D01*
X2873809Y-16023095D01*
X2873809Y-16013571D01*
X2883333Y-15994524D01*
X2892857Y-15985000D01*
X2911905Y-15975476D01*
X2950000Y-15975476D01*
X2969048Y-15985000D01*
X2978571Y-15994524D01*
X2988095Y-16013571D01*
X2988095Y-16023095D01*
X2978571Y-16042143D01*
X2969048Y-16051667D01*
X2950000Y-16061190D01*
X2911905Y-16061190D01*
X2892857Y-16070714D01*
X2883333Y-16080238D01*
X2873809Y-16099286D01*
X2873809Y-16137381D01*
X2883333Y-16156428D01*
X2892857Y-16165952D01*
X2911905Y-16175476D01*
X2950000Y-16175476D01*
X2969048Y-16165952D01*
X2978571Y-16156428D01*
X2988095Y-16137381D01*
X2988095Y-16099286D01*
X2978571Y-16080238D01*
X2969048Y-16070714D01*
X2950000Y-16061190D01*
X3111905Y-15975476D02*
X3130952Y-15975476D01*
X3150000Y-15985000D01*
X3159524Y-15994524D01*
X3169048Y-16013571D01*
X3178571Y-16051667D01*
X3178571Y-16099286D01*
X3169048Y-16137381D01*
X3159524Y-16156428D01*
X3150000Y-16165952D01*
X3130952Y-16175476D01*
X3111905Y-16175476D01*
X3092857Y-16165952D01*
X3083333Y-16156428D01*
X3073809Y-16137381D01*
X3064286Y-16099286D01*
X3064286Y-16051667D01*
X3073809Y-16013571D01*
X3083333Y-15994524D01*
X3092857Y-15985000D01*
X3111905Y-15975476D01*
X3302381Y-15975476D02*
X3321428Y-15975476D01*
X3340476Y-15985000D01*
X3350000Y-15994524D01*
X3359524Y-16013571D01*
X3369048Y-16051667D01*
X3369048Y-16099286D01*
X3359524Y-16137381D01*
X3350000Y-16156428D01*
X3340476Y-16165952D01*
X3321428Y-16175476D01*
X3302381Y-16175476D01*
X3283333Y-16165952D01*
X3273809Y-16156428D01*
X3264286Y-16137381D01*
X3254762Y-16099286D01*
X3254762Y-16051667D01*
X3264286Y-16013571D01*
X3273809Y-15994524D01*
X3283333Y-15985000D01*
X3302381Y-15975476D01*
X3454762Y-16175476D02*
X3454762Y-16042143D01*
X3454762Y-16061190D02*
X3464286Y-16051667D01*
X3483333Y-16042143D01*
X3511905Y-16042143D01*
X3530952Y-16051667D01*
X3540476Y-16070714D01*
X3540476Y-16175476D01*
X3540476Y-16070714D02*
X3550000Y-16051667D01*
X3569048Y-16042143D01*
X3597619Y-16042143D01*
X3616667Y-16051667D01*
X3626190Y-16070714D01*
X3626190Y-16175476D01*
X3721428Y-16175476D02*
X3721428Y-16042143D01*
X3721428Y-16061190D02*
X3730952Y-16051667D01*
X3750000Y-16042143D01*
X3778571Y-16042143D01*
X3797619Y-16051667D01*
X3807143Y-16070714D01*
X3807143Y-16175476D01*
X3807143Y-16070714D02*
X3816667Y-16051667D01*
X3835714Y-16042143D01*
X3864286Y-16042143D01*
X3883333Y-16051667D01*
X3892857Y-16070714D01*
X3892857Y-16175476D01*
X4283333Y-15965952D02*
X4111905Y-16223095D01*
X4540476Y-15975476D02*
X4559524Y-15975476D01*
X4578571Y-15985000D01*
X4588095Y-15994524D01*
X4597619Y-16013571D01*
X4607143Y-16051667D01*
X4607143Y-16099286D01*
X4597619Y-16137381D01*
X4588095Y-16156428D01*
X4578571Y-16165952D01*
X4559524Y-16175476D01*
X4540476Y-16175476D01*
X4521429Y-16165952D01*
X4511905Y-16156428D01*
X4502381Y-16137381D01*
X4492857Y-16099286D01*
X4492857Y-16051667D01*
X4502381Y-16013571D01*
X4511905Y-15994524D01*
X4521429Y-15985000D01*
X4540476Y-15975476D01*
X4692857Y-16156428D02*
X4702381Y-16165952D01*
X4692857Y-16175476D01*
X4683333Y-16165952D01*
X4692857Y-16156428D01*
X4692857Y-16175476D01*
X4826190Y-15975476D02*
X4845238Y-15975476D01*
X4864286Y-15985000D01*
X4873810Y-15994524D01*
X4883333Y-16013571D01*
X4892857Y-16051667D01*
X4892857Y-16099286D01*
X4883333Y-16137381D01*
X4873810Y-16156428D01*
X4864286Y-16165952D01*
X4845238Y-16175476D01*
X4826190Y-16175476D01*
X4807143Y-16165952D01*
X4797619Y-16156428D01*
X4788095Y-16137381D01*
X4778571Y-16099286D01*
X4778571Y-16051667D01*
X4788095Y-16013571D01*
X4797619Y-15994524D01*
X4807143Y-15985000D01*
X4826190Y-15975476D01*
X4959524Y-15975476D02*
X5092857Y-15975476D01*
X5007143Y-16175476D01*
X5207143Y-15975476D02*
X5226190Y-15975476D01*
X5245238Y-15985000D01*
X5254762Y-15994524D01*
X5264286Y-16013571D01*
X5273810Y-16051667D01*
X5273810Y-16099286D01*
X5264286Y-16137381D01*
X5254762Y-16156428D01*
X5245238Y-16165952D01*
X5226190Y-16175476D01*
X5207143Y-16175476D01*
X5188095Y-16165952D01*
X5178571Y-16156428D01*
X5169048Y-16137381D01*
X5159524Y-16099286D01*
X5159524Y-16051667D01*
X5169048Y-16013571D01*
X5178571Y-15994524D01*
X5188095Y-15985000D01*
X5207143Y-15975476D01*
X5369048Y-16175476D02*
X5407143Y-16175476D01*
X5426190Y-16165952D01*
X5435714Y-16156428D01*
X5454762Y-16127857D01*
X5464286Y-16089762D01*
X5464286Y-16013571D01*
X5454762Y-15994524D01*
X5445238Y-15985000D01*
X5426190Y-15975476D01*
X5388095Y-15975476D01*
X5369048Y-15985000D01*
X5359524Y-15994524D01*
X5350000Y-16013571D01*
X5350000Y-16061190D01*
X5359524Y-16080238D01*
X5369048Y-16089762D01*
X5388095Y-16099286D01*
X5426190Y-16099286D01*
X5445238Y-16089762D01*
X5454762Y-16080238D01*
X5464286Y-16061190D01*
X5540476Y-15975476D02*
X5540476Y-16013571D01*
X5616667Y-15975476D02*
X5616667Y-16013571D01*
X5911905Y-16251667D02*
X5902381Y-16242143D01*
X5883333Y-16213571D01*
X5873809Y-16194524D01*
X5864286Y-16165952D01*
X5854762Y-16118333D01*
X5854762Y-16080238D01*
X5864286Y-16032619D01*
X5873809Y-16004048D01*
X5883333Y-15985000D01*
X5902381Y-15956428D01*
X5911905Y-15946905D01*
X5978571Y-15994524D02*
X5988095Y-15985000D01*
X6007143Y-15975476D01*
X6054762Y-15975476D01*
X6073809Y-15985000D01*
X6083333Y-15994524D01*
X6092857Y-16013571D01*
X6092857Y-16032619D01*
X6083333Y-16061190D01*
X5969048Y-16175476D01*
X6092857Y-16175476D01*
X6330952Y-16175476D02*
X6330952Y-15975476D01*
X6416667Y-16175476D02*
X6416667Y-16070714D01*
X6407143Y-16051667D01*
X6388095Y-16042143D01*
X6359524Y-16042143D01*
X6340476Y-16051667D01*
X6330952Y-16061190D01*
X6540476Y-16175476D02*
X6521428Y-16165952D01*
X6511905Y-16156428D01*
X6502381Y-16137381D01*
X6502381Y-16080238D01*
X6511905Y-16061190D01*
X6521428Y-16051667D01*
X6540476Y-16042143D01*
X6569048Y-16042143D01*
X6588095Y-16051667D01*
X6597619Y-16061190D01*
X6607143Y-16080238D01*
X6607143Y-16137381D01*
X6597619Y-16156428D01*
X6588095Y-16165952D01*
X6569048Y-16175476D01*
X6540476Y-16175476D01*
X6721428Y-16175476D02*
X6702381Y-16165952D01*
X6692857Y-16146905D01*
X6692857Y-15975476D01*
X6873809Y-16165952D02*
X6854762Y-16175476D01*
X6816667Y-16175476D01*
X6797619Y-16165952D01*
X6788095Y-16146905D01*
X6788095Y-16070714D01*
X6797619Y-16051667D01*
X6816667Y-16042143D01*
X6854762Y-16042143D01*
X6873809Y-16051667D01*
X6883333Y-16070714D01*
X6883333Y-16089762D01*
X6788095Y-16108809D01*
X6959524Y-16165952D02*
X6978571Y-16175476D01*
X7016667Y-16175476D01*
X7035714Y-16165952D01*
X7045238Y-16146905D01*
X7045238Y-16137381D01*
X7035714Y-16118333D01*
X7016667Y-16108809D01*
X6988095Y-16108809D01*
X6969048Y-16099286D01*
X6959524Y-16080238D01*
X6959524Y-16070714D01*
X6969048Y-16051667D01*
X6988095Y-16042143D01*
X7016667Y-16042143D01*
X7035714Y-16051667D01*
X7111905Y-16251667D02*
X7121428Y-16242143D01*
X7140476Y-16213571D01*
X7150000Y-16194524D01*
X7159524Y-16165952D01*
X7169048Y-16118333D01*
X7169048Y-16080238D01*
X7159524Y-16032619D01*
X7150000Y-16004048D01*
X7140476Y-15985000D01*
X7121428Y-15956428D01*
X7111905Y-15946905D01*
X7473809Y-16251667D02*
X7464286Y-16242143D01*
X7445238Y-16213571D01*
X7435714Y-16194524D01*
X7426190Y-16165952D01*
X7416667Y-16118333D01*
X7416667Y-16080238D01*
X7426190Y-16032619D01*
X7435714Y-16004048D01*
X7445238Y-15985000D01*
X7464286Y-15956428D01*
X7473809Y-15946905D01*
X7550000Y-16042143D02*
X7550000Y-16175476D01*
X7550000Y-16061190D02*
X7559524Y-16051667D01*
X7578571Y-16042143D01*
X7607143Y-16042143D01*
X7626190Y-16051667D01*
X7635714Y-16070714D01*
X7635714Y-16175476D01*
X7759524Y-16175476D02*
X7740476Y-16165952D01*
X7730952Y-16156428D01*
X7721428Y-16137381D01*
X7721428Y-16080238D01*
X7730952Y-16061190D01*
X7740476Y-16051667D01*
X7759524Y-16042143D01*
X7788095Y-16042143D01*
X7807143Y-16051667D01*
X7816667Y-16061190D01*
X7826190Y-16080238D01*
X7826190Y-16137381D01*
X7816667Y-16156428D01*
X7807143Y-16165952D01*
X7788095Y-16175476D01*
X7759524Y-16175476D01*
X7883333Y-16042143D02*
X7959524Y-16042143D01*
X7911905Y-15975476D02*
X7911905Y-16146905D01*
X7921428Y-16165952D01*
X7940476Y-16175476D01*
X7959524Y-16175476D01*
X8178571Y-16042143D02*
X8178571Y-16242143D01*
X8178571Y-16051667D02*
X8197619Y-16042143D01*
X8235714Y-16042143D01*
X8254762Y-16051667D01*
X8264286Y-16061190D01*
X8273809Y-16080238D01*
X8273809Y-16137381D01*
X8264286Y-16156428D01*
X8254762Y-16165952D01*
X8235714Y-16175476D01*
X8197619Y-16175476D01*
X8178571Y-16165952D01*
X8388095Y-16175476D02*
X8369048Y-16165952D01*
X8359524Y-16146905D01*
X8359524Y-15975476D01*
X8550000Y-16175476D02*
X8550000Y-16070714D01*
X8540476Y-16051667D01*
X8521429Y-16042143D01*
X8483333Y-16042143D01*
X8464286Y-16051667D01*
X8550000Y-16165952D02*
X8530952Y-16175476D01*
X8483333Y-16175476D01*
X8464286Y-16165952D01*
X8454762Y-16146905D01*
X8454762Y-16127857D01*
X8464286Y-16108809D01*
X8483333Y-16099286D01*
X8530952Y-16099286D01*
X8550000Y-16089762D01*
X8616667Y-16042143D02*
X8692857Y-16042143D01*
X8645238Y-15975476D02*
X8645238Y-16146905D01*
X8654762Y-16165952D01*
X8673810Y-16175476D01*
X8692857Y-16175476D01*
X8835714Y-16165952D02*
X8816667Y-16175476D01*
X8778571Y-16175476D01*
X8759524Y-16165952D01*
X8750000Y-16146905D01*
X8750000Y-16070714D01*
X8759524Y-16051667D01*
X8778571Y-16042143D01*
X8816667Y-16042143D01*
X8835714Y-16051667D01*
X8845238Y-16070714D01*
X8845238Y-16089762D01*
X8750000Y-16108809D01*
X9016667Y-16175476D02*
X9016667Y-15975476D01*
X9016667Y-16165952D02*
X8997619Y-16175476D01*
X8959524Y-16175476D01*
X8940476Y-16165952D01*
X8930952Y-16156428D01*
X8921429Y-16137381D01*
X8921429Y-16080238D01*
X8930952Y-16061190D01*
X8940476Y-16051667D01*
X8959524Y-16042143D01*
X8997619Y-16042143D01*
X9016667Y-16051667D01*
X9092857Y-16251667D02*
X9102381Y-16242143D01*
X9121429Y-16213571D01*
X9130952Y-16194524D01*
X9140476Y-16165952D01*
X9150000Y-16118333D01*
X9150000Y-16080238D01*
X9140476Y-16032619D01*
X9130952Y-16004048D01*
X9121429Y-15985000D01*
X9102381Y-15956428D01*
X9092857Y-15946905D01*
X2310711Y-16455711D02*
X2310711Y-16314289D01*
X2169289Y-16314289D01*
X2169289Y-16455711D01*
X2310711Y-16455711D01*
X2578571Y-16275476D02*
X2702381Y-16275476D01*
X2635714Y-16351667D01*
X2664286Y-16351667D01*
X2683333Y-16361190D01*
X2692857Y-16370714D01*
X2702381Y-16389762D01*
X2702381Y-16437381D01*
X2692857Y-16456428D01*
X2683333Y-16465952D01*
X2664286Y-16475476D01*
X2607143Y-16475476D01*
X2588095Y-16465952D01*
X2578571Y-16456428D01*
X2788095Y-16456428D02*
X2797619Y-16465952D01*
X2788095Y-16475476D01*
X2778571Y-16465952D01*
X2788095Y-16456428D01*
X2788095Y-16475476D01*
X2969048Y-16342143D02*
X2969048Y-16475476D01*
X2921428Y-16265952D02*
X2873809Y-16408809D01*
X2997619Y-16408809D01*
X3111905Y-16275476D02*
X3130952Y-16275476D01*
X3150000Y-16285000D01*
X3159524Y-16294524D01*
X3169048Y-16313571D01*
X3178571Y-16351667D01*
X3178571Y-16399286D01*
X3169048Y-16437381D01*
X3159524Y-16456428D01*
X3150000Y-16465952D01*
X3130952Y-16475476D01*
X3111905Y-16475476D01*
X3092857Y-16465952D01*
X3083333Y-16456428D01*
X3073809Y-16437381D01*
X3064286Y-16399286D01*
X3064286Y-16351667D01*
X3073809Y-16313571D01*
X3083333Y-16294524D01*
X3092857Y-16285000D01*
X3111905Y-16275476D01*
X3302381Y-16275476D02*
X3321428Y-16275476D01*
X3340476Y-16285000D01*
X3350000Y-16294524D01*
X3359524Y-16313571D01*
X3369048Y-16351667D01*
X3369048Y-16399286D01*
X3359524Y-16437381D01*
X3350000Y-16456428D01*
X3340476Y-16465952D01*
X3321428Y-16475476D01*
X3302381Y-16475476D01*
X3283333Y-16465952D01*
X3273809Y-16456428D01*
X3264286Y-16437381D01*
X3254762Y-16399286D01*
X3254762Y-16351667D01*
X3264286Y-16313571D01*
X3273809Y-16294524D01*
X3283333Y-16285000D01*
X3302381Y-16275476D01*
X3454762Y-16475476D02*
X3454762Y-16342143D01*
X3454762Y-16361190D02*
X3464286Y-16351667D01*
X3483333Y-16342143D01*
X3511905Y-16342143D01*
X3530952Y-16351667D01*
X3540476Y-16370714D01*
X3540476Y-16475476D01*
X3540476Y-16370714D02*
X3550000Y-16351667D01*
X3569048Y-16342143D01*
X3597619Y-16342143D01*
X3616667Y-16351667D01*
X3626190Y-16370714D01*
X3626190Y-16475476D01*
X3721428Y-16475476D02*
X3721428Y-16342143D01*
X3721428Y-16361190D02*
X3730952Y-16351667D01*
X3750000Y-16342143D01*
X3778571Y-16342143D01*
X3797619Y-16351667D01*
X3807143Y-16370714D01*
X3807143Y-16475476D01*
X3807143Y-16370714D02*
X3816667Y-16351667D01*
X3835714Y-16342143D01*
X3864286Y-16342143D01*
X3883333Y-16351667D01*
X3892857Y-16370714D01*
X3892857Y-16475476D01*
X4283333Y-16265952D02*
X4111905Y-16523095D01*
X4540476Y-16275476D02*
X4559524Y-16275476D01*
X4578571Y-16285000D01*
X4588095Y-16294524D01*
X4597619Y-16313571D01*
X4607143Y-16351667D01*
X4607143Y-16399286D01*
X4597619Y-16437381D01*
X4588095Y-16456428D01*
X4578571Y-16465952D01*
X4559524Y-16475476D01*
X4540476Y-16475476D01*
X4521429Y-16465952D01*
X4511905Y-16456428D01*
X4502381Y-16437381D01*
X4492857Y-16399286D01*
X4492857Y-16351667D01*
X4502381Y-16313571D01*
X4511905Y-16294524D01*
X4521429Y-16285000D01*
X4540476Y-16275476D01*
X4692857Y-16456428D02*
X4702381Y-16465952D01*
X4692857Y-16475476D01*
X4683333Y-16465952D01*
X4692857Y-16456428D01*
X4692857Y-16475476D01*
X4892857Y-16475476D02*
X4778571Y-16475476D01*
X4835714Y-16475476D02*
X4835714Y-16275476D01*
X4816667Y-16304048D01*
X4797619Y-16323095D01*
X4778571Y-16332619D01*
X4959524Y-16275476D02*
X5083333Y-16275476D01*
X5016667Y-16351667D01*
X5045238Y-16351667D01*
X5064286Y-16361190D01*
X5073810Y-16370714D01*
X5083333Y-16389762D01*
X5083333Y-16437381D01*
X5073810Y-16456428D01*
X5064286Y-16465952D01*
X5045238Y-16475476D01*
X4988095Y-16475476D01*
X4969048Y-16465952D01*
X4959524Y-16456428D01*
X5150000Y-16275476D02*
X5273810Y-16275476D01*
X5207143Y-16351667D01*
X5235714Y-16351667D01*
X5254762Y-16361190D01*
X5264286Y-16370714D01*
X5273810Y-16389762D01*
X5273810Y-16437381D01*
X5264286Y-16456428D01*
X5254762Y-16465952D01*
X5235714Y-16475476D01*
X5178571Y-16475476D01*
X5159524Y-16465952D01*
X5150000Y-16456428D01*
X5369048Y-16475476D02*
X5407143Y-16475476D01*
X5426190Y-16465952D01*
X5435714Y-16456428D01*
X5454762Y-16427857D01*
X5464286Y-16389762D01*
X5464286Y-16313571D01*
X5454762Y-16294524D01*
X5445238Y-16285000D01*
X5426190Y-16275476D01*
X5388095Y-16275476D01*
X5369048Y-16285000D01*
X5359524Y-16294524D01*
X5350000Y-16313571D01*
X5350000Y-16361190D01*
X5359524Y-16380238D01*
X5369048Y-16389762D01*
X5388095Y-16399286D01*
X5426190Y-16399286D01*
X5445238Y-16389762D01*
X5454762Y-16380238D01*
X5464286Y-16361190D01*
X5540476Y-16275476D02*
X5540476Y-16313571D01*
X5616667Y-16275476D02*
X5616667Y-16313571D01*
X5911905Y-16551667D02*
X5902381Y-16542143D01*
X5883333Y-16513571D01*
X5873809Y-16494524D01*
X5864286Y-16465952D01*
X5854762Y-16418333D01*
X5854762Y-16380238D01*
X5864286Y-16332619D01*
X5873809Y-16304048D01*
X5883333Y-16285000D01*
X5902381Y-16256428D01*
X5911905Y-16246905D01*
X5969048Y-16275476D02*
X6092857Y-16275476D01*
X6026190Y-16351667D01*
X6054762Y-16351667D01*
X6073809Y-16361190D01*
X6083333Y-16370714D01*
X6092857Y-16389762D01*
X6092857Y-16437381D01*
X6083333Y-16456428D01*
X6073809Y-16465952D01*
X6054762Y-16475476D01*
X5997619Y-16475476D01*
X5978571Y-16465952D01*
X5969048Y-16456428D01*
X6264286Y-16275476D02*
X6226190Y-16275476D01*
X6207143Y-16285000D01*
X6197619Y-16294524D01*
X6178571Y-16323095D01*
X6169048Y-16361190D01*
X6169048Y-16437381D01*
X6178571Y-16456428D01*
X6188095Y-16465952D01*
X6207143Y-16475476D01*
X6245238Y-16475476D01*
X6264286Y-16465952D01*
X6273809Y-16456428D01*
X6283333Y-16437381D01*
X6283333Y-16389762D01*
X6273809Y-16370714D01*
X6264286Y-16361190D01*
X6245238Y-16351667D01*
X6207143Y-16351667D01*
X6188095Y-16361190D01*
X6178571Y-16370714D01*
X6169048Y-16389762D01*
X6521428Y-16475476D02*
X6521428Y-16275476D01*
X6607143Y-16475476D02*
X6607143Y-16370714D01*
X6597619Y-16351667D01*
X6578571Y-16342143D01*
X6550000Y-16342143D01*
X6530952Y-16351667D01*
X6521428Y-16361190D01*
X6730952Y-16475476D02*
X6711905Y-16465952D01*
X6702381Y-16456428D01*
X6692857Y-16437381D01*
X6692857Y-16380238D01*
X6702381Y-16361190D01*
X6711905Y-16351667D01*
X6730952Y-16342143D01*
X6759524Y-16342143D01*
X6778571Y-16351667D01*
X6788095Y-16361190D01*
X6797619Y-16380238D01*
X6797619Y-16437381D01*
X6788095Y-16456428D01*
X6778571Y-16465952D01*
X6759524Y-16475476D01*
X6730952Y-16475476D01*
X6911905Y-16475476D02*
X6892857Y-16465952D01*
X6883333Y-16446905D01*
X6883333Y-16275476D01*
X7064286Y-16465952D02*
X7045238Y-16475476D01*
X7007143Y-16475476D01*
X6988095Y-16465952D01*
X6978571Y-16446905D01*
X6978571Y-16370714D01*
X6988095Y-16351667D01*
X7007143Y-16342143D01*
X7045238Y-16342143D01*
X7064286Y-16351667D01*
X7073809Y-16370714D01*
X7073809Y-16389762D01*
X6978571Y-16408809D01*
X7150000Y-16465952D02*
X7169048Y-16475476D01*
X7207143Y-16475476D01*
X7226190Y-16465952D01*
X7235714Y-16446905D01*
X7235714Y-16437381D01*
X7226190Y-16418333D01*
X7207143Y-16408809D01*
X7178571Y-16408809D01*
X7159524Y-16399286D01*
X7150000Y-16380238D01*
X7150000Y-16370714D01*
X7159524Y-16351667D01*
X7178571Y-16342143D01*
X7207143Y-16342143D01*
X7226190Y-16351667D01*
X7302381Y-16551667D02*
X7311905Y-16542143D01*
X7330952Y-16513571D01*
X7340476Y-16494524D01*
X7350000Y-16465952D01*
X7359524Y-16418333D01*
X7359524Y-16380238D01*
X7350000Y-16332619D01*
X7340476Y-16304048D01*
X7330952Y-16285000D01*
X7311905Y-16256428D01*
X7302381Y-16246905D01*
X7664286Y-16551667D02*
X7654762Y-16542143D01*
X7635714Y-16513571D01*
X7626190Y-16494524D01*
X7616667Y-16465952D01*
X7607143Y-16418333D01*
X7607143Y-16380238D01*
X7616667Y-16332619D01*
X7626190Y-16304048D01*
X7635714Y-16285000D01*
X7654762Y-16256428D01*
X7664286Y-16246905D01*
X7740476Y-16342143D02*
X7740476Y-16475476D01*
X7740476Y-16361190D02*
X7750000Y-16351667D01*
X7769048Y-16342143D01*
X7797619Y-16342143D01*
X7816667Y-16351667D01*
X7826190Y-16370714D01*
X7826190Y-16475476D01*
X7950000Y-16475476D02*
X7930952Y-16465952D01*
X7921428Y-16456428D01*
X7911905Y-16437381D01*
X7911905Y-16380238D01*
X7921428Y-16361190D01*
X7930952Y-16351667D01*
X7950000Y-16342143D01*
X7978571Y-16342143D01*
X7997619Y-16351667D01*
X8007143Y-16361190D01*
X8016667Y-16380238D01*
X8016667Y-16437381D01*
X8007143Y-16456428D01*
X7997619Y-16465952D01*
X7978571Y-16475476D01*
X7950000Y-16475476D01*
X8073809Y-16342143D02*
X8150000Y-16342143D01*
X8102381Y-16275476D02*
X8102381Y-16446905D01*
X8111905Y-16465952D01*
X8130952Y-16475476D01*
X8150000Y-16475476D01*
X8369048Y-16342143D02*
X8369048Y-16542143D01*
X8369048Y-16351667D02*
X8388095Y-16342143D01*
X8426190Y-16342143D01*
X8445238Y-16351667D01*
X8454762Y-16361190D01*
X8464286Y-16380238D01*
X8464286Y-16437381D01*
X8454762Y-16456428D01*
X8445238Y-16465952D01*
X8426190Y-16475476D01*
X8388095Y-16475476D01*
X8369048Y-16465952D01*
X8578571Y-16475476D02*
X8559524Y-16465952D01*
X8550000Y-16446905D01*
X8550000Y-16275476D01*
X8740476Y-16475476D02*
X8740476Y-16370714D01*
X8730952Y-16351667D01*
X8711905Y-16342143D01*
X8673810Y-16342143D01*
X8654762Y-16351667D01*
X8740476Y-16465952D02*
X8721429Y-16475476D01*
X8673810Y-16475476D01*
X8654762Y-16465952D01*
X8645238Y-16446905D01*
X8645238Y-16427857D01*
X8654762Y-16408809D01*
X8673810Y-16399286D01*
X8721429Y-16399286D01*
X8740476Y-16389762D01*
X8807143Y-16342143D02*
X8883333Y-16342143D01*
X8835714Y-16275476D02*
X8835714Y-16446905D01*
X8845238Y-16465952D01*
X8864286Y-16475476D01*
X8883333Y-16475476D01*
X9026190Y-16465952D02*
X9007143Y-16475476D01*
X8969048Y-16475476D01*
X8950000Y-16465952D01*
X8940476Y-16446905D01*
X8940476Y-16370714D01*
X8950000Y-16351667D01*
X8969048Y-16342143D01*
X9007143Y-16342143D01*
X9026190Y-16351667D01*
X9035714Y-16370714D01*
X9035714Y-16389762D01*
X8940476Y-16408809D01*
X9207143Y-16475476D02*
X9207143Y-16275476D01*
X9207143Y-16465952D02*
X9188095Y-16475476D01*
X9150000Y-16475476D01*
X9130952Y-16465952D01*
X9121429Y-16456428D01*
X9111905Y-16437381D01*
X9111905Y-16380238D01*
X9121429Y-16361190D01*
X9130952Y-16351667D01*
X9150000Y-16342143D01*
X9188095Y-16342143D01*
X9207143Y-16351667D01*
X9283333Y-16551667D02*
X9292857Y-16542143D01*
X9311905Y-16513571D01*
X9321429Y-16494524D01*
X9330952Y-16465952D01*
X9340476Y-16418333D01*
X9340476Y-16380238D01*
X9330952Y-16332619D01*
X9321429Y-16304048D01*
X9311905Y-16285000D01*
X9292857Y-16256428D01*
X9283333Y-16246905D01*
M02*
