G04 #@! TF.GenerationSoftware,KiCad,Pcbnew,(6.0.4)*
G04 #@! TF.CreationDate,2022-04-18T23:02:15-04:00*
G04 #@! TF.ProjectId,crowboard,63726f77-626f-4617-9264-2e6b69636164,rev?*
G04 #@! TF.SameCoordinates,Original*
G04 #@! TF.FileFunction,Copper,L2,Bot*
G04 #@! TF.FilePolarity,Positive*
%FSLAX46Y46*%
G04 Gerber Fmt 4.6, Leading zero omitted, Abs format (unit mm)*
G04 Created by KiCad (PCBNEW (6.0.4)) date 2022-04-18 23:02:15*
%MOMM*%
%LPD*%
G01*
G04 APERTURE LIST*
G04 Aperture macros list*
%AMRotRect*
0 Rectangle, with rotation*
0 The origin of the aperture is its center*
0 $1 length*
0 $2 width*
0 $3 Rotation angle, in degrees counterclockwise*
0 Add horizontal line*
21,1,$1,$2,0,0,$3*%
G04 Aperture macros list end*
G04 #@! TA.AperFunction,ComponentPad*
%ADD10C,2.000000*%
G04 #@! TD*
G04 #@! TA.AperFunction,SMDPad,CuDef*
%ADD11RotRect,1.600000X1.200000X345.000000*%
G04 #@! TD*
G04 #@! TA.AperFunction,SMDPad,CuDef*
%ADD12RotRect,2.900000X0.500000X345.000000*%
G04 #@! TD*
G04 #@! TA.AperFunction,ComponentPad*
%ADD13RotRect,1.600000X1.600000X345.000000*%
G04 #@! TD*
G04 #@! TA.AperFunction,ComponentPad*
%ADD14C,1.600000*%
G04 #@! TD*
G04 #@! TA.AperFunction,SMDPad,CuDef*
%ADD15RotRect,2.900000X0.500000X15.000000*%
G04 #@! TD*
G04 #@! TA.AperFunction,SMDPad,CuDef*
%ADD16RotRect,1.600000X1.200000X15.000000*%
G04 #@! TD*
G04 #@! TA.AperFunction,ComponentPad*
%ADD17RotRect,1.600000X1.600000X15.000000*%
G04 #@! TD*
G04 #@! TA.AperFunction,ComponentPad*
%ADD18O,1.700000X1.700000*%
G04 #@! TD*
G04 #@! TA.AperFunction,ComponentPad*
%ADD19R,1.700000X1.700000*%
G04 #@! TD*
G04 #@! TA.AperFunction,ViaPad*
%ADD20C,0.800000*%
G04 #@! TD*
G04 #@! TA.AperFunction,Conductor*
%ADD21C,0.500000*%
G04 #@! TD*
G04 APERTURE END LIST*
D10*
X91017597Y-94045101D03*
X86731487Y-90722562D03*
D11*
X39159473Y-72398128D03*
D12*
X40221992Y-72682829D03*
D13*
X41574288Y-73045175D03*
D12*
X35392362Y-71388733D03*
D14*
X34040066Y-71026387D03*
D11*
X36454881Y-71673434D03*
D15*
X196210381Y-60735151D03*
D14*
X194858085Y-61097497D03*
D16*
X197272900Y-60450450D03*
D15*
X201040011Y-59441055D03*
D17*
X202392307Y-59078709D03*
D16*
X199977492Y-59725756D03*
D10*
X64076829Y-47382321D03*
X59790719Y-44059782D03*
D15*
X258603358Y-72778269D03*
D14*
X257251062Y-73140615D03*
D16*
X259665877Y-72493568D03*
X262370469Y-71768874D03*
D15*
X263432988Y-71484173D03*
D17*
X264785284Y-71121827D03*
D10*
X219439865Y-83919142D03*
X224813014Y-84653491D03*
D13*
X103967265Y-61002057D03*
D12*
X102614969Y-60639711D03*
D11*
X101552450Y-60355010D03*
D12*
X97785339Y-59345615D03*
D14*
X96433043Y-58983269D03*
D11*
X98847858Y-59630316D03*
X113995646Y-87519918D03*
D12*
X115058165Y-87804619D03*
D13*
X116410461Y-88166965D03*
D14*
X108876239Y-86148177D03*
D11*
X111291054Y-86795224D03*
D12*
X110228535Y-86510523D03*
X110127663Y-106205506D03*
D13*
X111479959Y-106567852D03*
D11*
X109065144Y-105920805D03*
D12*
X105298033Y-104911410D03*
D11*
X106360552Y-105196111D03*
D14*
X103945737Y-104549064D03*
D10*
X38539958Y-69301004D03*
X34253848Y-65978465D03*
D15*
X201140883Y-79136038D03*
D14*
X199788587Y-79498384D03*
D16*
X202203402Y-78851337D03*
D17*
X207322809Y-77479596D03*
D15*
X205970513Y-77841942D03*
D16*
X204907994Y-78126643D03*
D15*
X237942657Y-69275032D03*
D14*
X236590361Y-69637378D03*
D16*
X239005176Y-68990331D03*
X241709768Y-68265637D03*
D17*
X244124583Y-67618590D03*
D15*
X242772287Y-67980936D03*
D10*
X83710341Y-47712602D03*
X79424231Y-44390063D03*
D12*
X97684466Y-79040598D03*
D11*
X96621947Y-78755897D03*
D13*
X99036762Y-79402944D03*
D12*
X92854836Y-77746502D03*
D11*
X93917355Y-78031203D03*
D14*
X91502540Y-77384156D03*
D11*
X74523183Y-87626059D03*
D12*
X75585702Y-87910760D03*
D13*
X76937998Y-88273106D03*
D12*
X70756072Y-86616664D03*
D11*
X71818591Y-86901365D03*
D14*
X69403776Y-86254318D03*
D10*
X197341101Y-75048980D03*
X202714250Y-75783329D03*
X202560575Y-127775631D03*
X207860846Y-126627968D03*
D16*
X219371664Y-69320612D03*
D15*
X218309145Y-69605313D03*
D14*
X216956849Y-69967659D03*
D17*
X224491071Y-67948871D03*
D16*
X222076256Y-68595918D03*
D15*
X223138775Y-68311217D03*
D13*
X62234988Y-69541938D03*
D12*
X60882692Y-69179592D03*
D11*
X59820173Y-68894891D03*
X57115581Y-68170197D03*
D14*
X54700766Y-67523150D03*
D12*
X56053062Y-67885496D03*
D10*
X29323346Y-84379352D03*
X33609456Y-87701891D03*
D12*
X55952190Y-87580479D03*
D13*
X57304486Y-87942825D03*
D11*
X54889671Y-87295778D03*
X52185079Y-86571084D03*
D12*
X51122560Y-86286383D03*
D14*
X49770264Y-85924037D03*
D11*
X91691445Y-97156784D03*
D13*
X94106260Y-97803831D03*
D12*
X92753964Y-97441485D03*
X87924334Y-96147389D03*
D14*
X86572038Y-95785043D03*
D11*
X88986853Y-96432090D03*
D13*
X86684300Y-51440598D03*
D11*
X84269485Y-50793551D03*
D12*
X85332004Y-51078252D03*
X80502374Y-49784156D03*
D11*
X81564893Y-50068857D03*
D14*
X79150078Y-49421810D03*
D12*
X35291489Y-91083716D03*
D13*
X36643785Y-91446062D03*
D11*
X34228970Y-90799015D03*
X31524378Y-90074321D03*
D14*
X29109563Y-89427274D03*
D12*
X30461859Y-89789620D03*
D10*
X229212372Y-46787087D03*
X234585521Y-47521436D03*
X54215823Y-84184095D03*
X49929713Y-80861556D03*
X43470461Y-50900117D03*
X39184351Y-47577578D03*
X184952238Y-102199329D03*
X190325387Y-102933678D03*
X110356704Y-139496188D03*
X108306094Y-134475730D03*
X118360968Y-66036465D03*
X114074858Y-62713926D03*
D15*
X178836682Y-69499171D03*
D16*
X179899201Y-69214470D03*
D14*
X177484386Y-69861517D03*
D17*
X185018608Y-67842729D03*
D15*
X183666312Y-68205075D03*
D16*
X182603793Y-68489776D03*
D13*
X46571198Y-54662082D03*
D12*
X45218902Y-54299736D03*
D11*
X44156383Y-54015035D03*
D14*
X39036976Y-52643294D03*
D12*
X40389272Y-53005640D03*
D11*
X41451791Y-53290341D03*
D10*
X259788412Y-87077540D03*
X265161561Y-87811889D03*
X249927406Y-50275766D03*
X255300555Y-51010115D03*
X175145566Y-65382997D03*
X180518715Y-66117346D03*
X95948100Y-75644214D03*
X91661990Y-72321675D03*
D16*
X190581957Y-109083059D03*
D15*
X189519438Y-109367760D03*
D14*
X188167142Y-109730106D03*
D15*
X194349068Y-108073664D03*
D16*
X193286549Y-108358365D03*
D17*
X195701364Y-107711318D03*
D10*
X180021735Y-83798442D03*
X185394884Y-84532791D03*
X73849336Y-84514376D03*
X69563226Y-81191837D03*
X78779839Y-66113489D03*
X74493729Y-62790950D03*
X234142875Y-65187974D03*
X239516024Y-65922323D03*
X91731207Y-126737966D03*
X88839957Y-122149865D03*
D18*
X140208000Y-46736000D03*
X140208000Y-49276000D03*
D19*
X140208000Y-51816000D03*
D18*
X140208000Y-54356000D03*
X140208000Y-56896000D03*
X140208000Y-59436000D03*
X140208000Y-61976000D03*
D19*
X140208000Y-64516000D03*
D18*
X140208000Y-67056000D03*
X140208000Y-69596000D03*
X140208000Y-72136000D03*
X140208000Y-74676000D03*
D19*
X140208000Y-77216000D03*
D18*
X140208000Y-79756000D03*
X140208000Y-82296000D03*
X140208000Y-84836000D03*
X140208000Y-87376000D03*
D19*
X140208000Y-89916000D03*
D18*
X140208000Y-92456000D03*
X140208000Y-94996000D03*
X157988000Y-94996000D03*
X157988000Y-92456000D03*
D19*
X157988000Y-89916000D03*
D18*
X157988000Y-87376000D03*
X157988000Y-84836000D03*
X157988000Y-82296000D03*
X157988000Y-79756000D03*
D19*
X157988000Y-77216000D03*
D18*
X157988000Y-74676000D03*
X157988000Y-72136000D03*
X157988000Y-69596000D03*
X157988000Y-67056000D03*
D19*
X157988000Y-64516000D03*
D18*
X157988000Y-61976000D03*
X157988000Y-59436000D03*
X157988000Y-56896000D03*
X157988000Y-54356000D03*
D19*
X157988000Y-51816000D03*
D18*
X157988000Y-49276000D03*
X157988000Y-46736000D03*
X146558000Y-94766000D03*
D19*
X149098000Y-94766000D03*
D18*
X151638000Y-94766000D03*
D15*
X191162939Y-115501389D03*
D14*
X189810643Y-115863735D03*
D16*
X192225458Y-115216688D03*
D17*
X197344865Y-113844947D03*
D15*
X195992569Y-114207293D03*
D16*
X194930050Y-114491994D03*
D15*
X188697687Y-106300945D03*
D16*
X189760206Y-106016244D03*
D14*
X187345391Y-106663291D03*
D15*
X193527317Y-105006849D03*
D16*
X192464798Y-105291550D03*
D17*
X194879613Y-104644503D03*
D10*
X184214892Y-141436800D03*
X189235350Y-139386190D03*
X113376132Y-84422793D03*
X109090022Y-81100254D03*
X192464931Y-56633534D03*
X197838080Y-57367883D03*
X108445629Y-102823680D03*
X104159519Y-99501141D03*
D16*
X207133905Y-97252224D03*
D15*
X206071386Y-97536925D03*
D14*
X204719090Y-97899271D03*
D16*
X209838497Y-96527530D03*
D17*
X212253312Y-95880483D03*
D15*
X210901016Y-96242829D03*
D14*
X241520864Y-88038265D03*
D16*
X243935679Y-87391218D03*
D15*
X242873160Y-87675919D03*
X247702790Y-86381823D03*
D17*
X249055086Y-86019477D03*
D16*
X246640271Y-86666524D03*
D11*
X64750676Y-50494004D03*
D13*
X67165491Y-51141051D03*
D12*
X65813195Y-50778705D03*
X60983565Y-49484609D03*
D14*
X59631269Y-49122263D03*
D11*
X62046084Y-49769310D03*
D13*
X109022925Y-115737627D03*
D11*
X106608110Y-115090580D03*
D12*
X107670629Y-115375281D03*
D11*
X103903518Y-114365886D03*
D12*
X102840999Y-114081185D03*
D14*
X101488703Y-113718839D03*
D10*
X254857909Y-68676653D03*
X260231058Y-69411002D03*
X100932936Y-57257885D03*
X96646826Y-53935346D03*
D16*
X233959970Y-50620179D03*
D15*
X232897451Y-50904880D03*
D14*
X231545155Y-51267226D03*
D15*
X237727081Y-49610784D03*
D17*
X239079377Y-49248438D03*
D16*
X236664562Y-49895485D03*
D10*
X202271604Y-93449867D03*
X207644753Y-94184216D03*
X222607981Y-120066371D03*
X228027019Y-119856526D03*
D15*
X183767185Y-87900058D03*
D14*
X182414889Y-88262404D03*
D16*
X184829704Y-87615357D03*
D17*
X189949111Y-86243616D03*
D15*
X188596815Y-86605962D03*
D16*
X187534296Y-86890663D03*
X224302167Y-87721499D03*
D15*
X223239648Y-88006200D03*
D14*
X221887352Y-88368546D03*
D16*
X227006759Y-86996805D03*
D15*
X228069278Y-86712104D03*
D17*
X229421574Y-86349758D03*
D16*
X264596380Y-90894455D03*
D15*
X263533861Y-91179156D03*
D14*
X262181565Y-91541502D03*
D15*
X268363491Y-89885060D03*
D17*
X269715787Y-89522714D03*
D16*
X267300972Y-90169761D03*
X254735374Y-54092681D03*
D14*
X252320559Y-54739728D03*
D15*
X253672855Y-54377382D03*
D17*
X259854781Y-52720940D03*
D16*
X257439966Y-53367987D03*
D15*
X258502485Y-53083286D03*
D10*
X209578859Y-47117368D03*
X214952008Y-47851717D03*
D16*
X214441161Y-50919725D03*
D15*
X213378642Y-51204426D03*
D14*
X212026346Y-51566772D03*
D15*
X218208272Y-49910330D03*
D17*
X219560568Y-49547984D03*
D16*
X217145753Y-50195031D03*
D10*
X239073378Y-83588861D03*
X244446527Y-84323210D03*
D12*
X108492379Y-112308467D03*
D11*
X107429860Y-112023766D03*
D13*
X109844675Y-112670813D03*
D14*
X102310453Y-110652025D03*
D12*
X103662749Y-111014371D03*
D11*
X104725268Y-111299072D03*
D13*
X81868501Y-69872219D03*
D12*
X80516205Y-69509873D03*
D11*
X79453686Y-69225172D03*
D12*
X75686575Y-68215777D03*
D11*
X76749094Y-68500478D03*
D14*
X74334279Y-67853431D03*
D16*
X191403707Y-112149873D03*
D14*
X188988892Y-112796920D03*
D15*
X190341188Y-112434574D03*
D16*
X194108299Y-111425179D03*
D15*
X195170818Y-111140478D03*
D17*
X196523114Y-110778132D03*
D13*
X110658208Y-109634666D03*
D11*
X108243393Y-108987619D03*
D12*
X109305912Y-109272320D03*
X104476282Y-107978224D03*
D11*
X105538801Y-108262925D03*
D14*
X103123986Y-107615878D03*
D12*
X119988668Y-69403732D03*
D13*
X121340964Y-69766078D03*
D11*
X118926149Y-69119031D03*
D12*
X115159038Y-68109636D03*
D14*
X113806742Y-67747290D03*
D11*
X116221557Y-68394337D03*
D10*
X59146326Y-65783208D03*
X54860216Y-62460669D03*
X214509362Y-65518255D03*
X219882511Y-66252604D03*
X71565034Y-119966524D03*
X67920994Y-115950186D03*
D20*
X161755188Y-92430188D03*
X174585500Y-99225000D03*
X174875000Y-87375000D03*
X124225000Y-81125000D03*
D21*
X165276000Y-74676000D02*
X157988000Y-74676000D01*
X165932384Y-75332384D02*
X165276000Y-74676000D01*
X162498038Y-79756000D02*
X157988000Y-79756000D01*
X171595134Y-70658904D02*
X162498038Y-79756000D01*
X171595134Y-62017334D02*
X171595134Y-70658904D01*
X181555051Y-57857051D02*
X181217344Y-57519344D01*
X176093124Y-57519344D02*
X171595134Y-62017334D01*
X190516207Y-48895895D02*
X181555051Y-57857051D01*
X203072105Y-48895895D02*
X190516207Y-48895895D01*
X206630424Y-45337576D02*
X203072105Y-48895895D01*
X232401661Y-45337576D02*
X206630424Y-45337576D01*
X234585521Y-47521436D02*
X232401661Y-45337576D01*
X181217344Y-57519344D02*
X176093124Y-57519344D01*
X160947308Y-82296000D02*
X157988000Y-82296000D01*
X172294654Y-70948654D02*
X160947308Y-82296000D01*
X172294654Y-66183990D02*
X172294654Y-70948654D01*
X175260000Y-63218644D02*
X172294654Y-66183990D01*
X175260000Y-61039473D02*
X175260000Y-63218644D01*
X178080610Y-58218863D02*
X175260000Y-61039473D01*
X180900863Y-58218863D02*
X178080610Y-58218863D01*
X181541686Y-58859686D02*
X180900863Y-58218863D01*
X188658467Y-51742905D02*
X181541686Y-58859686D01*
X192786000Y-52971458D02*
X191557447Y-51742905D01*
X191557447Y-51742905D02*
X188658467Y-51742905D01*
X192786000Y-53742427D02*
X192786000Y-52971458D01*
X195201894Y-53742427D02*
X192786000Y-53742427D01*
X195561467Y-54102000D02*
X195201894Y-53742427D01*
X213974325Y-47851717D02*
X207724042Y-54102000D01*
X207724042Y-54102000D02*
X195561467Y-54102000D01*
X214952008Y-47851717D02*
X213974325Y-47851717D01*
X181356000Y-62876578D02*
X159396578Y-84836000D01*
X181356000Y-60034642D02*
X181356000Y-62876578D01*
X159396578Y-84836000D02*
X157988000Y-84836000D01*
X186948695Y-54441947D02*
X181356000Y-60034642D01*
X194912144Y-54441947D02*
X186948695Y-54441947D01*
X197838080Y-57367883D02*
X194912144Y-54441947D01*
X165465848Y-79898152D02*
X157988000Y-87376000D01*
X165465848Y-79756000D02*
X165465848Y-79898152D01*
X161755188Y-92218082D02*
X161755188Y-92430188D01*
X165849135Y-88124135D02*
X161755188Y-92218082D01*
X174585500Y-96560500D02*
X173525000Y-95500000D01*
X173525000Y-95500000D02*
X173525000Y-88074520D01*
X174585500Y-99225000D02*
X174585500Y-96560500D01*
X165898750Y-88074520D02*
X165849135Y-88124135D01*
X173525000Y-88074520D02*
X165898750Y-88074520D01*
X165609000Y-87375000D02*
X157988000Y-94996000D01*
X174875000Y-87375000D02*
X165609000Y-87375000D01*
X138304000Y-94996000D02*
X140208000Y-94996000D01*
X137900000Y-95400000D02*
X138304000Y-94996000D01*
X137900000Y-85200000D02*
X137900000Y-95400000D01*
X134050000Y-81350000D02*
X137900000Y-85200000D01*
X124450000Y-81350000D02*
X134050000Y-81350000D01*
X124225000Y-81125000D02*
X124450000Y-81350000D01*
X140127000Y-66975000D02*
X140208000Y-67056000D01*
X136525000Y-66975000D02*
X140127000Y-66975000D01*
X136425000Y-67075000D02*
X136525000Y-66975000D01*
X136425000Y-73825000D02*
X136425000Y-67075000D01*
X132800000Y-77450000D02*
X136425000Y-73825000D01*
X129175000Y-77450000D02*
X132800000Y-77450000D01*
X129175000Y-71371460D02*
X129175000Y-77450000D01*
X127375000Y-69571460D02*
X129175000Y-71371460D01*
X127375000Y-61600000D02*
X127375000Y-69571460D01*
X120925000Y-55150000D02*
X127375000Y-61600000D01*
X114000000Y-55150000D02*
X120925000Y-55150000D01*
X82663571Y-45563571D02*
X104413571Y-45563571D01*
X104413571Y-45563571D02*
X114000000Y-55150000D01*
X76500000Y-39400000D02*
X82663571Y-45563571D01*
X63601398Y-39400000D02*
X76500000Y-39400000D01*
X60391127Y-42610271D02*
X63601398Y-39400000D01*
X51760307Y-42610271D02*
X60391127Y-42610271D01*
X43470461Y-50900117D02*
X51760307Y-42610271D01*
X137254000Y-69596000D02*
X140208000Y-69596000D01*
X137175000Y-69675000D02*
X137254000Y-69596000D01*
X137175000Y-74075000D02*
X137175000Y-69675000D01*
X133100000Y-78150000D02*
X137175000Y-74075000D01*
X128475000Y-78150000D02*
X133100000Y-78150000D01*
X128475000Y-71660730D02*
X128475000Y-78150000D01*
X123175000Y-66360730D02*
X128475000Y-71660730D01*
X123175000Y-58975000D02*
X123175000Y-66360730D01*
X120050000Y-55850000D02*
X123175000Y-58975000D01*
X113649793Y-55850000D02*
X120050000Y-55850000D01*
X104812876Y-47013083D02*
X113649793Y-55850000D01*
X90975000Y-47013082D02*
X104812876Y-47013083D01*
X90225009Y-46263091D02*
X90975000Y-47013082D01*
X65196059Y-46263091D02*
X90225009Y-46263091D01*
X64076829Y-47382321D02*
X65196059Y-46263091D01*
X140208000Y-72152730D02*
X140208000Y-72136000D01*
X133360250Y-79000480D02*
X140208000Y-72152730D01*
X127750000Y-79000480D02*
X133360250Y-79000480D01*
X117688479Y-61863479D02*
X127750000Y-71925000D01*
X117688479Y-58963479D02*
X117688479Y-61863479D01*
X115600000Y-56875000D02*
X117688479Y-58963479D01*
X113685523Y-56875000D02*
X115600000Y-56875000D01*
X127750000Y-71925000D02*
X127750000Y-79000480D01*
X104523125Y-47712602D02*
X113685523Y-56875000D01*
X83710341Y-47712602D02*
X104523125Y-47712602D01*
X138674000Y-74676000D02*
X140208000Y-74676000D01*
X133650000Y-79700000D02*
X138674000Y-74676000D01*
X127024520Y-79700000D02*
X133650000Y-79700000D01*
X127024519Y-72279165D02*
X127024520Y-79700000D01*
X118495354Y-63750000D02*
X127024519Y-72279165D01*
X117502898Y-63750000D02*
X118495354Y-63750000D01*
X111010783Y-57257885D02*
X117502898Y-63750000D01*
X100932936Y-57257885D02*
X111010783Y-57257885D01*
X139439000Y-80525000D02*
X140208000Y-79756000D01*
X126325000Y-72568916D02*
X126325000Y-80525000D01*
X119792549Y-66036465D02*
X126325000Y-72568916D01*
X118360968Y-66036465D02*
X119792549Y-66036465D01*
X126325000Y-80525000D02*
X139439000Y-80525000D01*
X170525000Y-70739768D02*
X165932384Y-75332384D01*
X170525000Y-62098198D02*
X170525000Y-70739768D01*
X175803373Y-56819825D02*
X170525000Y-62098198D01*
X190422832Y-48000000D02*
X181603008Y-56819824D01*
X202800000Y-48000000D02*
X190422832Y-48000000D01*
X202800000Y-46980132D02*
X202800000Y-48000000D01*
X207553393Y-42226739D02*
X202800000Y-46980132D01*
X208671375Y-42226739D02*
X207553393Y-42226739D01*
X211082692Y-44638056D02*
X208671375Y-42226739D01*
X248928496Y-44638056D02*
X211082692Y-44638056D01*
X255300555Y-51010115D02*
X248928496Y-44638056D01*
X181603008Y-56819824D02*
X175803373Y-56819825D01*
X180518715Y-66117346D02*
X179104502Y-66117346D01*
X179104502Y-66117346D02*
X165465848Y-79756000D01*
X203580954Y-90120417D02*
X207644753Y-94184216D01*
X203580954Y-78189112D02*
X203580954Y-90120417D01*
X202714250Y-77322408D02*
X203580954Y-78189112D01*
X202714250Y-75783329D02*
X202714250Y-77322408D01*
X198650452Y-59788225D02*
X198650452Y-71719531D01*
X198650452Y-71719531D02*
X202714250Y-75783329D01*
X197838080Y-58975853D02*
X198650452Y-59788225D01*
X197838080Y-57367883D02*
X197838080Y-58975853D01*
X186394884Y-74320644D02*
X181226241Y-69152001D01*
X186394884Y-83532791D02*
X186394884Y-74320644D01*
X185394884Y-84532791D02*
X186394884Y-83532791D01*
X181226241Y-69152001D02*
X181226241Y-66824872D01*
X181226241Y-66824872D02*
X180518715Y-66117346D01*
X186156744Y-87552888D02*
X186156744Y-85294651D01*
X186156744Y-85294651D02*
X185394884Y-84532791D01*
X186588928Y-87985072D02*
X186156744Y-87552888D01*
X186588928Y-99197219D02*
X186588928Y-87985072D01*
X190325387Y-102933678D02*
X186588928Y-99197219D01*
X256062414Y-51771974D02*
X255300555Y-51010115D01*
X256062414Y-54030212D02*
X256062414Y-51771974D01*
X261231058Y-68411002D02*
X261231058Y-59198856D01*
X260231058Y-69411002D02*
X261231058Y-68411002D01*
X261231058Y-59198856D02*
X256062414Y-54030212D01*
X260992917Y-70172861D02*
X260231058Y-69411002D01*
X260992917Y-72431099D02*
X260992917Y-70172861D01*
X261043429Y-83693757D02*
X261043429Y-72481611D01*
X261043429Y-72481611D02*
X260992917Y-72431099D01*
X265161561Y-87811889D02*
X261043429Y-83693757D01*
X235287010Y-48222925D02*
X234585521Y-47521436D01*
X235287010Y-50557710D02*
X235287010Y-48222925D01*
X240516024Y-64922323D02*
X240516024Y-55786724D01*
X239516024Y-65922323D02*
X240516024Y-64922323D01*
X240516024Y-55786724D02*
X235287010Y-50557710D01*
X240719974Y-69315620D02*
X240332216Y-68927862D01*
X240719974Y-80596657D02*
X240719974Y-69315620D01*
X244446527Y-84323210D02*
X240719974Y-80596657D01*
X240332216Y-68927862D02*
X240332216Y-66738515D01*
X240332216Y-66738515D02*
X239516024Y-65922323D01*
X215768201Y-48667910D02*
X214952008Y-47851717D01*
X215768201Y-50857256D02*
X215768201Y-48667910D01*
X220882511Y-65252604D02*
X220882511Y-55971566D01*
X220882511Y-55971566D02*
X215768201Y-50857256D01*
X219882511Y-66252604D02*
X220882511Y-65252604D01*
X220698704Y-69258143D02*
X220698704Y-67068797D01*
X225813014Y-83653491D02*
X225813014Y-74372453D01*
X225813014Y-74372453D02*
X220698704Y-69258143D01*
X220698704Y-67068797D02*
X219882511Y-66252604D01*
X224813014Y-84653491D02*
X225813014Y-83653491D01*
X224097852Y-85368653D02*
X224813014Y-84653491D01*
X219177347Y-85368653D02*
X224097852Y-85368653D01*
X208912273Y-95633727D02*
X219177347Y-85368653D01*
X203126933Y-95633727D02*
X208912273Y-95633727D01*
X200281040Y-108841040D02*
X200281040Y-97790000D01*
X202438000Y-110998000D02*
X200281040Y-108841040D01*
X203248292Y-110998000D02*
X202438000Y-110998000D01*
X210433523Y-118183231D02*
X203248292Y-110998000D01*
X200970660Y-97790000D02*
X203126933Y-95633727D01*
X226353724Y-118183231D02*
X210433523Y-118183231D01*
X200281040Y-97790000D02*
X200970660Y-97790000D01*
X228027019Y-119856526D02*
X226353724Y-118183231D01*
X203587174Y-94184216D02*
X207644753Y-94184216D01*
X199390000Y-97028000D02*
X200743390Y-97028000D01*
X199581520Y-97219520D02*
X199390000Y-97028000D01*
X200743390Y-97028000D02*
X203587174Y-94184216D01*
X199581520Y-120010340D02*
X199581520Y-97219520D01*
X206199148Y-126627968D02*
X199581520Y-120010340D01*
X207860846Y-126627968D02*
X206199148Y-126627968D01*
X198882000Y-106426000D02*
X195389678Y-102933678D01*
X195389678Y-102933678D02*
X190325387Y-102933678D01*
X198882000Y-114489010D02*
X198882000Y-106426000D01*
X190302028Y-123068982D02*
X198882000Y-114489010D01*
X190302028Y-138319512D02*
X190302028Y-123068982D01*
X189235350Y-139386190D02*
X190302028Y-138319512D01*
X117599109Y-66798324D02*
X118360968Y-66036465D01*
X117599109Y-69056562D02*
X117599109Y-66798324D01*
X112376132Y-83422793D02*
X112376132Y-74279539D01*
X113376132Y-84422793D02*
X112376132Y-83422793D01*
X112376132Y-74279539D02*
X117599109Y-69056562D01*
X112618094Y-86771906D02*
X113376132Y-86013868D01*
X112618094Y-87533906D02*
X112618094Y-86771906D01*
X113376132Y-86013868D02*
X113376132Y-84422793D01*
X107445629Y-92706371D02*
X112618094Y-87533906D01*
X107445629Y-101823680D02*
X107445629Y-92706371D01*
X108445629Y-102823680D02*
X107445629Y-101823680D01*
X103904045Y-102823680D02*
X108445629Y-102823680D01*
X100239192Y-106488533D02*
X103904045Y-102823680D01*
X100239192Y-122943328D02*
X100239192Y-106488533D01*
X110356704Y-133060840D02*
X100239192Y-122943328D01*
X110356704Y-139496188D02*
X110356704Y-133060840D01*
X100225410Y-57965411D02*
X100932936Y-57257885D01*
X99674653Y-60843298D02*
X100225410Y-60292541D01*
X99674653Y-71917661D02*
X99674653Y-60843298D01*
X95948100Y-75644214D02*
X99674653Y-71917661D01*
X100225410Y-60292541D02*
X100225410Y-57965411D01*
X95244395Y-88283093D02*
X95244395Y-78093672D01*
X96012000Y-89050698D02*
X95244395Y-88283093D01*
X95244395Y-78093672D02*
X95948100Y-77389967D01*
X91017597Y-94045101D02*
X96012000Y-89050698D01*
X95948100Y-77389967D02*
X95948100Y-75644214D01*
X81471520Y-94234000D02*
X81660419Y-94045101D01*
X81660419Y-94045101D02*
X91017597Y-94045101D01*
X81471520Y-117892492D02*
X81471520Y-94234000D01*
X90316994Y-126737966D02*
X81471520Y-117892492D01*
X91731207Y-126737966D02*
X90316994Y-126737966D01*
X77928871Y-119966524D02*
X71565034Y-119966524D01*
X75384875Y-90424000D02*
X80772000Y-90424000D01*
X80772000Y-90424000D02*
X80772000Y-117123395D01*
X73145631Y-88184756D02*
X75384875Y-90424000D01*
X80772000Y-117123395D02*
X77928871Y-119966524D01*
X73145631Y-86963834D02*
X73145631Y-88184756D01*
X73849336Y-86260129D02*
X73145631Y-86963834D01*
X73849336Y-84514376D02*
X73849336Y-86260129D01*
X78076134Y-80287578D02*
X73849336Y-84514376D01*
X78779839Y-67859242D02*
X78076134Y-68562947D01*
X78779839Y-66113489D02*
X78779839Y-67859242D01*
X78076134Y-68562947D02*
X78076134Y-80287578D01*
X82891933Y-62001395D02*
X78779839Y-66113489D01*
X82891933Y-50131326D02*
X82891933Y-62001395D01*
X83710341Y-49312918D02*
X82891933Y-50131326D01*
X83710341Y-47712602D02*
X83710341Y-49312918D01*
X58420000Y-68255287D02*
X58420000Y-79979918D01*
X59146326Y-67528961D02*
X58420000Y-68255287D01*
X58420000Y-79979918D02*
X54215823Y-84184095D01*
X59146326Y-65783208D02*
X59146326Y-67528961D01*
X63373124Y-61556410D02*
X59146326Y-65783208D01*
X64076829Y-49128074D02*
X63373124Y-49831779D01*
X64076829Y-47382321D02*
X64076829Y-49128074D01*
X63373124Y-49831779D02*
X63373124Y-61556410D01*
X37781921Y-71735903D02*
X37781921Y-83529426D01*
X37781921Y-83529426D02*
X33609456Y-87701891D01*
X38539958Y-70977866D02*
X37781921Y-71735903D01*
X38539958Y-69301004D02*
X38539958Y-70977866D01*
X42778831Y-65062131D02*
X38539958Y-69301004D01*
X42778831Y-53352810D02*
X42778831Y-65062131D01*
X43470461Y-52661180D02*
X42778831Y-53352810D01*
X43470461Y-50900117D02*
X43470461Y-52661180D01*
G04 #@! TA.AperFunction,Conductor*
G36*
X162032854Y-91604795D02*
G01*
X162369284Y-91941225D01*
X162372711Y-91949498D01*
X162369401Y-91957653D01*
X162326826Y-92001455D01*
X162326768Y-92001515D01*
X162283646Y-92049443D01*
X162247611Y-92094267D01*
X162247494Y-92094437D01*
X162247492Y-92094440D01*
X162226141Y-92125525D01*
X162218199Y-92137087D01*
X162194946Y-92179004D01*
X162177389Y-92221118D01*
X162165064Y-92264531D01*
X162157507Y-92310343D01*
X162154254Y-92359655D01*
X162154257Y-92359888D01*
X162154756Y-92405680D01*
X162151420Y-92413990D01*
X162147564Y-92416605D01*
X161686792Y-92608968D01*
X161677838Y-92608993D01*
X161671320Y-92602253D01*
X161497173Y-92134474D01*
X161497498Y-92125525D01*
X161500412Y-92121605D01*
X161552656Y-92075670D01*
X161552663Y-92075663D01*
X161552691Y-92075639D01*
X161604036Y-92028289D01*
X161650567Y-91983245D01*
X161694456Y-91938880D01*
X161737874Y-91893568D01*
X161782991Y-91845679D01*
X161831980Y-91793589D01*
X161887012Y-91735668D01*
X161933734Y-91687371D01*
X161933870Y-91687233D01*
X162016308Y-91604795D01*
X162024581Y-91601368D01*
X162032854Y-91604795D01*
G37*
G04 #@! TD.AperFunction*
G04 #@! TA.AperFunction,Conductor*
G36*
X174832124Y-98438427D02*
G01*
X174835551Y-98446648D01*
X174835881Y-98522651D01*
X174837344Y-98599290D01*
X174840368Y-98666873D01*
X174845433Y-98727354D01*
X174853017Y-98782691D01*
X174863599Y-98834838D01*
X174877660Y-98885751D01*
X174895677Y-98937386D01*
X174918131Y-98991699D01*
X174918196Y-98991838D01*
X174942127Y-99043381D01*
X174942503Y-99052328D01*
X174939948Y-99056418D01*
X174593933Y-99416231D01*
X174585729Y-99419819D01*
X174577067Y-99416231D01*
X174231052Y-99056418D01*
X174227787Y-99048079D01*
X174228873Y-99043381D01*
X174252803Y-98991839D01*
X174252803Y-98991838D01*
X174252868Y-98991699D01*
X174275322Y-98937386D01*
X174293339Y-98885751D01*
X174307400Y-98834838D01*
X174317982Y-98782691D01*
X174325566Y-98727354D01*
X174330631Y-98666873D01*
X174333655Y-98599290D01*
X174335118Y-98522651D01*
X174335449Y-98446648D01*
X174338912Y-98438391D01*
X174347149Y-98435000D01*
X174823851Y-98435000D01*
X174832124Y-98438427D01*
G37*
G04 #@! TD.AperFunction*
G04 #@! TA.AperFunction,Conductor*
G36*
X159014203Y-93632184D02*
G01*
X159351816Y-93969797D01*
X159355243Y-93978070D01*
X159352120Y-93986028D01*
X159241322Y-94105435D01*
X159227553Y-94120274D01*
X159227397Y-94120476D01*
X159127664Y-94249603D01*
X159127658Y-94249612D01*
X159127474Y-94249850D01*
X159053769Y-94370277D01*
X159000661Y-94485339D01*
X158962370Y-94598820D01*
X158933118Y-94714504D01*
X158933092Y-94714627D01*
X158907134Y-94836139D01*
X158907126Y-94836175D01*
X158878658Y-94967420D01*
X158878564Y-94967819D01*
X158841885Y-95112305D01*
X158841709Y-95112925D01*
X158793442Y-95266915D01*
X158787698Y-95273785D01*
X158782509Y-95275114D01*
X158015966Y-95290098D01*
X157699645Y-95296282D01*
X157691306Y-95293017D01*
X157687718Y-95284355D01*
X157703332Y-94485635D01*
X157708886Y-94201492D01*
X157712474Y-94193289D01*
X157717085Y-94190558D01*
X157871074Y-94142290D01*
X157871694Y-94142114D01*
X157929783Y-94127368D01*
X158016195Y-94105431D01*
X158016565Y-94105344D01*
X158093247Y-94088711D01*
X158147788Y-94076881D01*
X158147824Y-94076873D01*
X158269495Y-94050881D01*
X158385179Y-94021629D01*
X158385391Y-94021557D01*
X158385396Y-94021556D01*
X158498364Y-93983438D01*
X158498366Y-93983437D01*
X158498660Y-93983338D01*
X158498940Y-93983209D01*
X158498947Y-93983206D01*
X158567386Y-93951617D01*
X158613722Y-93930230D01*
X158660065Y-93901867D01*
X158733880Y-93856690D01*
X158733885Y-93856687D01*
X158734149Y-93856525D01*
X158734387Y-93856341D01*
X158734396Y-93856335D01*
X158863523Y-93756602D01*
X158863725Y-93756446D01*
X158997644Y-93632184D01*
X158997972Y-93631880D01*
X159006367Y-93628765D01*
X159014203Y-93632184D01*
G37*
G04 #@! TD.AperFunction*
G04 #@! TA.AperFunction,Conductor*
G36*
X174706418Y-87020552D02*
G01*
X175066231Y-87366567D01*
X175069819Y-87374771D01*
X175066231Y-87383433D01*
X174706418Y-87729448D01*
X174698079Y-87732713D01*
X174693381Y-87731627D01*
X174673962Y-87722611D01*
X174641699Y-87707631D01*
X174587386Y-87685177D01*
X174535751Y-87667160D01*
X174535596Y-87667117D01*
X174535589Y-87667115D01*
X174518058Y-87662274D01*
X174484838Y-87653099D01*
X174477859Y-87651683D01*
X174432874Y-87642554D01*
X174432870Y-87642553D01*
X174432691Y-87642517D01*
X174377354Y-87634933D01*
X174377192Y-87634919D01*
X174377188Y-87634919D01*
X174316992Y-87629878D01*
X174316994Y-87629878D01*
X174316873Y-87629868D01*
X174249290Y-87626844D01*
X174172651Y-87625381D01*
X174096648Y-87625051D01*
X174088391Y-87621588D01*
X174085000Y-87613351D01*
X174085000Y-87136649D01*
X174088427Y-87128376D01*
X174096648Y-87124949D01*
X174172651Y-87124618D01*
X174249290Y-87123155D01*
X174316873Y-87120131D01*
X174332568Y-87118817D01*
X174377188Y-87115080D01*
X174377192Y-87115080D01*
X174377354Y-87115066D01*
X174432691Y-87107482D01*
X174432870Y-87107446D01*
X174432874Y-87107445D01*
X174484626Y-87096943D01*
X174484625Y-87096943D01*
X174484838Y-87096900D01*
X174518058Y-87087725D01*
X174535589Y-87082884D01*
X174535596Y-87082882D01*
X174535751Y-87082839D01*
X174587386Y-87064822D01*
X174641699Y-87042368D01*
X174641839Y-87042303D01*
X174693381Y-87018373D01*
X174702328Y-87017997D01*
X174706418Y-87020552D01*
G37*
G04 #@! TD.AperFunction*
G04 #@! TA.AperFunction,Conductor*
G36*
X139843562Y-94236836D02*
G01*
X140376149Y-94748998D01*
X140624231Y-94987567D01*
X140627819Y-94995771D01*
X140624231Y-95004433D01*
X139919446Y-95682191D01*
X139843563Y-95755164D01*
X139835224Y-95758429D01*
X139830033Y-95757100D01*
X139687002Y-95682336D01*
X139686439Y-95682021D01*
X139558354Y-95605800D01*
X139558006Y-95605585D01*
X139445066Y-95532907D01*
X139445035Y-95532887D01*
X139340740Y-95465309D01*
X139340739Y-95465308D01*
X139340652Y-95465252D01*
X139238166Y-95404135D01*
X139237975Y-95404041D01*
X139237967Y-95404036D01*
X139171217Y-95370968D01*
X139130847Y-95350968D01*
X139130565Y-95350864D01*
X139012246Y-95307275D01*
X139012241Y-95307274D01*
X139011933Y-95307160D01*
X138874661Y-95274122D01*
X138874354Y-95274083D01*
X138874351Y-95274082D01*
X138712521Y-95253297D01*
X138712519Y-95253297D01*
X138712271Y-95253265D01*
X138583286Y-95248441D01*
X138529263Y-95246421D01*
X138521123Y-95242687D01*
X138518000Y-95234729D01*
X138518000Y-94757271D01*
X138521427Y-94748998D01*
X138529263Y-94745579D01*
X138593639Y-94743171D01*
X138712271Y-94738734D01*
X138712519Y-94738702D01*
X138712521Y-94738702D01*
X138874351Y-94717917D01*
X138874354Y-94717916D01*
X138874661Y-94717877D01*
X139011933Y-94684839D01*
X139012241Y-94684725D01*
X139012246Y-94684724D01*
X139130565Y-94641135D01*
X139130567Y-94641134D01*
X139130847Y-94641031D01*
X139171217Y-94621031D01*
X139237967Y-94587963D01*
X139237975Y-94587958D01*
X139238166Y-94587864D01*
X139340652Y-94526747D01*
X139445066Y-94459092D01*
X139558006Y-94386414D01*
X139558354Y-94386199D01*
X139686439Y-94309978D01*
X139687002Y-94309663D01*
X139830033Y-94234900D01*
X139838953Y-94234105D01*
X139843562Y-94236836D01*
G37*
G04 #@! TD.AperFunction*
G04 #@! TA.AperFunction,Conductor*
G36*
X124571538Y-80926653D02*
G01*
X124574666Y-80929907D01*
X124594802Y-80961223D01*
X124620798Y-80993745D01*
X124649044Y-81021248D01*
X124680138Y-81044052D01*
X124680510Y-81044251D01*
X124680511Y-81044251D01*
X124714323Y-81062285D01*
X124714327Y-81062287D01*
X124714678Y-81062474D01*
X124715052Y-81062613D01*
X124715056Y-81062615D01*
X124752942Y-81076713D01*
X124753262Y-81076832D01*
X124796489Y-81087445D01*
X124844955Y-81094632D01*
X124879894Y-81097256D01*
X124899083Y-81098698D01*
X124899091Y-81098698D01*
X124899259Y-81098711D01*
X124899434Y-81098715D01*
X124899440Y-81098715D01*
X124948548Y-81099757D01*
X124956747Y-81103358D01*
X124960000Y-81111454D01*
X124960000Y-81588059D01*
X124956573Y-81596332D01*
X124948063Y-81599757D01*
X124857203Y-81597905D01*
X124856706Y-81597883D01*
X124832415Y-81596332D01*
X124767969Y-81592216D01*
X124767465Y-81592173D01*
X124689748Y-81583823D01*
X124689307Y-81583767D01*
X124619885Y-81573625D01*
X124619581Y-81573577D01*
X124555559Y-81562500D01*
X124555466Y-81562483D01*
X124494463Y-81551419D01*
X124494458Y-81551418D01*
X124494358Y-81551400D01*
X124494306Y-81551391D01*
X124448359Y-81543701D01*
X124433408Y-81541199D01*
X124433340Y-81541190D01*
X124433327Y-81541188D01*
X124370141Y-81532818D01*
X124370125Y-81532816D01*
X124370002Y-81532800D01*
X124369873Y-81532789D01*
X124369861Y-81532788D01*
X124335873Y-81529963D01*
X124301434Y-81527100D01*
X124233257Y-81525227D01*
X124225081Y-81521574D01*
X124222450Y-81517143D01*
X124154512Y-81307834D01*
X124063127Y-81026287D01*
X124063832Y-81017361D01*
X124070643Y-81011548D01*
X124072225Y-81011154D01*
X124131356Y-81000735D01*
X124562797Y-80924714D01*
X124571538Y-80926653D01*
G37*
G04 #@! TD.AperFunction*
G04 #@! TA.AperFunction,Conductor*
G36*
X139912805Y-66262565D02*
G01*
X139917137Y-66265721D01*
X140623156Y-67087044D01*
X140625951Y-67095551D01*
X140621558Y-67103834D01*
X139773251Y-67777230D01*
X139764641Y-67779689D01*
X139759623Y-67777890D01*
X139627465Y-67692410D01*
X139627002Y-67692095D01*
X139507888Y-67606693D01*
X139507653Y-67606520D01*
X139401943Y-67526678D01*
X139303476Y-67453712D01*
X139303471Y-67453708D01*
X139303361Y-67453627D01*
X139205650Y-67388621D01*
X139102434Y-67332822D01*
X138987337Y-67287396D01*
X138986992Y-67287308D01*
X138986988Y-67287307D01*
X138854302Y-67253589D01*
X138854301Y-67253589D01*
X138853983Y-67253508D01*
X138853659Y-67253465D01*
X138853651Y-67253463D01*
X138696280Y-67232359D01*
X138696278Y-67232359D01*
X138695996Y-67232321D01*
X138518246Y-67225436D01*
X138510113Y-67221692D01*
X138507000Y-67213745D01*
X138507000Y-66736300D01*
X138510427Y-66728027D01*
X138518292Y-66724607D01*
X138710057Y-66717939D01*
X138710286Y-66717912D01*
X138710298Y-66717911D01*
X138817590Y-66705218D01*
X138880066Y-66697827D01*
X138880330Y-66697769D01*
X138880337Y-66697768D01*
X139023899Y-66666332D01*
X139023903Y-66666331D01*
X139024204Y-66666265D01*
X139149648Y-66624856D01*
X139263575Y-66575202D01*
X139263735Y-66575120D01*
X139263743Y-66575116D01*
X139373089Y-66518942D01*
X139373117Y-66518927D01*
X139373162Y-66518904D01*
X139485548Y-66457588D01*
X139485681Y-66457517D01*
X139534393Y-66431745D01*
X139607818Y-66392899D01*
X139608221Y-66392696D01*
X139747355Y-66326322D01*
X139747953Y-66326057D01*
X139903851Y-66262514D01*
X139912805Y-66262565D01*
G37*
G04 #@! TD.AperFunction*
G04 #@! TA.AperFunction,Conductor*
G36*
X44708761Y-49324134D02*
G01*
X45046444Y-49661817D01*
X45049871Y-49670090D01*
X45046783Y-49678009D01*
X44898219Y-49839500D01*
X44898044Y-49839734D01*
X44804952Y-49963965D01*
X44782185Y-49994347D01*
X44698914Y-50138724D01*
X44698774Y-50139059D01*
X44641170Y-50276762D01*
X44641167Y-50276772D01*
X44641046Y-50277060D01*
X44601219Y-50413785D01*
X44572073Y-50553328D01*
X44546247Y-50700121D01*
X44530938Y-50781350D01*
X44516427Y-50858340D01*
X44516315Y-50858865D01*
X44475200Y-51032788D01*
X44474997Y-51033537D01*
X44417567Y-51220200D01*
X44411859Y-51227099D01*
X44406613Y-51228457D01*
X44235563Y-51231801D01*
X43116908Y-51253670D01*
X43130836Y-50541188D01*
X43142121Y-49963965D01*
X43145709Y-49955761D01*
X43150377Y-49953012D01*
X43337040Y-49895580D01*
X43337789Y-49895377D01*
X43344715Y-49893740D01*
X43511725Y-49854259D01*
X43512224Y-49854153D01*
X43571012Y-49843073D01*
X43670427Y-49824336D01*
X43670567Y-49824311D01*
X43817126Y-49798526D01*
X43817146Y-49798522D01*
X43817249Y-49798504D01*
X43956792Y-49769358D01*
X44093517Y-49729531D01*
X44093805Y-49729410D01*
X44093815Y-49729407D01*
X44231518Y-49671803D01*
X44231853Y-49671663D01*
X44300088Y-49632308D01*
X44375922Y-49588570D01*
X44375926Y-49588567D01*
X44376230Y-49588392D01*
X44531077Y-49472358D01*
X44692568Y-49323795D01*
X44700975Y-49320717D01*
X44708761Y-49324134D01*
G37*
G04 #@! TD.AperFunction*
G04 #@! TA.AperFunction,Conductor*
G36*
X139843562Y-68836836D02*
G01*
X140376149Y-69348998D01*
X140624231Y-69587567D01*
X140627819Y-69595771D01*
X140624231Y-69604433D01*
X139919446Y-70282191D01*
X139843563Y-70355164D01*
X139835224Y-70358429D01*
X139830033Y-70357100D01*
X139687002Y-70282336D01*
X139686439Y-70282021D01*
X139558354Y-70205800D01*
X139558006Y-70205585D01*
X139445066Y-70132907D01*
X139445035Y-70132887D01*
X139340740Y-70065309D01*
X139340739Y-70065308D01*
X139340652Y-70065252D01*
X139238166Y-70004135D01*
X139237975Y-70004041D01*
X139237967Y-70004036D01*
X139171217Y-69970968D01*
X139130847Y-69950968D01*
X139130565Y-69950864D01*
X139012246Y-69907275D01*
X139012241Y-69907274D01*
X139011933Y-69907160D01*
X138874661Y-69874122D01*
X138874354Y-69874083D01*
X138874351Y-69874082D01*
X138712521Y-69853297D01*
X138712519Y-69853297D01*
X138712271Y-69853265D01*
X138583286Y-69848441D01*
X138529263Y-69846421D01*
X138521123Y-69842687D01*
X138518000Y-69834729D01*
X138518000Y-69357271D01*
X138521427Y-69348998D01*
X138529263Y-69345579D01*
X138593639Y-69343171D01*
X138712271Y-69338734D01*
X138712519Y-69338702D01*
X138712521Y-69338702D01*
X138874351Y-69317917D01*
X138874354Y-69317916D01*
X138874661Y-69317877D01*
X139011933Y-69284839D01*
X139012241Y-69284725D01*
X139012246Y-69284724D01*
X139130565Y-69241135D01*
X139130567Y-69241134D01*
X139130847Y-69241031D01*
X139171217Y-69221031D01*
X139237967Y-69187963D01*
X139237975Y-69187958D01*
X139238166Y-69187864D01*
X139340652Y-69126747D01*
X139445066Y-69059092D01*
X139558006Y-68986414D01*
X139558354Y-68986199D01*
X139686439Y-68909978D01*
X139687002Y-68909663D01*
X139830033Y-68834900D01*
X139838953Y-68834105D01*
X139843562Y-68836836D01*
G37*
G04 #@! TD.AperFunction*
G04 #@! TA.AperFunction,Conductor*
G36*
X65609397Y-46016705D02*
G01*
X65613228Y-46025363D01*
X65613228Y-46502587D01*
X65609801Y-46510860D01*
X65602784Y-46514219D01*
X65473440Y-46528190D01*
X65439503Y-46531856D01*
X65388407Y-46553456D01*
X65314453Y-46584719D01*
X65314451Y-46584720D01*
X65313470Y-46585135D01*
X65312701Y-46585874D01*
X65312699Y-46585875D01*
X65227492Y-46667722D01*
X65227490Y-46667725D01*
X65226789Y-46668398D01*
X65171121Y-46777119D01*
X65138129Y-46906769D01*
X65119473Y-47052821D01*
X65119464Y-47052938D01*
X65119463Y-47052944D01*
X65106816Y-47210741D01*
X65106805Y-47210863D01*
X65091849Y-47375659D01*
X65091763Y-47376369D01*
X65066236Y-47543478D01*
X65065969Y-47544746D01*
X65023726Y-47702005D01*
X65018271Y-47709106D01*
X65012657Y-47710668D01*
X63723276Y-47735874D01*
X64074672Y-46390578D01*
X64080078Y-46383440D01*
X64085350Y-46381853D01*
X64264544Y-46372002D01*
X64264547Y-46372002D01*
X64264905Y-46371982D01*
X64423703Y-46343921D01*
X64561333Y-46302567D01*
X64651643Y-46266162D01*
X64685792Y-46252397D01*
X64685801Y-46252393D01*
X64685903Y-46252352D01*
X64805524Y-46197706D01*
X64888989Y-46160558D01*
X64927974Y-46143207D01*
X64928627Y-46142939D01*
X65061838Y-46093039D01*
X65062897Y-46092699D01*
X65215169Y-46051657D01*
X65216421Y-46051392D01*
X65273206Y-46042584D01*
X65396101Y-46023523D01*
X65397322Y-46023400D01*
X65600971Y-46013676D01*
X65609397Y-46016705D01*
G37*
G04 #@! TD.AperFunction*
G04 #@! TA.AperFunction,Conductor*
G36*
X140500541Y-71834891D02*
G01*
X140504249Y-71843502D01*
X140503186Y-72031397D01*
X140498963Y-72777484D01*
X140498119Y-72926558D01*
X140494645Y-72934812D01*
X140490079Y-72937605D01*
X140334777Y-72988750D01*
X140334167Y-72988933D01*
X140238237Y-73014833D01*
X140188596Y-73028236D01*
X140188216Y-73028331D01*
X140133104Y-73041167D01*
X140056120Y-73059098D01*
X140056078Y-73059108D01*
X139933587Y-73087167D01*
X139933500Y-73087190D01*
X139933497Y-73087191D01*
X139817312Y-73118242D01*
X139817301Y-73118245D01*
X139817093Y-73118301D01*
X139816876Y-73118377D01*
X139703031Y-73158250D01*
X139703028Y-73158251D01*
X139702746Y-73158350D01*
X139586692Y-73213155D01*
X139465079Y-73288557D01*
X139464843Y-73288741D01*
X139464835Y-73288746D01*
X139334253Y-73390243D01*
X139334055Y-73390397D01*
X139333877Y-73390562D01*
X139333874Y-73390565D01*
X139198029Y-73516836D01*
X139189636Y-73519958D01*
X139181790Y-73516539D01*
X138844186Y-73178935D01*
X138840759Y-73170662D01*
X138843885Y-73162701D01*
X138913991Y-73087191D01*
X138968849Y-73028105D01*
X139041025Y-72934812D01*
X139069140Y-72898471D01*
X139069144Y-72898465D01*
X139069336Y-72898217D01*
X139143386Y-72777484D01*
X139196710Y-72662091D01*
X139235021Y-72548223D01*
X139264030Y-72432065D01*
X139289448Y-72309801D01*
X139316949Y-72177803D01*
X139317030Y-72177443D01*
X139352289Y-72031995D01*
X139352451Y-72031397D01*
X139398869Y-71876286D01*
X139404524Y-71869342D01*
X139409687Y-71867947D01*
X140492158Y-71831743D01*
X140500541Y-71834891D01*
G37*
G04 #@! TD.AperFunction*
G04 #@! TA.AperFunction,Conductor*
G36*
X84153712Y-46816563D02*
G01*
X84326294Y-46907934D01*
X84326968Y-46908319D01*
X84479059Y-47002251D01*
X84479509Y-47002544D01*
X84612382Y-47093274D01*
X84612498Y-47093354D01*
X84734515Y-47178859D01*
X84734578Y-47178901D01*
X84734588Y-47178907D01*
X84853607Y-47256799D01*
X84853613Y-47256803D01*
X84853797Y-47256923D01*
X84978638Y-47325440D01*
X85117375Y-47382339D01*
X85117720Y-47382432D01*
X85117727Y-47382434D01*
X85278011Y-47425458D01*
X85278014Y-47425459D01*
X85278347Y-47425548D01*
X85346037Y-47435247D01*
X85469594Y-47452951D01*
X85469599Y-47452951D01*
X85469889Y-47452993D01*
X85689129Y-47462135D01*
X85697252Y-47465903D01*
X85700341Y-47473824D01*
X85700341Y-47951379D01*
X85696914Y-47959652D01*
X85689128Y-47963069D01*
X85576657Y-47967759D01*
X85469889Y-47972210D01*
X85469599Y-47972252D01*
X85469594Y-47972252D01*
X85346037Y-47989956D01*
X85278347Y-47999655D01*
X85278014Y-47999744D01*
X85278011Y-47999745D01*
X85117727Y-48042769D01*
X85117720Y-48042771D01*
X85117375Y-48042864D01*
X84978638Y-48099763D01*
X84853797Y-48168280D01*
X84853613Y-48168400D01*
X84853607Y-48168404D01*
X84734588Y-48246296D01*
X84734515Y-48246344D01*
X84734449Y-48246390D01*
X84734442Y-48246395D01*
X84612498Y-48331849D01*
X84612382Y-48331929D01*
X84479509Y-48422659D01*
X84479059Y-48422952D01*
X84326649Y-48517081D01*
X84146230Y-48612602D01*
X83218625Y-47720569D01*
X83217693Y-47718437D01*
X83217929Y-47718334D01*
X83215522Y-47712832D01*
X83219110Y-47704169D01*
X83717526Y-47224867D01*
X84140128Y-46818470D01*
X84148467Y-46815205D01*
X84153712Y-46816563D01*
G37*
G04 #@! TD.AperFunction*
G04 #@! TA.AperFunction,Conductor*
G36*
X139614084Y-74079133D02*
G01*
X140619662Y-74668187D01*
X140625068Y-74675325D01*
X140623843Y-74684196D01*
X140621859Y-74686714D01*
X139843944Y-75434797D01*
X139835606Y-75438062D01*
X139829819Y-75436399D01*
X139706070Y-75362210D01*
X139704744Y-75361284D01*
X139585754Y-75265372D01*
X139585041Y-75264749D01*
X139474859Y-75160164D01*
X139474639Y-75159949D01*
X139370844Y-75056099D01*
X139370787Y-75056042D01*
X139270727Y-74962236D01*
X139171845Y-74887897D01*
X139171269Y-74887635D01*
X139171265Y-74887633D01*
X139106227Y-74858090D01*
X139071405Y-74842272D01*
X139070371Y-74842196D01*
X139070370Y-74842196D01*
X139032702Y-74839440D01*
X138966673Y-74834609D01*
X138902843Y-74857195D01*
X138855821Y-74873833D01*
X138855819Y-74873834D01*
X138854915Y-74874154D01*
X138854164Y-74874747D01*
X138854161Y-74874749D01*
X138741562Y-74963704D01*
X138732946Y-74966143D01*
X138726036Y-74962796D01*
X138388810Y-74625570D01*
X138385383Y-74617297D01*
X138388810Y-74609024D01*
X138389542Y-74608292D01*
X138390178Y-74607701D01*
X138517713Y-74497826D01*
X138519290Y-74496682D01*
X138578097Y-74461076D01*
X138649644Y-74417757D01*
X138651410Y-74416882D01*
X138776342Y-74367704D01*
X138777912Y-74367211D01*
X138898931Y-74338424D01*
X138899918Y-74338233D01*
X138901023Y-74338069D01*
X139018575Y-74320591D01*
X139018653Y-74320580D01*
X139063214Y-74314607D01*
X139135557Y-74304911D01*
X139135570Y-74304909D01*
X139135748Y-74304885D01*
X139135912Y-74304852D01*
X139135927Y-74304850D01*
X139204565Y-74291242D01*
X139252023Y-74281834D01*
X139252390Y-74281709D01*
X139252393Y-74281708D01*
X139368051Y-74242245D01*
X139368558Y-74242072D01*
X139486491Y-74176235D01*
X139600641Y-74080272D01*
X139609179Y-74077572D01*
X139614084Y-74079133D01*
G37*
G04 #@! TD.AperFunction*
G04 #@! TA.AperFunction,Conductor*
G36*
X101376307Y-56361846D02*
G01*
X101548889Y-56453217D01*
X101549563Y-56453602D01*
X101701654Y-56547534D01*
X101702104Y-56547827D01*
X101834977Y-56638557D01*
X101835093Y-56638637D01*
X101957110Y-56724142D01*
X101957173Y-56724184D01*
X101957183Y-56724190D01*
X102076202Y-56802082D01*
X102076208Y-56802086D01*
X102076392Y-56802206D01*
X102201233Y-56870723D01*
X102339970Y-56927622D01*
X102340315Y-56927715D01*
X102340322Y-56927717D01*
X102500606Y-56970741D01*
X102500609Y-56970742D01*
X102500942Y-56970831D01*
X102568632Y-56980530D01*
X102692189Y-56998234D01*
X102692194Y-56998234D01*
X102692484Y-56998276D01*
X102911724Y-57007418D01*
X102919847Y-57011186D01*
X102922936Y-57019107D01*
X102922936Y-57496662D01*
X102919509Y-57504935D01*
X102911723Y-57508352D01*
X102799252Y-57513042D01*
X102692484Y-57517493D01*
X102692194Y-57517535D01*
X102692189Y-57517535D01*
X102568632Y-57535239D01*
X102500942Y-57544938D01*
X102500609Y-57545027D01*
X102500606Y-57545028D01*
X102340322Y-57588052D01*
X102340315Y-57588054D01*
X102339970Y-57588147D01*
X102201233Y-57645046D01*
X102076392Y-57713563D01*
X102076208Y-57713683D01*
X102076202Y-57713687D01*
X101957183Y-57791579D01*
X101957110Y-57791627D01*
X101957044Y-57791673D01*
X101957037Y-57791678D01*
X101835093Y-57877132D01*
X101834977Y-57877212D01*
X101702104Y-57967942D01*
X101701654Y-57968235D01*
X101549569Y-58062163D01*
X101548895Y-58062548D01*
X101376306Y-58153923D01*
X101367391Y-58154766D01*
X101362722Y-58152016D01*
X101284033Y-58076344D01*
X101263955Y-58057036D01*
X100432936Y-57257885D01*
X101362723Y-56363753D01*
X101371062Y-56360488D01*
X101376307Y-56361846D01*
G37*
G04 #@! TD.AperFunction*
G04 #@! TA.AperFunction,Conductor*
G36*
X140501403Y-79459047D02*
G01*
X140504991Y-79467251D01*
X140504613Y-79470437D01*
X140441132Y-79713471D01*
X140306054Y-80230609D01*
X140210217Y-80597513D01*
X140204811Y-80604651D01*
X140199232Y-80606251D01*
X140043134Y-80610727D01*
X140043131Y-80610727D01*
X140042963Y-80610732D01*
X139901768Y-80623576D01*
X139777715Y-80642504D01*
X139664103Y-80665488D01*
X139600013Y-80680078D01*
X139554299Y-80690485D01*
X139554234Y-80690500D01*
X139441578Y-80715474D01*
X139441204Y-80715550D01*
X139319218Y-80738440D01*
X139318644Y-80738533D01*
X139180396Y-80757381D01*
X139179741Y-80757451D01*
X139137486Y-80760803D01*
X139018496Y-80770243D01*
X139017870Y-80770276D01*
X138838520Y-80774704D01*
X138830165Y-80771483D01*
X138826531Y-80763008D01*
X138826531Y-80285722D01*
X138829958Y-80277449D01*
X138837211Y-80274067D01*
X138927673Y-80266160D01*
X138958095Y-80263501D01*
X138958096Y-80263501D01*
X138958734Y-80263445D01*
X139062611Y-80230371D01*
X139142588Y-80178161D01*
X139203092Y-80109197D01*
X139248550Y-80025862D01*
X139248702Y-80025447D01*
X139283299Y-79930786D01*
X139283303Y-79930775D01*
X139283388Y-79930541D01*
X139312033Y-79825616D01*
X139338911Y-79713471D01*
X139368383Y-79596755D01*
X139368529Y-79596229D01*
X139402592Y-79485152D01*
X139408293Y-79478248D01*
X139413546Y-79476885D01*
X140493064Y-79455782D01*
X140501403Y-79459047D01*
G37*
G04 #@! TD.AperFunction*
G04 #@! TA.AperFunction,Conductor*
G36*
X119074445Y-65335259D02*
G01*
X119208572Y-65459472D01*
X119208756Y-65459616D01*
X119208762Y-65459621D01*
X119337569Y-65560318D01*
X119337752Y-65560461D01*
X119459009Y-65640175D01*
X119575740Y-65706460D01*
X119691340Y-65767164D01*
X119808997Y-65830022D01*
X119809401Y-65830249D01*
X119929805Y-65901484D01*
X119932402Y-65903020D01*
X119933067Y-65903445D01*
X120064955Y-65994009D01*
X120065672Y-65994543D01*
X120210026Y-66110841D01*
X120210679Y-66111408D01*
X120349648Y-66241406D01*
X120349928Y-66241677D01*
X120362292Y-66254041D01*
X120365719Y-66262314D01*
X120362292Y-66270587D01*
X120025195Y-66607684D01*
X120016922Y-66611111D01*
X120009510Y-66608464D01*
X119900266Y-66519025D01*
X119888355Y-66509273D01*
X119794236Y-66466778D01*
X119767479Y-66454697D01*
X119767477Y-66454696D01*
X119766610Y-66454305D01*
X119765665Y-66454211D01*
X119765663Y-66454210D01*
X119652103Y-66442861D01*
X119650222Y-66442673D01*
X119649339Y-66442861D01*
X119649338Y-66442861D01*
X119627637Y-66447479D01*
X119536945Y-66466778D01*
X119424535Y-66519025D01*
X119310743Y-66591815D01*
X119287942Y-66608464D01*
X119193326Y-66677552D01*
X119070247Y-66768481D01*
X119069848Y-66768764D01*
X118939049Y-66857190D01*
X118938190Y-66857718D01*
X118804420Y-66932251D01*
X118795526Y-66933284D01*
X118790616Y-66930463D01*
X118714970Y-66857718D01*
X118691987Y-66835616D01*
X117860968Y-66036465D01*
X119060582Y-65333748D01*
X119069452Y-65332523D01*
X119074445Y-65335259D01*
G37*
G04 #@! TD.AperFunction*
G04 #@! TA.AperFunction,Conductor*
G36*
X254078447Y-49433793D02*
G01*
X254239938Y-49582356D01*
X254394785Y-49698390D01*
X254395089Y-49698565D01*
X254395093Y-49698568D01*
X254470927Y-49742306D01*
X254539162Y-49781661D01*
X254539497Y-49781801D01*
X254677200Y-49839405D01*
X254677210Y-49839408D01*
X254677498Y-49839529D01*
X254814223Y-49879356D01*
X254953766Y-49908502D01*
X254953869Y-49908520D01*
X254953889Y-49908524D01*
X255100448Y-49934309D01*
X255100588Y-49934334D01*
X255200003Y-49953071D01*
X255258791Y-49964151D01*
X255259290Y-49964257D01*
X255426300Y-50003738D01*
X255433226Y-50005375D01*
X255433975Y-50005578D01*
X255620639Y-50063009D01*
X255627537Y-50068718D01*
X255628895Y-50073963D01*
X255632312Y-50248722D01*
X255654108Y-51363668D01*
X254696641Y-51344950D01*
X254364403Y-51338455D01*
X254356199Y-51334867D01*
X254353449Y-51330198D01*
X254296018Y-51143535D01*
X254295815Y-51142786D01*
X254254700Y-50968863D01*
X254254588Y-50968338D01*
X254230160Y-50838725D01*
X254224768Y-50810119D01*
X254198942Y-50663326D01*
X254169796Y-50523783D01*
X254129969Y-50387058D01*
X254129848Y-50386770D01*
X254129845Y-50386760D01*
X254072241Y-50249057D01*
X254072101Y-50248722D01*
X253988830Y-50104345D01*
X253966064Y-50073963D01*
X253872971Y-49949732D01*
X253872796Y-49949498D01*
X253724233Y-49788007D01*
X253721155Y-49779601D01*
X253724572Y-49771815D01*
X254062255Y-49434132D01*
X254070528Y-49430705D01*
X254078447Y-49433793D01*
G37*
G04 #@! TD.AperFunction*
G04 #@! TA.AperFunction,Conductor*
G36*
X233363413Y-45945114D02*
G01*
X233524904Y-46093677D01*
X233679751Y-46209711D01*
X233680055Y-46209886D01*
X233680059Y-46209889D01*
X233755893Y-46253627D01*
X233824128Y-46292982D01*
X233824463Y-46293122D01*
X233962166Y-46350726D01*
X233962176Y-46350729D01*
X233962464Y-46350850D01*
X234099189Y-46390677D01*
X234238732Y-46419823D01*
X234238835Y-46419841D01*
X234238855Y-46419845D01*
X234385414Y-46445630D01*
X234385554Y-46445655D01*
X234484969Y-46464392D01*
X234543757Y-46475472D01*
X234544256Y-46475578D01*
X234711266Y-46515059D01*
X234718192Y-46516696D01*
X234718941Y-46516899D01*
X234905605Y-46574330D01*
X234912503Y-46580039D01*
X234913861Y-46585284D01*
X234928250Y-47321300D01*
X234928253Y-47321440D01*
X234939074Y-47874989D01*
X233945778Y-47855571D01*
X233649369Y-47849776D01*
X233641165Y-47846188D01*
X233638415Y-47841519D01*
X233580984Y-47654856D01*
X233580781Y-47654107D01*
X233539666Y-47480184D01*
X233539554Y-47479659D01*
X233509734Y-47321440D01*
X233509709Y-47321300D01*
X233483930Y-47174770D01*
X233483926Y-47174750D01*
X233483908Y-47174647D01*
X233454762Y-47035104D01*
X233414935Y-46898379D01*
X233414814Y-46898091D01*
X233414811Y-46898081D01*
X233357207Y-46760378D01*
X233357067Y-46760043D01*
X233273796Y-46615666D01*
X233251030Y-46585284D01*
X233157937Y-46461053D01*
X233157762Y-46460819D01*
X233009199Y-46299328D01*
X233006121Y-46290922D01*
X233009538Y-46283136D01*
X233347221Y-45945453D01*
X233355494Y-45942026D01*
X233363413Y-45945114D01*
G37*
G04 #@! TD.AperFunction*
G04 #@! TA.AperFunction,Conductor*
G36*
X214252731Y-47149107D02*
G01*
X215079323Y-47623769D01*
X215079325Y-47623770D01*
X215451810Y-47837665D01*
X214584818Y-48719633D01*
X214547353Y-48757744D01*
X214539109Y-48761242D01*
X214534112Y-48760168D01*
X214412698Y-48704214D01*
X214291916Y-48648557D01*
X214291910Y-48648554D01*
X214291868Y-48648535D01*
X214177430Y-48600133D01*
X214067723Y-48562565D01*
X213961083Y-48539388D01*
X213960611Y-48539365D01*
X213960607Y-48539364D01*
X213856437Y-48534188D01*
X213856435Y-48534188D01*
X213855849Y-48534159D01*
X213855267Y-48534249D01*
X213855264Y-48534249D01*
X213750977Y-48550341D01*
X213750974Y-48550342D01*
X213750357Y-48550437D01*
X213642945Y-48591779D01*
X213531951Y-48661742D01*
X213531609Y-48662043D01*
X213531603Y-48662047D01*
X213506006Y-48684540D01*
X213423950Y-48756644D01*
X213415474Y-48759531D01*
X213407955Y-48756128D01*
X213070374Y-48418547D01*
X213066947Y-48410274D01*
X213070316Y-48402059D01*
X213229772Y-48240392D01*
X213369393Y-48094465D01*
X213487406Y-47967159D01*
X213487430Y-47967133D01*
X213590157Y-47853129D01*
X213590217Y-47853061D01*
X213595082Y-47847561D01*
X213684153Y-47746847D01*
X213775659Y-47643061D01*
X213871100Y-47536334D01*
X213976809Y-47421337D01*
X213976945Y-47421192D01*
X214004894Y-47391804D01*
X214099311Y-47292526D01*
X214099381Y-47292454D01*
X214238568Y-47151046D01*
X214246813Y-47147553D01*
X214252731Y-47149107D01*
G37*
G04 #@! TD.AperFunction*
G04 #@! TA.AperFunction,Conductor*
G36*
X196615972Y-55791561D02*
G01*
X196777463Y-55940124D01*
X196932310Y-56056158D01*
X196932614Y-56056333D01*
X196932618Y-56056336D01*
X197008452Y-56100074D01*
X197076687Y-56139429D01*
X197077022Y-56139569D01*
X197214725Y-56197173D01*
X197214735Y-56197176D01*
X197215023Y-56197297D01*
X197351748Y-56237124D01*
X197491291Y-56266270D01*
X197491394Y-56266288D01*
X197491414Y-56266292D01*
X197637973Y-56292077D01*
X197638113Y-56292102D01*
X197737528Y-56310839D01*
X197796316Y-56321919D01*
X197796815Y-56322025D01*
X197963825Y-56361506D01*
X197970751Y-56363143D01*
X197971500Y-56363346D01*
X198158164Y-56420777D01*
X198165062Y-56426486D01*
X198166420Y-56431731D01*
X198177705Y-57008953D01*
X198191633Y-57721436D01*
X197100981Y-57700115D01*
X196901928Y-57696223D01*
X196893724Y-57692635D01*
X196890974Y-57687966D01*
X196833543Y-57501303D01*
X196833340Y-57500554D01*
X196792225Y-57326631D01*
X196792113Y-57326106D01*
X196777603Y-57249116D01*
X196762293Y-57167887D01*
X196736467Y-57021094D01*
X196707321Y-56881551D01*
X196667494Y-56744826D01*
X196667373Y-56744538D01*
X196667370Y-56744528D01*
X196609766Y-56606825D01*
X196609626Y-56606490D01*
X196526355Y-56462113D01*
X196503589Y-56431731D01*
X196410496Y-56307500D01*
X196410321Y-56307266D01*
X196261758Y-56145775D01*
X196258680Y-56137369D01*
X196262097Y-56129583D01*
X196599780Y-55791900D01*
X196608053Y-55788473D01*
X196615972Y-55791561D01*
G37*
G04 #@! TD.AperFunction*
G04 #@! TA.AperFunction,Conductor*
G36*
X179819116Y-65414638D02*
G01*
X180208960Y-65643003D01*
X181018715Y-66117346D01*
X180187696Y-66916497D01*
X180179546Y-66924335D01*
X180089056Y-67011355D01*
X180080717Y-67014620D01*
X180075270Y-67013153D01*
X179986429Y-66963861D01*
X179942296Y-66939374D01*
X179941471Y-66938870D01*
X179811290Y-66851773D01*
X179810912Y-66851509D01*
X179762551Y-66816319D01*
X179688296Y-66762286D01*
X179571262Y-66678487D01*
X179571121Y-66678399D01*
X179458131Y-66607880D01*
X179458125Y-66607877D01*
X179457800Y-66607674D01*
X179345710Y-66557275D01*
X179232791Y-66534715D01*
X179231896Y-66534813D01*
X179231894Y-66534813D01*
X179153009Y-66543458D01*
X179116844Y-66547421D01*
X179115993Y-66547810D01*
X178996354Y-66602505D01*
X178996352Y-66602506D01*
X178995668Y-66602819D01*
X178875261Y-66701611D01*
X178866693Y-66704210D01*
X178859568Y-66700839D01*
X178522478Y-66363749D01*
X178519051Y-66355476D01*
X178522478Y-66347203D01*
X178535917Y-66333764D01*
X178536183Y-66333506D01*
X178674203Y-66203973D01*
X178674822Y-66203432D01*
X178708352Y-66176126D01*
X178818926Y-66086080D01*
X178819579Y-66085586D01*
X178950925Y-65993644D01*
X178951554Y-65993233D01*
X179073765Y-65918900D01*
X179074186Y-65918656D01*
X179190869Y-65854171D01*
X179190939Y-65854132D01*
X179305560Y-65791801D01*
X179305562Y-65791800D01*
X179305639Y-65791758D01*
X179305705Y-65791720D01*
X179305727Y-65791707D01*
X179364280Y-65757440D01*
X179421562Y-65723918D01*
X179542203Y-65642876D01*
X179671053Y-65540895D01*
X179805236Y-65416164D01*
X179813629Y-65413041D01*
X179819116Y-65414638D01*
G37*
G04 #@! TD.AperFunction*
G04 #@! TA.AperFunction,Conductor*
G36*
X206422645Y-92607894D02*
G01*
X206584136Y-92756457D01*
X206738983Y-92872491D01*
X206739287Y-92872666D01*
X206739291Y-92872669D01*
X206815125Y-92916407D01*
X206883360Y-92955762D01*
X206883695Y-92955902D01*
X207021398Y-93013506D01*
X207021408Y-93013509D01*
X207021696Y-93013630D01*
X207158421Y-93053457D01*
X207297964Y-93082603D01*
X207298067Y-93082621D01*
X207298087Y-93082625D01*
X207444646Y-93108410D01*
X207444786Y-93108435D01*
X207544201Y-93127172D01*
X207602989Y-93138252D01*
X207603488Y-93138358D01*
X207770498Y-93177839D01*
X207777424Y-93179476D01*
X207778173Y-93179679D01*
X207964837Y-93237110D01*
X207971735Y-93242819D01*
X207973093Y-93248064D01*
X207976510Y-93422823D01*
X207994224Y-94328972D01*
X207994272Y-94331416D01*
X207998068Y-94525604D01*
X207994803Y-94533943D01*
X207986141Y-94537531D01*
X207942271Y-94536674D01*
X206700137Y-94512391D01*
X206640104Y-94317272D01*
X206598834Y-94142692D01*
X206568966Y-93984220D01*
X206543140Y-93837427D01*
X206513994Y-93697884D01*
X206474167Y-93561159D01*
X206474046Y-93560871D01*
X206474043Y-93560861D01*
X206416439Y-93423158D01*
X206416299Y-93422823D01*
X206333028Y-93278446D01*
X206310262Y-93248064D01*
X206217169Y-93123833D01*
X206216994Y-93123599D01*
X206068431Y-92962108D01*
X206065353Y-92953702D01*
X206068770Y-92945916D01*
X206406453Y-92608233D01*
X206414726Y-92604806D01*
X206422645Y-92607894D01*
G37*
G04 #@! TD.AperFunction*
G04 #@! TA.AperFunction,Conductor*
G36*
X203058107Y-75640898D02*
G01*
X203059638Y-75642490D01*
X203608182Y-76212908D01*
X203611447Y-76221247D01*
X203609909Y-76226819D01*
X203530578Y-76365730D01*
X203529933Y-76366736D01*
X203446398Y-76483033D01*
X203433225Y-76501372D01*
X203432829Y-76501891D01*
X203331198Y-76627896D01*
X203331152Y-76627952D01*
X203328659Y-76631004D01*
X203233411Y-76747615D01*
X203148343Y-76863341D01*
X203084655Y-76977630D01*
X203051010Y-77093039D01*
X203056069Y-77212125D01*
X203108494Y-77337443D01*
X203109016Y-77338088D01*
X203210327Y-77463365D01*
X203212865Y-77471953D01*
X203209503Y-77478995D01*
X202872034Y-77816464D01*
X202863761Y-77819891D01*
X202855136Y-77816096D01*
X202716684Y-77665034D01*
X202715961Y-77664164D01*
X202606058Y-77518131D01*
X202605403Y-77517165D01*
X202582244Y-77478995D01*
X202523289Y-77381828D01*
X202522821Y-77380976D01*
X202459866Y-77253309D01*
X202459607Y-77252744D01*
X202407265Y-77129806D01*
X202407224Y-77129709D01*
X202357024Y-77008779D01*
X202356982Y-77008677D01*
X202300408Y-76887038D01*
X202286566Y-76862816D01*
X202229108Y-76762271D01*
X202229103Y-76762263D01*
X202228952Y-76761999D01*
X202218553Y-76747615D01*
X202134243Y-76631004D01*
X202134051Y-76630738D01*
X202131531Y-76627952D01*
X202012898Y-76496796D01*
X202009890Y-76488361D01*
X202011480Y-76483033D01*
X202079600Y-76366745D01*
X202714250Y-75283329D01*
X203058107Y-75640898D01*
G37*
G04 #@! TD.AperFunction*
G04 #@! TA.AperFunction,Conductor*
G36*
X201492142Y-74207007D02*
G01*
X201653633Y-74355570D01*
X201808480Y-74471604D01*
X201808784Y-74471779D01*
X201808788Y-74471782D01*
X201884622Y-74515520D01*
X201952857Y-74554875D01*
X201953192Y-74555015D01*
X202090895Y-74612619D01*
X202090905Y-74612622D01*
X202091193Y-74612743D01*
X202227918Y-74652570D01*
X202367461Y-74681716D01*
X202367564Y-74681734D01*
X202367584Y-74681738D01*
X202514143Y-74707523D01*
X202514283Y-74707548D01*
X202613698Y-74726285D01*
X202672486Y-74737365D01*
X202672985Y-74737471D01*
X202839995Y-74776952D01*
X202846921Y-74778589D01*
X202847670Y-74778792D01*
X203034334Y-74836223D01*
X203041232Y-74841932D01*
X203042590Y-74847177D01*
X203053875Y-75424399D01*
X203067803Y-76136882D01*
X201977151Y-76115561D01*
X201778098Y-76111669D01*
X201769894Y-76108081D01*
X201767144Y-76103412D01*
X201709713Y-75916749D01*
X201709510Y-75916000D01*
X201668395Y-75742077D01*
X201668283Y-75741552D01*
X201653773Y-75664562D01*
X201638463Y-75583333D01*
X201612637Y-75436540D01*
X201583491Y-75296997D01*
X201543664Y-75160272D01*
X201543543Y-75159984D01*
X201543540Y-75159974D01*
X201485936Y-75022271D01*
X201485796Y-75021936D01*
X201402525Y-74877559D01*
X201379759Y-74847177D01*
X201286666Y-74722946D01*
X201286491Y-74722712D01*
X201137928Y-74561221D01*
X201134850Y-74552815D01*
X201138267Y-74545029D01*
X201475950Y-74207346D01*
X201484223Y-74203919D01*
X201492142Y-74207007D01*
G37*
G04 #@! TD.AperFunction*
G04 #@! TA.AperFunction,Conductor*
G36*
X198181937Y-57225452D02*
G01*
X198639415Y-57701172D01*
X198731971Y-57797419D01*
X198735236Y-57805758D01*
X198733661Y-57811396D01*
X198651162Y-57953743D01*
X198650424Y-57954862D01*
X198548348Y-58091983D01*
X198547882Y-58092569D01*
X198439316Y-58220444D01*
X198333753Y-58341576D01*
X198240784Y-58458456D01*
X198169758Y-58573862D01*
X198130024Y-58690571D01*
X198130031Y-58691552D01*
X198130031Y-58691554D01*
X198130616Y-58769448D01*
X198130931Y-58811359D01*
X198181827Y-58939004D01*
X198182373Y-58939684D01*
X198285494Y-59068103D01*
X198288002Y-59076700D01*
X198284644Y-59083702D01*
X197947208Y-59421138D01*
X197938935Y-59424565D01*
X197930259Y-59420713D01*
X197793883Y-59269931D01*
X197793063Y-59268917D01*
X197687177Y-59121734D01*
X197686457Y-59120600D01*
X197609790Y-58983125D01*
X197609273Y-58982079D01*
X197552686Y-58851543D01*
X197552415Y-58850859D01*
X197506887Y-58724608D01*
X197506847Y-58724496D01*
X197463406Y-58600075D01*
X197452840Y-58573862D01*
X197413240Y-58475625D01*
X197413138Y-58475372D01*
X197347007Y-58347942D01*
X197255968Y-58215307D01*
X197136634Y-58081343D01*
X197133689Y-58072886D01*
X197135275Y-58067647D01*
X197289849Y-57803772D01*
X197838080Y-56867883D01*
X198181937Y-57225452D01*
G37*
G04 #@! TD.AperFunction*
G04 #@! TA.AperFunction,Conductor*
G36*
X186641080Y-82950432D02*
G01*
X186644501Y-82959076D01*
X186637897Y-83167267D01*
X186637842Y-83168086D01*
X186621391Y-83328877D01*
X186618928Y-83352948D01*
X186618811Y-83353790D01*
X186590950Y-83511662D01*
X186590796Y-83512398D01*
X186556941Y-83651377D01*
X186556816Y-83651847D01*
X186519884Y-83780032D01*
X186482884Y-83905242D01*
X186448883Y-84035182D01*
X186420884Y-84177793D01*
X186401884Y-84341015D01*
X186394884Y-84532791D01*
X185053618Y-84883135D01*
X185050589Y-84881949D01*
X185050669Y-84881744D01*
X185046271Y-84880598D01*
X185041739Y-84872875D01*
X185041630Y-84871037D01*
X185048241Y-84532893D01*
X185048241Y-84532873D01*
X185055084Y-84182830D01*
X185055183Y-84177793D01*
X185066540Y-83596815D01*
X185070128Y-83588611D01*
X185075018Y-83585796D01*
X185221197Y-83543944D01*
X185222141Y-83543715D01*
X185375806Y-83513244D01*
X185376260Y-83513164D01*
X185381120Y-83512398D01*
X185394000Y-83510368D01*
X185526021Y-83489557D01*
X185526037Y-83489554D01*
X185564767Y-83483145D01*
X185667855Y-83466086D01*
X185667862Y-83466085D01*
X185668047Y-83466054D01*
X185798349Y-83435896D01*
X185913247Y-83392274D01*
X186009044Y-83328380D01*
X186019852Y-83314912D01*
X186081462Y-83238139D01*
X186081464Y-83238136D01*
X186082047Y-83237409D01*
X186082374Y-83236532D01*
X186128295Y-83113259D01*
X186128296Y-83113256D01*
X186128558Y-83112552D01*
X186143843Y-82957556D01*
X186148066Y-82949660D01*
X186155487Y-82947005D01*
X186632807Y-82947005D01*
X186641080Y-82950432D01*
G37*
G04 #@! TD.AperFunction*
G04 #@! TA.AperFunction,Conductor*
G36*
X180616346Y-65881644D02*
G01*
X181044300Y-65993427D01*
X181509920Y-66115049D01*
X181517057Y-66120454D01*
X181518662Y-66126436D01*
X181517525Y-66321827D01*
X181517523Y-66321975D01*
X181514297Y-66497030D01*
X181509540Y-66650984D01*
X181503764Y-66791948D01*
X181497478Y-66928125D01*
X181491191Y-67067718D01*
X181485417Y-67218863D01*
X181485415Y-67218927D01*
X181485413Y-67218985D01*
X181484831Y-67239909D01*
X181480658Y-67389955D01*
X181480657Y-67390025D01*
X181477430Y-67588994D01*
X181477430Y-67589086D01*
X181477429Y-67589125D01*
X181476300Y-67812638D01*
X181472831Y-67820894D01*
X181464600Y-67824279D01*
X180987195Y-67824279D01*
X180978922Y-67820852D01*
X180975520Y-67813349D01*
X180966370Y-67674587D01*
X180966340Y-67674126D01*
X180946661Y-67589125D01*
X180937677Y-67550317D01*
X180937676Y-67550313D01*
X180937546Y-67549753D01*
X180891223Y-67447652D01*
X180847957Y-67389955D01*
X180829096Y-67364804D01*
X180828730Y-67364316D01*
X180751433Y-67296237D01*
X180660691Y-67239909D01*
X180619686Y-67220733D01*
X180558077Y-67191922D01*
X180558071Y-67191919D01*
X180557869Y-67191825D01*
X180444328Y-67148477D01*
X180321431Y-67106358D01*
X180198318Y-67064600D01*
X180191585Y-67058698D01*
X180190379Y-67053750D01*
X180165162Y-65763793D01*
X180616346Y-65881644D01*
G37*
G04 #@! TD.AperFunction*
G04 #@! TA.AperFunction,Conductor*
G36*
X186394884Y-84532791D02*
G01*
X186395216Y-84734589D01*
X186396117Y-84907412D01*
X186397445Y-85059346D01*
X186399058Y-85198478D01*
X186400814Y-85332892D01*
X186402569Y-85470676D01*
X186403985Y-85601626D01*
X186404182Y-85619880D01*
X186404168Y-85619914D01*
X186404182Y-85619914D01*
X186405510Y-85788693D01*
X186406205Y-85940063D01*
X186406411Y-85985062D01*
X186406411Y-85985099D01*
X186406727Y-86205501D01*
X186403312Y-86213779D01*
X186395027Y-86217218D01*
X185917620Y-86217218D01*
X185909347Y-86213791D01*
X185905951Y-86206372D01*
X185895632Y-86065323D01*
X185895594Y-86064798D01*
X185863366Y-85940641D01*
X185811895Y-85840684D01*
X185743011Y-85760866D01*
X185734705Y-85754597D01*
X185658926Y-85697409D01*
X185658922Y-85697406D01*
X185658549Y-85697125D01*
X185560341Y-85645399D01*
X185450220Y-85601626D01*
X185330019Y-85561744D01*
X185201614Y-85521704D01*
X185201455Y-85521653D01*
X185074595Y-85479996D01*
X185067804Y-85474159D01*
X185066547Y-85469109D01*
X185055566Y-84907412D01*
X185048241Y-84532677D01*
X185041624Y-84194214D01*
X185044889Y-84185875D01*
X185051722Y-84182395D01*
X185052831Y-84182242D01*
X186394884Y-84532791D01*
G37*
G04 #@! TD.AperFunction*
G04 #@! TA.AperFunction,Conductor*
G36*
X189103279Y-101357356D02*
G01*
X189264770Y-101505919D01*
X189419617Y-101621953D01*
X189419921Y-101622128D01*
X189419925Y-101622131D01*
X189495759Y-101665869D01*
X189563994Y-101705224D01*
X189564329Y-101705364D01*
X189702032Y-101762968D01*
X189702042Y-101762971D01*
X189702330Y-101763092D01*
X189839055Y-101802919D01*
X189978598Y-101832065D01*
X189978701Y-101832083D01*
X189978721Y-101832087D01*
X190125280Y-101857872D01*
X190125420Y-101857897D01*
X190224835Y-101876634D01*
X190283623Y-101887714D01*
X190284122Y-101887820D01*
X190451132Y-101927301D01*
X190458058Y-101928938D01*
X190458807Y-101929141D01*
X190645471Y-101986572D01*
X190652369Y-101992281D01*
X190653727Y-101997526D01*
X190656299Y-102129093D01*
X190678940Y-103287231D01*
X189966457Y-103273303D01*
X189389235Y-103262018D01*
X189381031Y-103258430D01*
X189378281Y-103253761D01*
X189320850Y-103067098D01*
X189320647Y-103066349D01*
X189279532Y-102892426D01*
X189279420Y-102891901D01*
X189249600Y-102733682D01*
X189249575Y-102733542D01*
X189223796Y-102587012D01*
X189223792Y-102586992D01*
X189223774Y-102586889D01*
X189194628Y-102447346D01*
X189154801Y-102310621D01*
X189154680Y-102310333D01*
X189154677Y-102310323D01*
X189097073Y-102172620D01*
X189096933Y-102172285D01*
X189013662Y-102027908D01*
X188990896Y-101997526D01*
X188897803Y-101873295D01*
X188897628Y-101873061D01*
X188749065Y-101711570D01*
X188745987Y-101703164D01*
X188749404Y-101695378D01*
X189087087Y-101357695D01*
X189095360Y-101354268D01*
X189103279Y-101357356D01*
G37*
G04 #@! TD.AperFunction*
G04 #@! TA.AperFunction,Conductor*
G36*
X256291827Y-51007835D02*
G01*
X256298965Y-51013241D01*
X256300570Y-51019135D01*
X256300887Y-51211913D01*
X256301788Y-51384736D01*
X256303116Y-51536670D01*
X256304729Y-51675802D01*
X256306484Y-51810216D01*
X256308239Y-51948000D01*
X256309655Y-52078950D01*
X256309852Y-52097204D01*
X256309838Y-52097238D01*
X256309852Y-52097238D01*
X256311180Y-52266017D01*
X256311875Y-52417387D01*
X256312081Y-52462386D01*
X256312081Y-52462423D01*
X256312397Y-52682825D01*
X256308982Y-52691103D01*
X256300697Y-52694542D01*
X255823290Y-52694542D01*
X255815017Y-52691115D01*
X255811621Y-52683696D01*
X255801302Y-52542647D01*
X255801264Y-52542122D01*
X255769037Y-52417965D01*
X255717565Y-52318008D01*
X255648681Y-52238190D01*
X255640375Y-52231921D01*
X255564596Y-52174733D01*
X255564592Y-52174730D01*
X255564219Y-52174449D01*
X255466011Y-52122723D01*
X255355890Y-52078950D01*
X255235689Y-52039068D01*
X255107284Y-51999028D01*
X255107125Y-51998977D01*
X254980266Y-51957320D01*
X254973475Y-51951483D01*
X254972218Y-51946433D01*
X254964207Y-51536670D01*
X254947002Y-50656562D01*
X256291827Y-51007835D01*
G37*
G04 #@! TD.AperFunction*
G04 #@! TA.AperFunction,Conductor*
G36*
X261477254Y-67828643D02*
G01*
X261480675Y-67837287D01*
X261474071Y-68045478D01*
X261474016Y-68046297D01*
X261457565Y-68207088D01*
X261455102Y-68231159D01*
X261454985Y-68232001D01*
X261427124Y-68389873D01*
X261426970Y-68390609D01*
X261393115Y-68529588D01*
X261392990Y-68530058D01*
X261356058Y-68658243D01*
X261319058Y-68783453D01*
X261285057Y-68913393D01*
X261257058Y-69056004D01*
X261238058Y-69219226D01*
X261231058Y-69411002D01*
X259889792Y-69761346D01*
X259886763Y-69760160D01*
X259886843Y-69759955D01*
X259882445Y-69758809D01*
X259877913Y-69751086D01*
X259877804Y-69749248D01*
X259884415Y-69411104D01*
X259884415Y-69411084D01*
X259891258Y-69061041D01*
X259891357Y-69056004D01*
X259902714Y-68475026D01*
X259906302Y-68466822D01*
X259911192Y-68464007D01*
X260057371Y-68422155D01*
X260058315Y-68421926D01*
X260211980Y-68391455D01*
X260212434Y-68391375D01*
X260217294Y-68390609D01*
X260230174Y-68388579D01*
X260362195Y-68367768D01*
X260362211Y-68367765D01*
X260400941Y-68361356D01*
X260504029Y-68344297D01*
X260504036Y-68344296D01*
X260504221Y-68344265D01*
X260634523Y-68314107D01*
X260749421Y-68270485D01*
X260845218Y-68206591D01*
X260856026Y-68193123D01*
X260917636Y-68116350D01*
X260917638Y-68116347D01*
X260918221Y-68115620D01*
X260918548Y-68114743D01*
X260964469Y-67991470D01*
X260964470Y-67991467D01*
X260964732Y-67990763D01*
X260980017Y-67835767D01*
X260984240Y-67827871D01*
X260991661Y-67825216D01*
X261468981Y-67825216D01*
X261477254Y-67828643D01*
G37*
G04 #@! TD.AperFunction*
G04 #@! TA.AperFunction,Conductor*
G36*
X261231058Y-69411002D02*
G01*
X261231390Y-69612800D01*
X261232291Y-69785623D01*
X261233619Y-69937557D01*
X261235232Y-70076689D01*
X261236987Y-70211103D01*
X261238742Y-70348887D01*
X261240158Y-70479837D01*
X261240355Y-70498091D01*
X261240341Y-70498125D01*
X261240355Y-70498125D01*
X261241683Y-70666904D01*
X261242378Y-70818274D01*
X261242584Y-70863273D01*
X261242584Y-70863310D01*
X261242900Y-71083712D01*
X261239485Y-71091990D01*
X261231200Y-71095429D01*
X260753793Y-71095429D01*
X260745520Y-71092002D01*
X260742124Y-71084583D01*
X260731805Y-70943534D01*
X260731767Y-70943009D01*
X260699540Y-70818852D01*
X260648068Y-70718895D01*
X260579184Y-70639077D01*
X260570878Y-70632808D01*
X260495099Y-70575620D01*
X260495095Y-70575617D01*
X260494722Y-70575336D01*
X260396514Y-70523610D01*
X260286393Y-70479837D01*
X260166192Y-70439955D01*
X260037787Y-70399915D01*
X260037628Y-70399864D01*
X259910769Y-70358207D01*
X259903978Y-70352370D01*
X259902721Y-70347320D01*
X259891740Y-69785623D01*
X259884415Y-69410888D01*
X259877798Y-69072425D01*
X259881063Y-69064086D01*
X259887896Y-69060606D01*
X259889005Y-69060453D01*
X261231058Y-69411002D01*
G37*
G04 #@! TD.AperFunction*
G04 #@! TA.AperFunction,Conductor*
G36*
X263939453Y-86235567D02*
G01*
X264100944Y-86384130D01*
X264255791Y-86500164D01*
X264256095Y-86500339D01*
X264256099Y-86500342D01*
X264331933Y-86544080D01*
X264400168Y-86583435D01*
X264400503Y-86583575D01*
X264538206Y-86641179D01*
X264538216Y-86641182D01*
X264538504Y-86641303D01*
X264675229Y-86681130D01*
X264814772Y-86710276D01*
X264814875Y-86710294D01*
X264814895Y-86710298D01*
X264961454Y-86736083D01*
X264961594Y-86736108D01*
X265061009Y-86754845D01*
X265119797Y-86765925D01*
X265120296Y-86766031D01*
X265287306Y-86805512D01*
X265294232Y-86807149D01*
X265294981Y-86807352D01*
X265481645Y-86864783D01*
X265488543Y-86870492D01*
X265489901Y-86875737D01*
X265514876Y-88153277D01*
X265511611Y-88161616D01*
X265502949Y-88165204D01*
X264225409Y-88140229D01*
X264217205Y-88136641D01*
X264214455Y-88131972D01*
X264157024Y-87945309D01*
X264156821Y-87944560D01*
X264115706Y-87770637D01*
X264115594Y-87770112D01*
X264085774Y-87611893D01*
X264085749Y-87611753D01*
X264059970Y-87465223D01*
X264059966Y-87465203D01*
X264059948Y-87465100D01*
X264030802Y-87325557D01*
X263990975Y-87188832D01*
X263990854Y-87188544D01*
X263990851Y-87188534D01*
X263933247Y-87050831D01*
X263933107Y-87050496D01*
X263849836Y-86906119D01*
X263827070Y-86875737D01*
X263733977Y-86751506D01*
X263733802Y-86751272D01*
X263585239Y-86589781D01*
X263582161Y-86581375D01*
X263585578Y-86573589D01*
X263923261Y-86235906D01*
X263931534Y-86232479D01*
X263939453Y-86235567D01*
G37*
G04 #@! TD.AperFunction*
G04 #@! TA.AperFunction,Conductor*
G36*
X234930189Y-47347228D02*
G01*
X235576767Y-47519109D01*
X235583882Y-47524546D01*
X235585461Y-47530493D01*
X235584162Y-47727699D01*
X235584159Y-47727866D01*
X235580478Y-47904250D01*
X235580474Y-47904415D01*
X235575043Y-48059624D01*
X235575037Y-48059757D01*
X235568448Y-48201728D01*
X235568445Y-48201797D01*
X235561265Y-48339126D01*
X235554085Y-48479898D01*
X235554084Y-48479911D01*
X235547488Y-48632390D01*
X235547486Y-48632446D01*
X235542055Y-48804875D01*
X235542053Y-48804966D01*
X235538368Y-49005628D01*
X235538367Y-49005719D01*
X235537077Y-49231292D01*
X235533603Y-49239545D01*
X235525377Y-49242925D01*
X235047972Y-49242925D01*
X235039699Y-49239498D01*
X235036297Y-49231986D01*
X235027082Y-49090681D01*
X235027052Y-49090215D01*
X234998080Y-48963689D01*
X234951446Y-48859740D01*
X234888504Y-48774763D01*
X234810605Y-48705150D01*
X234798915Y-48697759D01*
X234719390Y-48647478D01*
X234719384Y-48647475D01*
X234719103Y-48647297D01*
X234615348Y-48597596D01*
X234500695Y-48552441D01*
X234500620Y-48552414D01*
X234500598Y-48552406D01*
X234376496Y-48508227D01*
X234376375Y-48508184D01*
X234251853Y-48464091D01*
X234245198Y-48458099D01*
X234244058Y-48453126D01*
X234240821Y-47863667D01*
X234240820Y-47863666D01*
X234236972Y-47162949D01*
X234930189Y-47347228D01*
G37*
G04 #@! TD.AperFunction*
G04 #@! TA.AperFunction,Conductor*
G36*
X240762220Y-64339964D02*
G01*
X240765641Y-64348608D01*
X240759037Y-64556799D01*
X240758982Y-64557618D01*
X240742531Y-64718409D01*
X240740068Y-64742480D01*
X240739951Y-64743322D01*
X240712090Y-64901194D01*
X240711936Y-64901930D01*
X240678081Y-65040909D01*
X240677956Y-65041379D01*
X240641024Y-65169564D01*
X240604024Y-65294774D01*
X240570023Y-65424714D01*
X240542024Y-65567325D01*
X240523024Y-65730547D01*
X240516024Y-65922323D01*
X239174758Y-66272667D01*
X239171729Y-66271481D01*
X239171809Y-66271276D01*
X239167411Y-66270130D01*
X239162879Y-66262407D01*
X239162770Y-66260569D01*
X239169381Y-65922425D01*
X239169381Y-65922405D01*
X239176224Y-65572362D01*
X239176323Y-65567325D01*
X239187680Y-64986347D01*
X239191268Y-64978143D01*
X239196158Y-64975328D01*
X239342337Y-64933476D01*
X239343281Y-64933247D01*
X239496946Y-64902776D01*
X239497400Y-64902696D01*
X239502260Y-64901930D01*
X239515140Y-64899900D01*
X239647161Y-64879089D01*
X239647177Y-64879086D01*
X239685907Y-64872677D01*
X239788995Y-64855618D01*
X239789002Y-64855617D01*
X239789187Y-64855586D01*
X239919489Y-64825428D01*
X240034387Y-64781806D01*
X240130184Y-64717912D01*
X240140992Y-64704444D01*
X240202602Y-64627671D01*
X240202604Y-64627668D01*
X240203187Y-64626941D01*
X240203514Y-64626064D01*
X240249435Y-64502791D01*
X240249436Y-64502788D01*
X240249698Y-64502084D01*
X240264983Y-64347088D01*
X240269206Y-64339192D01*
X240276627Y-64336537D01*
X240753947Y-64336537D01*
X240762220Y-64339964D01*
G37*
G04 #@! TD.AperFunction*
G04 #@! TA.AperFunction,Conductor*
G36*
X243224419Y-82746888D02*
G01*
X243385910Y-82895451D01*
X243540757Y-83011485D01*
X243541061Y-83011660D01*
X243541065Y-83011663D01*
X243616899Y-83055401D01*
X243685134Y-83094756D01*
X243685469Y-83094896D01*
X243823172Y-83152500D01*
X243823182Y-83152503D01*
X243823470Y-83152624D01*
X243960195Y-83192451D01*
X244099738Y-83221597D01*
X244099841Y-83221615D01*
X244099861Y-83221619D01*
X244246420Y-83247404D01*
X244246560Y-83247429D01*
X244345975Y-83266166D01*
X244404763Y-83277246D01*
X244405262Y-83277352D01*
X244572272Y-83316833D01*
X244579198Y-83318470D01*
X244579947Y-83318673D01*
X244766611Y-83376104D01*
X244773509Y-83381813D01*
X244774867Y-83387058D01*
X244799842Y-84664598D01*
X244796577Y-84672937D01*
X244787915Y-84676525D01*
X243510375Y-84651550D01*
X243502171Y-84647962D01*
X243499421Y-84643293D01*
X243441990Y-84456630D01*
X243441787Y-84455881D01*
X243400672Y-84281958D01*
X243400560Y-84281433D01*
X243370740Y-84123214D01*
X243370715Y-84123074D01*
X243344936Y-83976544D01*
X243344932Y-83976524D01*
X243344914Y-83976421D01*
X243315768Y-83836878D01*
X243275941Y-83700153D01*
X243275820Y-83699865D01*
X243275817Y-83699855D01*
X243218213Y-83562152D01*
X243218073Y-83561817D01*
X243134802Y-83417440D01*
X243112036Y-83387058D01*
X243018943Y-83262827D01*
X243018768Y-83262593D01*
X242870205Y-83101102D01*
X242867127Y-83092696D01*
X242870544Y-83084910D01*
X243208227Y-82747227D01*
X243216500Y-82743800D01*
X243224419Y-82746888D01*
G37*
G04 #@! TD.AperFunction*
G04 #@! TA.AperFunction,Conductor*
G36*
X240516024Y-65922323D02*
G01*
X240517877Y-66121542D01*
X240522907Y-66292090D01*
X240530321Y-66441967D01*
X240539323Y-66579171D01*
X240539325Y-66579192D01*
X240539324Y-66579192D01*
X240549118Y-66711682D01*
X240549120Y-66711703D01*
X240558916Y-66847561D01*
X240560101Y-66866939D01*
X240567913Y-66994662D01*
X240567923Y-66994856D01*
X240575326Y-67161124D01*
X240575334Y-67161340D01*
X240580359Y-67354958D01*
X240580362Y-67355135D01*
X240580963Y-67429264D01*
X240582121Y-67572450D01*
X240578761Y-67580751D01*
X240570421Y-67584245D01*
X240093019Y-67584245D01*
X240084746Y-67580818D01*
X240081356Y-67573476D01*
X240069890Y-67429841D01*
X240069844Y-67429264D01*
X240034254Y-67305172D01*
X239977729Y-67207322D01*
X239902555Y-67131068D01*
X239811017Y-67071766D01*
X239705400Y-67024770D01*
X239587990Y-66985435D01*
X239587849Y-66985395D01*
X239587834Y-66985390D01*
X239461071Y-66949115D01*
X239399123Y-66931589D01*
X239327114Y-66911216D01*
X239326754Y-66911108D01*
X239195838Y-66869479D01*
X239188992Y-66863706D01*
X239187685Y-66858558D01*
X239162764Y-65583746D01*
X239166029Y-65575407D01*
X239172862Y-65571927D01*
X239173971Y-65571774D01*
X240516024Y-65922323D01*
G37*
G04 #@! TD.AperFunction*
G04 #@! TA.AperFunction,Conductor*
G36*
X215079321Y-47623768D02*
G01*
X215079323Y-47623769D01*
X215943349Y-47849455D01*
X215950487Y-47854861D01*
X215952091Y-47860666D01*
X215953861Y-48050936D01*
X215958892Y-48221484D01*
X215966305Y-48371360D01*
X215975307Y-48508565D01*
X215975309Y-48508586D01*
X215975308Y-48508586D01*
X215985102Y-48641076D01*
X215985104Y-48641096D01*
X215994901Y-48776954D01*
X215994909Y-48777082D01*
X216003898Y-48924056D01*
X216003908Y-48924250D01*
X216011310Y-49090518D01*
X216011318Y-49090734D01*
X216013457Y-49173154D01*
X216015052Y-49234565D01*
X216016344Y-49284351D01*
X216016347Y-49284528D01*
X216016948Y-49358658D01*
X216018106Y-49501843D01*
X216014746Y-49510144D01*
X216006406Y-49513638D01*
X215529004Y-49513638D01*
X215520731Y-49510211D01*
X215517341Y-49502869D01*
X215505875Y-49359235D01*
X215505829Y-49358658D01*
X215470238Y-49234565D01*
X215413713Y-49136715D01*
X215338540Y-49060462D01*
X215247002Y-49001160D01*
X215141385Y-48954164D01*
X215023974Y-48914829D01*
X215023833Y-48914789D01*
X215023818Y-48914784D01*
X214897055Y-48878509D01*
X214835107Y-48860983D01*
X214763098Y-48840610D01*
X214762738Y-48840502D01*
X214631822Y-48798873D01*
X214624976Y-48793100D01*
X214623669Y-48787952D01*
X214598455Y-47498164D01*
X215079321Y-47623768D01*
G37*
G04 #@! TD.AperFunction*
G04 #@! TA.AperFunction,Conductor*
G36*
X221128707Y-64670245D02*
G01*
X221132128Y-64678889D01*
X221125524Y-64887080D01*
X221125469Y-64887899D01*
X221109018Y-65048690D01*
X221106555Y-65072761D01*
X221106438Y-65073603D01*
X221078577Y-65231475D01*
X221078423Y-65232211D01*
X221044568Y-65371190D01*
X221044443Y-65371660D01*
X221007511Y-65499845D01*
X220970511Y-65625055D01*
X220936510Y-65754995D01*
X220908511Y-65897606D01*
X220889511Y-66060828D01*
X220882511Y-66252604D01*
X219541245Y-66602948D01*
X219538216Y-66601762D01*
X219538296Y-66601557D01*
X219533898Y-66600411D01*
X219529366Y-66592688D01*
X219529257Y-66590850D01*
X219535868Y-66252706D01*
X219535868Y-66252686D01*
X219542711Y-65902643D01*
X219542810Y-65897606D01*
X219554167Y-65316628D01*
X219557755Y-65308424D01*
X219562645Y-65305609D01*
X219708824Y-65263757D01*
X219709768Y-65263528D01*
X219863433Y-65233057D01*
X219863887Y-65232977D01*
X219868747Y-65232211D01*
X219881627Y-65230181D01*
X220013648Y-65209370D01*
X220013664Y-65209367D01*
X220052394Y-65202958D01*
X220155482Y-65185899D01*
X220155489Y-65185898D01*
X220155674Y-65185867D01*
X220285976Y-65155709D01*
X220400874Y-65112087D01*
X220496671Y-65048193D01*
X220507479Y-65034725D01*
X220569089Y-64957952D01*
X220569091Y-64957949D01*
X220569674Y-64957222D01*
X220570001Y-64956345D01*
X220615922Y-64833072D01*
X220615923Y-64833069D01*
X220616185Y-64832365D01*
X220631470Y-64677369D01*
X220635693Y-64669473D01*
X220643114Y-64666818D01*
X221120434Y-64666818D01*
X221128707Y-64670245D01*
G37*
G04 #@! TD.AperFunction*
G04 #@! TA.AperFunction,Conductor*
G36*
X220882511Y-66252604D02*
G01*
X220884364Y-66451823D01*
X220889395Y-66622371D01*
X220896808Y-66772247D01*
X220905810Y-66909452D01*
X220905812Y-66909473D01*
X220905811Y-66909473D01*
X220915605Y-67041963D01*
X220915607Y-67041983D01*
X220925404Y-67177841D01*
X220925412Y-67177969D01*
X220934401Y-67324943D01*
X220934411Y-67325137D01*
X220941813Y-67491405D01*
X220941821Y-67491621D01*
X220943960Y-67574041D01*
X220945555Y-67635452D01*
X220946847Y-67685238D01*
X220946850Y-67685415D01*
X220947451Y-67759545D01*
X220948609Y-67902730D01*
X220945249Y-67911031D01*
X220936909Y-67914525D01*
X220459507Y-67914525D01*
X220451234Y-67911098D01*
X220447844Y-67903756D01*
X220436378Y-67760122D01*
X220436332Y-67759545D01*
X220400741Y-67635452D01*
X220344216Y-67537602D01*
X220269043Y-67461349D01*
X220177505Y-67402047D01*
X220071888Y-67355051D01*
X219954477Y-67315716D01*
X219954336Y-67315676D01*
X219954321Y-67315671D01*
X219827558Y-67279396D01*
X219765610Y-67261870D01*
X219693601Y-67241497D01*
X219693241Y-67241389D01*
X219562325Y-67199760D01*
X219555479Y-67193987D01*
X219554172Y-67188839D01*
X219529251Y-65914027D01*
X219532516Y-65905688D01*
X219539349Y-65902208D01*
X219540458Y-65902055D01*
X220882511Y-66252604D01*
G37*
G04 #@! TD.AperFunction*
G04 #@! TA.AperFunction,Conductor*
G36*
X226059210Y-83071132D02*
G01*
X226062631Y-83079776D01*
X226056027Y-83287967D01*
X226055972Y-83288786D01*
X226039521Y-83449577D01*
X226037058Y-83473648D01*
X226036941Y-83474490D01*
X226009080Y-83632362D01*
X226008926Y-83633098D01*
X225975071Y-83772077D01*
X225974946Y-83772547D01*
X225938014Y-83900732D01*
X225901014Y-84025942D01*
X225867013Y-84155882D01*
X225839014Y-84298493D01*
X225820014Y-84461715D01*
X225820005Y-84461949D01*
X225820005Y-84461955D01*
X225813331Y-84644797D01*
X225809605Y-84652939D01*
X225804597Y-84655690D01*
X224459461Y-85007044D01*
X224484670Y-83717515D01*
X224488258Y-83709311D01*
X224493148Y-83706496D01*
X224639327Y-83664644D01*
X224640271Y-83664415D01*
X224793936Y-83633944D01*
X224794390Y-83633864D01*
X224799250Y-83633098D01*
X224812130Y-83631068D01*
X224944151Y-83610257D01*
X224944167Y-83610254D01*
X224982897Y-83603845D01*
X225085985Y-83586786D01*
X225085992Y-83586785D01*
X225086177Y-83586754D01*
X225216479Y-83556596D01*
X225331377Y-83512974D01*
X225427174Y-83449080D01*
X225437982Y-83435612D01*
X225499592Y-83358839D01*
X225499594Y-83358836D01*
X225500177Y-83358109D01*
X225500504Y-83357232D01*
X225546425Y-83233959D01*
X225546426Y-83233956D01*
X225546688Y-83233252D01*
X225561973Y-83078256D01*
X225566196Y-83070360D01*
X225573617Y-83067705D01*
X226050937Y-83067705D01*
X226059210Y-83071132D01*
G37*
G04 #@! TD.AperFunction*
G04 #@! TA.AperFunction,Conductor*
G36*
X224955348Y-85108575D02*
G01*
X224820149Y-85626176D01*
X224815309Y-85644705D01*
X224809903Y-85651843D01*
X224803935Y-85653448D01*
X224702407Y-85652962D01*
X224608949Y-85652515D01*
X224608828Y-85652514D01*
X224434058Y-85649867D01*
X224433938Y-85649864D01*
X224388038Y-85648699D01*
X224280381Y-85645965D01*
X224139716Y-85641230D01*
X224139669Y-85641208D01*
X224139668Y-85641228D01*
X224003732Y-85636072D01*
X223864387Y-85630915D01*
X223713450Y-85626178D01*
X223713408Y-85626177D01*
X223713377Y-85626176D01*
X223542736Y-85622276D01*
X223344062Y-85619628D01*
X223120895Y-85618701D01*
X223112637Y-85615240D01*
X223109244Y-85607001D01*
X223109244Y-85129596D01*
X223112671Y-85121323D01*
X223120162Y-85117922D01*
X223177310Y-85114094D01*
X223259696Y-85108575D01*
X223260169Y-85108464D01*
X223260173Y-85108463D01*
X223304750Y-85097965D01*
X223384029Y-85079294D01*
X223485827Y-85032241D01*
X223486334Y-85031853D01*
X223486339Y-85031850D01*
X223532767Y-84996320D01*
X223568671Y-84968844D01*
X223569065Y-84968387D01*
X223569068Y-84968384D01*
X223635834Y-84890898D01*
X223635837Y-84890893D01*
X223636147Y-84890534D01*
X223691836Y-84798739D01*
X223739322Y-84694891D01*
X223782189Y-84580417D01*
X223824020Y-84456749D01*
X223865767Y-84333109D01*
X223871659Y-84326368D01*
X223876621Y-84325155D01*
X225166567Y-84299938D01*
X224955348Y-85108575D01*
G37*
G04 #@! TD.AperFunction*
G04 #@! TA.AperFunction,Conductor*
G36*
X226804911Y-118280204D02*
G01*
X226966402Y-118428767D01*
X227121249Y-118544801D01*
X227121553Y-118544976D01*
X227121557Y-118544979D01*
X227197391Y-118588717D01*
X227265626Y-118628072D01*
X227265961Y-118628212D01*
X227403664Y-118685816D01*
X227403674Y-118685819D01*
X227403962Y-118685940D01*
X227540687Y-118725767D01*
X227680230Y-118754913D01*
X227680333Y-118754931D01*
X227680353Y-118754935D01*
X227826912Y-118780720D01*
X227827052Y-118780745D01*
X227926467Y-118799482D01*
X227985255Y-118810562D01*
X227985754Y-118810668D01*
X228152764Y-118850149D01*
X228159690Y-118851786D01*
X228160439Y-118851989D01*
X228347103Y-118909420D01*
X228354001Y-118915129D01*
X228355359Y-118920374D01*
X228380334Y-120197914D01*
X228377069Y-120206253D01*
X228368407Y-120209841D01*
X227090867Y-120184866D01*
X227082663Y-120181278D01*
X227079913Y-120176609D01*
X227022482Y-119989946D01*
X227022279Y-119989197D01*
X226981164Y-119815274D01*
X226981052Y-119814749D01*
X226951232Y-119656530D01*
X226951207Y-119656390D01*
X226925428Y-119509860D01*
X226925424Y-119509840D01*
X226925406Y-119509737D01*
X226896260Y-119370194D01*
X226856433Y-119233469D01*
X226856312Y-119233181D01*
X226856309Y-119233171D01*
X226798705Y-119095468D01*
X226798565Y-119095133D01*
X226715294Y-118950756D01*
X226692528Y-118920374D01*
X226599435Y-118796143D01*
X226599260Y-118795909D01*
X226450697Y-118634418D01*
X226447619Y-118626012D01*
X226451036Y-118618226D01*
X226788719Y-118280543D01*
X226796992Y-118277116D01*
X226804911Y-118280204D01*
G37*
G04 #@! TD.AperFunction*
G04 #@! TA.AperFunction,Conductor*
G36*
X207988456Y-94033913D02*
G01*
X208135984Y-94175783D01*
X208139572Y-94183987D01*
X208135984Y-94192649D01*
X207995986Y-94327277D01*
X207995986Y-94327278D01*
X207994224Y-94328972D01*
X207994224Y-94328973D01*
X207779831Y-94535145D01*
X207779830Y-94535145D01*
X207214966Y-95078348D01*
X207206627Y-95081613D01*
X207201382Y-95080255D01*
X207197781Y-95078348D01*
X207028798Y-94988882D01*
X207028125Y-94988498D01*
X206876034Y-94894566D01*
X206875584Y-94894273D01*
X206742711Y-94803543D01*
X206742595Y-94803463D01*
X206620651Y-94718009D01*
X206620644Y-94718004D01*
X206620578Y-94717958D01*
X206620505Y-94717910D01*
X206501486Y-94640018D01*
X206501480Y-94640014D01*
X206501296Y-94639894D01*
X206376455Y-94571377D01*
X206237718Y-94514478D01*
X206237373Y-94514385D01*
X206237366Y-94514383D01*
X206077082Y-94471359D01*
X206077079Y-94471358D01*
X206076746Y-94471269D01*
X206009056Y-94461570D01*
X205885499Y-94443866D01*
X205885494Y-94443866D01*
X205885204Y-94443824D01*
X205778655Y-94439382D01*
X205665966Y-94434683D01*
X205657842Y-94430914D01*
X205654753Y-94422993D01*
X205654753Y-93945438D01*
X205658180Y-93937165D01*
X205665965Y-93933749D01*
X205885204Y-93924607D01*
X205885494Y-93924565D01*
X205885499Y-93924565D01*
X206009056Y-93906861D01*
X206076746Y-93897162D01*
X206077079Y-93897073D01*
X206077082Y-93897072D01*
X206237366Y-93854048D01*
X206237373Y-93854046D01*
X206237718Y-93853953D01*
X206376455Y-93797054D01*
X206501296Y-93728537D01*
X206501480Y-93728417D01*
X206501486Y-93728413D01*
X206516151Y-93718815D01*
X206620578Y-93650473D01*
X206742639Y-93564937D01*
X206875815Y-93474000D01*
X207028444Y-93379736D01*
X207208864Y-93284216D01*
X207988456Y-94033913D01*
G37*
G04 #@! TD.AperFunction*
G04 #@! TA.AperFunction,Conductor*
G36*
X207431341Y-125734107D02*
G01*
X208286826Y-126556786D01*
X208349704Y-126617253D01*
X208353292Y-126625457D01*
X208350027Y-126633796D01*
X208347508Y-126635781D01*
X207161036Y-127330800D01*
X207152166Y-127332025D01*
X207147393Y-127329488D01*
X207013331Y-127211494D01*
X207012995Y-127211272D01*
X207012990Y-127211269D01*
X206879929Y-127123659D01*
X206879926Y-127123657D01*
X206879602Y-127123444D01*
X206879255Y-127123278D01*
X206879252Y-127123276D01*
X206750597Y-127061615D01*
X206750326Y-127061485D01*
X206750043Y-127061384D01*
X206750038Y-127061382D01*
X206623425Y-127016231D01*
X206623423Y-127016230D01*
X206623279Y-127016179D01*
X206496263Y-126978097D01*
X206496141Y-126978059D01*
X206367356Y-126937896D01*
X206366600Y-126937632D01*
X206233844Y-126886031D01*
X206232681Y-126885504D01*
X206093521Y-126813070D01*
X206092252Y-126812304D01*
X206082055Y-126805227D01*
X205944158Y-126709523D01*
X205943035Y-126708636D01*
X205792370Y-126573777D01*
X205788491Y-126565706D01*
X205791900Y-126556786D01*
X206129310Y-126219376D01*
X206137583Y-126215949D01*
X206144886Y-126218508D01*
X206183919Y-126249692D01*
X206276521Y-126323673D01*
X206365820Y-126357989D01*
X206400008Y-126371126D01*
X206405998Y-126373428D01*
X206407128Y-126373407D01*
X206407130Y-126373407D01*
X206527102Y-126371145D01*
X206527103Y-126371145D01*
X206528102Y-126371126D01*
X206529035Y-126370773D01*
X206529037Y-126370773D01*
X206645179Y-126326887D01*
X206645180Y-126326887D01*
X206645790Y-126326656D01*
X206646336Y-126326296D01*
X206646339Y-126326294D01*
X206761745Y-126250089D01*
X206761754Y-126250082D01*
X206762024Y-126249904D01*
X206879763Y-126150758D01*
X206934683Y-126100579D01*
X207001924Y-126039143D01*
X207002079Y-126039005D01*
X207131277Y-125925107D01*
X207131909Y-125924587D01*
X207271033Y-125818258D01*
X207272223Y-125817459D01*
X207392750Y-125746839D01*
X207417316Y-125732445D01*
X207426187Y-125731219D01*
X207431341Y-125734107D01*
G37*
G04 #@! TD.AperFunction*
G04 #@! TA.AperFunction,Conductor*
G36*
X190768757Y-102037639D02*
G01*
X190936956Y-102126689D01*
X190941340Y-102129010D01*
X190942014Y-102129395D01*
X191094105Y-102223327D01*
X191094555Y-102223620D01*
X191227428Y-102314350D01*
X191227544Y-102314430D01*
X191349561Y-102399935D01*
X191349624Y-102399977D01*
X191349634Y-102399983D01*
X191468653Y-102477875D01*
X191468659Y-102477879D01*
X191468843Y-102477999D01*
X191593684Y-102546516D01*
X191732421Y-102603415D01*
X191732766Y-102603508D01*
X191732773Y-102603510D01*
X191893057Y-102646534D01*
X191893060Y-102646535D01*
X191893393Y-102646624D01*
X191961083Y-102656323D01*
X192084640Y-102674027D01*
X192084645Y-102674027D01*
X192084935Y-102674069D01*
X192304175Y-102683211D01*
X192312298Y-102686979D01*
X192315387Y-102694900D01*
X192315387Y-103172455D01*
X192311960Y-103180728D01*
X192304174Y-103184145D01*
X192191703Y-103188835D01*
X192084935Y-103193286D01*
X192084645Y-103193328D01*
X192084640Y-103193328D01*
X191961083Y-103211032D01*
X191893393Y-103220731D01*
X191893060Y-103220820D01*
X191893057Y-103220821D01*
X191732773Y-103263845D01*
X191732766Y-103263847D01*
X191732421Y-103263940D01*
X191593684Y-103320839D01*
X191468843Y-103389356D01*
X191468659Y-103389476D01*
X191468653Y-103389480D01*
X191349634Y-103467372D01*
X191349561Y-103467420D01*
X191349495Y-103467466D01*
X191349488Y-103467471D01*
X191227544Y-103552925D01*
X191227428Y-103553005D01*
X191094555Y-103643735D01*
X191094105Y-103644028D01*
X190942020Y-103737956D01*
X190941346Y-103738341D01*
X190768757Y-103829716D01*
X190759842Y-103830559D01*
X190755173Y-103827809D01*
X190184548Y-103279066D01*
X189825387Y-102933678D01*
X190656406Y-102134527D01*
X190755174Y-102039546D01*
X190763513Y-102036281D01*
X190768757Y-102037639D01*
G37*
G04 #@! TD.AperFunction*
G04 #@! TA.AperFunction,Conductor*
G36*
X190548116Y-137831450D02*
G01*
X190551533Y-137840198D01*
X190545090Y-137998782D01*
X190543183Y-138045705D01*
X190543093Y-138046756D01*
X190519164Y-138228669D01*
X190518972Y-138229741D01*
X190483730Y-138384502D01*
X190483480Y-138385423D01*
X190440651Y-138521208D01*
X190440452Y-138521787D01*
X190393689Y-138646857D01*
X190346820Y-138769026D01*
X190303752Y-138896029D01*
X190268284Y-139035882D01*
X190244216Y-139196597D01*
X190244203Y-139196882D01*
X190244202Y-139196889D01*
X190235752Y-139377592D01*
X190231943Y-139385696D01*
X190227022Y-139388365D01*
X188896754Y-139735836D01*
X188887883Y-139734611D01*
X188882477Y-139727473D01*
X188882099Y-139724287D01*
X188888666Y-139388365D01*
X188907004Y-138450299D01*
X188910592Y-138442096D01*
X188915588Y-138439251D01*
X189067868Y-138397198D01*
X189068999Y-138396945D01*
X189230115Y-138369231D01*
X189230717Y-138369144D01*
X189388901Y-138350337D01*
X189388935Y-138350333D01*
X189539849Y-138332848D01*
X189540002Y-138332822D01*
X189540008Y-138332821D01*
X189678615Y-138309136D01*
X189678619Y-138309135D01*
X189678982Y-138309073D01*
X189679335Y-138308965D01*
X189679343Y-138308963D01*
X189767604Y-138281938D01*
X189802164Y-138271356D01*
X189905227Y-138212045D01*
X189922240Y-138192919D01*
X189983332Y-138124243D01*
X189983333Y-138124241D01*
X189984004Y-138123487D01*
X190034327Y-137998031D01*
X190050936Y-137838511D01*
X190055201Y-137830638D01*
X190062573Y-137828023D01*
X190539843Y-137828023D01*
X190548116Y-137831450D01*
G37*
G04 #@! TD.AperFunction*
G04 #@! TA.AperFunction,Conductor*
G36*
X118691817Y-66844315D02*
G01*
X118689305Y-66972783D01*
X118685717Y-66980987D01*
X118681257Y-66983670D01*
X118554397Y-67025327D01*
X118554238Y-67025378D01*
X118425833Y-67065418D01*
X118305632Y-67105300D01*
X118195511Y-67149073D01*
X118097303Y-67200799D01*
X118096930Y-67201080D01*
X118096926Y-67201083D01*
X118021147Y-67258271D01*
X118012841Y-67264540D01*
X117943957Y-67344358D01*
X117892485Y-67444315D01*
X117892323Y-67444940D01*
X117892322Y-67444942D01*
X117860390Y-67567963D01*
X117860258Y-67568472D01*
X117860220Y-67568997D01*
X117849902Y-67710046D01*
X117845881Y-67718047D01*
X117838233Y-67720892D01*
X117360826Y-67720892D01*
X117352553Y-67717465D01*
X117349126Y-67709175D01*
X117349441Y-67488810D01*
X117349441Y-67488773D01*
X117350342Y-67292405D01*
X117350342Y-67292367D01*
X117351670Y-67123588D01*
X117351684Y-67123588D01*
X117351670Y-67123554D01*
X117351868Y-67105300D01*
X117353283Y-66974350D01*
X117355038Y-66836566D01*
X117356793Y-66702152D01*
X117358406Y-66563020D01*
X117359734Y-66411086D01*
X117360635Y-66238263D01*
X117360953Y-66045486D01*
X117364394Y-66037218D01*
X117369695Y-66034185D01*
X118714521Y-65682912D01*
X118691817Y-66844315D01*
G37*
G04 #@! TD.AperFunction*
G04 #@! TA.AperFunction,Conductor*
G36*
X112623802Y-82840434D02*
G01*
X112627172Y-82847558D01*
X112642457Y-83002554D01*
X112642719Y-83003258D01*
X112642720Y-83003261D01*
X112688641Y-83126534D01*
X112688968Y-83127411D01*
X112689551Y-83128138D01*
X112689553Y-83128141D01*
X112751163Y-83204914D01*
X112761971Y-83218382D01*
X112857768Y-83282276D01*
X112972666Y-83325898D01*
X113102968Y-83356056D01*
X113103153Y-83356087D01*
X113103160Y-83356088D01*
X113206248Y-83373147D01*
X113244978Y-83379556D01*
X113244994Y-83379559D01*
X113377015Y-83400370D01*
X113389896Y-83402400D01*
X113394755Y-83403166D01*
X113395209Y-83403246D01*
X113548874Y-83433717D01*
X113549818Y-83433946D01*
X113695998Y-83475798D01*
X113703009Y-83481370D01*
X113704476Y-83486817D01*
X113729685Y-84776346D01*
X112791077Y-84531178D01*
X112384550Y-84424992D01*
X112377412Y-84419586D01*
X112375815Y-84414099D01*
X112369141Y-84231257D01*
X112369141Y-84231251D01*
X112369132Y-84231017D01*
X112350132Y-84067795D01*
X112322132Y-83925184D01*
X112288132Y-83795244D01*
X112251132Y-83670034D01*
X112214200Y-83541849D01*
X112214075Y-83541379D01*
X112180219Y-83402400D01*
X112180065Y-83401664D01*
X112159038Y-83282511D01*
X112152203Y-83243781D01*
X112152088Y-83242950D01*
X112149626Y-83218879D01*
X112133174Y-83058088D01*
X112133119Y-83057269D01*
X112126515Y-82849078D01*
X112129678Y-82840700D01*
X112138209Y-82837007D01*
X112615529Y-82837007D01*
X112623802Y-82840434D01*
G37*
G04 #@! TD.AperFunction*
G04 #@! TA.AperFunction,Conductor*
G36*
X113724629Y-84517715D02*
G01*
X113725388Y-84519010D01*
X113725388Y-84519011D01*
X114078928Y-85122542D01*
X114080153Y-85131413D01*
X114077555Y-85136254D01*
X113957784Y-85270203D01*
X113865801Y-85402498D01*
X113798362Y-85529344D01*
X113746541Y-85653302D01*
X113701413Y-85776932D01*
X113654180Y-85902453D01*
X113653908Y-85903115D01*
X113595760Y-86032939D01*
X113595249Y-86033946D01*
X113517246Y-86170901D01*
X113516540Y-86171994D01*
X113409681Y-86318880D01*
X113408885Y-86319859D01*
X113272009Y-86470702D01*
X113263911Y-86474526D01*
X113255071Y-86471113D01*
X112917627Y-86133669D01*
X112914200Y-86125396D01*
X112916783Y-86118063D01*
X113019452Y-85990420D01*
X113019452Y-85990419D01*
X113019990Y-85989751D01*
X113054941Y-85903115D01*
X113070851Y-85863679D01*
X113070851Y-85863677D01*
X113071254Y-85862679D01*
X113073175Y-85742307D01*
X113034932Y-85625913D01*
X112965706Y-85510775D01*
X112965482Y-85510488D01*
X112874754Y-85394270D01*
X112874744Y-85394258D01*
X112874677Y-85394172D01*
X112771025Y-85273382D01*
X112664166Y-85145966D01*
X112663717Y-85145396D01*
X112562960Y-85008885D01*
X112562242Y-85007788D01*
X112480532Y-84866301D01*
X112479362Y-84857423D01*
X112482231Y-84852340D01*
X112789463Y-84532857D01*
X112789463Y-84532856D01*
X113376132Y-83922793D01*
X113724629Y-84517715D01*
G37*
G04 #@! TD.AperFunction*
G04 #@! TA.AperFunction,Conductor*
G36*
X107693299Y-101241321D02*
G01*
X107696669Y-101248445D01*
X107711954Y-101403441D01*
X107712216Y-101404145D01*
X107712217Y-101404148D01*
X107758138Y-101527421D01*
X107758465Y-101528298D01*
X107759048Y-101529025D01*
X107759050Y-101529028D01*
X107820660Y-101605801D01*
X107831468Y-101619269D01*
X107927265Y-101683163D01*
X108042163Y-101726785D01*
X108172465Y-101756943D01*
X108172650Y-101756974D01*
X108172657Y-101756975D01*
X108275745Y-101774034D01*
X108314475Y-101780443D01*
X108314491Y-101780446D01*
X108446512Y-101801257D01*
X108459393Y-101803287D01*
X108464252Y-101804053D01*
X108464706Y-101804133D01*
X108618371Y-101834604D01*
X108619315Y-101834833D01*
X108765495Y-101876685D01*
X108772506Y-101882257D01*
X108773973Y-101887704D01*
X108795100Y-102968436D01*
X108798665Y-103150783D01*
X108798880Y-103161777D01*
X108795615Y-103170116D01*
X108787411Y-103173704D01*
X108784225Y-103173326D01*
X108627479Y-103132383D01*
X108627478Y-103132383D01*
X108625227Y-103131795D01*
X107445629Y-102823680D01*
X107438629Y-102631904D01*
X107419629Y-102468682D01*
X107391629Y-102326071D01*
X107357629Y-102196131D01*
X107320629Y-102070921D01*
X107283697Y-101942736D01*
X107283572Y-101942266D01*
X107249716Y-101803287D01*
X107249562Y-101802551D01*
X107228535Y-101683398D01*
X107221700Y-101644668D01*
X107221585Y-101643837D01*
X107219123Y-101619766D01*
X107202671Y-101458975D01*
X107202616Y-101458156D01*
X107196012Y-101249965D01*
X107199175Y-101241587D01*
X107207706Y-101237894D01*
X107685026Y-101237894D01*
X107693299Y-101241321D01*
G37*
G04 #@! TD.AperFunction*
G04 #@! TA.AperFunction,Conductor*
G36*
X108789332Y-102673377D02*
G01*
X108936860Y-102815247D01*
X108940448Y-102823451D01*
X108936860Y-102832113D01*
X108796862Y-102966741D01*
X108796862Y-102966742D01*
X108795100Y-102968436D01*
X108795100Y-102968437D01*
X108625227Y-103131795D01*
X108624135Y-103132845D01*
X108015842Y-103717812D01*
X108007503Y-103721077D01*
X108002258Y-103719719D01*
X107998657Y-103717812D01*
X107829674Y-103628346D01*
X107829001Y-103627962D01*
X107676910Y-103534030D01*
X107676460Y-103533737D01*
X107543587Y-103443007D01*
X107543471Y-103442927D01*
X107421527Y-103357473D01*
X107421520Y-103357468D01*
X107421454Y-103357422D01*
X107421381Y-103357374D01*
X107302362Y-103279482D01*
X107302356Y-103279478D01*
X107302172Y-103279358D01*
X107177331Y-103210841D01*
X107038594Y-103153942D01*
X107038249Y-103153849D01*
X107038242Y-103153847D01*
X106877958Y-103110823D01*
X106877955Y-103110822D01*
X106877622Y-103110733D01*
X106809932Y-103101034D01*
X106686375Y-103083330D01*
X106686370Y-103083330D01*
X106686080Y-103083288D01*
X106579531Y-103078846D01*
X106466842Y-103074147D01*
X106458718Y-103070378D01*
X106455629Y-103062457D01*
X106455629Y-102584902D01*
X106459056Y-102576629D01*
X106466841Y-102573213D01*
X106686080Y-102564071D01*
X106686370Y-102564029D01*
X106686375Y-102564029D01*
X106809932Y-102546325D01*
X106877622Y-102536626D01*
X106877955Y-102536537D01*
X106877958Y-102536536D01*
X107038242Y-102493512D01*
X107038249Y-102493510D01*
X107038594Y-102493417D01*
X107177331Y-102436518D01*
X107302172Y-102368001D01*
X107302356Y-102367881D01*
X107302362Y-102367877D01*
X107385969Y-102313160D01*
X107421454Y-102289937D01*
X107543515Y-102204401D01*
X107676691Y-102113464D01*
X107829320Y-102019200D01*
X108009740Y-101923680D01*
X108789332Y-102673377D01*
G37*
G04 #@! TD.AperFunction*
G04 #@! TA.AperFunction,Conductor*
G36*
X110603754Y-137509615D02*
G01*
X110607171Y-137517401D01*
X110616312Y-137736639D01*
X110643757Y-137928181D01*
X110643846Y-137928514D01*
X110643847Y-137928517D01*
X110686871Y-138088801D01*
X110686873Y-138088808D01*
X110686966Y-138089153D01*
X110743865Y-138227890D01*
X110812382Y-138352731D01*
X110890446Y-138472013D01*
X110890492Y-138472079D01*
X110890497Y-138472086D01*
X110975951Y-138594030D01*
X110976031Y-138594146D01*
X111066761Y-138727019D01*
X111067054Y-138727469D01*
X111160986Y-138879560D01*
X111161371Y-138880234D01*
X111252743Y-139052817D01*
X111253586Y-139061732D01*
X111250836Y-139066401D01*
X110365137Y-139987419D01*
X110356933Y-139991007D01*
X110348271Y-139987419D01*
X109462572Y-139066401D01*
X109459307Y-139058062D01*
X109460665Y-139052817D01*
X109552036Y-138880234D01*
X109552421Y-138879560D01*
X109646353Y-138727469D01*
X109646646Y-138727019D01*
X109737376Y-138594146D01*
X109737456Y-138594030D01*
X109822910Y-138472086D01*
X109822915Y-138472079D01*
X109822961Y-138472013D01*
X109901025Y-138352731D01*
X109969542Y-138227890D01*
X110026441Y-138089153D01*
X110026534Y-138088808D01*
X110026536Y-138088801D01*
X110069560Y-137928517D01*
X110069561Y-137928514D01*
X110069650Y-137928181D01*
X110097095Y-137736639D01*
X110106237Y-137517400D01*
X110110005Y-137509277D01*
X110117926Y-137506188D01*
X110595481Y-137506188D01*
X110603754Y-137509615D01*
G37*
G04 #@! TD.AperFunction*
G04 #@! TA.AperFunction,Conductor*
G36*
X101263728Y-58068664D02*
G01*
X101261272Y-58194289D01*
X101257684Y-58202493D01*
X101253334Y-58205139D01*
X101130219Y-58246897D01*
X101007322Y-58289016D01*
X100893781Y-58332364D01*
X100893579Y-58332458D01*
X100893573Y-58332461D01*
X100831964Y-58361272D01*
X100790959Y-58380448D01*
X100700217Y-58436776D01*
X100622920Y-58504855D01*
X100622554Y-58505343D01*
X100603694Y-58530494D01*
X100560427Y-58588191D01*
X100514104Y-58690292D01*
X100513974Y-58690852D01*
X100513973Y-58690856D01*
X100504989Y-58729664D01*
X100485310Y-58814665D01*
X100485280Y-58815126D01*
X100476131Y-58953888D01*
X100472167Y-58961917D01*
X100464456Y-58964818D01*
X99987051Y-58964818D01*
X99978778Y-58961391D01*
X99975351Y-58953177D01*
X99974221Y-58729664D01*
X99974220Y-58729626D01*
X99974220Y-58729544D01*
X99973584Y-58690292D01*
X99970993Y-58530564D01*
X99970992Y-58530494D01*
X99966819Y-58380448D01*
X99966237Y-58359524D01*
X99966235Y-58359466D01*
X99965204Y-58332461D01*
X99960459Y-58208257D01*
X99954173Y-58068664D01*
X99947886Y-57932487D01*
X99942110Y-57791523D01*
X99937353Y-57637569D01*
X99934127Y-57462514D01*
X99934125Y-57462366D01*
X99932989Y-57266975D01*
X99936368Y-57258682D01*
X99941731Y-57255588D01*
X100619390Y-57078581D01*
X101286489Y-56904332D01*
X101263728Y-58068664D01*
G37*
G04 #@! TD.AperFunction*
G04 #@! TA.AperFunction,Conductor*
G36*
X97186400Y-74068231D02*
G01*
X97524083Y-74405914D01*
X97527510Y-74414187D01*
X97524422Y-74422106D01*
X97375858Y-74583597D01*
X97375683Y-74583831D01*
X97282591Y-74708062D01*
X97259824Y-74738444D01*
X97176553Y-74882821D01*
X97176413Y-74883156D01*
X97118809Y-75020859D01*
X97118806Y-75020869D01*
X97118685Y-75021157D01*
X97078858Y-75157882D01*
X97049712Y-75297425D01*
X97023886Y-75444218D01*
X97008577Y-75525447D01*
X96994066Y-75602437D01*
X96993954Y-75602962D01*
X96952839Y-75776885D01*
X96952636Y-75777634D01*
X96895206Y-75964297D01*
X96889498Y-75971196D01*
X96884252Y-75972554D01*
X96713202Y-75975898D01*
X95594547Y-75997767D01*
X95608475Y-75285285D01*
X95619760Y-74708062D01*
X95623348Y-74699858D01*
X95628016Y-74697109D01*
X95814679Y-74639677D01*
X95815428Y-74639474D01*
X95822354Y-74637837D01*
X95989364Y-74598356D01*
X95989863Y-74598250D01*
X96048651Y-74587170D01*
X96148066Y-74568433D01*
X96148206Y-74568408D01*
X96294765Y-74542623D01*
X96294785Y-74542619D01*
X96294888Y-74542601D01*
X96434431Y-74513455D01*
X96571156Y-74473628D01*
X96571444Y-74473507D01*
X96571454Y-74473504D01*
X96709157Y-74415900D01*
X96709492Y-74415760D01*
X96777727Y-74376405D01*
X96853561Y-74332667D01*
X96853565Y-74332664D01*
X96853869Y-74332489D01*
X97008716Y-74216455D01*
X97170207Y-74067892D01*
X97178614Y-74064814D01*
X97186400Y-74068231D01*
G37*
G04 #@! TD.AperFunction*
G04 #@! TA.AperFunction,Conductor*
G36*
X92255897Y-92469118D02*
G01*
X92593580Y-92806801D01*
X92597007Y-92815074D01*
X92593919Y-92822993D01*
X92445355Y-92984484D01*
X92445180Y-92984718D01*
X92352088Y-93108949D01*
X92329321Y-93139331D01*
X92246050Y-93283708D01*
X92245910Y-93284043D01*
X92188306Y-93421746D01*
X92188303Y-93421756D01*
X92188182Y-93422044D01*
X92148355Y-93558769D01*
X92119209Y-93698312D01*
X92119191Y-93698415D01*
X92119187Y-93698435D01*
X92093408Y-93844965D01*
X92093383Y-93845105D01*
X92063563Y-94003324D01*
X92063451Y-94003849D01*
X92022336Y-94177772D01*
X92022133Y-94178521D01*
X91964703Y-94365184D01*
X91958995Y-94372083D01*
X91953749Y-94373441D01*
X91376526Y-94384726D01*
X90664044Y-94398654D01*
X90686578Y-93245950D01*
X90687246Y-93211793D01*
X90689257Y-93108949D01*
X90692845Y-93100745D01*
X90697513Y-93097996D01*
X90884176Y-93040564D01*
X90884925Y-93040361D01*
X90891851Y-93038724D01*
X91058861Y-92999243D01*
X91059360Y-92999137D01*
X91118148Y-92988057D01*
X91217563Y-92969320D01*
X91217703Y-92969295D01*
X91364262Y-92943510D01*
X91364282Y-92943506D01*
X91364385Y-92943488D01*
X91503928Y-92914342D01*
X91640653Y-92874515D01*
X91640941Y-92874394D01*
X91640951Y-92874391D01*
X91778654Y-92816787D01*
X91778989Y-92816647D01*
X91847224Y-92777292D01*
X91923058Y-92733554D01*
X91923062Y-92733551D01*
X91923366Y-92733376D01*
X92078213Y-92617342D01*
X92239704Y-92468779D01*
X92248111Y-92465701D01*
X92255897Y-92469118D01*
G37*
G04 #@! TD.AperFunction*
G04 #@! TA.AperFunction,Conductor*
G36*
X96438436Y-75981270D02*
G01*
X96589161Y-76238573D01*
X96650974Y-76344095D01*
X96652199Y-76352966D01*
X96649734Y-76357656D01*
X96533701Y-76492007D01*
X96450287Y-76627488D01*
X96394887Y-76759618D01*
X96357425Y-76890253D01*
X96357389Y-76890413D01*
X96327847Y-77021153D01*
X96327815Y-77021292D01*
X96296115Y-77154022D01*
X96295874Y-77154883D01*
X96265893Y-77248205D01*
X96252130Y-77291043D01*
X96251603Y-77292390D01*
X96185800Y-77434152D01*
X96184975Y-77435638D01*
X96086981Y-77585215D01*
X96085975Y-77586535D01*
X95953336Y-77737167D01*
X95945297Y-77741111D01*
X95936282Y-77737708D01*
X95598917Y-77400343D01*
X95595490Y-77392070D01*
X95598023Y-77384801D01*
X95705648Y-77249097D01*
X95753698Y-77116722D01*
X95746427Y-76992582D01*
X95694568Y-76873415D01*
X95608853Y-76755956D01*
X95608640Y-76755723D01*
X95608635Y-76755717D01*
X95500056Y-76636989D01*
X95500015Y-76636944D01*
X95378877Y-76513205D01*
X95378679Y-76512997D01*
X95256219Y-76381544D01*
X95255619Y-76380847D01*
X95142588Y-76238573D01*
X95141696Y-76237281D01*
X95052664Y-76087768D01*
X95051376Y-76078907D01*
X95054284Y-76073672D01*
X95141897Y-75982566D01*
X95339320Y-75777270D01*
X95604243Y-75501783D01*
X95948100Y-75144214D01*
X96438436Y-75981270D01*
G37*
G04 #@! TD.AperFunction*
G04 #@! TA.AperFunction,Conductor*
G36*
X90587810Y-93150969D02*
G01*
X90686578Y-93245950D01*
X91517597Y-94045101D01*
X91160028Y-94388958D01*
X91158436Y-94390489D01*
X90587810Y-94939233D01*
X90579471Y-94942498D01*
X90574226Y-94941140D01*
X90570625Y-94939233D01*
X90401642Y-94849767D01*
X90400969Y-94849383D01*
X90248878Y-94755451D01*
X90248428Y-94755158D01*
X90115555Y-94664428D01*
X90115439Y-94664348D01*
X89993495Y-94578894D01*
X89993488Y-94578889D01*
X89993422Y-94578843D01*
X89993349Y-94578795D01*
X89874330Y-94500903D01*
X89874324Y-94500899D01*
X89874140Y-94500779D01*
X89749299Y-94432262D01*
X89610562Y-94375363D01*
X89610217Y-94375270D01*
X89610210Y-94375268D01*
X89449926Y-94332244D01*
X89449923Y-94332243D01*
X89449590Y-94332154D01*
X89381900Y-94322455D01*
X89258343Y-94304751D01*
X89258338Y-94304751D01*
X89258048Y-94304709D01*
X89151499Y-94300267D01*
X89038810Y-94295568D01*
X89030686Y-94291799D01*
X89027597Y-94283878D01*
X89027597Y-93806323D01*
X89031024Y-93798050D01*
X89038809Y-93794634D01*
X89258048Y-93785492D01*
X89258338Y-93785450D01*
X89258343Y-93785450D01*
X89381900Y-93767746D01*
X89449590Y-93758047D01*
X89449923Y-93757958D01*
X89449926Y-93757957D01*
X89610210Y-93714933D01*
X89610217Y-93714931D01*
X89610562Y-93714838D01*
X89749299Y-93657939D01*
X89874140Y-93589422D01*
X89874324Y-93589302D01*
X89874330Y-93589298D01*
X89993349Y-93511406D01*
X89993359Y-93511400D01*
X89993422Y-93511358D01*
X90115439Y-93425853D01*
X90115555Y-93425773D01*
X90248428Y-93335043D01*
X90248878Y-93334750D01*
X90400969Y-93240818D01*
X90401643Y-93240433D01*
X90574226Y-93149062D01*
X90583141Y-93148219D01*
X90587810Y-93150969D01*
G37*
G04 #@! TD.AperFunction*
G04 #@! TA.AperFunction,Conductor*
G36*
X91301548Y-125843957D02*
G01*
X91992896Y-126508793D01*
X92220065Y-126727251D01*
X92223653Y-126735455D01*
X92220388Y-126743794D01*
X92217869Y-126745779D01*
X91031608Y-127440674D01*
X91022737Y-127441899D01*
X91017728Y-127439148D01*
X90883716Y-127314575D01*
X90883545Y-127314416D01*
X90754695Y-127212435D01*
X90634054Y-127131393D01*
X90576772Y-127097871D01*
X90518219Y-127063604D01*
X90518197Y-127063591D01*
X90518131Y-127063553D01*
X90403431Y-127001179D01*
X90403361Y-127001140D01*
X90286678Y-126936655D01*
X90286257Y-126936411D01*
X90164046Y-126862078D01*
X90163417Y-126861667D01*
X90163241Y-126861544D01*
X90032071Y-126769725D01*
X90031418Y-126769231D01*
X89887314Y-126651879D01*
X89886695Y-126651338D01*
X89734810Y-126508793D01*
X89731123Y-126500633D01*
X89734544Y-126491989D01*
X90072060Y-126154473D01*
X90080333Y-126151046D01*
X90087753Y-126153701D01*
X90208160Y-126252492D01*
X90208844Y-126252805D01*
X90208846Y-126252806D01*
X90308064Y-126298165D01*
X90329336Y-126307890D01*
X90365501Y-126311853D01*
X90444386Y-126320498D01*
X90444388Y-126320498D01*
X90445283Y-126320596D01*
X90558202Y-126298036D01*
X90670292Y-126247637D01*
X90670617Y-126247434D01*
X90670623Y-126247431D01*
X90783613Y-126176912D01*
X90783754Y-126176824D01*
X90814970Y-126154473D01*
X90900725Y-126093070D01*
X90900788Y-126093025D01*
X90975043Y-126038992D01*
X91023404Y-126003802D01*
X91023782Y-126003538D01*
X91153963Y-125916441D01*
X91154788Y-125915937D01*
X91196745Y-125892658D01*
X91287762Y-125842159D01*
X91296658Y-125841142D01*
X91301548Y-125843957D01*
G37*
G04 #@! TD.AperFunction*
G04 #@! TA.AperFunction,Conductor*
G36*
X72008405Y-119070485D02*
G01*
X72180987Y-119161856D01*
X72181661Y-119162241D01*
X72333752Y-119256173D01*
X72334202Y-119256466D01*
X72467075Y-119347196D01*
X72467191Y-119347276D01*
X72589208Y-119432781D01*
X72589271Y-119432823D01*
X72589281Y-119432829D01*
X72708300Y-119510721D01*
X72708306Y-119510725D01*
X72708490Y-119510845D01*
X72833331Y-119579362D01*
X72972068Y-119636261D01*
X72972413Y-119636354D01*
X72972420Y-119636356D01*
X73132704Y-119679380D01*
X73132707Y-119679381D01*
X73133040Y-119679470D01*
X73200730Y-119689169D01*
X73324287Y-119706873D01*
X73324292Y-119706873D01*
X73324582Y-119706915D01*
X73543822Y-119716057D01*
X73551945Y-119719825D01*
X73555034Y-119727746D01*
X73555034Y-120205301D01*
X73551607Y-120213574D01*
X73543821Y-120216991D01*
X73431350Y-120221681D01*
X73324582Y-120226132D01*
X73324292Y-120226174D01*
X73324287Y-120226174D01*
X73200730Y-120243878D01*
X73133040Y-120253577D01*
X73132707Y-120253666D01*
X73132704Y-120253667D01*
X72972420Y-120296691D01*
X72972413Y-120296693D01*
X72972068Y-120296786D01*
X72833331Y-120353685D01*
X72708490Y-120422202D01*
X72708306Y-120422322D01*
X72708300Y-120422326D01*
X72589281Y-120500218D01*
X72589208Y-120500266D01*
X72589142Y-120500312D01*
X72589135Y-120500317D01*
X72467191Y-120585771D01*
X72467075Y-120585851D01*
X72334202Y-120676581D01*
X72333752Y-120676874D01*
X72181667Y-120770802D01*
X72180993Y-120771187D01*
X72008404Y-120862562D01*
X71999489Y-120863405D01*
X71994820Y-120860655D01*
X71709007Y-120585802D01*
X71073803Y-119974957D01*
X71070215Y-119966753D01*
X71073803Y-119958091D01*
X71313334Y-119727746D01*
X71994821Y-119072392D01*
X72003160Y-119069127D01*
X72008405Y-119070485D01*
G37*
G04 #@! TD.AperFunction*
G04 #@! TA.AperFunction,Conductor*
G36*
X74339672Y-84851432D02*
G01*
X74490397Y-85108735D01*
X74552210Y-85214257D01*
X74553435Y-85223128D01*
X74550970Y-85227818D01*
X74434937Y-85362169D01*
X74351523Y-85497650D01*
X74296123Y-85629780D01*
X74258661Y-85760415D01*
X74258625Y-85760575D01*
X74229083Y-85891315D01*
X74229051Y-85891454D01*
X74197351Y-86024184D01*
X74197110Y-86025045D01*
X74167129Y-86118367D01*
X74153366Y-86161205D01*
X74152839Y-86162552D01*
X74087036Y-86304314D01*
X74086211Y-86305800D01*
X73988217Y-86455377D01*
X73987211Y-86456697D01*
X73854572Y-86607329D01*
X73846533Y-86611273D01*
X73837518Y-86607870D01*
X73500153Y-86270505D01*
X73496726Y-86262232D01*
X73499259Y-86254963D01*
X73606884Y-86119259D01*
X73654934Y-85986884D01*
X73647663Y-85862744D01*
X73595804Y-85743577D01*
X73510089Y-85626118D01*
X73509876Y-85625885D01*
X73509871Y-85625879D01*
X73401292Y-85507151D01*
X73401251Y-85507106D01*
X73280113Y-85383367D01*
X73279915Y-85383159D01*
X73157455Y-85251706D01*
X73156855Y-85251009D01*
X73043824Y-85108735D01*
X73042932Y-85107443D01*
X72953900Y-84957930D01*
X72952612Y-84949069D01*
X72955520Y-84943834D01*
X73043133Y-84852728D01*
X73240556Y-84647432D01*
X73505479Y-84371945D01*
X73849336Y-84014376D01*
X74339672Y-84851432D01*
G37*
G04 #@! TD.AperFunction*
G04 #@! TA.AperFunction,Conductor*
G36*
X75087636Y-82938393D02*
G01*
X75425319Y-83276076D01*
X75428746Y-83284349D01*
X75425658Y-83292268D01*
X75277094Y-83453759D01*
X75276919Y-83453993D01*
X75183827Y-83578224D01*
X75161060Y-83608606D01*
X75077789Y-83752983D01*
X75077649Y-83753318D01*
X75020045Y-83891021D01*
X75020042Y-83891031D01*
X75019921Y-83891319D01*
X74980094Y-84028044D01*
X74950948Y-84167587D01*
X74925122Y-84314380D01*
X74909813Y-84395609D01*
X74895302Y-84472599D01*
X74895190Y-84473124D01*
X74854075Y-84647047D01*
X74853872Y-84647796D01*
X74796442Y-84834459D01*
X74790734Y-84841358D01*
X74785488Y-84842716D01*
X74614438Y-84846060D01*
X73495783Y-84867929D01*
X73509711Y-84155447D01*
X73520996Y-83578224D01*
X73524584Y-83570020D01*
X73529252Y-83567271D01*
X73715915Y-83509839D01*
X73716664Y-83509636D01*
X73723590Y-83507999D01*
X73890600Y-83468518D01*
X73891099Y-83468412D01*
X73949887Y-83457332D01*
X74049302Y-83438595D01*
X74049442Y-83438570D01*
X74196001Y-83412785D01*
X74196021Y-83412781D01*
X74196124Y-83412763D01*
X74335667Y-83383617D01*
X74472392Y-83343790D01*
X74472680Y-83343669D01*
X74472690Y-83343666D01*
X74610393Y-83286062D01*
X74610728Y-83285922D01*
X74678963Y-83246567D01*
X74754797Y-83202829D01*
X74754801Y-83202826D01*
X74755105Y-83202651D01*
X74909952Y-83086617D01*
X75071443Y-82938054D01*
X75079850Y-82934976D01*
X75087636Y-82938393D01*
G37*
G04 #@! TD.AperFunction*
G04 #@! TA.AperFunction,Conductor*
G36*
X79270175Y-66450545D02*
G01*
X79420900Y-66707848D01*
X79482713Y-66813370D01*
X79483938Y-66822241D01*
X79481473Y-66826931D01*
X79365440Y-66961282D01*
X79282026Y-67096763D01*
X79226626Y-67228893D01*
X79189164Y-67359528D01*
X79189128Y-67359688D01*
X79159586Y-67490428D01*
X79159554Y-67490567D01*
X79127854Y-67623297D01*
X79127613Y-67624158D01*
X79097632Y-67717480D01*
X79083869Y-67760318D01*
X79083342Y-67761665D01*
X79017539Y-67903427D01*
X79016714Y-67904913D01*
X78918720Y-68054490D01*
X78917714Y-68055810D01*
X78785075Y-68206442D01*
X78777036Y-68210386D01*
X78768021Y-68206983D01*
X78430656Y-67869618D01*
X78427229Y-67861345D01*
X78429762Y-67854076D01*
X78537387Y-67718372D01*
X78585437Y-67585997D01*
X78578166Y-67461857D01*
X78526307Y-67342690D01*
X78440592Y-67225231D01*
X78440379Y-67224998D01*
X78440374Y-67224992D01*
X78331795Y-67106264D01*
X78331754Y-67106219D01*
X78210616Y-66982480D01*
X78210418Y-66982272D01*
X78087958Y-66850819D01*
X78087358Y-66850122D01*
X77974327Y-66707848D01*
X77973435Y-66706556D01*
X77884403Y-66557043D01*
X77883115Y-66548182D01*
X77886023Y-66542947D01*
X77973636Y-66451841D01*
X78171059Y-66246545D01*
X78435982Y-65971058D01*
X78779839Y-65613489D01*
X79270175Y-66450545D01*
G37*
G04 #@! TD.AperFunction*
G04 #@! TA.AperFunction,Conductor*
G36*
X80018139Y-64537506D02*
G01*
X80355822Y-64875189D01*
X80359249Y-64883462D01*
X80356161Y-64891381D01*
X80207597Y-65052872D01*
X80207422Y-65053106D01*
X80114330Y-65177337D01*
X80091563Y-65207719D01*
X80008292Y-65352096D01*
X80008152Y-65352431D01*
X79950548Y-65490134D01*
X79950545Y-65490144D01*
X79950424Y-65490432D01*
X79910597Y-65627157D01*
X79881451Y-65766700D01*
X79855625Y-65913493D01*
X79840316Y-65994722D01*
X79825805Y-66071712D01*
X79825693Y-66072237D01*
X79784578Y-66246160D01*
X79784375Y-66246909D01*
X79726945Y-66433572D01*
X79721237Y-66440471D01*
X79715991Y-66441829D01*
X79544941Y-66445173D01*
X78426286Y-66467042D01*
X78440214Y-65754560D01*
X78451499Y-65177337D01*
X78455087Y-65169133D01*
X78459755Y-65166384D01*
X78646418Y-65108952D01*
X78647167Y-65108749D01*
X78654093Y-65107112D01*
X78821103Y-65067631D01*
X78821602Y-65067525D01*
X78880390Y-65056445D01*
X78979805Y-65037708D01*
X78979945Y-65037683D01*
X79126504Y-65011898D01*
X79126524Y-65011894D01*
X79126627Y-65011876D01*
X79266170Y-64982730D01*
X79402895Y-64942903D01*
X79403183Y-64942782D01*
X79403193Y-64942779D01*
X79540896Y-64885175D01*
X79541231Y-64885035D01*
X79609466Y-64845680D01*
X79685300Y-64801942D01*
X79685304Y-64801939D01*
X79685608Y-64801764D01*
X79840455Y-64685730D01*
X80001946Y-64537167D01*
X80010353Y-64534089D01*
X80018139Y-64537506D01*
G37*
G04 #@! TD.AperFunction*
G04 #@! TA.AperFunction,Conductor*
G36*
X83715457Y-47222182D02*
G01*
X83716348Y-47222857D01*
X84417447Y-48419708D01*
X84335360Y-48511701D01*
X84334802Y-48512326D01*
X84334800Y-48512328D01*
X84292483Y-48559752D01*
X84292245Y-48560019D01*
X84200779Y-48692500D01*
X84134055Y-48819665D01*
X84083083Y-48944031D01*
X84083038Y-48944159D01*
X84083037Y-48944160D01*
X84038910Y-49068002D01*
X84038870Y-49068113D01*
X83992551Y-49194086D01*
X83992279Y-49194760D01*
X83934990Y-49324960D01*
X83934476Y-49325988D01*
X83857202Y-49463231D01*
X83856488Y-49464347D01*
X83750165Y-49611390D01*
X83749356Y-49612389D01*
X83612751Y-49763202D01*
X83604657Y-49767033D01*
X83595806Y-49763620D01*
X83258367Y-49426181D01*
X83254940Y-49417908D01*
X83257520Y-49410579D01*
X83325901Y-49325487D01*
X83360977Y-49281838D01*
X83412040Y-49154453D01*
X83413406Y-49033853D01*
X83374347Y-48917286D01*
X83304136Y-48802001D01*
X83218019Y-48692818D01*
X83212126Y-48685346D01*
X83212123Y-48685342D01*
X83212047Y-48685246D01*
X83211976Y-48685163D01*
X83211962Y-48685147D01*
X83107423Y-48564355D01*
X83107330Y-48564247D01*
X83104013Y-48560318D01*
X82999545Y-48436586D01*
X82999104Y-48436029D01*
X82897617Y-48299173D01*
X82896892Y-48298070D01*
X82814751Y-48156113D01*
X82813574Y-48147236D01*
X82816444Y-48142144D01*
X83220303Y-47722182D01*
X83699959Y-47223398D01*
X83708163Y-47219810D01*
X83715457Y-47222182D01*
G37*
G04 #@! TD.AperFunction*
G04 #@! TA.AperFunction,Conductor*
G36*
X55454123Y-82608112D02*
G01*
X55791806Y-82945795D01*
X55795233Y-82954068D01*
X55792145Y-82961987D01*
X55643581Y-83123478D01*
X55643406Y-83123712D01*
X55550314Y-83247943D01*
X55527547Y-83278325D01*
X55444276Y-83422702D01*
X55444136Y-83423037D01*
X55386532Y-83560740D01*
X55386529Y-83560750D01*
X55386408Y-83561038D01*
X55346581Y-83697763D01*
X55317435Y-83837306D01*
X55317417Y-83837409D01*
X55317413Y-83837429D01*
X55291634Y-83983959D01*
X55291609Y-83984099D01*
X55261789Y-84142318D01*
X55261677Y-84142843D01*
X55220562Y-84316766D01*
X55220359Y-84317515D01*
X55162929Y-84504178D01*
X55157221Y-84511077D01*
X55151975Y-84512435D01*
X53874435Y-84537410D01*
X53866096Y-84534145D01*
X53862508Y-84525483D01*
X53887483Y-83247943D01*
X53891071Y-83239739D01*
X53895739Y-83236990D01*
X54082402Y-83179558D01*
X54083151Y-83179355D01*
X54090077Y-83177718D01*
X54257087Y-83138237D01*
X54257586Y-83138131D01*
X54316374Y-83127051D01*
X54415789Y-83108314D01*
X54415929Y-83108289D01*
X54562488Y-83082504D01*
X54562508Y-83082500D01*
X54562611Y-83082482D01*
X54702154Y-83053336D01*
X54838879Y-83013509D01*
X54839167Y-83013388D01*
X54839177Y-83013385D01*
X54976880Y-82955781D01*
X54977215Y-82955641D01*
X55045450Y-82916286D01*
X55121284Y-82872548D01*
X55121288Y-82872545D01*
X55121592Y-82872370D01*
X55276439Y-82756336D01*
X55437930Y-82607773D01*
X55446337Y-82604695D01*
X55454123Y-82608112D01*
G37*
G04 #@! TD.AperFunction*
G04 #@! TA.AperFunction,Conductor*
G36*
X59636662Y-66120264D02*
G01*
X59787387Y-66377567D01*
X59849200Y-66483089D01*
X59850425Y-66491960D01*
X59847960Y-66496650D01*
X59731927Y-66631001D01*
X59648513Y-66766482D01*
X59593113Y-66898612D01*
X59555651Y-67029247D01*
X59555615Y-67029407D01*
X59526073Y-67160147D01*
X59526041Y-67160286D01*
X59494341Y-67293016D01*
X59494100Y-67293877D01*
X59464119Y-67387199D01*
X59450356Y-67430037D01*
X59449829Y-67431384D01*
X59384026Y-67573146D01*
X59383201Y-67574632D01*
X59285207Y-67724209D01*
X59284201Y-67725529D01*
X59151562Y-67876161D01*
X59143523Y-67880105D01*
X59134508Y-67876702D01*
X58797143Y-67539337D01*
X58793716Y-67531064D01*
X58796249Y-67523795D01*
X58903874Y-67388091D01*
X58951924Y-67255716D01*
X58944653Y-67131576D01*
X58892794Y-67012409D01*
X58807079Y-66894950D01*
X58806866Y-66894717D01*
X58806861Y-66894711D01*
X58698282Y-66775983D01*
X58698241Y-66775938D01*
X58577103Y-66652199D01*
X58576905Y-66651991D01*
X58454445Y-66520538D01*
X58453845Y-66519841D01*
X58340814Y-66377567D01*
X58339922Y-66376275D01*
X58250890Y-66226762D01*
X58249602Y-66217901D01*
X58252510Y-66212666D01*
X58340123Y-66121560D01*
X58537546Y-65916264D01*
X58802469Y-65640777D01*
X59146326Y-65283208D01*
X59636662Y-66120264D01*
G37*
G04 #@! TD.AperFunction*
G04 #@! TA.AperFunction,Conductor*
G36*
X60384626Y-64207225D02*
G01*
X60722309Y-64544908D01*
X60725736Y-64553181D01*
X60722648Y-64561100D01*
X60574084Y-64722591D01*
X60573909Y-64722825D01*
X60480817Y-64847056D01*
X60458050Y-64877438D01*
X60374779Y-65021815D01*
X60374639Y-65022150D01*
X60317035Y-65159853D01*
X60317032Y-65159863D01*
X60316911Y-65160151D01*
X60277084Y-65296876D01*
X60247938Y-65436419D01*
X60222112Y-65583212D01*
X60206803Y-65664441D01*
X60192292Y-65741431D01*
X60192180Y-65741956D01*
X60151065Y-65915879D01*
X60150862Y-65916628D01*
X60093432Y-66103291D01*
X60087724Y-66110190D01*
X60082478Y-66111548D01*
X59911428Y-66114892D01*
X58792773Y-66136761D01*
X58806701Y-65424279D01*
X58817986Y-64847056D01*
X58821574Y-64838852D01*
X58826242Y-64836103D01*
X59012905Y-64778671D01*
X59013654Y-64778468D01*
X59020580Y-64776831D01*
X59187590Y-64737350D01*
X59188089Y-64737244D01*
X59246877Y-64726164D01*
X59346292Y-64707427D01*
X59346432Y-64707402D01*
X59492991Y-64681617D01*
X59493011Y-64681613D01*
X59493114Y-64681595D01*
X59632657Y-64652449D01*
X59769382Y-64612622D01*
X59769670Y-64612501D01*
X59769680Y-64612498D01*
X59907383Y-64554894D01*
X59907718Y-64554754D01*
X59975953Y-64515399D01*
X60051787Y-64471661D01*
X60051791Y-64471658D01*
X60052095Y-64471483D01*
X60206942Y-64355449D01*
X60368433Y-64206886D01*
X60376840Y-64203808D01*
X60384626Y-64207225D01*
G37*
G04 #@! TD.AperFunction*
G04 #@! TA.AperFunction,Conductor*
G36*
X64567165Y-47719377D02*
G01*
X64717890Y-47976680D01*
X64779703Y-48082202D01*
X64780928Y-48091073D01*
X64778463Y-48095763D01*
X64662430Y-48230114D01*
X64579016Y-48365595D01*
X64523616Y-48497725D01*
X64486154Y-48628360D01*
X64486118Y-48628520D01*
X64456576Y-48759260D01*
X64456544Y-48759399D01*
X64424844Y-48892129D01*
X64424603Y-48892990D01*
X64394622Y-48986312D01*
X64380859Y-49029150D01*
X64380332Y-49030497D01*
X64314529Y-49172259D01*
X64313704Y-49173745D01*
X64215710Y-49323322D01*
X64214704Y-49324642D01*
X64082065Y-49475274D01*
X64074026Y-49479218D01*
X64065011Y-49475815D01*
X63727646Y-49138450D01*
X63724219Y-49130177D01*
X63726752Y-49122908D01*
X63834377Y-48987204D01*
X63882427Y-48854829D01*
X63875156Y-48730689D01*
X63823297Y-48611522D01*
X63737582Y-48494063D01*
X63737369Y-48493830D01*
X63737364Y-48493824D01*
X63628785Y-48375096D01*
X63628744Y-48375051D01*
X63507606Y-48251312D01*
X63507408Y-48251104D01*
X63384948Y-48119651D01*
X63384348Y-48118954D01*
X63271317Y-47976680D01*
X63270425Y-47975388D01*
X63181393Y-47825875D01*
X63180105Y-47817014D01*
X63183013Y-47811779D01*
X64076829Y-46882321D01*
X64567165Y-47719377D01*
G37*
G04 #@! TD.AperFunction*
G04 #@! TA.AperFunction,Conductor*
G36*
X34847756Y-86125908D02*
G01*
X35185439Y-86463591D01*
X35188866Y-86471864D01*
X35185778Y-86479783D01*
X35037214Y-86641274D01*
X35037039Y-86641508D01*
X34943947Y-86765739D01*
X34921180Y-86796121D01*
X34837909Y-86940498D01*
X34837769Y-86940833D01*
X34780165Y-87078536D01*
X34780162Y-87078546D01*
X34780041Y-87078834D01*
X34740214Y-87215559D01*
X34711068Y-87355102D01*
X34711050Y-87355205D01*
X34711046Y-87355225D01*
X34685267Y-87501755D01*
X34685242Y-87501895D01*
X34655422Y-87660114D01*
X34655310Y-87660639D01*
X34614195Y-87834562D01*
X34613992Y-87835311D01*
X34556562Y-88021974D01*
X34550854Y-88028873D01*
X34545608Y-88030231D01*
X33268068Y-88055206D01*
X33259729Y-88051941D01*
X33256141Y-88043279D01*
X33281116Y-86765739D01*
X33284704Y-86757535D01*
X33289372Y-86754786D01*
X33476035Y-86697354D01*
X33476784Y-86697151D01*
X33483710Y-86695514D01*
X33650720Y-86656033D01*
X33651219Y-86655927D01*
X33710007Y-86644847D01*
X33809422Y-86626110D01*
X33809562Y-86626085D01*
X33956121Y-86600300D01*
X33956141Y-86600296D01*
X33956244Y-86600278D01*
X34095787Y-86571132D01*
X34232512Y-86531305D01*
X34232800Y-86531184D01*
X34232810Y-86531181D01*
X34370513Y-86473577D01*
X34370848Y-86473437D01*
X34439083Y-86434082D01*
X34514917Y-86390344D01*
X34514921Y-86390341D01*
X34515225Y-86390166D01*
X34670072Y-86274132D01*
X34831563Y-86125569D01*
X34839970Y-86122491D01*
X34847756Y-86125908D01*
G37*
G04 #@! TD.AperFunction*
G04 #@! TA.AperFunction,Conductor*
G36*
X39030294Y-69638060D02*
G01*
X39031053Y-69639355D01*
X39031053Y-69639356D01*
X39242797Y-70000826D01*
X39244022Y-70009697D01*
X39241498Y-70014455D01*
X39138935Y-70131383D01*
X39123871Y-70148556D01*
X39123643Y-70148906D01*
X39123641Y-70148909D01*
X39068137Y-70234218D01*
X39036661Y-70282597D01*
X39036489Y-70282965D01*
X39036487Y-70282968D01*
X38980545Y-70402434D01*
X38975882Y-70412391D01*
X38931984Y-70540092D01*
X38931934Y-70540267D01*
X38895437Y-70667785D01*
X38895400Y-70667912D01*
X38856743Y-70797453D01*
X38856482Y-70798228D01*
X38806296Y-70931597D01*
X38805768Y-70932793D01*
X38734529Y-71072428D01*
X38733751Y-71073736D01*
X38631841Y-71222092D01*
X38630926Y-71223257D01*
X38496487Y-71373897D01*
X38488423Y-71377787D01*
X38479486Y-71374379D01*
X38142084Y-71036977D01*
X38138657Y-71028704D01*
X38141211Y-71021407D01*
X38246244Y-70889756D01*
X38246245Y-70889754D01*
X38246810Y-70889046D01*
X38296250Y-70759048D01*
X38293048Y-70636576D01*
X38247243Y-70518615D01*
X38175762Y-70412391D01*
X38169062Y-70402434D01*
X38169060Y-70402431D01*
X38168874Y-70402155D01*
X38067982Y-70284180D01*
X37954685Y-70161767D01*
X37954535Y-70161602D01*
X37839058Y-70031950D01*
X37838524Y-70031305D01*
X37730999Y-69891628D01*
X37730183Y-69890419D01*
X37644451Y-69744539D01*
X37643214Y-69735670D01*
X37646105Y-69730501D01*
X38194570Y-69160165D01*
X38196101Y-69158573D01*
X38539958Y-68801004D01*
X39030294Y-69638060D01*
G37*
G04 #@! TD.AperFunction*
G04 #@! TA.AperFunction,Conductor*
G36*
X39778258Y-67725021D02*
G01*
X40115941Y-68062704D01*
X40119368Y-68070977D01*
X40116280Y-68078896D01*
X39967716Y-68240387D01*
X39967541Y-68240621D01*
X39874449Y-68364852D01*
X39851682Y-68395234D01*
X39768411Y-68539611D01*
X39768271Y-68539946D01*
X39710667Y-68677649D01*
X39710664Y-68677659D01*
X39710543Y-68677947D01*
X39670716Y-68814672D01*
X39641570Y-68954215D01*
X39615744Y-69101008D01*
X39600435Y-69182237D01*
X39585924Y-69259227D01*
X39585812Y-69259752D01*
X39544697Y-69433675D01*
X39544494Y-69434424D01*
X39487064Y-69621087D01*
X39481356Y-69627986D01*
X39476110Y-69629344D01*
X39305060Y-69632688D01*
X38186405Y-69654557D01*
X38200333Y-68942075D01*
X38211618Y-68364852D01*
X38215206Y-68356648D01*
X38219874Y-68353899D01*
X38406537Y-68296467D01*
X38407286Y-68296264D01*
X38414212Y-68294627D01*
X38581222Y-68255146D01*
X38581721Y-68255040D01*
X38640509Y-68243960D01*
X38739924Y-68225223D01*
X38740064Y-68225198D01*
X38886623Y-68199413D01*
X38886643Y-68199409D01*
X38886746Y-68199391D01*
X39026289Y-68170245D01*
X39163014Y-68130418D01*
X39163302Y-68130297D01*
X39163312Y-68130294D01*
X39301015Y-68072690D01*
X39301350Y-68072550D01*
X39369585Y-68033195D01*
X39445419Y-67989457D01*
X39445423Y-67989454D01*
X39445727Y-67989279D01*
X39600574Y-67873245D01*
X39762065Y-67724682D01*
X39770472Y-67721604D01*
X39778258Y-67725021D01*
G37*
G04 #@! TD.AperFunction*
G04 #@! TA.AperFunction,Conductor*
G36*
X43960797Y-51237173D02*
G01*
X43961556Y-51238468D01*
X43961556Y-51238469D01*
X44173342Y-51600011D01*
X44174567Y-51608882D01*
X44172115Y-51613557D01*
X44056739Y-51747610D01*
X44056736Y-51747614D01*
X44056422Y-51747979D01*
X43973847Y-51883784D01*
X43919646Y-52016430D01*
X43883623Y-52147707D01*
X43883589Y-52147868D01*
X43883587Y-52147875D01*
X43855585Y-52279400D01*
X43855553Y-52279542D01*
X43825432Y-52412876D01*
X43825197Y-52413756D01*
X43782891Y-52550523D01*
X43782367Y-52551903D01*
X43736704Y-52652454D01*
X43717768Y-52694150D01*
X43716935Y-52695671D01*
X43619801Y-52845532D01*
X43618781Y-52846878D01*
X43486520Y-52997528D01*
X43478487Y-53001484D01*
X43469455Y-52998082D01*
X43132100Y-52660727D01*
X43128673Y-52652454D01*
X43131202Y-52645189D01*
X43238697Y-52509479D01*
X43239288Y-52508733D01*
X43287038Y-52375827D01*
X43278868Y-52251319D01*
X43225665Y-52131888D01*
X43140215Y-52016772D01*
X43138500Y-52014461D01*
X43138496Y-52014457D01*
X43138317Y-52014215D01*
X43138112Y-52013994D01*
X43138107Y-52013988D01*
X43027772Y-51895044D01*
X43027753Y-51895024D01*
X43027711Y-51894979D01*
X42904854Y-51770981D01*
X42904642Y-51770762D01*
X42780596Y-51638878D01*
X42779982Y-51638170D01*
X42665720Y-51495317D01*
X42664812Y-51494008D01*
X42575041Y-51343676D01*
X42573741Y-51334816D01*
X42576653Y-51329567D01*
X43125073Y-50759278D01*
X43126604Y-50757686D01*
X43470461Y-50400117D01*
X43960797Y-51237173D01*
G37*
G04 #@! TD.AperFunction*
M02*
