%FSLAX45Y45*%
G04 Gerber Fmt 4.5, Leading zero omitted, Abs format (unit mm)*
G04 Created by KiCad (PCBNEW (6.0.4)) date 2022-04-18 22:39:16*
%MOMM*%
%LPD*%
G01*
G04 APERTURE LIST*
%TA.AperFunction,Profile*%
%ADD10C,0.100000*%
%TD*%
%ADD11C,0.200000*%
%ADD12C,0.040000*%
%ADD13C,0.100000*%
%ADD14C,0.102000*%
%ADD15C,0.120000*%
G04 APERTURE END LIST*
D10*
X27530000Y-8885000D02*
X23820000Y-11912500D01*
X22092500Y-12717500D02*
X20212500Y-13507500D01*
X13805000Y-4487500D02*
X13155000Y-5360000D01*
X23820000Y-11912500D02*
X22092500Y-12717500D01*
X9745000Y-13517500D02*
X7865000Y-12727500D01*
X7865000Y-12727500D02*
X6140000Y-11922500D01*
X6140000Y-11922500D02*
X2345000Y-8875000D01*
X16017500Y-4487500D02*
X13805000Y-4487500D01*
X16732500Y-5370000D02*
X16017500Y-4487500D01*
X18567500Y-4877500D02*
X16732500Y-5370000D01*
X18465000Y-4492500D02*
X18567500Y-4877500D01*
X20297500Y-4002500D02*
X18465000Y-4492500D01*
X20175000Y-3542500D02*
X20297500Y-4002500D01*
X22015000Y-3047500D02*
X20175000Y-3542500D01*
X22140000Y-3507500D02*
X22015000Y-3047500D01*
X23980000Y-3017500D02*
X22140000Y-3507500D01*
X24205000Y-3857500D02*
X23980000Y-3017500D01*
X26052500Y-3365000D02*
X24205000Y-3857500D01*
X11310000Y-4865000D02*
X13155000Y-5360000D01*
X11412500Y-4482500D02*
X11310000Y-4865000D01*
X9567500Y-3990000D02*
X11412500Y-4482500D01*
X9690000Y-3527500D02*
X9567500Y-3990000D01*
X7850000Y-3035000D02*
X9690000Y-3527500D01*
X7725000Y-3495000D02*
X7850000Y-3035000D01*
X5887500Y-3002500D02*
X7725000Y-3495000D01*
X5662500Y-3845000D02*
X5887500Y-3002500D01*
X3825000Y-3352500D02*
X5662500Y-3845000D01*
X2345000Y-8875000D02*
X3825000Y-3352500D01*
X11452500Y-14880000D02*
X9745000Y-13517500D01*
X12800000Y-13532500D02*
X11452500Y-14880000D01*
X17160000Y-13522500D02*
X12800000Y-13532500D01*
X18507500Y-14867500D02*
X17160000Y-13522500D01*
X20212500Y-13507500D02*
X18507500Y-14867500D01*
X26052500Y-3365000D02*
X27530000Y-8885000D01*
D11*
D12*
X12402500Y-8092500D02*
X12442500Y-8132500D01*
X12442500Y-8092500D02*
X12402500Y-8132500D01*
X16155519Y-9223019D02*
X16195519Y-9263019D01*
X16195519Y-9223019D02*
X16155519Y-9263019D01*
X17438550Y-9902500D02*
X17478550Y-9942500D01*
X17478550Y-9902500D02*
X17438550Y-9942500D01*
X17467500Y-8717500D02*
X17507500Y-8757500D01*
X17507500Y-8717500D02*
X17467500Y-8757500D01*
D13*
X2960956Y-8942727D02*
G75*
G03*
X2960956Y-8942727I-50000J0D01*
G01*
X3454007Y-7102639D02*
G75*
G03*
X3454007Y-7102639I-50000J0D01*
G01*
X3714378Y-9144606D02*
G75*
G03*
X3714378Y-9144606I-50000J0D01*
G01*
X3953698Y-5264329D02*
G75*
G03*
X3953698Y-5264329I-50000J0D01*
G01*
X4207429Y-7304517D02*
G75*
G03*
X4207429Y-7304517I-50000J0D01*
G01*
X4707120Y-5466208D02*
G75*
G03*
X4707120Y-5466208I-50000J0D01*
G01*
X5027026Y-8592404D02*
G75*
G03*
X5027026Y-8592404I-50000J0D01*
G01*
X5520077Y-6752315D02*
G75*
G03*
X5520077Y-6752315I-50000J0D01*
G01*
X5780449Y-8794283D02*
G75*
G03*
X5780449Y-8794283I-50000J0D01*
G01*
X6013127Y-4912226D02*
G75*
G03*
X6013127Y-4912226I-50000J0D01*
G01*
X6273499Y-6954194D02*
G75*
G03*
X6273499Y-6954194I-50000J0D01*
G01*
X6766549Y-5114105D02*
G75*
G03*
X6766549Y-5114105I-50000J0D01*
G01*
X6990378Y-8625432D02*
G75*
G03*
X6990378Y-8625432I-50000J0D01*
G01*
X7483428Y-6785343D02*
G75*
G03*
X7483428Y-6785343I-50000J0D01*
G01*
X7743800Y-8827311D02*
G75*
G03*
X7743800Y-8827311I-50000J0D01*
G01*
X7965008Y-4942181D02*
G75*
G03*
X7965008Y-4942181I-50000J0D01*
G01*
X8236850Y-6987222D02*
G75*
G03*
X8236850Y-6987222I-50000J0D01*
G01*
X8707204Y-9578504D02*
G75*
G03*
X8707204Y-9578504I-50000J0D01*
G01*
X8718430Y-5144060D02*
G75*
G03*
X8718430Y-5144060I-50000J0D01*
G01*
X9200254Y-7738416D02*
G75*
G03*
X9200254Y-7738416I-50000J0D01*
G01*
X9460626Y-9780383D02*
G75*
G03*
X9460626Y-9780383I-50000J0D01*
G01*
X9693304Y-5898327D02*
G75*
G03*
X9693304Y-5898327I-50000J0D01*
G01*
X9953676Y-7940294D02*
G75*
G03*
X9953676Y-7940294I-50000J0D01*
G01*
X10198870Y-11371884D02*
G75*
G03*
X10198870Y-11371884I-50000J0D01*
G01*
X10281045Y-11065203D02*
G75*
G03*
X10281045Y-11065203I-50000J0D01*
G01*
X10362399Y-10761588D02*
G75*
G03*
X10362399Y-10761588I-50000J0D01*
G01*
X10444574Y-10454906D02*
G75*
G03*
X10444574Y-10454906I-50000J0D01*
G01*
X10446727Y-6100206D02*
G75*
G03*
X10446727Y-6100206I-50000J0D01*
G01*
X10937624Y-8614818D02*
G75*
G03*
X10937624Y-8614818I-50000J0D01*
G01*
X10952293Y-11573763D02*
G75*
G03*
X10952293Y-11573763I-50000J0D01*
G01*
X11034468Y-11267081D02*
G75*
G03*
X11034468Y-11267081I-50000J0D01*
G01*
X11115821Y-10963467D02*
G75*
G03*
X11115821Y-10963467I-50000J0D01*
G01*
X11197996Y-10656785D02*
G75*
G03*
X11197996Y-10656785I-50000J0D01*
G01*
X11430674Y-6774729D02*
G75*
G03*
X11430674Y-6774729I-50000J0D01*
G01*
X11691046Y-8816697D02*
G75*
G03*
X11691046Y-8816697I-50000J0D01*
G01*
X12184096Y-6976608D02*
G75*
G03*
X12184096Y-6976608I-50000J0D01*
G01*
X17798439Y-6986152D02*
G75*
G03*
X17798439Y-6986152I-50000J0D01*
G01*
X18291489Y-8826240D02*
G75*
G03*
X18291489Y-8826240I-50000J0D01*
G01*
X18551861Y-6784273D02*
G75*
G03*
X18551861Y-6784273I-50000J0D01*
G01*
X18784539Y-10666329D02*
G75*
G03*
X18784539Y-10666329I-50000J0D01*
G01*
X18866714Y-10973011D02*
G75*
G03*
X18866714Y-10973011I-50000J0D01*
G01*
X18948889Y-11279692D02*
G75*
G03*
X18948889Y-11279692I-50000J0D01*
G01*
X19031064Y-11586373D02*
G75*
G03*
X19031064Y-11586373I-50000J0D01*
G01*
X19044911Y-8624362D02*
G75*
G03*
X19044911Y-8624362I-50000J0D01*
G01*
X19535809Y-6109750D02*
G75*
G03*
X19535809Y-6109750I-50000J0D01*
G01*
X19537961Y-10464450D02*
G75*
G03*
X19537961Y-10464450I-50000J0D01*
G01*
X19620136Y-10771132D02*
G75*
G03*
X19620136Y-10771132I-50000J0D01*
G01*
X19702311Y-11077813D02*
G75*
G03*
X19702311Y-11077813I-50000J0D01*
G01*
X19784487Y-11384495D02*
G75*
G03*
X19784487Y-11384495I-50000J0D01*
G01*
X20028859Y-7949838D02*
G75*
G03*
X20028859Y-7949838I-50000J0D01*
G01*
X20289231Y-5907871D02*
G75*
G03*
X20289231Y-5907871I-50000J0D01*
G01*
X20521909Y-9789927D02*
G75*
G03*
X20521909Y-9789927I-50000J0D01*
G01*
X20782281Y-7747960D02*
G75*
G03*
X20782281Y-7747960I-50000J0D01*
G01*
X21252635Y-5156677D02*
G75*
G03*
X21252635Y-5156677I-50000J0D01*
G01*
X21275331Y-9588048D02*
G75*
G03*
X21275331Y-9588048I-50000J0D01*
G01*
X21745685Y-6996766D02*
G75*
G03*
X21745685Y-6996766I-50000J0D01*
G01*
X22006057Y-4954798D02*
G75*
G03*
X22006057Y-4954798I-50000J0D01*
G01*
X22238735Y-8836855D02*
G75*
G03*
X22238735Y-8836855I-50000J0D01*
G01*
X22499107Y-6794887D02*
G75*
G03*
X22499107Y-6794887I-50000J0D01*
G01*
X22992157Y-8634976D02*
G75*
G03*
X22992157Y-8634976I-50000J0D01*
G01*
X23204515Y-5126723D02*
G75*
G03*
X23204515Y-5126723I-50000J0D01*
G01*
X23709036Y-6963738D02*
G75*
G03*
X23709036Y-6963738I-50000J0D01*
G01*
X23957938Y-4924844D02*
G75*
G03*
X23957938Y-4924844I-50000J0D01*
G01*
X24202086Y-8803827D02*
G75*
G03*
X24202086Y-8803827I-50000J0D01*
G01*
X24462458Y-6761859D02*
G75*
G03*
X24462458Y-6761859I-50000J0D01*
G01*
X24955509Y-8601948D02*
G75*
G03*
X24955509Y-8601948I-50000J0D01*
G01*
X25282056Y-5473973D02*
G75*
G03*
X25282056Y-5473973I-50000J0D01*
G01*
X25775106Y-7314061D02*
G75*
G03*
X25775106Y-7314061I-50000J0D01*
G01*
X26035478Y-5272094D02*
G75*
G03*
X26035478Y-5272094I-50000J0D01*
G01*
X26268156Y-9154150D02*
G75*
G03*
X26268156Y-9154150I-50000J0D01*
G01*
X26528528Y-7112183D02*
G75*
G03*
X26528528Y-7112183I-50000J0D01*
G01*
X27021579Y-8952271D02*
G75*
G03*
X27021579Y-8952271I-50000J0D01*
G01*
D14*
X14020800Y-4622600D02*
X14020800Y-4724600D01*
X13969800Y-4673600D02*
X14071800Y-4673600D01*
X14020800Y-4876600D02*
X14020800Y-4978600D01*
X13969800Y-4927600D02*
X14071800Y-4927600D01*
X14020800Y-5130600D02*
X14020800Y-5232600D01*
X13969800Y-5181600D02*
X14071800Y-5181600D01*
X14020800Y-5384600D02*
X14020800Y-5486600D01*
X13969800Y-5435600D02*
X14071800Y-5435600D01*
X14020800Y-5638600D02*
X14020800Y-5740600D01*
X13969800Y-5689600D02*
X14071800Y-5689600D01*
X14020800Y-5892600D02*
X14020800Y-5994600D01*
X13969800Y-5943600D02*
X14071800Y-5943600D01*
X14020800Y-6146600D02*
X14020800Y-6248600D01*
X13969800Y-6197600D02*
X14071800Y-6197600D01*
X14020800Y-6400600D02*
X14020800Y-6502600D01*
X13969800Y-6451600D02*
X14071800Y-6451600D01*
X14020800Y-6654600D02*
X14020800Y-6756600D01*
X13969800Y-6705600D02*
X14071800Y-6705600D01*
X14020800Y-6908600D02*
X14020800Y-7010600D01*
X13969800Y-6959600D02*
X14071800Y-6959600D01*
X14020800Y-7162600D02*
X14020800Y-7264600D01*
X13969800Y-7213600D02*
X14071800Y-7213600D01*
X14020800Y-7416600D02*
X14020800Y-7518600D01*
X13969800Y-7467600D02*
X14071800Y-7467600D01*
X14020800Y-7670600D02*
X14020800Y-7772600D01*
X13969800Y-7721600D02*
X14071800Y-7721600D01*
X14020800Y-7924600D02*
X14020800Y-8026600D01*
X13969800Y-7975600D02*
X14071800Y-7975600D01*
X14020800Y-8178600D02*
X14020800Y-8280600D01*
X13969800Y-8229600D02*
X14071800Y-8229600D01*
X14020800Y-8432600D02*
X14020800Y-8534600D01*
X13969800Y-8483600D02*
X14071800Y-8483600D01*
X14020800Y-8686600D02*
X14020800Y-8788600D01*
X13969800Y-8737600D02*
X14071800Y-8737600D01*
X14020800Y-8940600D02*
X14020800Y-9042600D01*
X13969800Y-8991600D02*
X14071800Y-8991600D01*
X14020800Y-9194600D02*
X14020800Y-9296600D01*
X13969800Y-9245600D02*
X14071800Y-9245600D01*
X14020800Y-9448600D02*
X14020800Y-9550600D01*
X13969800Y-9499600D02*
X14071800Y-9499600D01*
X14655800Y-9425600D02*
X14655800Y-9527600D01*
X14604800Y-9476600D02*
X14706800Y-9476600D01*
X14909800Y-9425600D02*
X14909800Y-9527600D01*
X14858800Y-9476600D02*
X14960800Y-9476600D01*
X15163800Y-9425600D02*
X15163800Y-9527600D01*
X15112800Y-9476600D02*
X15214800Y-9476600D01*
X15798800Y-4622600D02*
X15798800Y-4724600D01*
X15747800Y-4673600D02*
X15849800Y-4673600D01*
X15798800Y-4876600D02*
X15798800Y-4978600D01*
X15747800Y-4927600D02*
X15849800Y-4927600D01*
X15798800Y-5130600D02*
X15798800Y-5232600D01*
X15747800Y-5181600D02*
X15849800Y-5181600D01*
X15798800Y-5384600D02*
X15798800Y-5486600D01*
X15747800Y-5435600D02*
X15849800Y-5435600D01*
X15798800Y-5638600D02*
X15798800Y-5740600D01*
X15747800Y-5689600D02*
X15849800Y-5689600D01*
X15798800Y-5892600D02*
X15798800Y-5994600D01*
X15747800Y-5943600D02*
X15849800Y-5943600D01*
X15798800Y-6146600D02*
X15798800Y-6248600D01*
X15747800Y-6197600D02*
X15849800Y-6197600D01*
X15798800Y-6400600D02*
X15798800Y-6502600D01*
X15747800Y-6451600D02*
X15849800Y-6451600D01*
X15798800Y-6654600D02*
X15798800Y-6756600D01*
X15747800Y-6705600D02*
X15849800Y-6705600D01*
X15798800Y-6908600D02*
X15798800Y-7010600D01*
X15747800Y-6959600D02*
X15849800Y-6959600D01*
X15798800Y-7162600D02*
X15798800Y-7264600D01*
X15747800Y-7213600D02*
X15849800Y-7213600D01*
X15798800Y-7416600D02*
X15798800Y-7518600D01*
X15747800Y-7467600D02*
X15849800Y-7467600D01*
X15798800Y-7670600D02*
X15798800Y-7772600D01*
X15747800Y-7721600D02*
X15849800Y-7721600D01*
X15798800Y-7924600D02*
X15798800Y-8026600D01*
X15747800Y-7975600D02*
X15849800Y-7975600D01*
X15798800Y-8178600D02*
X15798800Y-8280600D01*
X15747800Y-8229600D02*
X15849800Y-8229600D01*
X15798800Y-8432600D02*
X15798800Y-8534600D01*
X15747800Y-8483600D02*
X15849800Y-8483600D01*
X15798800Y-8686600D02*
X15798800Y-8788600D01*
X15747800Y-8737600D02*
X15849800Y-8737600D01*
X15798800Y-8940600D02*
X15798800Y-9042600D01*
X15747800Y-8991600D02*
X15849800Y-8991600D01*
X15798800Y-9194600D02*
X15798800Y-9296600D01*
X15747800Y-9245600D02*
X15849800Y-9245600D01*
X15798800Y-9448600D02*
X15798800Y-9550600D01*
X15747800Y-9499600D02*
X15849800Y-9499600D01*
D15*
X2974761Y-8480362D02*
X2974761Y-8395508D01*
X2889908Y-8395508D01*
X2889908Y-8480362D01*
X2974761Y-8480362D01*
X3403372Y-8812616D02*
X3403372Y-8727762D01*
X3318519Y-8727762D01*
X3318519Y-8812616D01*
X3403372Y-8812616D01*
X3467812Y-6640273D02*
X3467812Y-6555420D01*
X3382958Y-6555420D01*
X3382958Y-6640273D01*
X3467812Y-6640273D01*
X3896423Y-6972527D02*
X3896423Y-6887674D01*
X3811569Y-6887674D01*
X3811569Y-6972527D01*
X3896423Y-6972527D01*
X3960862Y-4800185D02*
X3960862Y-4715331D01*
X3876008Y-4715331D01*
X3876008Y-4800185D01*
X3960862Y-4800185D01*
X4389473Y-5132439D02*
X4389473Y-5047585D01*
X4304619Y-5047585D01*
X4304619Y-5132439D01*
X4389473Y-5132439D01*
X5035398Y-8128582D02*
X5035398Y-8043729D01*
X4950545Y-8043729D01*
X4950545Y-8128582D01*
X5035398Y-8128582D01*
X5464009Y-8460836D02*
X5464009Y-8375983D01*
X5379156Y-8375983D01*
X5379156Y-8460836D01*
X5464009Y-8460836D01*
X5528448Y-6288494D02*
X5528448Y-6203640D01*
X5443595Y-6203640D01*
X5443595Y-6288494D01*
X5528448Y-6288494D01*
X5957059Y-6620748D02*
X5957059Y-6535894D01*
X5872206Y-6535894D01*
X5872206Y-6620748D01*
X5957059Y-6620748D01*
X6021499Y-4448405D02*
X6021499Y-4363551D01*
X5936645Y-4363551D01*
X5936645Y-4448405D01*
X6021499Y-4448405D01*
X6450110Y-4780659D02*
X6450110Y-4695805D01*
X6365256Y-4695805D01*
X6365256Y-4780659D01*
X6450110Y-4780659D01*
X6834526Y-11637445D02*
X6834526Y-11552592D01*
X6749673Y-11552592D01*
X6749673Y-11637445D01*
X6834526Y-11637445D01*
X6998749Y-8161610D02*
X6998749Y-8076757D01*
X6913896Y-8076757D01*
X6913896Y-8161610D01*
X6998749Y-8161610D01*
X7198930Y-12039079D02*
X7198930Y-11954226D01*
X7114077Y-11954226D01*
X7114077Y-12039079D01*
X7198930Y-12039079D01*
X7427360Y-8493864D02*
X7427360Y-8409011D01*
X7342507Y-8409011D01*
X7342507Y-8493864D01*
X7427360Y-8493864D01*
X7491800Y-6321522D02*
X7491800Y-6236668D01*
X7406946Y-6236668D01*
X7406946Y-6321522D01*
X7491800Y-6321522D01*
X7920411Y-6653776D02*
X7920411Y-6568922D01*
X7835557Y-6568922D01*
X7835557Y-6653776D01*
X7920411Y-6653776D01*
X7984850Y-4481433D02*
X7984850Y-4396580D01*
X7899996Y-4396580D01*
X7899996Y-4481433D01*
X7984850Y-4481433D01*
X8413461Y-4813687D02*
X8413461Y-4728833D01*
X8328607Y-4728833D01*
X8328607Y-4813687D01*
X8413461Y-4813687D01*
X8715576Y-9114683D02*
X8715576Y-9029829D01*
X8630722Y-9029829D01*
X8630722Y-9114683D01*
X8715576Y-9114683D01*
X8926423Y-12257413D02*
X8926423Y-12172560D01*
X8841569Y-12172560D01*
X8841569Y-12257413D01*
X8926423Y-12257413D01*
X9144187Y-9446937D02*
X9144187Y-9362083D01*
X9059333Y-9362083D01*
X9059333Y-9446937D01*
X9144187Y-9446937D01*
X9208626Y-7274594D02*
X9208626Y-7189741D01*
X9123772Y-7189741D01*
X9123772Y-7274594D01*
X9208626Y-7274594D01*
X9215548Y-12716223D02*
X9215548Y-12631370D01*
X9130694Y-12631370D01*
X9130694Y-12716223D01*
X9215548Y-12716223D01*
X9637237Y-7606848D02*
X9637237Y-7521995D01*
X9552383Y-7521995D01*
X9552383Y-7606848D01*
X9637237Y-7606848D01*
X9707109Y-5435961D02*
X9707109Y-5351108D01*
X9622256Y-5351108D01*
X9622256Y-5435961D01*
X9707109Y-5435961D01*
X10135720Y-5768215D02*
X10135720Y-5683362D01*
X10050867Y-5683362D01*
X10050867Y-5768215D01*
X10135720Y-5768215D01*
X10458379Y-9992541D02*
X10458379Y-9907687D01*
X10373525Y-9907687D01*
X10373525Y-9992541D01*
X10458379Y-9992541D01*
X10873036Y-13490000D02*
X10873036Y-13405146D01*
X10788183Y-13405146D01*
X10788183Y-13490000D01*
X10873036Y-13490000D01*
X10886990Y-10324795D02*
X10886990Y-10239941D01*
X10802136Y-10239941D01*
X10802136Y-10324795D01*
X10886990Y-10324795D01*
X10951429Y-8152452D02*
X10951429Y-8067599D01*
X10866575Y-8067599D01*
X10866575Y-8152452D01*
X10951429Y-8152452D01*
X11078097Y-13992046D02*
X11078097Y-13907192D01*
X10993244Y-13907192D01*
X10993244Y-13992046D01*
X11078097Y-13992046D01*
X11380040Y-8484706D02*
X11380040Y-8399853D01*
X11295186Y-8399853D01*
X11295186Y-8484706D01*
X11380040Y-8484706D01*
X11449913Y-6313819D02*
X11449913Y-6228966D01*
X11365059Y-6228966D01*
X11365059Y-6313819D01*
X11449913Y-6313819D01*
X11878524Y-6646073D02*
X11878524Y-6561220D01*
X11793670Y-6561220D01*
X11793670Y-6646073D01*
X11878524Y-6646073D01*
X17556983Y-6580726D02*
X17556983Y-6495873D01*
X17472130Y-6495873D01*
X17472130Y-6580726D01*
X17556983Y-6580726D01*
X18044600Y-8422271D02*
X18044600Y-8337417D01*
X17959747Y-8337417D01*
X17959747Y-8422271D01*
X18044600Y-8422271D01*
X18094298Y-6654161D02*
X18094298Y-6569308D01*
X18009445Y-6569308D01*
X18009445Y-6654161D01*
X18094298Y-6654161D01*
X18463916Y-14186107D02*
X18463916Y-14101253D01*
X18379062Y-14101253D01*
X18379062Y-14186107D01*
X18463916Y-14186107D01*
X18537651Y-10262360D02*
X18537651Y-10177506D01*
X18452797Y-10177506D01*
X18452797Y-10262360D01*
X18537651Y-10262360D01*
X18581915Y-8495706D02*
X18581915Y-8410852D01*
X18497062Y-8410852D01*
X18497062Y-8495706D01*
X18581915Y-8495706D01*
X18965962Y-13981046D02*
X18965962Y-13896192D01*
X18881108Y-13896192D01*
X18881108Y-13981046D01*
X18965962Y-13981046D01*
X19074966Y-10335795D02*
X19074966Y-10250941D01*
X18990112Y-10250941D01*
X18990112Y-10335795D01*
X19074966Y-10335795D01*
X19288920Y-5705780D02*
X19288920Y-5620927D01*
X19204066Y-5620927D01*
X19204066Y-5705780D01*
X19288920Y-5705780D01*
X19776537Y-7547325D02*
X19776537Y-7462471D01*
X19691683Y-7462471D01*
X19691683Y-7547325D01*
X19776537Y-7547325D01*
X19826235Y-5779215D02*
X19826235Y-5694361D01*
X19741381Y-5694361D01*
X19741381Y-5779215D01*
X19826235Y-5779215D01*
X20269587Y-9387414D02*
X20269587Y-9302560D01*
X20184734Y-9302560D01*
X20184734Y-9387414D01*
X20269587Y-9387414D01*
X20298484Y-12819990D02*
X20298484Y-12735136D01*
X20213631Y-12735136D01*
X20213631Y-12819990D01*
X20298484Y-12819990D01*
X20313852Y-7620760D02*
X20313852Y-7535906D01*
X20228998Y-7535906D01*
X20228998Y-7620760D01*
X20313852Y-7620760D01*
X20806902Y-9460848D02*
X20806902Y-9375995D01*
X20722049Y-9375995D01*
X20722049Y-9460848D01*
X20806902Y-9460848D01*
X20828511Y-12705224D02*
X20828511Y-12620370D01*
X20743658Y-12620370D01*
X20743658Y-12705224D01*
X20828511Y-12705224D01*
X21000313Y-4754164D02*
X21000313Y-4669310D01*
X20915459Y-4669310D01*
X20915459Y-4754164D01*
X21000313Y-4754164D01*
X21493363Y-6594252D02*
X21493363Y-6509399D01*
X21408509Y-6509399D01*
X21408509Y-6594252D01*
X21493363Y-6594252D01*
X21537628Y-4827599D02*
X21537628Y-4742745D01*
X21452774Y-4742745D01*
X21452774Y-4827599D01*
X21537628Y-4827599D01*
X21986413Y-8434341D02*
X21986413Y-8349487D01*
X21901560Y-8349487D01*
X21901560Y-8434341D01*
X21986413Y-8434341D01*
X22030678Y-6667687D02*
X22030678Y-6582834D01*
X21945824Y-6582834D01*
X21945824Y-6667687D01*
X22030678Y-6667687D01*
X22303225Y-12049064D02*
X22303225Y-11964210D01*
X22218371Y-11964210D01*
X22218371Y-12049064D01*
X22303225Y-12049064D01*
X22523728Y-8507776D02*
X22523728Y-8422922D01*
X22438875Y-8422922D01*
X22438875Y-8507776D01*
X22523728Y-8507776D01*
X22845129Y-12028079D02*
X22845129Y-11943226D01*
X22760275Y-11943226D01*
X22760275Y-12028079D01*
X22845129Y-12028079D01*
X22963664Y-4721136D02*
X22963664Y-4636282D01*
X22878810Y-4636282D01*
X22878810Y-4721136D01*
X22963664Y-4721136D01*
X23456714Y-6561224D02*
X23456714Y-6476371D01*
X23371861Y-6476371D01*
X23371861Y-6561224D01*
X23456714Y-6561224D01*
X23500979Y-4794570D02*
X23500979Y-4709717D01*
X23416125Y-4709717D01*
X23416125Y-4794570D01*
X23500979Y-4794570D01*
X23949765Y-8401313D02*
X23949765Y-8316459D01*
X23864911Y-8316459D01*
X23864911Y-8401313D01*
X23949765Y-8401313D01*
X23994029Y-6634659D02*
X23994029Y-6549805D01*
X23909176Y-6549805D01*
X23909176Y-6634659D01*
X23994029Y-6634659D01*
X24487079Y-8474748D02*
X24487079Y-8389894D01*
X24402226Y-8389894D01*
X24402226Y-8474748D01*
X24487079Y-8474748D01*
X25035167Y-5070003D02*
X25035167Y-4985150D01*
X24950314Y-4985150D01*
X24950314Y-5070003D01*
X25035167Y-5070003D01*
X25528218Y-6910092D02*
X25528218Y-6825238D01*
X25443364Y-6825238D01*
X25443364Y-6910092D01*
X25528218Y-6910092D01*
X25572482Y-5143438D02*
X25572482Y-5058585D01*
X25487629Y-5058585D01*
X25487629Y-5143438D01*
X25572482Y-5143438D01*
X26021268Y-8750181D02*
X26021268Y-8665327D01*
X25936414Y-8665327D01*
X25936414Y-8750181D01*
X26021268Y-8750181D01*
X26065533Y-6983527D02*
X26065533Y-6898673D01*
X25980679Y-6898673D01*
X25980679Y-6983527D01*
X26065533Y-6983527D01*
X26558583Y-8823616D02*
X26558583Y-8738762D01*
X26473729Y-8738762D01*
X26473729Y-8823616D01*
X26558583Y-8823616D01*
D11*
X2597619Y-15195476D02*
X2597619Y-14995476D01*
X2645238Y-14995476D01*
X2673810Y-15005000D01*
X2692857Y-15024048D01*
X2702381Y-15043095D01*
X2711905Y-15081190D01*
X2711905Y-15109762D01*
X2702381Y-15147857D01*
X2692857Y-15166905D01*
X2673810Y-15185952D01*
X2645238Y-15195476D01*
X2597619Y-15195476D01*
X2797619Y-15195476D02*
X2797619Y-15062143D01*
X2797619Y-15100238D02*
X2807143Y-15081190D01*
X2816667Y-15071667D01*
X2835714Y-15062143D01*
X2854762Y-15062143D01*
X2921428Y-15195476D02*
X2921428Y-15062143D01*
X2921428Y-14995476D02*
X2911905Y-15005000D01*
X2921428Y-15014524D01*
X2930952Y-15005000D01*
X2921428Y-14995476D01*
X2921428Y-15014524D01*
X3045238Y-15195476D02*
X3026190Y-15185952D01*
X3016667Y-15166905D01*
X3016667Y-14995476D01*
X3150000Y-15195476D02*
X3130952Y-15185952D01*
X3121428Y-15166905D01*
X3121428Y-14995476D01*
X3378571Y-15195476D02*
X3378571Y-14995476D01*
X3445238Y-15138333D01*
X3511905Y-14995476D01*
X3511905Y-15195476D01*
X3692857Y-15195476D02*
X3692857Y-15090714D01*
X3683333Y-15071667D01*
X3664286Y-15062143D01*
X3626190Y-15062143D01*
X3607143Y-15071667D01*
X3692857Y-15185952D02*
X3673809Y-15195476D01*
X3626190Y-15195476D01*
X3607143Y-15185952D01*
X3597619Y-15166905D01*
X3597619Y-15147857D01*
X3607143Y-15128809D01*
X3626190Y-15119286D01*
X3673809Y-15119286D01*
X3692857Y-15109762D01*
X3788095Y-15062143D02*
X3788095Y-15262143D01*
X3788095Y-15071667D02*
X3807143Y-15062143D01*
X3845238Y-15062143D01*
X3864286Y-15071667D01*
X3873809Y-15081190D01*
X3883333Y-15100238D01*
X3883333Y-15157381D01*
X3873809Y-15176428D01*
X3864286Y-15185952D01*
X3845238Y-15195476D01*
X3807143Y-15195476D01*
X3788095Y-15185952D01*
X3969048Y-15176428D02*
X3978571Y-15185952D01*
X3969048Y-15195476D01*
X3959524Y-15185952D01*
X3969048Y-15176428D01*
X3969048Y-15195476D01*
X3969048Y-15071667D02*
X3978571Y-15081190D01*
X3969048Y-15090714D01*
X3959524Y-15081190D01*
X3969048Y-15071667D01*
X3969048Y-15090714D01*
D12*
X2300000Y-15505000D02*
X2340000Y-15545000D01*
X2340000Y-15505000D02*
X2300000Y-15545000D01*
D11*
X2635714Y-15415476D02*
X2654762Y-15415476D01*
X2673810Y-15425000D01*
X2683333Y-15434524D01*
X2692857Y-15453571D01*
X2702381Y-15491667D01*
X2702381Y-15539286D01*
X2692857Y-15577381D01*
X2683333Y-15596428D01*
X2673810Y-15605952D01*
X2654762Y-15615476D01*
X2635714Y-15615476D01*
X2616667Y-15605952D01*
X2607143Y-15596428D01*
X2597619Y-15577381D01*
X2588095Y-15539286D01*
X2588095Y-15491667D01*
X2597619Y-15453571D01*
X2607143Y-15434524D01*
X2616667Y-15425000D01*
X2635714Y-15415476D01*
X2788095Y-15596428D02*
X2797619Y-15605952D01*
X2788095Y-15615476D01*
X2778571Y-15605952D01*
X2788095Y-15596428D01*
X2788095Y-15615476D01*
X2969048Y-15482143D02*
X2969048Y-15615476D01*
X2921428Y-15405952D02*
X2873809Y-15548809D01*
X2997619Y-15548809D01*
X3111905Y-15415476D02*
X3130952Y-15415476D01*
X3150000Y-15425000D01*
X3159524Y-15434524D01*
X3169048Y-15453571D01*
X3178571Y-15491667D01*
X3178571Y-15539286D01*
X3169048Y-15577381D01*
X3159524Y-15596428D01*
X3150000Y-15605952D01*
X3130952Y-15615476D01*
X3111905Y-15615476D01*
X3092857Y-15605952D01*
X3083333Y-15596428D01*
X3073809Y-15577381D01*
X3064286Y-15539286D01*
X3064286Y-15491667D01*
X3073809Y-15453571D01*
X3083333Y-15434524D01*
X3092857Y-15425000D01*
X3111905Y-15415476D01*
X3302381Y-15415476D02*
X3321428Y-15415476D01*
X3340476Y-15425000D01*
X3350000Y-15434524D01*
X3359524Y-15453571D01*
X3369048Y-15491667D01*
X3369048Y-15539286D01*
X3359524Y-15577381D01*
X3350000Y-15596428D01*
X3340476Y-15605952D01*
X3321428Y-15615476D01*
X3302381Y-15615476D01*
X3283333Y-15605952D01*
X3273809Y-15596428D01*
X3264286Y-15577381D01*
X3254762Y-15539286D01*
X3254762Y-15491667D01*
X3264286Y-15453571D01*
X3273809Y-15434524D01*
X3283333Y-15425000D01*
X3302381Y-15415476D01*
X3454762Y-15615476D02*
X3454762Y-15482143D01*
X3454762Y-15501190D02*
X3464286Y-15491667D01*
X3483333Y-15482143D01*
X3511905Y-15482143D01*
X3530952Y-15491667D01*
X3540476Y-15510714D01*
X3540476Y-15615476D01*
X3540476Y-15510714D02*
X3550000Y-15491667D01*
X3569048Y-15482143D01*
X3597619Y-15482143D01*
X3616667Y-15491667D01*
X3626190Y-15510714D01*
X3626190Y-15615476D01*
X3721428Y-15615476D02*
X3721428Y-15482143D01*
X3721428Y-15501190D02*
X3730952Y-15491667D01*
X3750000Y-15482143D01*
X3778571Y-15482143D01*
X3797619Y-15491667D01*
X3807143Y-15510714D01*
X3807143Y-15615476D01*
X3807143Y-15510714D02*
X3816667Y-15491667D01*
X3835714Y-15482143D01*
X3864286Y-15482143D01*
X3883333Y-15491667D01*
X3892857Y-15510714D01*
X3892857Y-15615476D01*
X4283333Y-15405952D02*
X4111905Y-15663095D01*
X4540476Y-15415476D02*
X4559524Y-15415476D01*
X4578571Y-15425000D01*
X4588095Y-15434524D01*
X4597619Y-15453571D01*
X4607143Y-15491667D01*
X4607143Y-15539286D01*
X4597619Y-15577381D01*
X4588095Y-15596428D01*
X4578571Y-15605952D01*
X4559524Y-15615476D01*
X4540476Y-15615476D01*
X4521429Y-15605952D01*
X4511905Y-15596428D01*
X4502381Y-15577381D01*
X4492857Y-15539286D01*
X4492857Y-15491667D01*
X4502381Y-15453571D01*
X4511905Y-15434524D01*
X4521429Y-15425000D01*
X4540476Y-15415476D01*
X4692857Y-15596428D02*
X4702381Y-15605952D01*
X4692857Y-15615476D01*
X4683333Y-15605952D01*
X4692857Y-15596428D01*
X4692857Y-15615476D01*
X4826190Y-15415476D02*
X4845238Y-15415476D01*
X4864286Y-15425000D01*
X4873810Y-15434524D01*
X4883333Y-15453571D01*
X4892857Y-15491667D01*
X4892857Y-15539286D01*
X4883333Y-15577381D01*
X4873810Y-15596428D01*
X4864286Y-15605952D01*
X4845238Y-15615476D01*
X4826190Y-15615476D01*
X4807143Y-15605952D01*
X4797619Y-15596428D01*
X4788095Y-15577381D01*
X4778571Y-15539286D01*
X4778571Y-15491667D01*
X4788095Y-15453571D01*
X4797619Y-15434524D01*
X4807143Y-15425000D01*
X4826190Y-15415476D01*
X5083333Y-15615476D02*
X4969048Y-15615476D01*
X5026190Y-15615476D02*
X5026190Y-15415476D01*
X5007143Y-15444048D01*
X4988095Y-15463095D01*
X4969048Y-15472619D01*
X5264286Y-15415476D02*
X5169048Y-15415476D01*
X5159524Y-15510714D01*
X5169048Y-15501190D01*
X5188095Y-15491667D01*
X5235714Y-15491667D01*
X5254762Y-15501190D01*
X5264286Y-15510714D01*
X5273810Y-15529762D01*
X5273810Y-15577381D01*
X5264286Y-15596428D01*
X5254762Y-15605952D01*
X5235714Y-15615476D01*
X5188095Y-15615476D01*
X5169048Y-15605952D01*
X5159524Y-15596428D01*
X5340476Y-15415476D02*
X5473810Y-15415476D01*
X5388095Y-15615476D01*
X5540476Y-15415476D02*
X5540476Y-15453571D01*
X5616667Y-15415476D02*
X5616667Y-15453571D01*
X5911905Y-15691667D02*
X5902381Y-15682143D01*
X5883333Y-15653571D01*
X5873809Y-15634524D01*
X5864286Y-15605952D01*
X5854762Y-15558333D01*
X5854762Y-15520238D01*
X5864286Y-15472619D01*
X5873809Y-15444048D01*
X5883333Y-15425000D01*
X5902381Y-15396428D01*
X5911905Y-15386905D01*
X6073809Y-15482143D02*
X6073809Y-15615476D01*
X6026190Y-15405952D02*
X5978571Y-15548809D01*
X6102381Y-15548809D01*
X6330952Y-15615476D02*
X6330952Y-15415476D01*
X6416667Y-15615476D02*
X6416667Y-15510714D01*
X6407143Y-15491667D01*
X6388095Y-15482143D01*
X6359524Y-15482143D01*
X6340476Y-15491667D01*
X6330952Y-15501190D01*
X6540476Y-15615476D02*
X6521428Y-15605952D01*
X6511905Y-15596428D01*
X6502381Y-15577381D01*
X6502381Y-15520238D01*
X6511905Y-15501190D01*
X6521428Y-15491667D01*
X6540476Y-15482143D01*
X6569048Y-15482143D01*
X6588095Y-15491667D01*
X6597619Y-15501190D01*
X6607143Y-15520238D01*
X6607143Y-15577381D01*
X6597619Y-15596428D01*
X6588095Y-15605952D01*
X6569048Y-15615476D01*
X6540476Y-15615476D01*
X6721428Y-15615476D02*
X6702381Y-15605952D01*
X6692857Y-15586905D01*
X6692857Y-15415476D01*
X6873809Y-15605952D02*
X6854762Y-15615476D01*
X6816667Y-15615476D01*
X6797619Y-15605952D01*
X6788095Y-15586905D01*
X6788095Y-15510714D01*
X6797619Y-15491667D01*
X6816667Y-15482143D01*
X6854762Y-15482143D01*
X6873809Y-15491667D01*
X6883333Y-15510714D01*
X6883333Y-15529762D01*
X6788095Y-15548809D01*
X6959524Y-15605952D02*
X6978571Y-15615476D01*
X7016667Y-15615476D01*
X7035714Y-15605952D01*
X7045238Y-15586905D01*
X7045238Y-15577381D01*
X7035714Y-15558333D01*
X7016667Y-15548809D01*
X6988095Y-15548809D01*
X6969048Y-15539286D01*
X6959524Y-15520238D01*
X6959524Y-15510714D01*
X6969048Y-15491667D01*
X6988095Y-15482143D01*
X7016667Y-15482143D01*
X7035714Y-15491667D01*
X7111905Y-15691667D02*
X7121428Y-15682143D01*
X7140476Y-15653571D01*
X7150000Y-15634524D01*
X7159524Y-15605952D01*
X7169048Y-15558333D01*
X7169048Y-15520238D01*
X7159524Y-15472619D01*
X7150000Y-15444048D01*
X7140476Y-15425000D01*
X7121428Y-15396428D01*
X7111905Y-15386905D01*
D13*
X2340000Y-15789000D02*
G75*
G03*
X2340000Y-15789000I-50000J0D01*
G01*
D11*
X2702381Y-15879476D02*
X2588095Y-15879476D01*
X2645238Y-15879476D02*
X2645238Y-15679476D01*
X2626190Y-15708048D01*
X2607143Y-15727095D01*
X2588095Y-15736619D01*
X2788095Y-15860428D02*
X2797619Y-15869952D01*
X2788095Y-15879476D01*
X2778571Y-15869952D01*
X2788095Y-15860428D01*
X2788095Y-15879476D01*
X2921428Y-15679476D02*
X2940476Y-15679476D01*
X2959524Y-15689000D01*
X2969048Y-15698524D01*
X2978571Y-15717571D01*
X2988095Y-15755667D01*
X2988095Y-15803286D01*
X2978571Y-15841381D01*
X2969048Y-15860428D01*
X2959524Y-15869952D01*
X2940476Y-15879476D01*
X2921428Y-15879476D01*
X2902381Y-15869952D01*
X2892857Y-15860428D01*
X2883333Y-15841381D01*
X2873809Y-15803286D01*
X2873809Y-15755667D01*
X2883333Y-15717571D01*
X2892857Y-15698524D01*
X2902381Y-15689000D01*
X2921428Y-15679476D01*
X3111905Y-15679476D02*
X3130952Y-15679476D01*
X3150000Y-15689000D01*
X3159524Y-15698524D01*
X3169048Y-15717571D01*
X3178571Y-15755667D01*
X3178571Y-15803286D01*
X3169048Y-15841381D01*
X3159524Y-15860428D01*
X3150000Y-15869952D01*
X3130952Y-15879476D01*
X3111905Y-15879476D01*
X3092857Y-15869952D01*
X3083333Y-15860428D01*
X3073809Y-15841381D01*
X3064286Y-15803286D01*
X3064286Y-15755667D01*
X3073809Y-15717571D01*
X3083333Y-15698524D01*
X3092857Y-15689000D01*
X3111905Y-15679476D01*
X3302381Y-15679476D02*
X3321428Y-15679476D01*
X3340476Y-15689000D01*
X3350000Y-15698524D01*
X3359524Y-15717571D01*
X3369048Y-15755667D01*
X3369048Y-15803286D01*
X3359524Y-15841381D01*
X3350000Y-15860428D01*
X3340476Y-15869952D01*
X3321428Y-15879476D01*
X3302381Y-15879476D01*
X3283333Y-15869952D01*
X3273809Y-15860428D01*
X3264286Y-15841381D01*
X3254762Y-15803286D01*
X3254762Y-15755667D01*
X3264286Y-15717571D01*
X3273809Y-15698524D01*
X3283333Y-15689000D01*
X3302381Y-15679476D01*
X3454762Y-15879476D02*
X3454762Y-15746143D01*
X3454762Y-15765190D02*
X3464286Y-15755667D01*
X3483333Y-15746143D01*
X3511905Y-15746143D01*
X3530952Y-15755667D01*
X3540476Y-15774714D01*
X3540476Y-15879476D01*
X3540476Y-15774714D02*
X3550000Y-15755667D01*
X3569048Y-15746143D01*
X3597619Y-15746143D01*
X3616667Y-15755667D01*
X3626190Y-15774714D01*
X3626190Y-15879476D01*
X3721428Y-15879476D02*
X3721428Y-15746143D01*
X3721428Y-15765190D02*
X3730952Y-15755667D01*
X3750000Y-15746143D01*
X3778571Y-15746143D01*
X3797619Y-15755667D01*
X3807143Y-15774714D01*
X3807143Y-15879476D01*
X3807143Y-15774714D02*
X3816667Y-15755667D01*
X3835714Y-15746143D01*
X3864286Y-15746143D01*
X3883333Y-15755667D01*
X3892857Y-15774714D01*
X3892857Y-15879476D01*
X4283333Y-15669952D02*
X4111905Y-15927095D01*
X4540476Y-15679476D02*
X4559524Y-15679476D01*
X4578571Y-15689000D01*
X4588095Y-15698524D01*
X4597619Y-15717571D01*
X4607143Y-15755667D01*
X4607143Y-15803286D01*
X4597619Y-15841381D01*
X4588095Y-15860428D01*
X4578571Y-15869952D01*
X4559524Y-15879476D01*
X4540476Y-15879476D01*
X4521429Y-15869952D01*
X4511905Y-15860428D01*
X4502381Y-15841381D01*
X4492857Y-15803286D01*
X4492857Y-15755667D01*
X4502381Y-15717571D01*
X4511905Y-15698524D01*
X4521429Y-15689000D01*
X4540476Y-15679476D01*
X4692857Y-15860428D02*
X4702381Y-15869952D01*
X4692857Y-15879476D01*
X4683333Y-15869952D01*
X4692857Y-15860428D01*
X4692857Y-15879476D01*
X4826190Y-15679476D02*
X4845238Y-15679476D01*
X4864286Y-15689000D01*
X4873810Y-15698524D01*
X4883333Y-15717571D01*
X4892857Y-15755667D01*
X4892857Y-15803286D01*
X4883333Y-15841381D01*
X4873810Y-15860428D01*
X4864286Y-15869952D01*
X4845238Y-15879476D01*
X4826190Y-15879476D01*
X4807143Y-15869952D01*
X4797619Y-15860428D01*
X4788095Y-15841381D01*
X4778571Y-15803286D01*
X4778571Y-15755667D01*
X4788095Y-15717571D01*
X4797619Y-15698524D01*
X4807143Y-15689000D01*
X4826190Y-15679476D01*
X4959524Y-15679476D02*
X5083333Y-15679476D01*
X5016667Y-15755667D01*
X5045238Y-15755667D01*
X5064286Y-15765190D01*
X5073810Y-15774714D01*
X5083333Y-15793762D01*
X5083333Y-15841381D01*
X5073810Y-15860428D01*
X5064286Y-15869952D01*
X5045238Y-15879476D01*
X4988095Y-15879476D01*
X4969048Y-15869952D01*
X4959524Y-15860428D01*
X5178571Y-15879476D02*
X5216667Y-15879476D01*
X5235714Y-15869952D01*
X5245238Y-15860428D01*
X5264286Y-15831857D01*
X5273810Y-15793762D01*
X5273810Y-15717571D01*
X5264286Y-15698524D01*
X5254762Y-15689000D01*
X5235714Y-15679476D01*
X5197619Y-15679476D01*
X5178571Y-15689000D01*
X5169048Y-15698524D01*
X5159524Y-15717571D01*
X5159524Y-15765190D01*
X5169048Y-15784238D01*
X5178571Y-15793762D01*
X5197619Y-15803286D01*
X5235714Y-15803286D01*
X5254762Y-15793762D01*
X5264286Y-15784238D01*
X5273810Y-15765190D01*
X5445238Y-15746143D02*
X5445238Y-15879476D01*
X5397619Y-15669952D02*
X5350000Y-15812809D01*
X5473810Y-15812809D01*
X5540476Y-15679476D02*
X5540476Y-15717571D01*
X5616667Y-15679476D02*
X5616667Y-15717571D01*
X5911905Y-15955667D02*
X5902381Y-15946143D01*
X5883333Y-15917571D01*
X5873809Y-15898524D01*
X5864286Y-15869952D01*
X5854762Y-15822333D01*
X5854762Y-15784238D01*
X5864286Y-15736619D01*
X5873809Y-15708048D01*
X5883333Y-15689000D01*
X5902381Y-15660428D01*
X5911905Y-15650905D01*
X5969048Y-15679476D02*
X6102381Y-15679476D01*
X6016667Y-15879476D01*
X6169048Y-15698524D02*
X6178571Y-15689000D01*
X6197619Y-15679476D01*
X6245238Y-15679476D01*
X6264286Y-15689000D01*
X6273809Y-15698524D01*
X6283333Y-15717571D01*
X6283333Y-15736619D01*
X6273809Y-15765190D01*
X6159524Y-15879476D01*
X6283333Y-15879476D01*
X6521428Y-15879476D02*
X6521428Y-15679476D01*
X6607143Y-15879476D02*
X6607143Y-15774714D01*
X6597619Y-15755667D01*
X6578571Y-15746143D01*
X6550000Y-15746143D01*
X6530952Y-15755667D01*
X6521428Y-15765190D01*
X6730952Y-15879476D02*
X6711905Y-15869952D01*
X6702381Y-15860428D01*
X6692857Y-15841381D01*
X6692857Y-15784238D01*
X6702381Y-15765190D01*
X6711905Y-15755667D01*
X6730952Y-15746143D01*
X6759524Y-15746143D01*
X6778571Y-15755667D01*
X6788095Y-15765190D01*
X6797619Y-15784238D01*
X6797619Y-15841381D01*
X6788095Y-15860428D01*
X6778571Y-15869952D01*
X6759524Y-15879476D01*
X6730952Y-15879476D01*
X6911905Y-15879476D02*
X6892857Y-15869952D01*
X6883333Y-15850905D01*
X6883333Y-15679476D01*
X7064286Y-15869952D02*
X7045238Y-15879476D01*
X7007143Y-15879476D01*
X6988095Y-15869952D01*
X6978571Y-15850905D01*
X6978571Y-15774714D01*
X6988095Y-15755667D01*
X7007143Y-15746143D01*
X7045238Y-15746143D01*
X7064286Y-15755667D01*
X7073809Y-15774714D01*
X7073809Y-15793762D01*
X6978571Y-15812809D01*
X7150000Y-15869952D02*
X7169048Y-15879476D01*
X7207143Y-15879476D01*
X7226190Y-15869952D01*
X7235714Y-15850905D01*
X7235714Y-15841381D01*
X7226190Y-15822333D01*
X7207143Y-15812809D01*
X7178571Y-15812809D01*
X7159524Y-15803286D01*
X7150000Y-15784238D01*
X7150000Y-15774714D01*
X7159524Y-15755667D01*
X7178571Y-15746143D01*
X7207143Y-15746143D01*
X7226190Y-15755667D01*
X7302381Y-15955667D02*
X7311905Y-15946143D01*
X7330952Y-15917571D01*
X7340476Y-15898524D01*
X7350000Y-15869952D01*
X7359524Y-15822333D01*
X7359524Y-15784238D01*
X7350000Y-15736619D01*
X7340476Y-15708048D01*
X7330952Y-15689000D01*
X7311905Y-15660428D01*
X7302381Y-15650905D01*
D14*
X2289000Y-16002000D02*
X2289000Y-16104000D01*
X2238000Y-16053000D02*
X2340000Y-16053000D01*
D11*
X2702381Y-16143476D02*
X2588095Y-16143476D01*
X2645238Y-16143476D02*
X2645238Y-15943476D01*
X2626190Y-15972048D01*
X2607143Y-15991095D01*
X2588095Y-16000619D01*
X2788095Y-16124428D02*
X2797619Y-16133952D01*
X2788095Y-16143476D01*
X2778571Y-16133952D01*
X2788095Y-16124428D01*
X2788095Y-16143476D01*
X2921428Y-15943476D02*
X2940476Y-15943476D01*
X2959524Y-15953000D01*
X2969048Y-15962524D01*
X2978571Y-15981571D01*
X2988095Y-16019667D01*
X2988095Y-16067286D01*
X2978571Y-16105381D01*
X2969048Y-16124428D01*
X2959524Y-16133952D01*
X2940476Y-16143476D01*
X2921428Y-16143476D01*
X2902381Y-16133952D01*
X2892857Y-16124428D01*
X2883333Y-16105381D01*
X2873809Y-16067286D01*
X2873809Y-16019667D01*
X2883333Y-15981571D01*
X2892857Y-15962524D01*
X2902381Y-15953000D01*
X2921428Y-15943476D01*
X3064286Y-15962524D02*
X3073809Y-15953000D01*
X3092857Y-15943476D01*
X3140476Y-15943476D01*
X3159524Y-15953000D01*
X3169048Y-15962524D01*
X3178571Y-15981571D01*
X3178571Y-16000619D01*
X3169048Y-16029190D01*
X3054762Y-16143476D01*
X3178571Y-16143476D01*
X3302381Y-15943476D02*
X3321428Y-15943476D01*
X3340476Y-15953000D01*
X3350000Y-15962524D01*
X3359524Y-15981571D01*
X3369048Y-16019667D01*
X3369048Y-16067286D01*
X3359524Y-16105381D01*
X3350000Y-16124428D01*
X3340476Y-16133952D01*
X3321428Y-16143476D01*
X3302381Y-16143476D01*
X3283333Y-16133952D01*
X3273809Y-16124428D01*
X3264286Y-16105381D01*
X3254762Y-16067286D01*
X3254762Y-16019667D01*
X3264286Y-15981571D01*
X3273809Y-15962524D01*
X3283333Y-15953000D01*
X3302381Y-15943476D01*
X3454762Y-16143476D02*
X3454762Y-16010143D01*
X3454762Y-16029190D02*
X3464286Y-16019667D01*
X3483333Y-16010143D01*
X3511905Y-16010143D01*
X3530952Y-16019667D01*
X3540476Y-16038714D01*
X3540476Y-16143476D01*
X3540476Y-16038714D02*
X3550000Y-16019667D01*
X3569048Y-16010143D01*
X3597619Y-16010143D01*
X3616667Y-16019667D01*
X3626190Y-16038714D01*
X3626190Y-16143476D01*
X3721428Y-16143476D02*
X3721428Y-16010143D01*
X3721428Y-16029190D02*
X3730952Y-16019667D01*
X3750000Y-16010143D01*
X3778571Y-16010143D01*
X3797619Y-16019667D01*
X3807143Y-16038714D01*
X3807143Y-16143476D01*
X3807143Y-16038714D02*
X3816667Y-16019667D01*
X3835714Y-16010143D01*
X3864286Y-16010143D01*
X3883333Y-16019667D01*
X3892857Y-16038714D01*
X3892857Y-16143476D01*
X4283333Y-15933952D02*
X4111905Y-16191095D01*
X4540476Y-15943476D02*
X4559524Y-15943476D01*
X4578571Y-15953000D01*
X4588095Y-15962524D01*
X4597619Y-15981571D01*
X4607143Y-16019667D01*
X4607143Y-16067286D01*
X4597619Y-16105381D01*
X4588095Y-16124428D01*
X4578571Y-16133952D01*
X4559524Y-16143476D01*
X4540476Y-16143476D01*
X4521429Y-16133952D01*
X4511905Y-16124428D01*
X4502381Y-16105381D01*
X4492857Y-16067286D01*
X4492857Y-16019667D01*
X4502381Y-15981571D01*
X4511905Y-15962524D01*
X4521429Y-15953000D01*
X4540476Y-15943476D01*
X4692857Y-16124428D02*
X4702381Y-16133952D01*
X4692857Y-16143476D01*
X4683333Y-16133952D01*
X4692857Y-16124428D01*
X4692857Y-16143476D01*
X4826190Y-15943476D02*
X4845238Y-15943476D01*
X4864286Y-15953000D01*
X4873810Y-15962524D01*
X4883333Y-15981571D01*
X4892857Y-16019667D01*
X4892857Y-16067286D01*
X4883333Y-16105381D01*
X4873810Y-16124428D01*
X4864286Y-16133952D01*
X4845238Y-16143476D01*
X4826190Y-16143476D01*
X4807143Y-16133952D01*
X4797619Y-16124428D01*
X4788095Y-16105381D01*
X4778571Y-16067286D01*
X4778571Y-16019667D01*
X4788095Y-15981571D01*
X4797619Y-15962524D01*
X4807143Y-15953000D01*
X4826190Y-15943476D01*
X5064286Y-16010143D02*
X5064286Y-16143476D01*
X5016667Y-15933952D02*
X4969048Y-16076809D01*
X5092857Y-16076809D01*
X5207143Y-15943476D02*
X5226190Y-15943476D01*
X5245238Y-15953000D01*
X5254762Y-15962524D01*
X5264286Y-15981571D01*
X5273810Y-16019667D01*
X5273810Y-16067286D01*
X5264286Y-16105381D01*
X5254762Y-16124428D01*
X5245238Y-16133952D01*
X5226190Y-16143476D01*
X5207143Y-16143476D01*
X5188095Y-16133952D01*
X5178571Y-16124428D01*
X5169048Y-16105381D01*
X5159524Y-16067286D01*
X5159524Y-16019667D01*
X5169048Y-15981571D01*
X5178571Y-15962524D01*
X5188095Y-15953000D01*
X5207143Y-15943476D01*
X5350000Y-15962524D02*
X5359524Y-15953000D01*
X5378571Y-15943476D01*
X5426190Y-15943476D01*
X5445238Y-15953000D01*
X5454762Y-15962524D01*
X5464286Y-15981571D01*
X5464286Y-16000619D01*
X5454762Y-16029190D01*
X5340476Y-16143476D01*
X5464286Y-16143476D01*
X5540476Y-15943476D02*
X5540476Y-15981571D01*
X5616667Y-15943476D02*
X5616667Y-15981571D01*
X5911905Y-16219667D02*
X5902381Y-16210143D01*
X5883333Y-16181571D01*
X5873809Y-16162524D01*
X5864286Y-16133952D01*
X5854762Y-16086333D01*
X5854762Y-16048238D01*
X5864286Y-16000619D01*
X5873809Y-15972048D01*
X5883333Y-15953000D01*
X5902381Y-15924428D01*
X5911905Y-15914905D01*
X6073809Y-16010143D02*
X6073809Y-16143476D01*
X6026190Y-15933952D02*
X5978571Y-16076809D01*
X6102381Y-16076809D01*
X6159524Y-15943476D02*
X6283333Y-15943476D01*
X6216667Y-16019667D01*
X6245238Y-16019667D01*
X6264286Y-16029190D01*
X6273809Y-16038714D01*
X6283333Y-16057762D01*
X6283333Y-16105381D01*
X6273809Y-16124428D01*
X6264286Y-16133952D01*
X6245238Y-16143476D01*
X6188095Y-16143476D01*
X6169048Y-16133952D01*
X6159524Y-16124428D01*
X6521428Y-16143476D02*
X6521428Y-15943476D01*
X6607143Y-16143476D02*
X6607143Y-16038714D01*
X6597619Y-16019667D01*
X6578571Y-16010143D01*
X6550000Y-16010143D01*
X6530952Y-16019667D01*
X6521428Y-16029190D01*
X6730952Y-16143476D02*
X6711905Y-16133952D01*
X6702381Y-16124428D01*
X6692857Y-16105381D01*
X6692857Y-16048238D01*
X6702381Y-16029190D01*
X6711905Y-16019667D01*
X6730952Y-16010143D01*
X6759524Y-16010143D01*
X6778571Y-16019667D01*
X6788095Y-16029190D01*
X6797619Y-16048238D01*
X6797619Y-16105381D01*
X6788095Y-16124428D01*
X6778571Y-16133952D01*
X6759524Y-16143476D01*
X6730952Y-16143476D01*
X6911905Y-16143476D02*
X6892857Y-16133952D01*
X6883333Y-16114905D01*
X6883333Y-15943476D01*
X7064286Y-16133952D02*
X7045238Y-16143476D01*
X7007143Y-16143476D01*
X6988095Y-16133952D01*
X6978571Y-16114905D01*
X6978571Y-16038714D01*
X6988095Y-16019667D01*
X7007143Y-16010143D01*
X7045238Y-16010143D01*
X7064286Y-16019667D01*
X7073809Y-16038714D01*
X7073809Y-16057762D01*
X6978571Y-16076809D01*
X7150000Y-16133952D02*
X7169048Y-16143476D01*
X7207143Y-16143476D01*
X7226190Y-16133952D01*
X7235714Y-16114905D01*
X7235714Y-16105381D01*
X7226190Y-16086333D01*
X7207143Y-16076809D01*
X7178571Y-16076809D01*
X7159524Y-16067286D01*
X7150000Y-16048238D01*
X7150000Y-16038714D01*
X7159524Y-16019667D01*
X7178571Y-16010143D01*
X7207143Y-16010143D01*
X7226190Y-16019667D01*
X7302381Y-16219667D02*
X7311905Y-16210143D01*
X7330952Y-16181571D01*
X7340476Y-16162524D01*
X7350000Y-16133952D01*
X7359524Y-16086333D01*
X7359524Y-16048238D01*
X7350000Y-16000619D01*
X7340476Y-15972048D01*
X7330952Y-15953000D01*
X7311905Y-15924428D01*
X7302381Y-15914905D01*
D15*
X2322427Y-16359427D02*
X2322427Y-16274573D01*
X2237573Y-16274573D01*
X2237573Y-16359427D01*
X2322427Y-16359427D01*
D11*
X2702381Y-16407476D02*
X2588095Y-16407476D01*
X2645238Y-16407476D02*
X2645238Y-16207476D01*
X2626190Y-16236048D01*
X2607143Y-16255095D01*
X2588095Y-16264619D01*
X2788095Y-16388428D02*
X2797619Y-16397952D01*
X2788095Y-16407476D01*
X2778571Y-16397952D01*
X2788095Y-16388428D01*
X2788095Y-16407476D01*
X2873809Y-16226524D02*
X2883333Y-16217000D01*
X2902381Y-16207476D01*
X2950000Y-16207476D01*
X2969048Y-16217000D01*
X2978571Y-16226524D01*
X2988095Y-16245571D01*
X2988095Y-16264619D01*
X2978571Y-16293190D01*
X2864286Y-16407476D01*
X2988095Y-16407476D01*
X3111905Y-16207476D02*
X3130952Y-16207476D01*
X3150000Y-16217000D01*
X3159524Y-16226524D01*
X3169048Y-16245571D01*
X3178571Y-16283667D01*
X3178571Y-16331286D01*
X3169048Y-16369381D01*
X3159524Y-16388428D01*
X3150000Y-16397952D01*
X3130952Y-16407476D01*
X3111905Y-16407476D01*
X3092857Y-16397952D01*
X3083333Y-16388428D01*
X3073809Y-16369381D01*
X3064286Y-16331286D01*
X3064286Y-16283667D01*
X3073809Y-16245571D01*
X3083333Y-16226524D01*
X3092857Y-16217000D01*
X3111905Y-16207476D01*
X3302381Y-16207476D02*
X3321428Y-16207476D01*
X3340476Y-16217000D01*
X3350000Y-16226524D01*
X3359524Y-16245571D01*
X3369048Y-16283667D01*
X3369048Y-16331286D01*
X3359524Y-16369381D01*
X3350000Y-16388428D01*
X3340476Y-16397952D01*
X3321428Y-16407476D01*
X3302381Y-16407476D01*
X3283333Y-16397952D01*
X3273809Y-16388428D01*
X3264286Y-16369381D01*
X3254762Y-16331286D01*
X3254762Y-16283667D01*
X3264286Y-16245571D01*
X3273809Y-16226524D01*
X3283333Y-16217000D01*
X3302381Y-16207476D01*
X3454762Y-16407476D02*
X3454762Y-16274143D01*
X3454762Y-16293190D02*
X3464286Y-16283667D01*
X3483333Y-16274143D01*
X3511905Y-16274143D01*
X3530952Y-16283667D01*
X3540476Y-16302714D01*
X3540476Y-16407476D01*
X3540476Y-16302714D02*
X3550000Y-16283667D01*
X3569048Y-16274143D01*
X3597619Y-16274143D01*
X3616667Y-16283667D01*
X3626190Y-16302714D01*
X3626190Y-16407476D01*
X3721428Y-16407476D02*
X3721428Y-16274143D01*
X3721428Y-16293190D02*
X3730952Y-16283667D01*
X3750000Y-16274143D01*
X3778571Y-16274143D01*
X3797619Y-16283667D01*
X3807143Y-16302714D01*
X3807143Y-16407476D01*
X3807143Y-16302714D02*
X3816667Y-16283667D01*
X3835714Y-16274143D01*
X3864286Y-16274143D01*
X3883333Y-16283667D01*
X3892857Y-16302714D01*
X3892857Y-16407476D01*
X4283333Y-16197952D02*
X4111905Y-16455095D01*
X4540476Y-16207476D02*
X4559524Y-16207476D01*
X4578571Y-16217000D01*
X4588095Y-16226524D01*
X4597619Y-16245571D01*
X4607143Y-16283667D01*
X4607143Y-16331286D01*
X4597619Y-16369381D01*
X4588095Y-16388428D01*
X4578571Y-16397952D01*
X4559524Y-16407476D01*
X4540476Y-16407476D01*
X4521429Y-16397952D01*
X4511905Y-16388428D01*
X4502381Y-16369381D01*
X4492857Y-16331286D01*
X4492857Y-16283667D01*
X4502381Y-16245571D01*
X4511905Y-16226524D01*
X4521429Y-16217000D01*
X4540476Y-16207476D01*
X4692857Y-16388428D02*
X4702381Y-16397952D01*
X4692857Y-16407476D01*
X4683333Y-16397952D01*
X4692857Y-16388428D01*
X4692857Y-16407476D01*
X4826190Y-16207476D02*
X4845238Y-16207476D01*
X4864286Y-16217000D01*
X4873810Y-16226524D01*
X4883333Y-16245571D01*
X4892857Y-16283667D01*
X4892857Y-16331286D01*
X4883333Y-16369381D01*
X4873810Y-16388428D01*
X4864286Y-16397952D01*
X4845238Y-16407476D01*
X4826190Y-16407476D01*
X4807143Y-16397952D01*
X4797619Y-16388428D01*
X4788095Y-16369381D01*
X4778571Y-16331286D01*
X4778571Y-16283667D01*
X4788095Y-16245571D01*
X4797619Y-16226524D01*
X4807143Y-16217000D01*
X4826190Y-16207476D01*
X5064286Y-16274143D02*
X5064286Y-16407476D01*
X5016667Y-16197952D02*
X4969048Y-16340809D01*
X5092857Y-16340809D01*
X5150000Y-16207476D02*
X5283333Y-16207476D01*
X5197619Y-16407476D01*
X5350000Y-16226524D02*
X5359524Y-16217000D01*
X5378571Y-16207476D01*
X5426190Y-16207476D01*
X5445238Y-16217000D01*
X5454762Y-16226524D01*
X5464286Y-16245571D01*
X5464286Y-16264619D01*
X5454762Y-16293190D01*
X5340476Y-16407476D01*
X5464286Y-16407476D01*
X5540476Y-16207476D02*
X5540476Y-16245571D01*
X5616667Y-16207476D02*
X5616667Y-16245571D01*
X5911905Y-16483667D02*
X5902381Y-16474143D01*
X5883333Y-16445571D01*
X5873809Y-16426524D01*
X5864286Y-16397952D01*
X5854762Y-16350333D01*
X5854762Y-16312238D01*
X5864286Y-16264619D01*
X5873809Y-16236048D01*
X5883333Y-16217000D01*
X5902381Y-16188428D01*
X5911905Y-16178905D01*
X5969048Y-16207476D02*
X6102381Y-16207476D01*
X6016667Y-16407476D01*
X6169048Y-16226524D02*
X6178571Y-16217000D01*
X6197619Y-16207476D01*
X6245238Y-16207476D01*
X6264286Y-16217000D01*
X6273809Y-16226524D01*
X6283333Y-16245571D01*
X6283333Y-16264619D01*
X6273809Y-16293190D01*
X6159524Y-16407476D01*
X6283333Y-16407476D01*
X6521428Y-16407476D02*
X6521428Y-16207476D01*
X6607143Y-16407476D02*
X6607143Y-16302714D01*
X6597619Y-16283667D01*
X6578571Y-16274143D01*
X6550000Y-16274143D01*
X6530952Y-16283667D01*
X6521428Y-16293190D01*
X6730952Y-16407476D02*
X6711905Y-16397952D01*
X6702381Y-16388428D01*
X6692857Y-16369381D01*
X6692857Y-16312238D01*
X6702381Y-16293190D01*
X6711905Y-16283667D01*
X6730952Y-16274143D01*
X6759524Y-16274143D01*
X6778571Y-16283667D01*
X6788095Y-16293190D01*
X6797619Y-16312238D01*
X6797619Y-16369381D01*
X6788095Y-16388428D01*
X6778571Y-16397952D01*
X6759524Y-16407476D01*
X6730952Y-16407476D01*
X6911905Y-16407476D02*
X6892857Y-16397952D01*
X6883333Y-16378905D01*
X6883333Y-16207476D01*
X7064286Y-16397952D02*
X7045238Y-16407476D01*
X7007143Y-16407476D01*
X6988095Y-16397952D01*
X6978571Y-16378905D01*
X6978571Y-16302714D01*
X6988095Y-16283667D01*
X7007143Y-16274143D01*
X7045238Y-16274143D01*
X7064286Y-16283667D01*
X7073809Y-16302714D01*
X7073809Y-16321762D01*
X6978571Y-16340809D01*
X7150000Y-16397952D02*
X7169048Y-16407476D01*
X7207143Y-16407476D01*
X7226190Y-16397952D01*
X7235714Y-16378905D01*
X7235714Y-16369381D01*
X7226190Y-16350333D01*
X7207143Y-16340809D01*
X7178571Y-16340809D01*
X7159524Y-16331286D01*
X7150000Y-16312238D01*
X7150000Y-16302714D01*
X7159524Y-16283667D01*
X7178571Y-16274143D01*
X7207143Y-16274143D01*
X7226190Y-16283667D01*
X7302381Y-16483667D02*
X7311905Y-16474143D01*
X7330952Y-16445571D01*
X7340476Y-16426524D01*
X7350000Y-16397952D01*
X7359524Y-16350333D01*
X7359524Y-16312238D01*
X7350000Y-16264619D01*
X7340476Y-16236048D01*
X7330952Y-16217000D01*
X7311905Y-16188428D01*
X7302381Y-16178905D01*
M02*
