G04 #@! TF.GenerationSoftware,KiCad,Pcbnew,(6.0.4)*
G04 #@! TF.CreationDate,2022-04-18T22:38:53-04:00*
G04 #@! TF.ProjectId,crowboard,63726f77-626f-4617-9264-2e6b69636164,rev?*
G04 #@! TF.SameCoordinates,Original*
G04 #@! TF.FileFunction,Soldermask,Top*
G04 #@! TF.FilePolarity,Negative*
%FSLAX46Y46*%
G04 Gerber Fmt 4.6, Leading zero omitted, Abs format (unit mm)*
G04 Created by KiCad (PCBNEW (6.0.4)) date 2022-04-18 22:38:53*
%MOMM*%
%LPD*%
G01*
G04 APERTURE LIST*
G04 Aperture macros list*
%AMRotRect*
0 Rectangle, with rotation*
0 The origin of the aperture is its center*
0 $1 length*
0 $2 width*
0 $3 Rotation angle, in degrees counterclockwise*
0 Add horizontal line*
21,1,$1,$2,0,0,$3*%
G04 Aperture macros list end*
%ADD10C,1.700000*%
%ADD11C,3.400000*%
%ADD12C,2.000000*%
%ADD13RotRect,1.600000X1.600000X345.000000*%
%ADD14C,1.600000*%
%ADD15RotRect,1.600000X1.600000X15.000000*%
%ADD16O,1.500000X1.500000*%
%ADD17O,1.800000X1.800000*%
%ADD18R,3.500000X1.700000*%
%ADD19O,1.700000X1.700000*%
%ADD20R,1.700000X1.700000*%
%ADD21R,1.700000X3.500000*%
G04 APERTURE END LIST*
D10*
X97857221Y-89769644D03*
X87232037Y-86922634D03*
D11*
X92544629Y-88346139D03*
D12*
X91017597Y-94045101D03*
X86731487Y-90722562D03*
D13*
X41574288Y-73045175D03*
D14*
X34040066Y-71026387D03*
X194858085Y-61097497D03*
D15*
X202392307Y-59078709D03*
D11*
X65603861Y-41683359D03*
D10*
X70916453Y-43106864D03*
X60291269Y-40259854D03*
D12*
X64076829Y-47382321D03*
X59790719Y-44059782D03*
D14*
X257251062Y-73140615D03*
D15*
X264785284Y-71121827D03*
D12*
X219439865Y-83919142D03*
X224813014Y-84653491D03*
D10*
X217973390Y-80378034D03*
D11*
X223285982Y-78954529D03*
D10*
X228598574Y-77531024D03*
D13*
X103967265Y-61002057D03*
D14*
X96433043Y-58983269D03*
D13*
X116410461Y-88166965D03*
D14*
X108876239Y-86148177D03*
D13*
X111479959Y-106567852D03*
D14*
X103945737Y-104549064D03*
D10*
X45379582Y-65025547D03*
X34754398Y-62178537D03*
D11*
X40066990Y-63602042D03*
D12*
X38539958Y-69301004D03*
X34253848Y-65978465D03*
D14*
X199788587Y-79498384D03*
D15*
X207322809Y-77479596D03*
D14*
X236590361Y-69637378D03*
D15*
X244124583Y-67618590D03*
D10*
X90549965Y-43437145D03*
D11*
X85237373Y-42013640D03*
D10*
X79924781Y-40590135D03*
D12*
X83710341Y-47712602D03*
X79424231Y-44390063D03*
D13*
X99036762Y-79402944D03*
D14*
X91502540Y-77384156D03*
D13*
X76937998Y-88273106D03*
D14*
X69403776Y-86254318D03*
D12*
X197341101Y-75048980D03*
X202714250Y-75783329D03*
D10*
X195874626Y-71507872D03*
D11*
X201187218Y-70084367D03*
D10*
X206499810Y-68660862D03*
D12*
X202560575Y-127775631D03*
X207860846Y-126627968D03*
D10*
X199971409Y-124949641D03*
D11*
X204476745Y-121794971D03*
D10*
X208982081Y-118640301D03*
D14*
X216956849Y-69967659D03*
D15*
X224491071Y-67948871D03*
D13*
X62234988Y-69541938D03*
D14*
X54700766Y-67523150D03*
D12*
X29323346Y-84379352D03*
X33609456Y-87701891D03*
D10*
X29823896Y-80579424D03*
D11*
X35136488Y-82002929D03*
D10*
X40449080Y-83426434D03*
D13*
X57304486Y-87942825D03*
D14*
X49770264Y-85924037D03*
D13*
X94106260Y-97803831D03*
D14*
X86572038Y-95785043D03*
D13*
X86684300Y-51440598D03*
D14*
X79150078Y-49421810D03*
D13*
X36643785Y-91446062D03*
D14*
X29109563Y-89427274D03*
D12*
X229212372Y-46787087D03*
X234585521Y-47521436D03*
D10*
X238371081Y-40398969D03*
X227745897Y-43245979D03*
D11*
X233058489Y-41822474D03*
D10*
X61055447Y-79908638D03*
X50430263Y-77061628D03*
D11*
X55742855Y-78485133D03*
D12*
X54215823Y-84184095D03*
X49929713Y-80861556D03*
D11*
X44997493Y-45201155D03*
D10*
X50310085Y-46624660D03*
X39684901Y-43777650D03*
D12*
X43470461Y-50900117D03*
X39184351Y-47577578D03*
X184952238Y-102199329D03*
X190325387Y-102933678D03*
D10*
X194110947Y-95811211D03*
D11*
X188798355Y-97234716D03*
D10*
X183485763Y-98658221D03*
X118417721Y-139213345D03*
X110639547Y-131435171D03*
D11*
X114528634Y-135324258D03*
D12*
X110356704Y-139496188D03*
X108306094Y-134475730D03*
D10*
X125200592Y-61761008D03*
D11*
X119888000Y-60337503D03*
D10*
X114575408Y-58913998D03*
D12*
X118360968Y-66036465D03*
X114074858Y-62713926D03*
D14*
X177484386Y-69861517D03*
D15*
X185018608Y-67842729D03*
D13*
X46571198Y-54662082D03*
D14*
X39036976Y-52643294D03*
D12*
X259788412Y-87077540D03*
X265161561Y-87811889D03*
D10*
X258321937Y-83536432D03*
X268947121Y-80689422D03*
D11*
X263634529Y-82112927D03*
D12*
X249927406Y-50275766D03*
X255300555Y-51010115D03*
D10*
X248460931Y-46734658D03*
X259086115Y-43887648D03*
D11*
X253773523Y-45311153D03*
D12*
X175145566Y-65382997D03*
X180518715Y-66117346D03*
D11*
X178991683Y-60418384D03*
D10*
X173679091Y-61841889D03*
X184304275Y-58994879D03*
D11*
X97475132Y-69945252D03*
D10*
X92162540Y-68521747D03*
X102787724Y-71368757D03*
D12*
X95948100Y-75644214D03*
X91661990Y-72321675D03*
D14*
X188167142Y-109730106D03*
D15*
X195701364Y-107711318D03*
D12*
X180021735Y-83798442D03*
X185394884Y-84532791D03*
D11*
X183867852Y-78833829D03*
D10*
X178555260Y-80257334D03*
X189180444Y-77410324D03*
D11*
X75376368Y-78815414D03*
D10*
X80688960Y-80238919D03*
X70063776Y-77391909D03*
D12*
X73849336Y-84514376D03*
X69563226Y-81191837D03*
D10*
X74994279Y-58991022D03*
X85619463Y-61838032D03*
D11*
X80306871Y-60414527D03*
D12*
X78779839Y-66113489D03*
X74493729Y-62790950D03*
X234142875Y-65187974D03*
X239516024Y-65922323D03*
D11*
X237988992Y-60223361D03*
D10*
X232676400Y-61646866D03*
X243301584Y-58799856D03*
X90609972Y-118750299D03*
X99620644Y-125059639D03*
D11*
X95115308Y-121904969D03*
D12*
X91731207Y-126737966D03*
X88839957Y-122149865D03*
D16*
X151523000Y-49896000D03*
D17*
X151823000Y-46866000D03*
D16*
X146673000Y-49896000D03*
D17*
X146373000Y-46866000D03*
D18*
X139308000Y-46736000D03*
D19*
X140208000Y-46736000D03*
D18*
X139308000Y-49276000D03*
D19*
X140208000Y-49276000D03*
D20*
X140208000Y-51816000D03*
D18*
X139308000Y-51816000D03*
X139308000Y-54356000D03*
D19*
X140208000Y-54356000D03*
X140208000Y-56896000D03*
D18*
X139308000Y-56896000D03*
D19*
X140208000Y-59436000D03*
D18*
X139308000Y-59436000D03*
X139308000Y-61976000D03*
D19*
X140208000Y-61976000D03*
D20*
X140208000Y-64516000D03*
D18*
X139308000Y-64516000D03*
D19*
X140208000Y-67056000D03*
D18*
X139308000Y-67056000D03*
D19*
X140208000Y-69596000D03*
D18*
X139308000Y-69596000D03*
D19*
X140208000Y-72136000D03*
D18*
X139308000Y-72136000D03*
X139308000Y-74676000D03*
D19*
X140208000Y-74676000D03*
D20*
X140208000Y-77216000D03*
D18*
X139308000Y-77216000D03*
D19*
X140208000Y-79756000D03*
D18*
X139308000Y-79756000D03*
X139308000Y-82296000D03*
D19*
X140208000Y-82296000D03*
D18*
X139308000Y-84836000D03*
D19*
X140208000Y-84836000D03*
D18*
X139308000Y-87376000D03*
D19*
X140208000Y-87376000D03*
D18*
X139308000Y-89916000D03*
D20*
X140208000Y-89916000D03*
D19*
X140208000Y-92456000D03*
D18*
X139308000Y-92456000D03*
X139308000Y-94996000D03*
D19*
X140208000Y-94996000D03*
X157988000Y-94996000D03*
D18*
X158888000Y-94996000D03*
D19*
X157988000Y-92456000D03*
D18*
X158888000Y-92456000D03*
X158888000Y-89916000D03*
D20*
X157988000Y-89916000D03*
D19*
X157988000Y-87376000D03*
D18*
X158888000Y-87376000D03*
D19*
X157988000Y-84836000D03*
D18*
X158888000Y-84836000D03*
D19*
X157988000Y-82296000D03*
D18*
X158888000Y-82296000D03*
X158888000Y-79756000D03*
D19*
X157988000Y-79756000D03*
D18*
X158888000Y-77216000D03*
D20*
X157988000Y-77216000D03*
D19*
X157988000Y-74676000D03*
D18*
X158888000Y-74676000D03*
D19*
X157988000Y-72136000D03*
D18*
X158888000Y-72136000D03*
D19*
X157988000Y-69596000D03*
D18*
X158888000Y-69596000D03*
X158888000Y-67056000D03*
D19*
X157988000Y-67056000D03*
D18*
X158888000Y-64516000D03*
D20*
X157988000Y-64516000D03*
D19*
X157988000Y-61976000D03*
D18*
X158888000Y-61976000D03*
D19*
X157988000Y-59436000D03*
D18*
X158888000Y-59436000D03*
D19*
X157988000Y-56896000D03*
D18*
X158888000Y-56896000D03*
X158888000Y-54356000D03*
D19*
X157988000Y-54356000D03*
D18*
X158888000Y-51816000D03*
D20*
X157988000Y-51816000D03*
D18*
X158888000Y-49276000D03*
D19*
X157988000Y-49276000D03*
D18*
X158888000Y-46736000D03*
D19*
X157988000Y-46736000D03*
X146558000Y-94766000D03*
D21*
X146558000Y-95666000D03*
D20*
X149098000Y-94766000D03*
D21*
X149098000Y-95666000D03*
X151638000Y-95666000D03*
D19*
X151638000Y-94766000D03*
D14*
X189810643Y-115863735D03*
D15*
X197344865Y-113844947D03*
D14*
X187345391Y-106663291D03*
D15*
X194879613Y-104644503D03*
D12*
X184214892Y-141436800D03*
X189235350Y-139386190D03*
D10*
X188952507Y-131325173D03*
X181174333Y-139103347D03*
D11*
X185063420Y-135214260D03*
D10*
X109590572Y-77300326D03*
X120215756Y-80147336D03*
D11*
X114903164Y-78723831D03*
D12*
X113376132Y-84422793D03*
X109090022Y-81100254D03*
X192464931Y-56633534D03*
X197838080Y-57367883D03*
D10*
X190998456Y-53092426D03*
X201623640Y-50245416D03*
D11*
X196311048Y-51668921D03*
D10*
X115285253Y-98548223D03*
D11*
X109972661Y-97124718D03*
D10*
X104660069Y-95701213D03*
D12*
X108445629Y-102823680D03*
X104159519Y-99501141D03*
D14*
X204719090Y-97899271D03*
D15*
X212253312Y-95880483D03*
D14*
X241520864Y-88038265D03*
D15*
X249055086Y-86019477D03*
D13*
X67165491Y-51141051D03*
D14*
X59631269Y-49122263D03*
D13*
X109022925Y-115737627D03*
D14*
X101488703Y-113718839D03*
D12*
X254857909Y-68676653D03*
X260231058Y-69411002D03*
D10*
X253391434Y-65135545D03*
D11*
X258704026Y-63712040D03*
D10*
X264016618Y-62288535D03*
X97147376Y-50135418D03*
D11*
X102459968Y-51558923D03*
D10*
X107772560Y-52982428D03*
D12*
X100932936Y-57257885D03*
X96646826Y-53935346D03*
D14*
X231545155Y-51267226D03*
D15*
X239079377Y-49248438D03*
D12*
X202271604Y-93449867D03*
X207644753Y-94184216D03*
D10*
X200805129Y-89908759D03*
D11*
X206117721Y-88485254D03*
D10*
X211430313Y-87061749D03*
D12*
X222607981Y-120066371D03*
X228027019Y-119856526D03*
D10*
X220548878Y-116833710D03*
X230518264Y-112184910D03*
D11*
X225533571Y-114509310D03*
D14*
X182414889Y-88262404D03*
D15*
X189949111Y-86243616D03*
D14*
X221887352Y-88368546D03*
D15*
X229421574Y-86349758D03*
D14*
X262181565Y-91541502D03*
D15*
X269715787Y-89522714D03*
D14*
X252320559Y-54739728D03*
D15*
X259854781Y-52720940D03*
D12*
X209578859Y-47117368D03*
X214952008Y-47851717D03*
D10*
X208112384Y-43576260D03*
X218737568Y-40729250D03*
D11*
X213424976Y-42152755D03*
D14*
X212026346Y-51566772D03*
D15*
X219560568Y-49547984D03*
D12*
X239073378Y-83588861D03*
X244446527Y-84323210D03*
D10*
X248232087Y-77200743D03*
X237606903Y-80047753D03*
D11*
X242919495Y-78624248D03*
D13*
X109844675Y-112670813D03*
D14*
X102310453Y-110652025D03*
D13*
X81868501Y-69872219D03*
D14*
X74334279Y-67853431D03*
X188988892Y-112796920D03*
D15*
X196523114Y-110778132D03*
D13*
X110658208Y-109634666D03*
D14*
X103123986Y-107615878D03*
D13*
X121340964Y-69766078D03*
D14*
X113806742Y-67747290D03*
D11*
X60673358Y-60084246D03*
D10*
X65985950Y-61507751D03*
X55360766Y-58660741D03*
D12*
X59146326Y-65783208D03*
X54860216Y-62460669D03*
X214509362Y-65518255D03*
X219882511Y-66252604D03*
D10*
X223668071Y-59130137D03*
D11*
X218355479Y-60553642D03*
D10*
X213042887Y-61977147D03*
X69073789Y-112294908D03*
X79043175Y-116943708D03*
D11*
X74058482Y-114619308D03*
D12*
X71565034Y-119966524D03*
X67920994Y-115950186D03*
M02*
