G04 #@! TF.GenerationSoftware,KiCad,Pcbnew,(6.0.4)*
G04 #@! TF.CreationDate,2022-04-18T22:38:53-04:00*
G04 #@! TF.ProjectId,crowboard,63726f77-626f-4617-9264-2e6b69636164,rev?*
G04 #@! TF.SameCoordinates,Original*
G04 #@! TF.FileFunction,Paste,Bot*
G04 #@! TF.FilePolarity,Positive*
%FSLAX46Y46*%
G04 Gerber Fmt 4.6, Leading zero omitted, Abs format (unit mm)*
G04 Created by KiCad (PCBNEW (6.0.4)) date 2022-04-18 22:38:53*
%MOMM*%
%LPD*%
G01*
G04 APERTURE LIST*
G04 Aperture macros list*
%AMRotRect*
0 Rectangle, with rotation*
0 The origin of the aperture is its center*
0 $1 length*
0 $2 width*
0 $3 Rotation angle, in degrees counterclockwise*
0 Add horizontal line*
21,1,$1,$2,0,0,$3*%
G04 Aperture macros list end*
%ADD10RotRect,1.600000X1.200000X345.000000*%
%ADD11RotRect,1.600000X1.200000X15.000000*%
G04 APERTURE END LIST*
D10*
X39159473Y-72398128D03*
X36454881Y-71673434D03*
D11*
X197272900Y-60450450D03*
X199977492Y-59725756D03*
X259665877Y-72493568D03*
X262370469Y-71768874D03*
D10*
X101552450Y-60355010D03*
X98847858Y-59630316D03*
X113995646Y-87519918D03*
X111291054Y-86795224D03*
X109065144Y-105920805D03*
X106360552Y-105196111D03*
D11*
X202203402Y-78851337D03*
X204907994Y-78126643D03*
X239005176Y-68990331D03*
X241709768Y-68265637D03*
D10*
X96621947Y-78755897D03*
X93917355Y-78031203D03*
X74523183Y-87626059D03*
X71818591Y-86901365D03*
D11*
X219371664Y-69320612D03*
X222076256Y-68595918D03*
D10*
X59820173Y-68894891D03*
X57115581Y-68170197D03*
X54889671Y-87295778D03*
X52185079Y-86571084D03*
X91691445Y-97156784D03*
X88986853Y-96432090D03*
X84269485Y-50793551D03*
X81564893Y-50068857D03*
X34228970Y-90799015D03*
X31524378Y-90074321D03*
D11*
X179899201Y-69214470D03*
X182603793Y-68489776D03*
D10*
X44156383Y-54015035D03*
X41451791Y-53290341D03*
D11*
X190581957Y-109083059D03*
X193286549Y-108358365D03*
X192225458Y-115216688D03*
X194930050Y-114491994D03*
X189760206Y-106016244D03*
X192464798Y-105291550D03*
X207133905Y-97252224D03*
X209838497Y-96527530D03*
X243935679Y-87391218D03*
X246640271Y-86666524D03*
D10*
X64750676Y-50494004D03*
X62046084Y-49769310D03*
X106608110Y-115090580D03*
X103903518Y-114365886D03*
D11*
X233959970Y-50620179D03*
X236664562Y-49895485D03*
X184829704Y-87615357D03*
X187534296Y-86890663D03*
X224302167Y-87721499D03*
X227006759Y-86996805D03*
X264596380Y-90894455D03*
X267300972Y-90169761D03*
X254735374Y-54092681D03*
X257439966Y-53367987D03*
X214441161Y-50919725D03*
X217145753Y-50195031D03*
D10*
X107429860Y-112023766D03*
X104725268Y-111299072D03*
X79453686Y-69225172D03*
X76749094Y-68500478D03*
D11*
X191403707Y-112149873D03*
X194108299Y-111425179D03*
D10*
X108243393Y-108987619D03*
X105538801Y-108262925D03*
X118926149Y-69119031D03*
X116221557Y-68394337D03*
M02*
