M48
; DRILL file {KiCad (6.0.4)} date Mon Apr 18 22:39:14 2022
; FORMAT={-:-/ absolute / metric / decimal}
; #@! TF.CreationDate,2022-04-18T22:39:14-04:00
; #@! TF.GenerationSoftware,Kicad,Pcbnew,(6.0.4)
; #@! TF.FileFunction,Plated,1,2,PTH
FMAT,2
METRIC
; #@! TA.AperFunction,Plated,PTH,ViaDrill
T1C0.400
; #@! TA.AperFunction,Plated,PTH,ComponentDrill
T2C1.000
; #@! TA.AperFunction,Plated,PTH,ComponentDrill
T3C1.020
; #@! TA.AperFunction,Plated,PTH,ComponentDrill
T4C1.200
%
G90
G05
T1
X124.225Y-81.125
X161.755Y-92.43
X174.585Y-99.225
X174.875Y-87.375
T2
X29.11Y-89.427
X34.04Y-71.026
X36.644Y-91.446
X39.037Y-52.643
X41.574Y-73.045
X46.571Y-54.662
X49.77Y-85.924
X54.701Y-67.523
X57.304Y-87.943
X59.631Y-49.122
X62.235Y-69.542
X67.165Y-51.141
X69.404Y-86.254
X74.334Y-67.853
X76.938Y-88.273
X79.15Y-49.422
X81.869Y-69.872
X86.572Y-95.785
X86.684Y-51.441
X91.503Y-77.384
X94.106Y-97.804
X96.433Y-58.983
X99.037Y-79.403
X101.489Y-113.719
X102.31Y-110.652
X103.124Y-107.616
X103.946Y-104.549
X103.967Y-61.002
X108.876Y-86.148
X109.023Y-115.738
X109.845Y-112.671
X110.658Y-109.635
X111.48Y-106.568
X113.807Y-67.747
X116.41Y-88.167
X121.341Y-69.766
X177.484Y-69.862
X182.415Y-88.262
X185.019Y-67.843
X187.345Y-106.663
X188.167Y-109.73
X188.989Y-112.797
X189.811Y-115.864
X189.949Y-86.244
X194.858Y-61.097
X194.88Y-104.645
X195.701Y-107.711
X196.523Y-110.778
X197.345Y-113.845
X199.789Y-79.498
X202.392Y-59.079
X204.719Y-97.899
X207.323Y-77.48
X212.026Y-51.567
X212.253Y-95.88
X216.957Y-69.968
X219.561Y-49.548
X221.887Y-88.369
X224.491Y-67.949
X229.422Y-86.35
X231.545Y-51.267
X236.59Y-69.637
X239.079Y-49.248
X241.521Y-88.038
X244.125Y-67.619
X249.055Y-86.019
X252.321Y-54.74
X257.251Y-73.141
X259.855Y-52.721
X262.182Y-91.542
X264.785Y-71.122
X269.716Y-89.523
T3
X140.208Y-46.736
X140.208Y-49.276
X140.208Y-51.816
X140.208Y-54.356
X140.208Y-56.896
X140.208Y-59.436
X140.208Y-61.976
X140.208Y-64.516
X140.208Y-67.056
X140.208Y-69.596
X140.208Y-72.136
X140.208Y-74.676
X140.208Y-77.216
X140.208Y-79.756
X140.208Y-82.296
X140.208Y-84.836
X140.208Y-87.376
X140.208Y-89.916
X140.208Y-92.456
X140.208Y-94.996
X146.558Y-94.766
X149.098Y-94.766
X151.638Y-94.766
X157.988Y-46.736
X157.988Y-49.276
X157.988Y-51.816
X157.988Y-54.356
X157.988Y-56.896
X157.988Y-59.436
X157.988Y-61.976
X157.988Y-64.516
X157.988Y-67.056
X157.988Y-69.596
X157.988Y-72.136
X157.988Y-74.676
X157.988Y-77.216
X157.988Y-79.756
X157.988Y-82.296
X157.988Y-84.836
X157.988Y-87.376
X157.988Y-89.916
X157.988Y-92.456
X157.988Y-94.996
T4
X29.323Y-84.379
X33.609Y-87.702
X34.254Y-65.978
X38.54Y-69.301
X39.184Y-47.578
X43.47Y-50.9
X49.93Y-80.862
X54.216Y-84.184
X54.86Y-62.461
X59.146Y-65.783
X59.791Y-44.06
X64.077Y-47.382
X67.921Y-115.95
X69.563Y-81.192
X71.565Y-119.967
X73.849Y-84.514
X74.494Y-62.791
X78.78Y-66.113
X79.424Y-44.39
X83.71Y-47.713
X86.731Y-90.723
X88.84Y-122.15
X91.018Y-94.045
X91.662Y-72.322
X91.731Y-126.738
X95.948Y-75.644
X96.647Y-53.935
X100.933Y-57.258
X104.16Y-99.501
X108.306Y-134.476
X108.446Y-102.824
X109.09Y-81.1
X110.357Y-139.496
X113.376Y-84.423
X114.075Y-62.714
X118.361Y-66.036
X175.146Y-65.383
X180.022Y-83.798
X180.519Y-66.117
X184.215Y-141.437
X184.952Y-102.199
X185.395Y-84.533
X189.235Y-139.386
X190.325Y-102.934
X192.465Y-56.634
X197.341Y-75.049
X197.838Y-57.368
X202.272Y-93.45
X202.561Y-127.776
X202.714Y-75.783
X207.645Y-94.184
X207.861Y-126.628
X209.579Y-47.117
X214.509Y-65.518
X214.952Y-47.852
X219.44Y-83.919
X219.883Y-66.253
X222.608Y-120.066
X224.813Y-84.653
X228.027Y-119.857
X229.212Y-46.787
X234.143Y-65.188
X234.586Y-47.521
X239.073Y-83.589
X239.516Y-65.922
X244.447Y-84.323
X249.927Y-50.276
X254.858Y-68.677
X255.301Y-51.01
X259.788Y-87.078
X260.231Y-69.411
X265.162Y-87.812
T0
M30
