  0
SECTION
  2
HEADER
  9
$ANGBASE
  50
0.0
  9
$ANGDIR
  70
1
  9
$MEASUREMENT
  70
1
  0
ENDSEC
  0
SECTION
  2
TABLES
  0
TABLE
  2
LTYPE
  70
4
  0
LTYPE
  5
40F
  2
CONTINUOUS
  70
0
  3
Solid line
  72
65
  73
0
  40
0.0
  0
LTYPE
  5
410
  2
DASHDOT
 70
0
  3
Dash Dot ____ _ ____ _
 72
65
 73
4
 40
2.0
 49
1.25
 49
-0.25
 49
0.25
 49
-0.25
  0
LTYPE
  5
411
  2
DASHED
 70
0
  3
Dashed __ __ __ __ __
 72
65
 73
2
 40
0.75
 49
0.5
 49
-0.25
  0
LTYPE
  5
43B
  2
DOTTED
 70
0
  3
Dotted .  .  .  .
 72
65
 73
2
 40
0.2
 49
0.0
 49
-0.2
  0
ENDTAB
  0
TABLE
  2
STYLE
  70
4
  0
STYLE
  2
KICAD
  70
0
  40
0
  41
1
  42
1
  50
0
  71
0
  3
isocp.shx
  0
STYLE
  2
KICADB
  70
0
  40
0
  41
1
  42
1
  50
0
  71
0
  3
isocp.shx
  0
STYLE
  2
KICADI
  70
0
  40
0
  41
1
  42
1
  50
15
  71
0
  3
isocp.shx
  0
STYLE
  2
KICADBI
  70
0
  40
0
  41
1
  42
1
  50
15
  71
0
  3
isocp.shx
  0
ENDTAB
  0
TABLE
  2
LAYER
  70
1
  0
LAYER
  2
BLACK
  70
0
  62
7
  6
CONTINUOUS
  0
ENDTAB
  0
ENDSEC
  0
SECTION
  2
ENTITIES
0
LINE
8
BLACK
6
CONTINUOUS
10
220.156
20
-30.4292
11
220.175
21
-30.4316
0
LINE
8
BLACK
6
CONTINUOUS
10
220.175
20
-30.4316
11
220.175
21
-30.4317
0
LINE
8
BLACK
6
CONTINUOUS
10
220.175
20
-30.4317
11
220.175
21
-30.4317
0
LINE
8
BLACK
6
CONTINUOUS
10
220.175
20
-30.4317
11
220.187
21
-30.4467
0
LINE
8
BLACK
6
CONTINUOUS
10
220.187
20
-30.4467
11
220.198
21
-30.4619
0
LINE
8
BLACK
6
CONTINUOUS
10
220.198
20
-30.4619
11
221.435
21
-35.0139
0
LINE
8
BLACK
6
CONTINUOUS
10
221.435
20
-35.0139
11
239.787
21
-30.1267
0
LINE
8
BLACK
6
CONTINUOUS
10
239.787
20
-30.1267
11
239.806
21
-30.1292
0
LINE
8
BLACK
6
CONTINUOUS
10
239.806
20
-30.1292
11
239.825
21
-30.1317
0
LINE
8
BLACK
6
CONTINUOUS
10
239.825
20
-30.1317
11
239.825
21
-30.1317
0
LINE
8
BLACK
6
CONTINUOUS
10
239.825
20
-30.1317
11
239.825
21
-30.1317
0
LINE
8
BLACK
6
CONTINUOUS
10
239.825
20
-30.1317
11
239.837
21
-30.1469
0
LINE
8
BLACK
6
CONTINUOUS
10
239.837
20
-30.1469
11
239.848
21
-30.1621
0
LINE
8
BLACK
6
CONTINUOUS
10
239.848
20
-30.1621
11
242.085
21
-38.5138
0
LINE
8
BLACK
6
CONTINUOUS
10
242.085
20
-38.5138
11
260.512
21
-33.6017
0
LINE
8
BLACK
6
CONTINUOUS
10
260.512
20
-33.6017
11
260.531
21
-33.6042
0
LINE
8
BLACK
6
CONTINUOUS
10
260.531
20
-33.6042
11
260.55
21
-33.6067
0
LINE
8
BLACK
6
CONTINUOUS
10
260.55
20
-33.6067
11
260.55
21
-33.6067
0
LINE
8
BLACK
6
CONTINUOUS
10
260.55
20
-33.6067
11
260.55
21
-33.6067
0
LINE
8
BLACK
6
CONTINUOUS
10
260.55
20
-33.6067
11
260.562
21
-33.622
0
LINE
8
BLACK
6
CONTINUOUS
10
260.562
20
-33.622
11
260.573
21
-33.6371
0
LINE
8
BLACK
6
CONTINUOUS
10
260.573
20
-33.6371
11
275.348
21
-88.8371
0
LINE
8
BLACK
6
CONTINUOUS
10
275.348
20
-88.8371
11
275.347
21
-88.8462
0
LINE
8
BLACK
6
CONTINUOUS
10
275.347
20
-88.8462
11
275.35
21
-88.855
0
LINE
8
BLACK
6
CONTINUOUS
10
275.35
20
-88.855
11
275.345
21
-88.8644
0
LINE
8
BLACK
6
CONTINUOUS
10
275.345
20
-88.8644
11
275.343
21
-88.875
0
LINE
8
BLACK
6
CONTINUOUS
10
275.343
20
-88.875
11
275.336
21
-88.8806
0
LINE
8
BLACK
6
CONTINUOUS
10
275.336
20
-88.8806
11
275.332
21
-88.8887
0
LINE
8
BLACK
6
CONTINUOUS
10
275.332
20
-88.8887
11
238.232
21
-119.164
0
LINE
8
BLACK
6
CONTINUOUS
10
238.232
20
-119.164
11
238.225
21
-119.166
0
LINE
8
BLACK
6
CONTINUOUS
10
238.225
20
-119.166
11
238.221
21
-119.17
0
LINE
8
BLACK
6
CONTINUOUS
10
238.221
20
-119.17
11
220.946
21
-127.22
0
LINE
8
BLACK
6
CONTINUOUS
10
220.946
20
-127.22
11
220.945
21
-127.22
0
LINE
8
BLACK
6
CONTINUOUS
10
220.945
20
-127.22
11
220.944
21
-127.221
0
LINE
8
BLACK
6
CONTINUOUS
10
220.944
20
-127.221
11
202.151
21
-135.118
0
LINE
8
BLACK
6
CONTINUOUS
10
202.151
20
-135.118
11
185.106
21
-148.714
0
LINE
8
BLACK
6
CONTINUOUS
10
185.106
20
-148.714
11
185.09
21
-148.719
0
LINE
8
BLACK
6
CONTINUOUS
10
185.09
20
-148.719
11
185.075
21
-148.725
0
LINE
8
BLACK
6
CONTINUOUS
10
185.075
20
-148.725
11
185.072
21
-148.724
0
LINE
8
BLACK
6
CONTINUOUS
10
185.072
20
-148.724
11
185.069
21
-148.725
0
LINE
8
BLACK
6
CONTINUOUS
10
185.069
20
-148.725
11
185.055
21
-148.717
0
LINE
8
BLACK
6
CONTINUOUS
10
185.055
20
-148.717
11
185.04
21
-148.71
0
LINE
8
BLACK
6
CONTINUOUS
10
185.04
20
-148.71
11
171.579
21
-135.275
0
LINE
8
BLACK
6
CONTINUOUS
10
171.579
20
-135.275
11
128.021
21
-135.375
0
LINE
8
BLACK
6
CONTINUOUS
10
128.021
20
-135.375
11
114.56
21
-148.835
0
LINE
8
BLACK
6
CONTINUOUS
10
114.56
20
-148.835
11
114.545
21
-148.842
0
LINE
8
BLACK
6
CONTINUOUS
10
114.545
20
-148.842
11
114.531
21
-148.85
0
LINE
8
BLACK
6
CONTINUOUS
10
114.531
20
-148.85
11
114.528
21
-148.849
0
LINE
8
BLACK
6
CONTINUOUS
10
114.528
20
-148.849
11
114.525
21
-148.85
0
LINE
8
BLACK
6
CONTINUOUS
10
114.525
20
-148.85
11
114.51
21
-148.844
0
LINE
8
BLACK
6
CONTINUOUS
10
114.51
20
-148.844
11
114.494
21
-148.839
0
LINE
8
BLACK
6
CONTINUOUS
10
114.494
20
-148.839
11
97.4242
21
-135.218
0
LINE
8
BLACK
6
CONTINUOUS
10
97.4242
20
-135.218
11
78.6306
21
-127.321
0
LINE
8
BLACK
6
CONTINUOUS
10
78.6306
20
-127.321
11
78.6299
21
-127.32
0
LINE
8
BLACK
6
CONTINUOUS
10
78.6299
20
-127.32
11
78.6289
21
-127.32
0
LINE
8
BLACK
6
CONTINUOUS
10
78.6289
20
-127.32
11
61.3789
21
-119.27
0
LINE
8
BLACK
6
CONTINUOUS
10
61.3789
20
-119.27
11
61.3747
21
-119.266
0
LINE
8
BLACK
6
CONTINUOUS
10
61.3747
20
-119.266
11
61.3687
21
-119.264
0
LINE
8
BLACK
6
CONTINUOUS
10
61.3687
20
-119.264
11
23.4187
21
-88.789
0
LINE
8
BLACK
6
CONTINUOUS
10
23.4187
20
-88.789
11
23.4142
21
-88.7807
0
LINE
8
BLACK
6
CONTINUOUS
10
23.4142
20
-88.7807
11
23.4067
21
-88.775
0
LINE
8
BLACK
6
CONTINUOUS
10
23.4067
20
-88.775
11
23.4053
21
-88.7646
0
LINE
8
BLACK
6
CONTINUOUS
10
23.4053
20
-88.7646
11
23.4003
21
-88.7554
0
LINE
8
BLACK
6
CONTINUOUS
10
23.4003
20
-88.7554
11
23.4029
21
-88.7464
0
LINE
8
BLACK
6
CONTINUOUS
10
23.4029
20
-88.7464
11
23.4017
21
-88.7371
0
LINE
8
BLACK
6
CONTINUOUS
10
23.4017
20
-88.7371
11
38.2017
21
-33.5121
0
LINE
8
BLACK
6
CONTINUOUS
10
38.2017
20
-33.5121
11
38.225
21
-33.4817
0
LINE
8
BLACK
6
CONTINUOUS
10
38.225
20
-33.4817
11
38.225
21
-33.4817
0
LINE
8
BLACK
6
CONTINUOUS
10
38.225
20
-33.4817
11
38.2415
21
-33.4795
0
LINE
8
BLACK
6
CONTINUOUS
10
38.2415
20
-33.4795
11
38.2629
21
-33.4767
0
LINE
8
BLACK
6
CONTINUOUS
10
38.2629
20
-33.4767
11
38.2629
21
-33.4767
0
LINE
8
BLACK
6
CONTINUOUS
10
38.2629
20
-33.4767
11
56.5896
21
-38.3887
0
LINE
8
BLACK
6
CONTINUOUS
10
56.5896
20
-38.3887
11
58.8267
21
-30.0121
0
LINE
8
BLACK
6
CONTINUOUS
10
58.8267
20
-30.0121
11
58.8267
21
-30.0121
0
LINE
8
BLACK
6
CONTINUOUS
10
58.8267
20
-30.0121
11
58.8267
21
-30.0121
0
LINE
8
BLACK
6
CONTINUOUS
10
58.8267
20
-30.0121
11
58.8382
21
-29.997
0
LINE
8
BLACK
6
CONTINUOUS
10
58.8382
20
-29.997
11
58.85
21
-29.9817
0
LINE
8
BLACK
6
CONTINUOUS
10
58.85
20
-29.9817
11
58.85
21
-29.9817
0
LINE
8
BLACK
6
CONTINUOUS
10
58.85
20
-29.9817
11
58.85
21
-29.9817
0
LINE
8
BLACK
6
CONTINUOUS
10
58.85
20
-29.9817
11
58.869
21
-29.9792
0
LINE
8
BLACK
6
CONTINUOUS
10
58.869
20
-29.9792
11
58.8879
21
-29.9767
0
LINE
8
BLACK
6
CONTINUOUS
10
58.8879
20
-29.9767
11
58.8879
21
-29.9767
0
LINE
8
BLACK
6
CONTINUOUS
10
58.8879
20
-29.9767
11
58.8879
21
-29.9767
0
LINE
8
BLACK
6
CONTINUOUS
10
58.8879
20
-29.9767
11
77.2148
21
-34.8888
0
LINE
8
BLACK
6
CONTINUOUS
10
77.2148
20
-34.8888
11
78.4517
21
-30.3369
0
LINE
8
BLACK
6
CONTINUOUS
10
78.4517
20
-30.3369
11
78.4634
21
-30.3218
0
LINE
8
BLACK
6
CONTINUOUS
10
78.4634
20
-30.3218
11
78.475
21
-30.3067
0
LINE
8
BLACK
6
CONTINUOUS
10
78.475
20
-30.3067
11
78.4751
21
-30.3067
0
LINE
8
BLACK
6
CONTINUOUS
10
78.4751
20
-30.3067
11
78.4752
21
-30.3066
0
LINE
8
BLACK
6
CONTINUOUS
10
78.4752
20
-30.3066
11
78.494
21
-30.3042
0
LINE
8
BLACK
6
CONTINUOUS
10
78.494
20
-30.3042
11
78.5129
21
-30.3017
0
LINE
8
BLACK
6
CONTINUOUS
10
78.5129
20
-30.3017
11
96.9129
21
-35.2267
0
LINE
8
BLACK
6
CONTINUOUS
10
96.9129
20
-35.2267
11
96.9281
21
-35.2383
0
LINE
8
BLACK
6
CONTINUOUS
10
96.9281
20
-35.2383
11
96.9432
21
-35.2499
0
LINE
8
BLACK
6
CONTINUOUS
10
96.9432
20
-35.2499
11
96.9432
21
-35.2499
0
LINE
8
BLACK
6
CONTINUOUS
10
96.9432
20
-35.2499
11
96.9433
21
-35.25
0
LINE
8
BLACK
6
CONTINUOUS
10
96.9433
20
-35.25
11
96.9458
21
-35.2689
0
LINE
8
BLACK
6
CONTINUOUS
10
96.9458
20
-35.2689
11
96.9483
21
-35.2878
0
LINE
8
BLACK
6
CONTINUOUS
10
96.9483
20
-35.2878
11
95.7361
21
-39.8646
0
LINE
8
BLACK
6
CONTINUOUS
10
95.7361
20
-39.8646
11
114.138
21
-44.7767
0
LINE
8
BLACK
6
CONTINUOUS
10
114.138
20
-44.7767
11
114.138
21
-44.7767
0
LINE
8
BLACK
6
CONTINUOUS
10
114.138
20
-44.7767
11
114.138
21
-44.7767
0
LINE
8
BLACK
6
CONTINUOUS
10
114.138
20
-44.7767
11
114.153
21
-44.7883
0
LINE
8
BLACK
6
CONTINUOUS
10
114.153
20
-44.7883
11
114.168
21
-44.8
0
LINE
8
BLACK
6
CONTINUOUS
10
114.168
20
-44.8
11
114.168
21
-44.8
0
LINE
8
BLACK
6
CONTINUOUS
10
114.168
20
-44.8
11
114.168
21
-44.8
0
LINE
8
BLACK
6
CONTINUOUS
10
114.168
20
-44.8
11
114.171
21
-44.8186
0
LINE
8
BLACK
6
CONTINUOUS
10
114.171
20
-44.8186
11
114.173
21
-44.8379
0
LINE
8
BLACK
6
CONTINUOUS
10
114.173
20
-44.8379
11
114.173
21
-44.8379
0
LINE
8
BLACK
6
CONTINUOUS
10
114.173
20
-44.8379
11
114.173
21
-44.8379
0
LINE
8
BLACK
6
CONTINUOUS
10
114.173
20
-44.8379
11
113.161
21
-48.6147
0
LINE
8
BLACK
6
CONTINUOUS
10
113.161
20
-48.6147
11
131.53
21
-53.5429
0
LINE
8
BLACK
6
CONTINUOUS
10
131.53
20
-53.5429
11
138.01
21
-44.8451
0
LINE
8
BLACK
6
CONTINUOUS
10
138.01
20
-44.8451
11
138.013
21
-44.8432
0
LINE
8
BLACK
6
CONTINUOUS
10
138.013
20
-44.8432
11
138.015
21
-44.8396
0
LINE
8
BLACK
6
CONTINUOUS
10
138.015
20
-44.8396
11
138.029
21
-44.8336
0
LINE
8
BLACK
6
CONTINUOUS
10
138.029
20
-44.8336
11
138.043
21
-44.8255
0
LINE
8
BLACK
6
CONTINUOUS
10
138.043
20
-44.8255
11
138.046
21
-44.8265
0
LINE
8
BLACK
6
CONTINUOUS
10
138.046
20
-44.8265
11
138.05
21
-44.825
0
LINE
8
BLACK
6
CONTINUOUS
10
138.05
20
-44.825
11
160.175
21
-44.825
0
LINE
8
BLACK
6
CONTINUOUS
10
160.175
20
-44.825
11
160.178
21
-44.8261
0
LINE
8
BLACK
6
CONTINUOUS
10
160.178
20
-44.8261
11
160.18
21
-44.8253
0
LINE
8
BLACK
6
CONTINUOUS
10
160.18
20
-44.8253
11
160.195
21
-44.8332
0
LINE
8
BLACK
6
CONTINUOUS
10
160.195
20
-44.8332
11
160.21
21
-44.8396
0
LINE
8
BLACK
6
CONTINUOUS
10
160.21
20
-44.8396
11
160.211
21
-44.8422
0
LINE
8
BLACK
6
CONTINUOUS
10
160.211
20
-44.8422
11
160.214
21
-44.8435
0
LINE
8
BLACK
6
CONTINUOUS
10
160.214
20
-44.8435
11
167.343
21
-53.6433
0
LINE
8
BLACK
6
CONTINUOUS
10
167.343
20
-53.6433
11
185.614
21
-48.7396
0
LINE
8
BLACK
6
CONTINUOUS
10
185.614
20
-48.7396
11
184.602
21
-44.9379
0
LINE
8
BLACK
6
CONTINUOUS
10
184.602
20
-44.9379
11
184.604
21
-44.9189
0
LINE
8
BLACK
6
CONTINUOUS
10
184.604
20
-44.9189
11
184.607
21
-44.9
0
LINE
8
BLACK
6
CONTINUOUS
10
184.607
20
-44.9
11
184.607
21
-44.9
0
LINE
8
BLACK
6
CONTINUOUS
10
184.607
20
-44.9
11
184.607
21
-44.8999
0
LINE
8
BLACK
6
CONTINUOUS
10
184.607
20
-44.8999
11
184.622
21
-44.8882
0
LINE
8
BLACK
6
CONTINUOUS
10
184.622
20
-44.8882
11
184.637
21
-44.8767
0
LINE
8
BLACK
6
CONTINUOUS
10
184.637
20
-44.8767
11
202.914
21
-39.9896
0
LINE
8
BLACK
6
CONTINUOUS
10
202.914
20
-39.9896
11
201.702
21
-35.4379
0
LINE
8
BLACK
6
CONTINUOUS
10
201.702
20
-35.4379
11
201.704
21
-35.419
0
LINE
8
BLACK
6
CONTINUOUS
10
201.704
20
-35.419
11
201.707
21
-35.4
0
LINE
8
BLACK
6
CONTINUOUS
10
201.707
20
-35.4
11
201.707
21
-35.4
0
LINE
8
BLACK
6
CONTINUOUS
10
201.707
20
-35.4
11
201.707
21
-35.3999
0
LINE
8
BLACK
6
CONTINUOUS
10
201.707
20
-35.3999
11
201.722
21
-35.3883
0
LINE
8
BLACK
6
CONTINUOUS
10
201.722
20
-35.3883
11
201.737
21
-35.3767
0
LINE
8
BLACK
6
CONTINUOUS
10
201.737
20
-35.3767
11
201.737
21
-35.3767
0
LINE
8
BLACK
6
CONTINUOUS
10
201.737
20
-35.3767
11
220.137
21
-30.4267
0
LINE
8
BLACK
6
CONTINUOUS
10
220.137
20
-30.4267
11
220.156
21
-30.4292
0
LINE
8
BLACK
6
CONTINUOUS
10
56.6733
20
-38.4629
11
56.6733
21
-38.4629
0
LINE
8
BLACK
6
CONTINUOUS
10
56.6733
20
-38.4629
11
56.6733
21
-38.4629
0
LINE
8
BLACK
6
CONTINUOUS
10
56.6733
20
-38.4629
11
56.6618
21
-38.478
0
LINE
8
BLACK
6
CONTINUOUS
10
56.6618
20
-38.478
11
56.65
21
-38.4933
0
LINE
8
BLACK
6
CONTINUOUS
10
56.65
20
-38.4933
11
56.65
21
-38.4933
0
LINE
8
BLACK
6
CONTINUOUS
10
56.65
20
-38.4933
11
56.65
21
-38.4933
0
LINE
8
BLACK
6
CONTINUOUS
10
56.65
20
-38.4933
11
56.631
21
-38.4958
0
LINE
8
BLACK
6
CONTINUOUS
10
56.631
20
-38.4958
11
56.6121
21
-38.4983
0
LINE
8
BLACK
6
CONTINUOUS
10
56.6121
20
-38.4983
11
56.6121
21
-38.4983
0
LINE
8
BLACK
6
CONTINUOUS
10
56.6121
20
-38.4983
11
56.6121
21
-38.4983
0
LINE
8
BLACK
6
CONTINUOUS
10
56.6121
20
-38.4983
11
38.2854
21
-33.5862
0
LINE
8
BLACK
6
CONTINUOUS
10
38.2854
20
-33.5862
11
23.5067
21
-88.7314
0
LINE
8
BLACK
6
CONTINUOUS
10
23.5067
20
-88.7314
11
61.4266
21
-119.182
0
LINE
8
BLACK
6
CONTINUOUS
10
61.4266
20
-119.182
11
78.6702
21
-127.229
0
LINE
8
BLACK
6
CONTINUOUS
10
78.6702
20
-127.229
11
97.4694
21
-135.129
0
LINE
8
BLACK
6
CONTINUOUS
10
97.4694
20
-135.129
11
97.4744
21
-135.134
0
LINE
8
BLACK
6
CONTINUOUS
10
97.4744
20
-135.134
11
97.4812
21
-135.136
0
LINE
8
BLACK
6
CONTINUOUS
10
97.4812
20
-135.136
11
114.521
21
-148.733
0
LINE
8
BLACK
6
CONTINUOUS
10
114.521
20
-148.733
11
127.965
21
-135.29
0
LINE
8
BLACK
6
CONTINUOUS
10
127.965
20
-135.29
11
127.982
21
-135.282
0
LINE
8
BLACK
6
CONTINUOUS
10
127.982
20
-135.282
11
128
21
-135.275
0
LINE
8
BLACK
6
CONTINUOUS
10
128
20
-135.275
11
171.6
21
-135.175
0
LINE
8
BLACK
6
CONTINUOUS
10
171.6
20
-135.175
11
171.6
21
-135.175
0
LINE
8
BLACK
6
CONTINUOUS
10
171.6
20
-135.175
11
171.6
21
-135.175
0
LINE
8
BLACK
6
CONTINUOUS
10
171.6
20
-135.175
11
171.617
21
-135.182
0
LINE
8
BLACK
6
CONTINUOUS
10
171.617
20
-135.182
11
171.635
21
-135.19
0
LINE
8
BLACK
6
CONTINUOUS
10
171.635
20
-135.19
11
171.635
21
-135.19
0
LINE
8
BLACK
6
CONTINUOUS
10
171.635
20
-135.19
11
171.635
21
-135.19
0
LINE
8
BLACK
6
CONTINUOUS
10
171.635
20
-135.19
11
185.079
21
-148.608
0
LINE
8
BLACK
6
CONTINUOUS
10
185.079
20
-148.608
11
202.094
21
-135.036
0
LINE
8
BLACK
6
CONTINUOUS
10
202.094
20
-135.036
11
202.101
21
-135.034
0
LINE
8
BLACK
6
CONTINUOUS
10
202.101
20
-135.034
11
202.106
21
-135.029
0
LINE
8
BLACK
6
CONTINUOUS
10
202.106
20
-135.029
11
220.905
21
-127.129
0
LINE
8
BLACK
6
CONTINUOUS
10
220.905
20
-127.129
11
238.173
21
-119.082
0
LINE
8
BLACK
6
CONTINUOUS
10
238.173
20
-119.082
11
275.243
21
-88.8317
0
LINE
8
BLACK
6
CONTINUOUS
10
275.243
20
-88.8317
11
260.49
21
-33.7112
0
LINE
8
BLACK
6
CONTINUOUS
10
260.49
20
-33.7112
11
242.063
21
-38.6233
0
LINE
8
BLACK
6
CONTINUOUS
10
242.063
20
-38.6233
11
242.063
21
-38.6233
0
LINE
8
BLACK
6
CONTINUOUS
10
242.063
20
-38.6233
11
242.063
21
-38.6233
0
LINE
8
BLACK
6
CONTINUOUS
10
242.063
20
-38.6233
11
242.063
21
-38.6233
0
LINE
8
BLACK
6
CONTINUOUS
10
242.063
20
-38.6233
11
242.044
21
-38.6208
0
LINE
8
BLACK
6
CONTINUOUS
10
242.044
20
-38.6208
11
242.025
21
-38.6183
0
LINE
8
BLACK
6
CONTINUOUS
10
242.025
20
-38.6183
11
242.025
21
-38.6183
0
LINE
8
BLACK
6
CONTINUOUS
10
242.025
20
-38.6183
11
242.025
21
-38.6183
0
LINE
8
BLACK
6
CONTINUOUS
10
242.025
20
-38.6183
11
242.013
21
-38.6029
0
LINE
8
BLACK
6
CONTINUOUS
10
242.013
20
-38.6029
11
242.002
21
-38.5879
0
LINE
8
BLACK
6
CONTINUOUS
10
242.002
20
-38.5879
11
239.765
21
-30.2362
0
LINE
8
BLACK
6
CONTINUOUS
10
239.765
20
-30.2362
11
221.413
21
-35.1233
0
LINE
8
BLACK
6
CONTINUOUS
10
221.413
20
-35.1233
11
221.394
21
-35.1208
0
LINE
8
BLACK
6
CONTINUOUS
10
221.394
20
-35.1208
11
221.375
21
-35.1184
0
LINE
8
BLACK
6
CONTINUOUS
10
221.375
20
-35.1184
11
221.375
21
-35.1183
0
LINE
8
BLACK
6
CONTINUOUS
10
221.375
20
-35.1183
11
221.375
21
-35.1183
0
LINE
8
BLACK
6
CONTINUOUS
10
221.375
20
-35.1183
11
221.363
21
-35.1032
0
LINE
8
BLACK
6
CONTINUOUS
10
221.363
20
-35.1032
11
221.352
21
-35.0881
0
LINE
8
BLACK
6
CONTINUOUS
10
221.352
20
-35.0881
11
220.115
21
-30.5362
0
LINE
8
BLACK
6
CONTINUOUS
10
220.115
20
-30.5362
11
201.811
21
-35.4603
0
LINE
8
BLACK
6
CONTINUOUS
10
201.811
20
-35.4603
11
203.023
21
-40.0121
0
LINE
8
BLACK
6
CONTINUOUS
10
203.023
20
-40.0121
11
203.021
21
-40.0308
0
LINE
8
BLACK
6
CONTINUOUS
10
203.021
20
-40.0308
11
203.018
21
-40.05
0
LINE
8
BLACK
6
CONTINUOUS
10
203.018
20
-40.05
11
203.018
21
-40.05
0
LINE
8
BLACK
6
CONTINUOUS
10
203.018
20
-40.05
11
203.018
21
-40.0501
0
LINE
8
BLACK
6
CONTINUOUS
10
203.018
20
-40.0501
11
203.003
21
-40.0616
0
LINE
8
BLACK
6
CONTINUOUS
10
203.003
20
-40.0616
11
202.988
21
-40.0733
0
LINE
8
BLACK
6
CONTINUOUS
10
202.988
20
-40.0733
11
184.711
21
-44.9604
0
LINE
8
BLACK
6
CONTINUOUS
10
184.711
20
-44.9604
11
185.723
21
-48.7621
0
LINE
8
BLACK
6
CONTINUOUS
10
185.723
20
-48.7621
11
185.721
21
-48.7811
0
LINE
8
BLACK
6
CONTINUOUS
10
185.721
20
-48.7811
11
185.718
21
-48.8
0
LINE
8
BLACK
6
CONTINUOUS
10
185.718
20
-48.8
11
185.718
21
-48.8
0
LINE
8
BLACK
6
CONTINUOUS
10
185.718
20
-48.8
11
185.718
21
-48.8001
0
LINE
8
BLACK
6
CONTINUOUS
10
185.718
20
-48.8001
11
185.703
21
-48.8117
0
LINE
8
BLACK
6
CONTINUOUS
10
185.703
20
-48.8117
11
185.688
21
-48.8233
0
LINE
8
BLACK
6
CONTINUOUS
10
185.688
20
-48.8233
11
167.338
21
-53.7483
0
LINE
8
BLACK
6
CONTINUOUS
10
167.338
20
-53.7483
11
167.329
21
-53.7471
0
LINE
8
BLACK
6
CONTINUOUS
10
167.329
20
-53.7471
11
167.32
21
-53.7497
0
LINE
8
BLACK
6
CONTINUOUS
10
167.32
20
-53.7497
11
167.31
21
-53.7447
0
LINE
8
BLACK
6
CONTINUOUS
10
167.31
20
-53.7447
11
167.3
21
-53.7433
0
LINE
8
BLACK
6
CONTINUOUS
10
167.3
20
-53.7433
11
167.294
21
-53.7359
0
LINE
8
BLACK
6
CONTINUOUS
10
167.294
20
-53.7359
11
167.286
21
-53.7315
0
LINE
8
BLACK
6
CONTINUOUS
10
167.286
20
-53.7315
11
160.151
21
-44.925
0
LINE
8
BLACK
6
CONTINUOUS
10
160.151
20
-44.925
11
138.075
21
-44.925
0
LINE
8
BLACK
6
CONTINUOUS
10
138.075
20
-44.925
11
131.59
21
-53.6299
0
LINE
8
BLACK
6
CONTINUOUS
10
131.59
20
-53.6299
11
131.581
21
-53.6351
0
LINE
8
BLACK
6
CONTINUOUS
10
131.581
20
-53.6351
11
131.575
21
-53.6433
0
LINE
8
BLACK
6
CONTINUOUS
10
131.575
20
-53.6433
11
131.565
21
-53.6446
0
LINE
8
BLACK
6
CONTINUOUS
10
131.565
20
-53.6446
11
131.557
21
-53.6495
0
LINE
8
BLACK
6
CONTINUOUS
10
131.557
20
-53.6495
11
131.547
21
-53.647
0
LINE
8
BLACK
6
CONTINUOUS
10
131.547
20
-53.647
11
131.537
21
-53.6483
0
LINE
8
BLACK
6
CONTINUOUS
10
131.537
20
-53.6483
11
113.087
21
-48.6983
0
LINE
8
BLACK
6
CONTINUOUS
10
113.087
20
-48.6983
11
113.087
21
-48.6983
0
LINE
8
BLACK
6
CONTINUOUS
10
113.087
20
-48.6983
11
113.087
21
-48.6983
0
LINE
8
BLACK
6
CONTINUOUS
10
113.087
20
-48.6983
11
113.072
21
-48.6867
0
LINE
8
BLACK
6
CONTINUOUS
10
113.072
20
-48.6867
11
113.057
21
-48.675
0
LINE
8
BLACK
6
CONTINUOUS
10
113.057
20
-48.675
11
113.057
21
-48.675
0
LINE
8
BLACK
6
CONTINUOUS
10
113.057
20
-48.675
11
113.057
21
-48.675
0
LINE
8
BLACK
6
CONTINUOUS
10
113.057
20
-48.675
11
113.054
21
-48.6553
0
LINE
8
BLACK
6
CONTINUOUS
10
113.054
20
-48.6553
11
113.052
21
-48.6371
0
LINE
8
BLACK
6
CONTINUOUS
10
113.052
20
-48.6371
11
114.064
21
-44.8604
0
LINE
8
BLACK
6
CONTINUOUS
10
114.064
20
-44.8604
11
95.6622
21
-39.9483
0
LINE
8
BLACK
6
CONTINUOUS
10
95.6622
20
-39.9483
11
95.6621
21
-39.9483
0
LINE
8
BLACK
6
CONTINUOUS
10
95.6621
20
-39.9483
11
95.647
21
-39.9367
0
LINE
8
BLACK
6
CONTINUOUS
10
95.647
20
-39.9367
11
95.6318
21
-39.9251
0
LINE
8
BLACK
6
CONTINUOUS
10
95.6318
20
-39.9251
11
95.6318
21
-39.9251
0
LINE
8
BLACK
6
CONTINUOUS
10
95.6318
20
-39.9251
11
95.6317
21
-39.925
0
LINE
8
BLACK
6
CONTINUOUS
10
95.6317
20
-39.925
11
95.6292
21
-39.9062
0
LINE
8
BLACK
6
CONTINUOUS
10
95.6292
20
-39.9062
11
95.6267
21
-39.8872
0
LINE
8
BLACK
6
CONTINUOUS
10
95.6267
20
-39.8872
11
96.8389
21
-35.3104
0
LINE
8
BLACK
6
CONTINUOUS
10
96.8389
20
-35.3104
11
78.5352
21
-30.4112
0
LINE
8
BLACK
6
CONTINUOUS
10
78.5352
20
-30.4112
11
77.2982
21
-34.9631
0
LINE
8
BLACK
6
CONTINUOUS
10
77.2982
20
-34.9631
11
77.2866
21
-34.9782
0
LINE
8
BLACK
6
CONTINUOUS
10
77.2866
20
-34.9782
11
77.275
21
-34.9933
0
LINE
8
BLACK
6
CONTINUOUS
10
77.275
20
-34.9933
11
77.2749
21
-34.9933
0
LINE
8
BLACK
6
CONTINUOUS
10
77.2749
20
-34.9933
11
77.2748
21
-34.9934
0
LINE
8
BLACK
6
CONTINUOUS
10
77.2748
20
-34.9934
11
77.256
21
-34.9958
0
LINE
8
BLACK
6
CONTINUOUS
10
77.256
20
-34.9958
11
77.2371
21
-34.9983
0
LINE
8
BLACK
6
CONTINUOUS
10
77.2371
20
-34.9983
11
58.9104
21
-30.0863
0
LINE
8
BLACK
6
CONTINUOUS
10
58.9104
20
-30.0863
11
56.6733
21
-38.4629
  0
ENDSEC
  0
EOF
