  0
SECTION
  2
HEADER
  9
$ANGBASE
  50
0.0
  9
$ANGDIR
  70
1
  9
$MEASUREMENT
  70
0
  0
ENDSEC
  0
SECTION
  2
TABLES
  0
TABLE
  2
LTYPE
  70
4
  0
LTYPE
  5
40F
  2
CONTINUOUS
  70
0
  3
Solid line
  72
65
  73
0
  40
0.0
  0
LTYPE
  5
410
  2
DASHDOT
 70
0
  3
Dash Dot ____ _ ____ _
 72
65
 73
4
 40
2.0
 49
1.25
 49
-0.25
 49
0.25
 49
-0.25
  0
LTYPE
  5
411
  2
DASHED
 70
0
  3
Dashed __ __ __ __ __
 72
65
 73
2
 40
0.75
 49
0.5
 49
-0.25
  0
LTYPE
  5
43B
  2
DOTTED
 70
0
  3
Dotted .  .  .  .
 72
65
 73
2
 40
0.2
 49
0.0
 49
-0.2
  0
ENDTAB
  0
TABLE
  2
STYLE
  70
4
  0
STYLE
  2
KICAD
  70
0
  40
0
  41
1
  42
1
  50
0
  71
0
  3
isocp.shx
  0
STYLE
  2
KICADB
  70
0
  40
0
  41
1
  42
1
  50
0
  71
0
  3
isocp.shx
  0
STYLE
  2
KICADI
  70
0
  40
0
  41
1
  42
1
  50
15
  71
0
  3
isocp.shx
  0
STYLE
  2
KICADBI
  70
0
  40
0
  41
1
  42
1
  50
15
  71
0
  3
isocp.shx
  0
ENDTAB
  0
TABLE
  2
LAYER
  70
1
  0
LAYER
  2
BLACK
  70
0
  62
7
  6
CONTINUOUS
  0
ENDTAB
  0
ENDSEC
  0
SECTION
  2
ENTITIES
0
LINE
8
BLACK
6
CONTINUOUS
10
8.66756
20
-1.198
11
8.6683
21
-1.19809
0
LINE
8
BLACK
6
CONTINUOUS
10
8.6683
20
-1.19809
11
8.6683
21
-1.1981
0
LINE
8
BLACK
6
CONTINUOUS
10
8.6683
20
-1.1981
11
8.66831
21
-1.1981
0
LINE
8
BLACK
6
CONTINUOUS
10
8.66831
20
-1.1981
11
8.66876
21
-1.19869
0
LINE
8
BLACK
6
CONTINUOUS
10
8.66876
20
-1.19869
11
8.66922
21
-1.19929
0
LINE
8
BLACK
6
CONTINUOUS
10
8.66922
20
-1.19929
11
8.71792
21
-1.3785
0
LINE
8
BLACK
6
CONTINUOUS
10
8.71792
20
-1.3785
11
9.44044
21
-1.18609
0
LINE
8
BLACK
6
CONTINUOUS
10
9.44044
20
-1.18609
11
9.44118
21
-1.18619
0
LINE
8
BLACK
6
CONTINUOUS
10
9.44118
20
-1.18619
11
9.44193
21
-1.18629
0
LINE
8
BLACK
6
CONTINUOUS
10
9.44193
20
-1.18629
11
9.44193
21
-1.18629
0
LINE
8
BLACK
6
CONTINUOUS
10
9.44193
20
-1.18629
11
9.44193
21
-1.18629
0
LINE
8
BLACK
6
CONTINUOUS
10
9.44193
20
-1.18629
11
9.44239
21
-1.18689
0
LINE
8
BLACK
6
CONTINUOUS
10
9.44239
20
-1.18689
11
9.44285
21
-1.18748
0
LINE
8
BLACK
6
CONTINUOUS
10
9.44285
20
-1.18748
11
9.53092
21
-1.51629
0
LINE
8
BLACK
6
CONTINUOUS
10
9.53092
20
-1.51629
11
10.2564
21
-1.3229
0
LINE
8
BLACK
6
CONTINUOUS
10
10.2564
20
-1.3229
11
10.2571
21
-1.323
0
LINE
8
BLACK
6
CONTINUOUS
10
10.2571
20
-1.323
11
10.2579
21
-1.3231
0
LINE
8
BLACK
6
CONTINUOUS
10
10.2579
20
-1.3231
11
10.2579
21
-1.3231
0
LINE
8
BLACK
6
CONTINUOUS
10
10.2579
20
-1.3231
11
10.2579
21
-1.3231
0
LINE
8
BLACK
6
CONTINUOUS
10
10.2579
20
-1.3231
11
10.2583
21
-1.3237
0
LINE
8
BLACK
6
CONTINUOUS
10
10.2583
20
-1.3237
11
10.2588
21
-1.32429
0
LINE
8
BLACK
6
CONTINUOUS
10
10.2588
20
-1.32429
11
10.8405
21
-3.49752
0
LINE
8
BLACK
6
CONTINUOUS
10
10.8405
20
-3.49752
11
10.8404
21
-3.49788
0
LINE
8
BLACK
6
CONTINUOUS
10
10.8404
20
-3.49788
11
10.8405
21
-3.49823
0
LINE
8
BLACK
6
CONTINUOUS
10
10.8405
20
-3.49823
11
10.8403
21
-3.4986
0
LINE
8
BLACK
6
CONTINUOUS
10
10.8403
20
-3.4986
11
10.8403
21
-3.49902
0
LINE
8
BLACK
6
CONTINUOUS
10
10.8403
20
-3.49902
11
10.84
21
-3.49924
0
LINE
8
BLACK
6
CONTINUOUS
10
10.84
20
-3.49924
11
10.8398
21
-3.49956
0
LINE
8
BLACK
6
CONTINUOUS
10
10.8398
20
-3.49956
11
9.3792
21
-4.69149
0
LINE
8
BLACK
6
CONTINUOUS
10
9.3792
20
-4.69149
11
9.37896
21
-4.69156
0
LINE
8
BLACK
6
CONTINUOUS
10
9.37896
20
-4.69156
11
9.37878
21
-4.69174
0
LINE
8
BLACK
6
CONTINUOUS
10
9.37878
20
-4.69174
11
8.69867
21
-5.00867
0
LINE
8
BLACK
6
CONTINUOUS
10
8.69867
20
-5.00867
11
8.69863
21
-5.00868
0
LINE
8
BLACK
6
CONTINUOUS
10
8.69863
20
-5.00868
11
8.6986
21
-5.0087
0
LINE
8
BLACK
6
CONTINUOUS
10
8.6986
20
-5.0087
11
7.95869
21
-5.31962
0
LINE
8
BLACK
6
CONTINUOUS
10
7.95869
20
-5.31962
11
7.28764
21
-5.85489
0
LINE
8
BLACK
6
CONTINUOUS
10
7.28764
20
-5.85489
11
7.28702
21
-5.85507
0
LINE
8
BLACK
6
CONTINUOUS
10
7.28702
20
-5.85507
11
7.28642
21
-5.85531
0
LINE
8
BLACK
6
CONTINUOUS
10
7.28642
20
-5.85531
11
7.28631
21
-5.85527
0
LINE
8
BLACK
6
CONTINUOUS
10
7.28631
20
-5.85527
11
7.2862
21
-5.8553
0
LINE
8
BLACK
6
CONTINUOUS
10
7.2862
20
-5.8553
11
7.28563
21
-5.85499
0
LINE
8
BLACK
6
CONTINUOUS
10
7.28563
20
-5.85499
11
7.28503
21
-5.85474
0
LINE
8
BLACK
6
CONTINUOUS
10
7.28503
20
-5.85474
11
6.75509
21
-5.32579
0
LINE
8
BLACK
6
CONTINUOUS
10
6.75509
20
-5.32579
11
5.04019
21
-5.32972
0
LINE
8
BLACK
6
CONTINUOUS
10
5.04019
20
-5.32972
11
4.51025
21
-5.85966
0
LINE
8
BLACK
6
CONTINUOUS
10
4.51025
20
-5.85966
11
4.50965
21
-5.85991
0
LINE
8
BLACK
6
CONTINUOUS
10
4.50965
20
-5.85991
11
4.50908
21
-5.86022
0
LINE
8
BLACK
6
CONTINUOUS
10
4.50908
20
-5.86022
11
4.50897
21
-5.86019
0
LINE
8
BLACK
6
CONTINUOUS
10
4.50897
20
-5.86019
11
4.50886
21
-5.86024
0
LINE
8
BLACK
6
CONTINUOUS
10
4.50886
20
-5.86024
11
4.50826
21
-5.85999
0
LINE
8
BLACK
6
CONTINUOUS
10
4.50826
20
-5.85999
11
4.50763
21
-5.85981
0
LINE
8
BLACK
6
CONTINUOUS
10
4.50763
20
-5.85981
11
3.8356
21
-5.32356
0
LINE
8
BLACK
6
CONTINUOUS
10
3.8356
20
-5.32356
11
3.09569
21
-5.01264
0
LINE
8
BLACK
6
CONTINUOUS
10
3.09569
20
-5.01264
11
3.09567
21
-5.01261
0
LINE
8
BLACK
6
CONTINUOUS
10
3.09567
20
-5.01261
11
3.09562
21
-5.01261
0
LINE
8
BLACK
6
CONTINUOUS
10
3.09562
20
-5.01261
11
2.41649
21
-4.69568
0
LINE
8
BLACK
6
CONTINUOUS
10
2.41649
20
-4.69568
11
2.41633
21
-4.6955
0
LINE
8
BLACK
6
CONTINUOUS
10
2.41633
20
-4.6955
11
2.41609
21
-4.69543
0
LINE
8
BLACK
6
CONTINUOUS
10
2.41609
20
-4.69543
11
0.921996
21
-3.49563
0
LINE
8
BLACK
6
CONTINUOUS
10
0.921996
20
-3.49563
11
0.921818
21
-3.4953
0
LINE
8
BLACK
6
CONTINUOUS
10
0.921818
20
-3.4953
11
0.921524
21
-3.49508
0
LINE
8
BLACK
6
CONTINUOUS
10
0.921524
20
-3.49508
11
0.92147
21
-3.49467
0
LINE
8
BLACK
6
CONTINUOUS
10
0.92147
20
-3.49467
11
0.921271
21
-3.49431
0
LINE
8
BLACK
6
CONTINUOUS
10
0.921271
20
-3.49431
11
0.921375
21
-3.49395
0
LINE
8
BLACK
6
CONTINUOUS
10
0.921375
20
-3.49395
11
0.921327
21
-3.49358
0
LINE
8
BLACK
6
CONTINUOUS
10
0.921327
20
-3.49358
11
1.504
21
-1.31937
0
LINE
8
BLACK
6
CONTINUOUS
10
1.504
20
-1.31937
11
1.50492
21
-1.31818
0
LINE
8
BLACK
6
CONTINUOUS
10
1.50492
20
-1.31818
11
1.50492
21
-1.31818
0
LINE
8
BLACK
6
CONTINUOUS
10
1.50492
20
-1.31818
11
1.50557
21
-1.31809
0
LINE
8
BLACK
6
CONTINUOUS
10
1.50557
20
-1.31809
11
1.50642
21
-1.31798
0
LINE
8
BLACK
6
CONTINUOUS
10
1.50642
20
-1.31798
11
1.50642
21
-1.31798
0
LINE
8
BLACK
6
CONTINUOUS
10
1.50642
20
-1.31798
11
2.22794
21
-1.51137
0
LINE
8
BLACK
6
CONTINUOUS
10
2.22794
20
-1.51137
11
2.31601
21
-1.18158
0
LINE
8
BLACK
6
CONTINUOUS
10
2.31601
20
-1.18158
11
2.31601
21
-1.18158
0
LINE
8
BLACK
6
CONTINUOUS
10
2.31601
20
-1.18158
11
2.31601
21
-1.18158
0
LINE
8
BLACK
6
CONTINUOUS
10
2.31601
20
-1.18158
11
2.31647
21
-1.18099
0
LINE
8
BLACK
6
CONTINUOUS
10
2.31647
20
-1.18099
11
2.31693
21
-1.18038
0
LINE
8
BLACK
6
CONTINUOUS
10
2.31693
20
-1.18038
11
2.31693
21
-1.18038
0
LINE
8
BLACK
6
CONTINUOUS
10
2.31693
20
-1.18038
11
2.31693
21
-1.18038
0
LINE
8
BLACK
6
CONTINUOUS
10
2.31693
20
-1.18038
11
2.31768
21
-1.18028
0
LINE
8
BLACK
6
CONTINUOUS
10
2.31768
20
-1.18028
11
2.31842
21
-1.18018
0
LINE
8
BLACK
6
CONTINUOUS
10
2.31842
20
-1.18018
11
2.31842
21
-1.18019
0
LINE
8
BLACK
6
CONTINUOUS
10
2.31842
20
-1.18019
11
2.31842
21
-1.18019
0
LINE
8
BLACK
6
CONTINUOUS
10
2.31842
20
-1.18019
11
3.03995
21
-1.37357
0
LINE
8
BLACK
6
CONTINUOUS
10
3.03995
20
-1.37357
11
3.08865
21
-1.19437
0
LINE
8
BLACK
6
CONTINUOUS
10
3.08865
20
-1.19437
11
3.08911
21
-1.19377
0
LINE
8
BLACK
6
CONTINUOUS
10
3.08911
20
-1.19377
11
3.08957
21
-1.19318
0
LINE
8
BLACK
6
CONTINUOUS
10
3.08957
20
-1.19318
11
3.08957
21
-1.19318
0
LINE
8
BLACK
6
CONTINUOUS
10
3.08957
20
-1.19318
11
3.08957
21
-1.19317
0
LINE
8
BLACK
6
CONTINUOUS
10
3.08957
20
-1.19317
11
3.09032
21
-1.19308
0
LINE
8
BLACK
6
CONTINUOUS
10
3.09032
20
-1.19308
11
3.09106
21
-1.19298
0
LINE
8
BLACK
6
CONTINUOUS
10
3.09106
20
-1.19298
11
3.81547
21
-1.38688
0
LINE
8
BLACK
6
CONTINUOUS
10
3.81547
20
-1.38688
11
3.81607
21
-1.38734
0
LINE
8
BLACK
6
CONTINUOUS
10
3.81607
20
-1.38734
11
3.81666
21
-1.38779
0
LINE
8
BLACK
6
CONTINUOUS
10
3.81666
20
-1.38779
11
3.81666
21
-1.38779
0
LINE
8
BLACK
6
CONTINUOUS
10
3.81666
20
-1.38779
11
3.81667
21
-1.38779
0
LINE
8
BLACK
6
CONTINUOUS
10
3.81667
20
-1.38779
11
3.81676
21
-1.38854
0
LINE
8
BLACK
6
CONTINUOUS
10
3.81676
20
-1.38854
11
3.81686
21
-1.38928
0
LINE
8
BLACK
6
CONTINUOUS
10
3.81686
20
-1.38928
11
3.76914
21
-1.56947
0
LINE
8
BLACK
6
CONTINUOUS
10
3.76914
20
-1.56947
11
4.49362
21
-1.76286
0
LINE
8
BLACK
6
CONTINUOUS
10
4.49362
20
-1.76286
11
4.49362
21
-1.76286
0
LINE
8
BLACK
6
CONTINUOUS
10
4.49362
20
-1.76286
11
4.49362
21
-1.76286
0
LINE
8
BLACK
6
CONTINUOUS
10
4.49362
20
-1.76286
11
4.49421
21
-1.76332
0
LINE
8
BLACK
6
CONTINUOUS
10
4.49421
20
-1.76332
11
4.49481
21
-1.76378
0
LINE
8
BLACK
6
CONTINUOUS
10
4.49481
20
-1.76378
11
4.49481
21
-1.76378
0
LINE
8
BLACK
6
CONTINUOUS
10
4.49481
20
-1.76378
11
4.49482
21
-1.76378
0
LINE
8
BLACK
6
CONTINUOUS
10
4.49482
20
-1.76378
11
4.49491
21
-1.76451
0
LINE
8
BLACK
6
CONTINUOUS
10
4.49491
20
-1.76451
11
4.49501
21
-1.76527
0
LINE
8
BLACK
6
CONTINUOUS
10
4.49501
20
-1.76527
11
4.49501
21
-1.76527
0
LINE
8
BLACK
6
CONTINUOUS
10
4.49501
20
-1.76527
11
4.49501
21
-1.76527
0
LINE
8
BLACK
6
CONTINUOUS
10
4.49501
20
-1.76527
11
4.45517
21
-1.91396
0
LINE
8
BLACK
6
CONTINUOUS
10
4.45517
20
-1.91396
11
5.17835
21
-2.10799
0
LINE
8
BLACK
6
CONTINUOUS
10
5.17835
20
-2.10799
11
5.43346
21
-1.76556
0
LINE
8
BLACK
6
CONTINUOUS
10
5.43346
20
-1.76556
11
5.43359
21
-1.76548
0
LINE
8
BLACK
6
CONTINUOUS
10
5.43359
20
-1.76548
11
5.43365
21
-1.76534
0
LINE
8
BLACK
6
CONTINUOUS
10
5.43365
20
-1.76534
11
5.43422
21
-1.7651
0
LINE
8
BLACK
6
CONTINUOUS
10
5.43422
20
-1.7651
11
5.43475
21
-1.76478
0
LINE
8
BLACK
6
CONTINUOUS
10
5.43475
20
-1.76478
11
5.4349
21
-1.76482
0
LINE
8
BLACK
6
CONTINUOUS
10
5.4349
20
-1.76482
11
5.43504
21
-1.76476
0
LINE
8
BLACK
6
CONTINUOUS
10
5.43504
20
-1.76476
11
6.3061
21
-1.76476
0
LINE
8
BLACK
6
CONTINUOUS
10
6.3061
20
-1.76476
11
6.3062
21
-1.76481
0
LINE
8
BLACK
6
CONTINUOUS
10
6.3062
20
-1.76481
11
6.30631
21
-1.76477
0
LINE
8
BLACK
6
CONTINUOUS
10
6.30631
20
-1.76477
11
6.30689
21
-1.76509
0
LINE
8
BLACK
6
CONTINUOUS
10
6.30689
20
-1.76509
11
6.30749
21
-1.76534
0
LINE
8
BLACK
6
CONTINUOUS
10
6.30749
20
-1.76534
11
6.30754
21
-1.76544
0
LINE
8
BLACK
6
CONTINUOUS
10
6.30754
20
-1.76544
11
6.30763
21
-1.76549
0
LINE
8
BLACK
6
CONTINUOUS
10
6.30763
20
-1.76549
11
6.58832
21
-2.11194
0
LINE
8
BLACK
6
CONTINUOUS
10
6.58832
20
-2.11194
11
7.30763
21
-1.91888
0
LINE
8
BLACK
6
CONTINUOUS
10
7.30763
20
-1.91888
11
7.26778
21
-1.76921
0
LINE
8
BLACK
6
CONTINUOUS
10
7.26778
20
-1.76921
11
7.26788
21
-1.76846
0
LINE
8
BLACK
6
CONTINUOUS
10
7.26788
20
-1.76846
11
7.26798
21
-1.76772
0
LINE
8
BLACK
6
CONTINUOUS
10
7.26798
20
-1.76772
11
7.26798
21
-1.76771
0
LINE
8
BLACK
6
CONTINUOUS
10
7.26798
20
-1.76771
11
7.26798
21
-1.76771
0
LINE
8
BLACK
6
CONTINUOUS
10
7.26798
20
-1.76771
11
7.26859
21
-1.76725
0
LINE
8
BLACK
6
CONTINUOUS
10
7.26859
20
-1.76725
11
7.26918
21
-1.7668
0
LINE
8
BLACK
6
CONTINUOUS
10
7.26918
20
-1.7668
11
7.98873
21
-1.57439
0
LINE
8
BLACK
6
CONTINUOUS
10
7.98873
20
-1.57439
11
7.94101
21
-1.39519
0
LINE
8
BLACK
6
CONTINUOUS
10
7.94101
20
-1.39519
11
7.94111
21
-1.39445
0
LINE
8
BLACK
6
CONTINUOUS
10
7.94111
20
-1.39445
11
7.94121
21
-1.3937
0
LINE
8
BLACK
6
CONTINUOUS
10
7.94121
20
-1.3937
11
7.94121
21
-1.3937
0
LINE
8
BLACK
6
CONTINUOUS
10
7.94121
20
-1.3937
11
7.94121
21
-1.3937
0
LINE
8
BLACK
6
CONTINUOUS
10
7.94121
20
-1.3937
11
7.94181
21
-1.39324
0
LINE
8
BLACK
6
CONTINUOUS
10
7.94181
20
-1.39324
11
7.9424
21
-1.39278
0
LINE
8
BLACK
6
CONTINUOUS
10
7.9424
20
-1.39278
11
7.94241
21
-1.39278
0
LINE
8
BLACK
6
CONTINUOUS
10
7.94241
20
-1.39278
11
8.66681
21
-1.1979
0
LINE
8
BLACK
6
CONTINUOUS
10
8.66681
20
-1.1979
11
8.66756
21
-1.198
0
LINE
8
BLACK
6
CONTINUOUS
10
2.23123
20
-1.51429
11
2.23123
21
-1.51429
0
LINE
8
BLACK
6
CONTINUOUS
10
2.23123
20
-1.51429
11
2.23123
21
-1.51429
0
LINE
8
BLACK
6
CONTINUOUS
10
2.23123
20
-1.51429
11
2.23078
21
-1.51488
0
LINE
8
BLACK
6
CONTINUOUS
10
2.23078
20
-1.51488
11
2.23032
21
-1.51548
0
LINE
8
BLACK
6
CONTINUOUS
10
2.23032
20
-1.51548
11
2.23032
21
-1.51548
0
LINE
8
BLACK
6
CONTINUOUS
10
2.23032
20
-1.51548
11
2.23031
21
-1.51548
0
LINE
8
BLACK
6
CONTINUOUS
10
2.23031
20
-1.51548
11
2.22957
21
-1.51558
0
LINE
8
BLACK
6
CONTINUOUS
10
2.22957
20
-1.51558
11
2.22882
21
-1.51568
0
LINE
8
BLACK
6
CONTINUOUS
10
2.22882
20
-1.51568
11
2.22882
21
-1.51568
0
LINE
8
BLACK
6
CONTINUOUS
10
2.22882
20
-1.51568
11
2.22882
21
-1.51568
0
LINE
8
BLACK
6
CONTINUOUS
10
2.22882
20
-1.51568
11
1.5073
21
-1.32229
0
LINE
8
BLACK
6
CONTINUOUS
10
1.5073
20
-1.32229
11
0.925462
21
-3.49336
0
LINE
8
BLACK
6
CONTINUOUS
10
0.925462
20
-3.49336
11
2.41837
21
-4.69221
0
LINE
8
BLACK
6
CONTINUOUS
10
2.41837
20
-4.69221
11
3.09725
21
-5.00903
0
LINE
8
BLACK
6
CONTINUOUS
10
3.09725
20
-5.00903
11
3.83738
21
-5.32004
0
LINE
8
BLACK
6
CONTINUOUS
10
3.83738
20
-5.32004
11
3.83757
21
-5.32023
0
LINE
8
BLACK
6
CONTINUOUS
10
3.83757
20
-5.32023
11
3.83784
21
-5.32031
0
LINE
8
BLACK
6
CONTINUOUS
10
3.83784
20
-5.32031
11
4.50871
21
-5.85563
0
LINE
8
BLACK
6
CONTINUOUS
10
4.50871
20
-5.85563
11
5.03798
21
-5.32636
0
LINE
8
BLACK
6
CONTINUOUS
10
5.03798
20
-5.32636
11
5.03868
21
-5.32607
0
LINE
8
BLACK
6
CONTINUOUS
10
5.03868
20
-5.32607
11
5.03937
21
-5.32579
0
LINE
8
BLACK
6
CONTINUOUS
10
5.03937
20
-5.32579
11
6.7559
21
-5.32185
0
LINE
8
BLACK
6
CONTINUOUS
10
6.7559
20
-5.32185
11
6.7559
21
-5.32185
0
LINE
8
BLACK
6
CONTINUOUS
10
6.7559
20
-5.32185
11
6.7559
21
-5.32185
0
LINE
8
BLACK
6
CONTINUOUS
10
6.7559
20
-5.32185
11
6.75658
21
-5.32213
0
LINE
8
BLACK
6
CONTINUOUS
10
6.75658
20
-5.32213
11
6.75729
21
-5.32242
0
LINE
8
BLACK
6
CONTINUOUS
10
6.75729
20
-5.32242
11
6.75729
21
-5.32243
0
LINE
8
BLACK
6
CONTINUOUS
10
6.75729
20
-5.32243
11
6.7573
21
-5.32243
0
LINE
8
BLACK
6
CONTINUOUS
10
6.7573
20
-5.32243
11
7.28656
21
-5.85071
0
LINE
8
BLACK
6
CONTINUOUS
10
7.28656
20
-5.85071
11
7.95645
21
-5.31637
0
LINE
8
BLACK
6
CONTINUOUS
10
7.95645
20
-5.31637
11
7.95672
21
-5.3163
0
LINE
8
BLACK
6
CONTINUOUS
10
7.95672
20
-5.3163
11
7.95691
21
-5.3161
0
LINE
8
BLACK
6
CONTINUOUS
10
7.95691
20
-5.3161
11
8.69704
21
-5.00509
0
LINE
8
BLACK
6
CONTINUOUS
10
8.69704
20
-5.00509
11
9.3769
21
-4.68828
0
LINE
8
BLACK
6
CONTINUOUS
10
9.3769
20
-4.68828
11
10.8364
21
-3.49731
0
LINE
8
BLACK
6
CONTINUOUS
10
10.8364
20
-3.49731
11
10.2555
21
-1.32721
0
LINE
8
BLACK
6
CONTINUOUS
10
10.2555
20
-1.32721
11
9.53004
21
-1.5206
0
LINE
8
BLACK
6
CONTINUOUS
10
9.53004
20
-1.5206
11
9.53004
21
-1.5206
0
LINE
8
BLACK
6
CONTINUOUS
10
9.53004
20
-1.5206
11
9.53004
21
-1.5206
0
LINE
8
BLACK
6
CONTINUOUS
10
9.53004
20
-1.5206
11
9.53003
21
-1.5206
0
LINE
8
BLACK
6
CONTINUOUS
10
9.53003
20
-1.5206
11
9.5293
21
-1.5205
0
LINE
8
BLACK
6
CONTINUOUS
10
9.5293
20
-1.5205
11
9.52854
21
-1.52041
0
LINE
8
BLACK
6
CONTINUOUS
10
9.52854
20
-1.52041
11
9.52854
21
-1.5204
0
LINE
8
BLACK
6
CONTINUOUS
10
9.52854
20
-1.5204
11
9.52854
21
-1.5204
0
LINE
8
BLACK
6
CONTINUOUS
10
9.52854
20
-1.5204
11
9.52808
21
-1.5198
0
LINE
8
BLACK
6
CONTINUOUS
10
9.52808
20
-1.5198
11
9.52763
21
-1.51921
0
LINE
8
BLACK
6
CONTINUOUS
10
9.52763
20
-1.51921
11
9.43955
21
-1.1904
0
LINE
8
BLACK
6
CONTINUOUS
10
9.43955
20
-1.1904
11
8.71704
21
-1.38281
0
LINE
8
BLACK
6
CONTINUOUS
10
8.71704
20
-1.38281
11
8.7163
21
-1.38271
0
LINE
8
BLACK
6
CONTINUOUS
10
8.7163
20
-1.38271
11
8.71556
21
-1.38261
0
LINE
8
BLACK
6
CONTINUOUS
10
8.71556
20
-1.38261
11
8.71555
21
-1.38261
0
LINE
8
BLACK
6
CONTINUOUS
10
8.71555
20
-1.38261
11
8.71555
21
-1.38261
0
LINE
8
BLACK
6
CONTINUOUS
10
8.71555
20
-1.38261
11
8.71509
21
-1.38201
0
LINE
8
BLACK
6
CONTINUOUS
10
8.71509
20
-1.38201
11
8.71464
21
-1.38142
0
LINE
8
BLACK
6
CONTINUOUS
10
8.71464
20
-1.38142
11
8.66594
21
-1.20221
0
LINE
8
BLACK
6
CONTINUOUS
10
8.66594
20
-1.20221
11
7.94532
21
-1.39608
0
LINE
8
BLACK
6
CONTINUOUS
10
7.94532
20
-1.39608
11
7.99304
21
-1.57528
0
LINE
8
BLACK
6
CONTINUOUS
10
7.99304
20
-1.57528
11
7.99295
21
-1.57601
0
LINE
8
BLACK
6
CONTINUOUS
10
7.99295
20
-1.57601
11
7.99285
21
-1.57677
0
LINE
8
BLACK
6
CONTINUOUS
10
7.99285
20
-1.57677
11
7.99285
21
-1.57677
0
LINE
8
BLACK
6
CONTINUOUS
10
7.99285
20
-1.57677
11
7.99284
21
-1.57677
0
LINE
8
BLACK
6
CONTINUOUS
10
7.99284
20
-1.57677
11
7.99225
21
-1.57723
0
LINE
8
BLACK
6
CONTINUOUS
10
7.99225
20
-1.57723
11
7.99165
21
-1.57769
0
LINE
8
BLACK
6
CONTINUOUS
10
7.99165
20
-1.57769
11
7.27209
21
-1.77009
0
LINE
8
BLACK
6
CONTINUOUS
10
7.27209
20
-1.77009
11
7.31194
21
-1.91977
0
LINE
8
BLACK
6
CONTINUOUS
10
7.31194
20
-1.91977
11
7.31184
21
-1.92052
0
LINE
8
BLACK
6
CONTINUOUS
10
7.31184
20
-1.92052
11
7.31174
21
-1.92126
0
LINE
8
BLACK
6
CONTINUOUS
10
7.31174
20
-1.92126
11
7.31174
21
-1.92126
0
LINE
8
BLACK
6
CONTINUOUS
10
7.31174
20
-1.92126
11
7.31174
21
-1.92126
0
LINE
8
BLACK
6
CONTINUOUS
10
7.31174
20
-1.92126
11
7.31114
21
-1.92172
0
LINE
8
BLACK
6
CONTINUOUS
10
7.31114
20
-1.92172
11
7.31055
21
-1.92218
0
LINE
8
BLACK
6
CONTINUOUS
10
7.31055
20
-1.92218
11
6.58811
21
-2.11607
0
LINE
8
BLACK
6
CONTINUOUS
10
6.58811
20
-2.11607
11
6.58774
21
-2.11603
0
LINE
8
BLACK
6
CONTINUOUS
10
6.58774
20
-2.11603
11
6.58739
21
-2.11613
0
LINE
8
BLACK
6
CONTINUOUS
10
6.58739
20
-2.11613
11
6.58703
21
-2.11593
0
LINE
8
BLACK
6
CONTINUOUS
10
6.58703
20
-2.11593
11
6.58661
21
-2.11588
0
LINE
8
BLACK
6
CONTINUOUS
10
6.58661
20
-2.11588
11
6.58639
21
-2.11559
0
LINE
8
BLACK
6
CONTINUOUS
10
6.58639
20
-2.11559
11
6.58607
21
-2.11541
0
LINE
8
BLACK
6
CONTINUOUS
10
6.58607
20
-2.11541
11
6.30516
21
-1.7687
0
LINE
8
BLACK
6
CONTINUOUS
10
6.30516
20
-1.7687
11
5.43603
21
-1.7687
0
LINE
8
BLACK
6
CONTINUOUS
10
5.43603
20
-1.7687
11
5.18071
21
-2.11141
0
LINE
8
BLACK
6
CONTINUOUS
10
5.18071
20
-2.11141
11
5.18036
21
-2.11162
0
LINE
8
BLACK
6
CONTINUOUS
10
5.18036
20
-2.11162
11
5.18012
21
-2.11194
0
LINE
8
BLACK
6
CONTINUOUS
10
5.18012
20
-2.11194
11
5.17974
21
-2.11199
0
LINE
8
BLACK
6
CONTINUOUS
10
5.17974
20
-2.11199
11
5.17942
21
-2.11218
0
LINE
8
BLACK
6
CONTINUOUS
10
5.17942
20
-2.11218
11
5.17903
21
-2.11208
0
LINE
8
BLACK
6
CONTINUOUS
10
5.17903
20
-2.11208
11
5.17862
21
-2.11214
0
LINE
8
BLACK
6
CONTINUOUS
10
5.17862
20
-2.11214
11
4.45225
21
-1.91726
0
LINE
8
BLACK
6
CONTINUOUS
10
4.45225
20
-1.91726
11
4.45225
21
-1.91726
0
LINE
8
BLACK
6
CONTINUOUS
10
4.45225
20
-1.91726
11
4.45225
21
-1.91726
0
LINE
8
BLACK
6
CONTINUOUS
10
4.45225
20
-1.91726
11
4.45165
21
-1.9168
0
LINE
8
BLACK
6
CONTINUOUS
10
4.45165
20
-1.9168
11
4.45105
21
-1.91634
0
LINE
8
BLACK
6
CONTINUOUS
10
4.45105
20
-1.91634
11
4.45105
21
-1.91634
0
LINE
8
BLACK
6
CONTINUOUS
10
4.45105
20
-1.91634
11
4.45105
21
-1.91634
0
LINE
8
BLACK
6
CONTINUOUS
10
4.45105
20
-1.91634
11
4.45095
21
-1.91556
0
LINE
8
BLACK
6
CONTINUOUS
10
4.45095
20
-1.91556
11
4.45085
21
-1.91484
0
LINE
8
BLACK
6
CONTINUOUS
10
4.45085
20
-1.91484
11
4.4907
21
-1.76616
0
LINE
8
BLACK
6
CONTINUOUS
10
4.4907
20
-1.76616
11
3.76623
21
-1.57277
0
LINE
8
BLACK
6
CONTINUOUS
10
3.76623
20
-1.57277
11
3.76622
21
-1.57277
0
LINE
8
BLACK
6
CONTINUOUS
10
3.76622
20
-1.57277
11
3.76563
21
-1.57231
0
LINE
8
BLACK
6
CONTINUOUS
10
3.76563
20
-1.57231
11
3.76503
21
-1.57186
0
LINE
8
BLACK
6
CONTINUOUS
10
3.76503
20
-1.57186
11
3.76503
21
-1.57185
0
LINE
8
BLACK
6
CONTINUOUS
10
3.76503
20
-1.57185
11
3.76503
21
-1.57185
0
LINE
8
BLACK
6
CONTINUOUS
10
3.76503
20
-1.57185
11
3.76493
21
-1.57111
0
LINE
8
BLACK
6
CONTINUOUS
10
3.76493
20
-1.57111
11
3.76483
21
-1.57036
0
LINE
8
BLACK
6
CONTINUOUS
10
3.76483
20
-1.57036
11
3.81256
21
-1.39017
0
LINE
8
BLACK
6
CONTINUOUS
10
3.81256
20
-1.39017
11
3.09194
21
-1.19729
0
LINE
8
BLACK
6
CONTINUOUS
10
3.09194
20
-1.19729
11
3.04324
21
-1.3765
0
LINE
8
BLACK
6
CONTINUOUS
10
3.04324
20
-1.3765
11
3.04278
21
-1.37709
0
LINE
8
BLACK
6
CONTINUOUS
10
3.04278
20
-1.37709
11
3.04232
21
-1.37769
0
LINE
8
BLACK
6
CONTINUOUS
10
3.04232
20
-1.37769
11
3.04232
21
-1.37769
0
LINE
8
BLACK
6
CONTINUOUS
10
3.04232
20
-1.37769
11
3.04232
21
-1.37769
0
LINE
8
BLACK
6
CONTINUOUS
10
3.04232
20
-1.37769
11
3.04157
21
-1.37779
0
LINE
8
BLACK
6
CONTINUOUS
10
3.04157
20
-1.37779
11
3.04083
21
-1.37789
0
LINE
8
BLACK
6
CONTINUOUS
10
3.04083
20
-1.37789
11
2.31931
21
-1.1845
0
LINE
8
BLACK
6
CONTINUOUS
10
2.31931
20
-1.1845
11
2.23123
21
-1.51429
  0
ENDSEC
  0
EOF
