  0
SECTION
  2
HEADER
  9
$ANGBASE
  50
0.0
  9
$ANGDIR
  70
1
  9
$MEASUREMENT
  70
1
  0
ENDSEC
  0
SECTION
  2
TABLES
  0
TABLE
  2
LTYPE
  70
4
  0
LTYPE
  5
40F
  2
CONTINUOUS
  70
0
  3
Solid line
  72
65
  73
0
  40
0.0
  0
LTYPE
  5
410
  2
DASHDOT
 70
0
  3
Dash Dot ____ _ ____ _
 72
65
 73
4
 40
2.0
 49
1.25
 49
-0.25
 49
0.25
 49
-0.25
  0
LTYPE
  5
411
  2
DASHED
 70
0
  3
Dashed __ __ __ __ __
 72
65
 73
2
 40
0.75
 49
0.5
 49
-0.25
  0
LTYPE
  5
43B
  2
DOTTED
 70
0
  3
Dotted .  .  .  .
 72
65
 73
2
 40
0.2
 49
0.0
 49
-0.2
  0
ENDTAB
  0
TABLE
  2
STYLE
  70
4
  0
STYLE
  2
KICAD
  70
0
  40
0
  41
1
  42
1
  50
0
  71
0
  3
isocp.shx
  0
STYLE
  2
KICADB
  70
0
  40
0
  41
1
  42
1
  50
0
  71
0
  3
isocp.shx
  0
STYLE
  2
KICADI
  70
0
  40
0
  41
1
  42
1
  50
15
  71
0
  3
isocp.shx
  0
STYLE
  2
KICADBI
  70
0
  40
0
  41
1
  42
1
  50
15
  71
0
  3
isocp.shx
  0
ENDTAB
  0
TABLE
  2
LAYER
  70
1
  0
LAYER
  2
BLACK
  70
0
  62
7
  6
CONTINUOUS
  0
ENDTAB
  0
ENDSEC
  0
SECTION
  2
ENTITIES
0
LINE
8
BLACK
6
CONTINUOUS
10
220.156
20
-30.4292
11
220.175
21
-30.4316
0
LINE
8
BLACK
6
CONTINUOUS
10
220.175
20
-30.4316
11
220.175
21
-30.4317
0
LINE
8
BLACK
6
CONTINUOUS
10
220.175
20
-30.4317
11
220.175
21
-30.4317
0
LINE
8
BLACK
6
CONTINUOUS
10
220.175
20
-30.4317
11
220.187
21
-30.4467
0
LINE
8
BLACK
6
CONTINUOUS
10
220.187
20
-30.4467
11
220.198
21
-30.4619
0
LINE
8
BLACK
6
CONTINUOUS
10
220.198
20
-30.4619
11
221.435
21
-35.0139
0
LINE
8
BLACK
6
CONTINUOUS
10
221.435
20
-35.0139
11
239.787
21
-30.1267
0
LINE
8
BLACK
6
CONTINUOUS
10
239.787
20
-30.1267
11
239.806
21
-30.1292
0
LINE
8
BLACK
6
CONTINUOUS
10
239.806
20
-30.1292
11
239.825
21
-30.1317
0
LINE
8
BLACK
6
CONTINUOUS
10
239.825
20
-30.1317
11
239.825
21
-30.1317
0
LINE
8
BLACK
6
CONTINUOUS
10
239.825
20
-30.1317
11
239.825
21
-30.1317
0
LINE
8
BLACK
6
CONTINUOUS
10
239.825
20
-30.1317
11
239.837
21
-30.1469
0
LINE
8
BLACK
6
CONTINUOUS
10
239.837
20
-30.1469
11
239.848
21
-30.1621
0
LINE
8
BLACK
6
CONTINUOUS
10
239.848
20
-30.1621
11
242.085
21
-38.5138
0
LINE
8
BLACK
6
CONTINUOUS
10
242.085
20
-38.5138
11
260.512
21
-33.6017
0
LINE
8
BLACK
6
CONTINUOUS
10
260.512
20
-33.6017
11
260.531
21
-33.6042
0
LINE
8
BLACK
6
CONTINUOUS
10
260.531
20
-33.6042
11
260.55
21
-33.6067
0
LINE
8
BLACK
6
CONTINUOUS
10
260.55
20
-33.6067
11
260.55
21
-33.6067
0
LINE
8
BLACK
6
CONTINUOUS
10
260.55
20
-33.6067
11
260.55
21
-33.6067
0
LINE
8
BLACK
6
CONTINUOUS
10
260.55
20
-33.6067
11
260.562
21
-33.622
0
LINE
8
BLACK
6
CONTINUOUS
10
260.562
20
-33.622
11
260.573
21
-33.6371
0
LINE
8
BLACK
6
CONTINUOUS
10
260.573
20
-33.6371
11
275.348
21
-88.8371
0
LINE
8
BLACK
6
CONTINUOUS
10
275.348
20
-88.8371
11
275.347
21
-88.8462
0
LINE
8
BLACK
6
CONTINUOUS
10
275.347
20
-88.8462
11
275.35
21
-88.855
0
LINE
8
BLACK
6
CONTINUOUS
10
275.35
20
-88.855
11
275.345
21
-88.8644
0
LINE
8
BLACK
6
CONTINUOUS
10
275.345
20
-88.8644
11
275.343
21
-88.875
0
LINE
8
BLACK
6
CONTINUOUS
10
275.343
20
-88.875
11
275.336
21
-88.8806
0
LINE
8
BLACK
6
CONTINUOUS
10
275.336
20
-88.8806
11
275.332
21
-88.8887
0
LINE
8
BLACK
6
CONTINUOUS
10
275.332
20
-88.8887
11
238.232
21
-119.164
0
LINE
8
BLACK
6
CONTINUOUS
10
238.232
20
-119.164
11
238.225
21
-119.166
0
LINE
8
BLACK
6
CONTINUOUS
10
238.225
20
-119.166
11
238.221
21
-119.17
0
LINE
8
BLACK
6
CONTINUOUS
10
238.221
20
-119.17
11
220.946
21
-127.22
0
LINE
8
BLACK
6
CONTINUOUS
10
220.946
20
-127.22
11
220.945
21
-127.22
0
LINE
8
BLACK
6
CONTINUOUS
10
220.945
20
-127.22
11
220.944
21
-127.221
0
LINE
8
BLACK
6
CONTINUOUS
10
220.944
20
-127.221
11
202.151
21
-135.118
0
LINE
8
BLACK
6
CONTINUOUS
10
202.151
20
-135.118
11
185.106
21
-148.714
0
LINE
8
BLACK
6
CONTINUOUS
10
185.106
20
-148.714
11
185.09
21
-148.719
0
LINE
8
BLACK
6
CONTINUOUS
10
185.09
20
-148.719
11
185.075
21
-148.725
0
LINE
8
BLACK
6
CONTINUOUS
10
185.075
20
-148.725
11
185.072
21
-148.724
0
LINE
8
BLACK
6
CONTINUOUS
10
185.072
20
-148.724
11
185.069
21
-148.725
0
LINE
8
BLACK
6
CONTINUOUS
10
185.069
20
-148.725
11
185.055
21
-148.717
0
LINE
8
BLACK
6
CONTINUOUS
10
185.055
20
-148.717
11
185.04
21
-148.71
0
LINE
8
BLACK
6
CONTINUOUS
10
185.04
20
-148.71
11
171.579
21
-135.275
0
LINE
8
BLACK
6
CONTINUOUS
10
171.579
20
-135.275
11
128.021
21
-135.375
0
LINE
8
BLACK
6
CONTINUOUS
10
128.021
20
-135.375
11
114.56
21
-148.835
0
LINE
8
BLACK
6
CONTINUOUS
10
114.56
20
-148.835
11
114.545
21
-148.842
0
LINE
8
BLACK
6
CONTINUOUS
10
114.545
20
-148.842
11
114.531
21
-148.85
0
LINE
8
BLACK
6
CONTINUOUS
10
114.531
20
-148.85
11
114.528
21
-148.849
0
LINE
8
BLACK
6
CONTINUOUS
10
114.528
20
-148.849
11
114.525
21
-148.85
0
LINE
8
BLACK
6
CONTINUOUS
10
114.525
20
-148.85
11
114.51
21
-148.844
0
LINE
8
BLACK
6
CONTINUOUS
10
114.51
20
-148.844
11
114.494
21
-148.839
0
LINE
8
BLACK
6
CONTINUOUS
10
114.494
20
-148.839
11
97.4242
21
-135.218
0
LINE
8
BLACK
6
CONTINUOUS
10
97.4242
20
-135.218
11
78.6306
21
-127.321
0
LINE
8
BLACK
6
CONTINUOUS
10
78.6306
20
-127.321
11
78.6299
21
-127.32
0
LINE
8
BLACK
6
CONTINUOUS
10
78.6299
20
-127.32
11
78.6289
21
-127.32
0
LINE
8
BLACK
6
CONTINUOUS
10
78.6289
20
-127.32
11
61.3789
21
-119.27
0
LINE
8
BLACK
6
CONTINUOUS
10
61.3789
20
-119.27
11
61.3747
21
-119.266
0
LINE
8
BLACK
6
CONTINUOUS
10
61.3747
20
-119.266
11
61.3687
21
-119.264
0
LINE
8
BLACK
6
CONTINUOUS
10
61.3687
20
-119.264
11
23.4187
21
-88.789
0
LINE
8
BLACK
6
CONTINUOUS
10
23.4187
20
-88.789
11
23.4142
21
-88.7807
0
LINE
8
BLACK
6
CONTINUOUS
10
23.4142
20
-88.7807
11
23.4067
21
-88.775
0
LINE
8
BLACK
6
CONTINUOUS
10
23.4067
20
-88.775
11
23.4053
21
-88.7646
0
LINE
8
BLACK
6
CONTINUOUS
10
23.4053
20
-88.7646
11
23.4003
21
-88.7554
0
LINE
8
BLACK
6
CONTINUOUS
10
23.4003
20
-88.7554
11
23.4029
21
-88.7464
0
LINE
8
BLACK
6
CONTINUOUS
10
23.4029
20
-88.7464
11
23.4017
21
-88.7371
0
LINE
8
BLACK
6
CONTINUOUS
10
23.4017
20
-88.7371
11
38.2017
21
-33.5121
0
LINE
8
BLACK
6
CONTINUOUS
10
38.2017
20
-33.5121
11
38.225
21
-33.4817
0
LINE
8
BLACK
6
CONTINUOUS
10
38.225
20
-33.4817
11
38.225
21
-33.4817
0
LINE
8
BLACK
6
CONTINUOUS
10
38.225
20
-33.4817
11
38.2415
21
-33.4795
0
LINE
8
BLACK
6
CONTINUOUS
10
38.2415
20
-33.4795
11
38.2629
21
-33.4767
0
LINE
8
BLACK
6
CONTINUOUS
10
38.2629
20
-33.4767
11
38.2629
21
-33.4767
0
LINE
8
BLACK
6
CONTINUOUS
10
38.2629
20
-33.4767
11
56.5896
21
-38.3887
0
LINE
8
BLACK
6
CONTINUOUS
10
56.5896
20
-38.3887
11
58.8267
21
-30.0121
0
LINE
8
BLACK
6
CONTINUOUS
10
58.8267
20
-30.0121
11
58.8267
21
-30.0121
0
LINE
8
BLACK
6
CONTINUOUS
10
58.8267
20
-30.0121
11
58.8267
21
-30.0121
0
LINE
8
BLACK
6
CONTINUOUS
10
58.8267
20
-30.0121
11
58.8382
21
-29.997
0
LINE
8
BLACK
6
CONTINUOUS
10
58.8382
20
-29.997
11
58.85
21
-29.9817
0
LINE
8
BLACK
6
CONTINUOUS
10
58.85
20
-29.9817
11
58.85
21
-29.9817
0
LINE
8
BLACK
6
CONTINUOUS
10
58.85
20
-29.9817
11
58.85
21
-29.9817
0
LINE
8
BLACK
6
CONTINUOUS
10
58.85
20
-29.9817
11
58.869
21
-29.9792
0
LINE
8
BLACK
6
CONTINUOUS
10
58.869
20
-29.9792
11
58.8879
21
-29.9767
0
LINE
8
BLACK
6
CONTINUOUS
10
58.8879
20
-29.9767
11
58.8879
21
-29.9767
0
LINE
8
BLACK
6
CONTINUOUS
10
58.8879
20
-29.9767
11
58.8879
21
-29.9767
0
LINE
8
BLACK
6
CONTINUOUS
10
58.8879
20
-29.9767
11
77.2148
21
-34.8888
0
LINE
8
BLACK
6
CONTINUOUS
10
77.2148
20
-34.8888
11
78.4517
21
-30.3369
0
LINE
8
BLACK
6
CONTINUOUS
10
78.4517
20
-30.3369
11
78.4634
21
-30.3218
0
LINE
8
BLACK
6
CONTINUOUS
10
78.4634
20
-30.3218
11
78.475
21
-30.3067
0
LINE
8
BLACK
6
CONTINUOUS
10
78.475
20
-30.3067
11
78.4751
21
-30.3067
0
LINE
8
BLACK
6
CONTINUOUS
10
78.4751
20
-30.3067
11
78.4752
21
-30.3066
0
LINE
8
BLACK
6
CONTINUOUS
10
78.4752
20
-30.3066
11
78.494
21
-30.3042
0
LINE
8
BLACK
6
CONTINUOUS
10
78.494
20
-30.3042
11
78.5129
21
-30.3017
0
LINE
8
BLACK
6
CONTINUOUS
10
78.5129
20
-30.3017
11
96.9129
21
-35.2267
0
LINE
8
BLACK
6
CONTINUOUS
10
96.9129
20
-35.2267
11
96.9281
21
-35.2383
0
LINE
8
BLACK
6
CONTINUOUS
10
96.9281
20
-35.2383
11
96.9432
21
-35.2499
0
LINE
8
BLACK
6
CONTINUOUS
10
96.9432
20
-35.2499
11
96.9432
21
-35.2499
0
LINE
8
BLACK
6
CONTINUOUS
10
96.9432
20
-35.2499
11
96.9433
21
-35.25
0
LINE
8
BLACK
6
CONTINUOUS
10
96.9433
20
-35.25
11
96.9458
21
-35.2689
0
LINE
8
BLACK
6
CONTINUOUS
10
96.9458
20
-35.2689
11
96.9483
21
-35.2878
0
LINE
8
BLACK
6
CONTINUOUS
10
96.9483
20
-35.2878
11
95.7361
21
-39.8646
0
LINE
8
BLACK
6
CONTINUOUS
10
95.7361
20
-39.8646
11
114.138
21
-44.7767
0
LINE
8
BLACK
6
CONTINUOUS
10
114.138
20
-44.7767
11
114.138
21
-44.7767
0
LINE
8
BLACK
6
CONTINUOUS
10
114.138
20
-44.7767
11
114.138
21
-44.7767
0
LINE
8
BLACK
6
CONTINUOUS
10
114.138
20
-44.7767
11
114.153
21
-44.7883
0
LINE
8
BLACK
6
CONTINUOUS
10
114.153
20
-44.7883
11
114.168
21
-44.8
0
LINE
8
BLACK
6
CONTINUOUS
10
114.168
20
-44.8
11
114.168
21
-44.8
0
LINE
8
BLACK
6
CONTINUOUS
10
114.168
20
-44.8
11
114.168
21
-44.8
0
LINE
8
BLACK
6
CONTINUOUS
10
114.168
20
-44.8
11
114.171
21
-44.8186
0
LINE
8
BLACK
6
CONTINUOUS
10
114.171
20
-44.8186
11
114.173
21
-44.8379
0
LINE
8
BLACK
6
CONTINUOUS
10
114.173
20
-44.8379
11
114.173
21
-44.8379
0
LINE
8
BLACK
6
CONTINUOUS
10
114.173
20
-44.8379
11
114.173
21
-44.8379
0
LINE
8
BLACK
6
CONTINUOUS
10
114.173
20
-44.8379
11
113.161
21
-48.6147
0
LINE
8
BLACK
6
CONTINUOUS
10
113.161
20
-48.6147
11
131.53
21
-53.5429
0
LINE
8
BLACK
6
CONTINUOUS
10
131.53
20
-53.5429
11
138.01
21
-44.8451
0
LINE
8
BLACK
6
CONTINUOUS
10
138.01
20
-44.8451
11
138.013
21
-44.8432
0
LINE
8
BLACK
6
CONTINUOUS
10
138.013
20
-44.8432
11
138.015
21
-44.8396
0
LINE
8
BLACK
6
CONTINUOUS
10
138.015
20
-44.8396
11
138.029
21
-44.8336
0
LINE
8
BLACK
6
CONTINUOUS
10
138.029
20
-44.8336
11
138.043
21
-44.8255
0
LINE
8
BLACK
6
CONTINUOUS
10
138.043
20
-44.8255
11
138.046
21
-44.8265
0
LINE
8
BLACK
6
CONTINUOUS
10
138.046
20
-44.8265
11
138.05
21
-44.825
0
LINE
8
BLACK
6
CONTINUOUS
10
138.05
20
-44.825
11
160.175
21
-44.825
0
LINE
8
BLACK
6
CONTINUOUS
10
160.175
20
-44.825
11
160.178
21
-44.8261
0
LINE
8
BLACK
6
CONTINUOUS
10
160.178
20
-44.8261
11
160.18
21
-44.8253
0
LINE
8
BLACK
6
CONTINUOUS
10
160.18
20
-44.8253
11
160.195
21
-44.8332
0
LINE
8
BLACK
6
CONTINUOUS
10
160.195
20
-44.8332
11
160.21
21
-44.8396
0
LINE
8
BLACK
6
CONTINUOUS
10
160.21
20
-44.8396
11
160.211
21
-44.8422
0
LINE
8
BLACK
6
CONTINUOUS
10
160.211
20
-44.8422
11
160.214
21
-44.8435
0
LINE
8
BLACK
6
CONTINUOUS
10
160.214
20
-44.8435
11
167.343
21
-53.6433
0
LINE
8
BLACK
6
CONTINUOUS
10
167.343
20
-53.6433
11
185.614
21
-48.7396
0
LINE
8
BLACK
6
CONTINUOUS
10
185.614
20
-48.7396
11
184.602
21
-44.9379
0
LINE
8
BLACK
6
CONTINUOUS
10
184.602
20
-44.9379
11
184.604
21
-44.9189
0
LINE
8
BLACK
6
CONTINUOUS
10
184.604
20
-44.9189
11
184.607
21
-44.9
0
LINE
8
BLACK
6
CONTINUOUS
10
184.607
20
-44.9
11
184.607
21
-44.9
0
LINE
8
BLACK
6
CONTINUOUS
10
184.607
20
-44.9
11
184.607
21
-44.8999
0
LINE
8
BLACK
6
CONTINUOUS
10
184.607
20
-44.8999
11
184.622
21
-44.8882
0
LINE
8
BLACK
6
CONTINUOUS
10
184.622
20
-44.8882
11
184.637
21
-44.8767
0
LINE
8
BLACK
6
CONTINUOUS
10
184.637
20
-44.8767
11
202.914
21
-39.9896
0
LINE
8
BLACK
6
CONTINUOUS
10
202.914
20
-39.9896
11
201.702
21
-35.4379
0
LINE
8
BLACK
6
CONTINUOUS
10
201.702
20
-35.4379
11
201.704
21
-35.419
0
LINE
8
BLACK
6
CONTINUOUS
10
201.704
20
-35.419
11
201.707
21
-35.4
0
LINE
8
BLACK
6
CONTINUOUS
10
201.707
20
-35.4
11
201.707
21
-35.4
0
LINE
8
BLACK
6
CONTINUOUS
10
201.707
20
-35.4
11
201.707
21
-35.3999
0
LINE
8
BLACK
6
CONTINUOUS
10
201.707
20
-35.3999
11
201.722
21
-35.3883
0
LINE
8
BLACK
6
CONTINUOUS
10
201.722
20
-35.3883
11
201.737
21
-35.3767
0
LINE
8
BLACK
6
CONTINUOUS
10
201.737
20
-35.3767
11
201.737
21
-35.3767
0
LINE
8
BLACK
6
CONTINUOUS
10
201.737
20
-35.3767
11
220.137
21
-30.4267
0
LINE
8
BLACK
6
CONTINUOUS
10
220.137
20
-30.4267
11
220.156
21
-30.4292
0
LINE
8
BLACK
6
CONTINUOUS
10
56.6733
20
-38.4629
11
56.6733
21
-38.4629
0
LINE
8
BLACK
6
CONTINUOUS
10
56.6733
20
-38.4629
11
56.6733
21
-38.4629
0
LINE
8
BLACK
6
CONTINUOUS
10
56.6733
20
-38.4629
11
56.6618
21
-38.478
0
LINE
8
BLACK
6
CONTINUOUS
10
56.6618
20
-38.478
11
56.65
21
-38.4933
0
LINE
8
BLACK
6
CONTINUOUS
10
56.65
20
-38.4933
11
56.65
21
-38.4933
0
LINE
8
BLACK
6
CONTINUOUS
10
56.65
20
-38.4933
11
56.65
21
-38.4933
0
LINE
8
BLACK
6
CONTINUOUS
10
56.65
20
-38.4933
11
56.631
21
-38.4958
0
LINE
8
BLACK
6
CONTINUOUS
10
56.631
20
-38.4958
11
56.6121
21
-38.4983
0
LINE
8
BLACK
6
CONTINUOUS
10
56.6121
20
-38.4983
11
56.6121
21
-38.4983
0
LINE
8
BLACK
6
CONTINUOUS
10
56.6121
20
-38.4983
11
56.6121
21
-38.4983
0
LINE
8
BLACK
6
CONTINUOUS
10
56.6121
20
-38.4983
11
38.2854
21
-33.5862
0
LINE
8
BLACK
6
CONTINUOUS
10
38.2854
20
-33.5862
11
23.5067
21
-88.7314
0
LINE
8
BLACK
6
CONTINUOUS
10
23.5067
20
-88.7314
11
61.4266
21
-119.182
0
LINE
8
BLACK
6
CONTINUOUS
10
61.4266
20
-119.182
11
78.6702
21
-127.229
0
LINE
8
BLACK
6
CONTINUOUS
10
78.6702
20
-127.229
11
97.4694
21
-135.129
0
LINE
8
BLACK
6
CONTINUOUS
10
97.4694
20
-135.129
11
97.4744
21
-135.134
0
LINE
8
BLACK
6
CONTINUOUS
10
97.4744
20
-135.134
11
97.4812
21
-135.136
0
LINE
8
BLACK
6
CONTINUOUS
10
97.4812
20
-135.136
11
114.521
21
-148.733
0
LINE
8
BLACK
6
CONTINUOUS
10
114.521
20
-148.733
11
127.965
21
-135.29
0
LINE
8
BLACK
6
CONTINUOUS
10
127.965
20
-135.29
11
127.982
21
-135.282
0
LINE
8
BLACK
6
CONTINUOUS
10
127.982
20
-135.282
11
128
21
-135.275
0
LINE
8
BLACK
6
CONTINUOUS
10
128
20
-135.275
11
171.6
21
-135.175
0
LINE
8
BLACK
6
CONTINUOUS
10
171.6
20
-135.175
11
171.6
21
-135.175
0
LINE
8
BLACK
6
CONTINUOUS
10
171.6
20
-135.175
11
171.6
21
-135.175
0
LINE
8
BLACK
6
CONTINUOUS
10
171.6
20
-135.175
11
171.617
21
-135.182
0
LINE
8
BLACK
6
CONTINUOUS
10
171.617
20
-135.182
11
171.635
21
-135.19
0
LINE
8
BLACK
6
CONTINUOUS
10
171.635
20
-135.19
11
171.635
21
-135.19
0
LINE
8
BLACK
6
CONTINUOUS
10
171.635
20
-135.19
11
171.635
21
-135.19
0
LINE
8
BLACK
6
CONTINUOUS
10
171.635
20
-135.19
11
185.079
21
-148.608
0
LINE
8
BLACK
6
CONTINUOUS
10
185.079
20
-148.608
11
202.094
21
-135.036
0
LINE
8
BLACK
6
CONTINUOUS
10
202.094
20
-135.036
11
202.101
21
-135.034
0
LINE
8
BLACK
6
CONTINUOUS
10
202.101
20
-135.034
11
202.106
21
-135.029
0
LINE
8
BLACK
6
CONTINUOUS
10
202.106
20
-135.029
11
220.905
21
-127.129
0
LINE
8
BLACK
6
CONTINUOUS
10
220.905
20
-127.129
11
238.173
21
-119.082
0
LINE
8
BLACK
6
CONTINUOUS
10
238.173
20
-119.082
11
275.243
21
-88.8317
0
LINE
8
BLACK
6
CONTINUOUS
10
275.243
20
-88.8317
11
260.49
21
-33.7112
0
LINE
8
BLACK
6
CONTINUOUS
10
260.49
20
-33.7112
11
242.063
21
-38.6233
0
LINE
8
BLACK
6
CONTINUOUS
10
242.063
20
-38.6233
11
242.063
21
-38.6233
0
LINE
8
BLACK
6
CONTINUOUS
10
242.063
20
-38.6233
11
242.063
21
-38.6233
0
LINE
8
BLACK
6
CONTINUOUS
10
242.063
20
-38.6233
11
242.063
21
-38.6233
0
LINE
8
BLACK
6
CONTINUOUS
10
242.063
20
-38.6233
11
242.044
21
-38.6208
0
LINE
8
BLACK
6
CONTINUOUS
10
242.044
20
-38.6208
11
242.025
21
-38.6183
0
LINE
8
BLACK
6
CONTINUOUS
10
242.025
20
-38.6183
11
242.025
21
-38.6183
0
LINE
8
BLACK
6
CONTINUOUS
10
242.025
20
-38.6183
11
242.025
21
-38.6183
0
LINE
8
BLACK
6
CONTINUOUS
10
242.025
20
-38.6183
11
242.013
21
-38.6029
0
LINE
8
BLACK
6
CONTINUOUS
10
242.013
20
-38.6029
11
242.002
21
-38.5879
0
LINE
8
BLACK
6
CONTINUOUS
10
242.002
20
-38.5879
11
239.765
21
-30.2362
0
LINE
8
BLACK
6
CONTINUOUS
10
239.765
20
-30.2362
11
221.413
21
-35.1233
0
LINE
8
BLACK
6
CONTINUOUS
10
221.413
20
-35.1233
11
221.394
21
-35.1208
0
LINE
8
BLACK
6
CONTINUOUS
10
221.394
20
-35.1208
11
221.375
21
-35.1184
0
LINE
8
BLACK
6
CONTINUOUS
10
221.375
20
-35.1184
11
221.375
21
-35.1183
0
LINE
8
BLACK
6
CONTINUOUS
10
221.375
20
-35.1183
11
221.375
21
-35.1183
0
LINE
8
BLACK
6
CONTINUOUS
10
221.375
20
-35.1183
11
221.363
21
-35.1032
0
LINE
8
BLACK
6
CONTINUOUS
10
221.363
20
-35.1032
11
221.352
21
-35.0881
0
LINE
8
BLACK
6
CONTINUOUS
10
221.352
20
-35.0881
11
220.115
21
-30.5362
0
LINE
8
BLACK
6
CONTINUOUS
10
220.115
20
-30.5362
11
201.811
21
-35.4603
0
LINE
8
BLACK
6
CONTINUOUS
10
201.811
20
-35.4603
11
203.023
21
-40.0121
0
LINE
8
BLACK
6
CONTINUOUS
10
203.023
20
-40.0121
11
203.021
21
-40.0308
0
LINE
8
BLACK
6
CONTINUOUS
10
203.021
20
-40.0308
11
203.018
21
-40.05
0
LINE
8
BLACK
6
CONTINUOUS
10
203.018
20
-40.05
11
203.018
21
-40.05
0
LINE
8
BLACK
6
CONTINUOUS
10
203.018
20
-40.05
11
203.018
21
-40.0501
0
LINE
8
BLACK
6
CONTINUOUS
10
203.018
20
-40.0501
11
203.003
21
-40.0616
0
LINE
8
BLACK
6
CONTINUOUS
10
203.003
20
-40.0616
11
202.988
21
-40.0733
0
LINE
8
BLACK
6
CONTINUOUS
10
202.988
20
-40.0733
11
184.711
21
-44.9604
0
LINE
8
BLACK
6
CONTINUOUS
10
184.711
20
-44.9604
11
185.723
21
-48.7621
0
LINE
8
BLACK
6
CONTINUOUS
10
185.723
20
-48.7621
11
185.721
21
-48.7811
0
LINE
8
BLACK
6
CONTINUOUS
10
185.721
20
-48.7811
11
185.718
21
-48.8
0
LINE
8
BLACK
6
CONTINUOUS
10
185.718
20
-48.8
11
185.718
21
-48.8
0
LINE
8
BLACK
6
CONTINUOUS
10
185.718
20
-48.8
11
185.718
21
-48.8001
0
LINE
8
BLACK
6
CONTINUOUS
10
185.718
20
-48.8001
11
185.703
21
-48.8117
0
LINE
8
BLACK
6
CONTINUOUS
10
185.703
20
-48.8117
11
185.688
21
-48.8233
0
LINE
8
BLACK
6
CONTINUOUS
10
185.688
20
-48.8233
11
167.338
21
-53.7483
0
LINE
8
BLACK
6
CONTINUOUS
10
167.338
20
-53.7483
11
167.329
21
-53.7471
0
LINE
8
BLACK
6
CONTINUOUS
10
167.329
20
-53.7471
11
167.32
21
-53.7497
0
LINE
8
BLACK
6
CONTINUOUS
10
167.32
20
-53.7497
11
167.31
21
-53.7447
0
LINE
8
BLACK
6
CONTINUOUS
10
167.31
20
-53.7447
11
167.3
21
-53.7433
0
LINE
8
BLACK
6
CONTINUOUS
10
167.3
20
-53.7433
11
167.294
21
-53.7359
0
LINE
8
BLACK
6
CONTINUOUS
10
167.294
20
-53.7359
11
167.286
21
-53.7315
0
LINE
8
BLACK
6
CONTINUOUS
10
167.286
20
-53.7315
11
160.151
21
-44.925
0
LINE
8
BLACK
6
CONTINUOUS
10
160.151
20
-44.925
11
138.075
21
-44.925
0
LINE
8
BLACK
6
CONTINUOUS
10
138.075
20
-44.925
11
131.59
21
-53.6299
0
LINE
8
BLACK
6
CONTINUOUS
10
131.59
20
-53.6299
11
131.581
21
-53.6351
0
LINE
8
BLACK
6
CONTINUOUS
10
131.581
20
-53.6351
11
131.575
21
-53.6433
0
LINE
8
BLACK
6
CONTINUOUS
10
131.575
20
-53.6433
11
131.565
21
-53.6446
0
LINE
8
BLACK
6
CONTINUOUS
10
131.565
20
-53.6446
11
131.557
21
-53.6495
0
LINE
8
BLACK
6
CONTINUOUS
10
131.557
20
-53.6495
11
131.547
21
-53.647
0
LINE
8
BLACK
6
CONTINUOUS
10
131.547
20
-53.647
11
131.537
21
-53.6483
0
LINE
8
BLACK
6
CONTINUOUS
10
131.537
20
-53.6483
11
113.087
21
-48.6983
0
LINE
8
BLACK
6
CONTINUOUS
10
113.087
20
-48.6983
11
113.087
21
-48.6983
0
LINE
8
BLACK
6
CONTINUOUS
10
113.087
20
-48.6983
11
113.087
21
-48.6983
0
LINE
8
BLACK
6
CONTINUOUS
10
113.087
20
-48.6983
11
113.072
21
-48.6867
0
LINE
8
BLACK
6
CONTINUOUS
10
113.072
20
-48.6867
11
113.057
21
-48.675
0
LINE
8
BLACK
6
CONTINUOUS
10
113.057
20
-48.675
11
113.057
21
-48.675
0
LINE
8
BLACK
6
CONTINUOUS
10
113.057
20
-48.675
11
113.057
21
-48.675
0
LINE
8
BLACK
6
CONTINUOUS
10
113.057
20
-48.675
11
113.054
21
-48.6553
0
LINE
8
BLACK
6
CONTINUOUS
10
113.054
20
-48.6553
11
113.052
21
-48.6371
0
LINE
8
BLACK
6
CONTINUOUS
10
113.052
20
-48.6371
11
114.064
21
-44.8604
0
LINE
8
BLACK
6
CONTINUOUS
10
114.064
20
-44.8604
11
95.6622
21
-39.9483
0
LINE
8
BLACK
6
CONTINUOUS
10
95.6622
20
-39.9483
11
95.6621
21
-39.9483
0
LINE
8
BLACK
6
CONTINUOUS
10
95.6621
20
-39.9483
11
95.647
21
-39.9367
0
LINE
8
BLACK
6
CONTINUOUS
10
95.647
20
-39.9367
11
95.6318
21
-39.9251
0
LINE
8
BLACK
6
CONTINUOUS
10
95.6318
20
-39.9251
11
95.6318
21
-39.9251
0
LINE
8
BLACK
6
CONTINUOUS
10
95.6318
20
-39.9251
11
95.6317
21
-39.925
0
LINE
8
BLACK
6
CONTINUOUS
10
95.6317
20
-39.925
11
95.6292
21
-39.9062
0
LINE
8
BLACK
6
CONTINUOUS
10
95.6292
20
-39.9062
11
95.6267
21
-39.8872
0
LINE
8
BLACK
6
CONTINUOUS
10
95.6267
20
-39.8872
11
96.8389
21
-35.3104
0
LINE
8
BLACK
6
CONTINUOUS
10
96.8389
20
-35.3104
11
78.5352
21
-30.4112
0
LINE
8
BLACK
6
CONTINUOUS
10
78.5352
20
-30.4112
11
77.2982
21
-34.9631
0
LINE
8
BLACK
6
CONTINUOUS
10
77.2982
20
-34.9631
11
77.2866
21
-34.9782
0
LINE
8
BLACK
6
CONTINUOUS
10
77.2866
20
-34.9782
11
77.275
21
-34.9933
0
LINE
8
BLACK
6
CONTINUOUS
10
77.275
20
-34.9933
11
77.2749
21
-34.9933
0
LINE
8
BLACK
6
CONTINUOUS
10
77.2749
20
-34.9933
11
77.2748
21
-34.9934
0
LINE
8
BLACK
6
CONTINUOUS
10
77.2748
20
-34.9934
11
77.256
21
-34.9958
0
LINE
8
BLACK
6
CONTINUOUS
10
77.256
20
-34.9958
11
77.2371
21
-34.9983
0
LINE
8
BLACK
6
CONTINUOUS
10
77.2371
20
-34.9983
11
58.9104
21
-30.0863
0
LINE
8
BLACK
6
CONTINUOUS
10
58.9104
20
-30.0863
11
56.6733
21
-38.4629
0
LINE
8
BLACK
6
CONTINUOUS
10
114.555
20
-125.384
11
124.454
21
-135.284
0
LINE
8
BLACK
6
CONTINUOUS
10
124.454
20
-135.284
11
124.469
21
-135.319
0
LINE
8
BLACK
6
CONTINUOUS
10
124.469
20
-135.319
11
124.454
21
-135.354
0
LINE
8
BLACK
6
CONTINUOUS
10
124.454
20
-135.354
11
114.555
21
-145.254
0
LINE
8
BLACK
6
CONTINUOUS
10
114.555
20
-145.254
11
114.519
21
-145.268
0
LINE
8
BLACK
6
CONTINUOUS
10
114.519
20
-145.268
11
114.484
21
-145.254
0
LINE
8
BLACK
6
CONTINUOUS
10
114.484
20
-145.254
11
104.585
21
-135.354
0
LINE
8
BLACK
6
CONTINUOUS
10
104.585
20
-135.354
11
104.57
21
-135.319
0
LINE
8
BLACK
6
CONTINUOUS
10
104.57
20
-135.319
11
104.585
21
-135.284
0
LINE
8
BLACK
6
CONTINUOUS
10
104.585
20
-135.284
11
114.484
21
-125.384
0
LINE
8
BLACK
6
CONTINUOUS
10
114.484
20
-125.384
11
114.519
21
-125.369
0
LINE
8
BLACK
6
CONTINUOUS
10
114.519
20
-125.369
11
114.555
21
-125.384
0
LINE
8
BLACK
6
CONTINUOUS
10
104.691
20
-135.319
11
114.519
21
-145.148
0
LINE
8
BLACK
6
CONTINUOUS
10
114.519
20
-145.148
11
124.348
21
-135.319
0
LINE
8
BLACK
6
CONTINUOUS
10
124.348
20
-135.319
11
114.519
21
-125.49
0
LINE
8
BLACK
6
CONTINUOUS
10
114.519
20
-125.49
11
104.691
21
-135.319
0
LINE
8
BLACK
6
CONTINUOUS
10
185.105
20
-125.207
11
195.005
21
-135.107
0
LINE
8
BLACK
6
CONTINUOUS
10
195.005
20
-135.107
11
195.019
21
-135.142
0
LINE
8
BLACK
6
CONTINUOUS
10
195.019
20
-135.142
11
195.005
21
-135.178
0
LINE
8
BLACK
6
CONTINUOUS
10
195.005
20
-135.178
11
185.105
21
-145.077
0
LINE
8
BLACK
6
CONTINUOUS
10
185.105
20
-145.077
11
185.07
21
-145.092
0
LINE
8
BLACK
6
CONTINUOUS
10
185.07
20
-145.092
11
185.034
21
-145.077
0
LINE
8
BLACK
6
CONTINUOUS
10
185.034
20
-145.077
11
175.135
21
-135.178
0
LINE
8
BLACK
6
CONTINUOUS
10
175.135
20
-135.178
11
175.12
21
-135.142
0
LINE
8
BLACK
6
CONTINUOUS
10
175.12
20
-135.142
11
175.135
21
-135.107
0
LINE
8
BLACK
6
CONTINUOUS
10
175.135
20
-135.107
11
185.034
21
-125.207
0
LINE
8
BLACK
6
CONTINUOUS
10
185.034
20
-125.207
11
185.07
21
-125.193
0
LINE
8
BLACK
6
CONTINUOUS
10
185.07
20
-125.193
11
185.105
21
-125.207
0
LINE
8
BLACK
6
CONTINUOUS
10
175.241
20
-135.142
11
185.07
21
-144.971
0
LINE
8
BLACK
6
CONTINUOUS
10
185.07
20
-144.971
11
194.898
21
-135.142
0
LINE
8
BLACK
6
CONTINUOUS
10
194.898
20
-135.142
11
185.07
21
-125.313
0
LINE
8
BLACK
6
CONTINUOUS
10
185.07
20
-125.313
11
175.241
21
-135.142
0
LINE
8
BLACK
6
CONTINUOUS
10
96.7689
20
-131.732
11
85.3008
21
-123.702
0
LINE
8
BLACK
6
CONTINUOUS
10
85.3008
20
-123.702
11
85.2802
21
-123.669
0
LINE
8
BLACK
6
CONTINUOUS
10
85.2802
20
-123.669
11
85.2885
21
-123.632
0
LINE
8
BLACK
6
CONTINUOUS
10
85.2885
20
-123.632
11
93.3186
21
-112.164
0
LINE
8
BLACK
6
CONTINUOUS
10
93.3186
20
-112.164
11
93.3509
21
-112.143
0
LINE
8
BLACK
6
CONTINUOUS
10
93.3509
20
-112.143
11
93.3882
21
-112.152
0
LINE
8
BLACK
6
CONTINUOUS
10
93.3882
20
-112.152
11
104.856
21
-120.182
0
LINE
8
BLACK
6
CONTINUOUS
10
104.856
20
-120.182
11
104.864
21
-120.194
0
LINE
8
BLACK
6
CONTINUOUS
10
104.864
20
-120.194
11
104.877
21
-120.214
0
LINE
8
BLACK
6
CONTINUOUS
10
104.877
20
-120.214
11
104.869
21
-120.251
0
LINE
8
BLACK
6
CONTINUOUS
10
104.869
20
-120.251
11
96.8385
21
-131.72
0
LINE
8
BLACK
6
CONTINUOUS
10
96.8385
20
-131.72
11
96.8063
21
-131.74
0
LINE
8
BLACK
6
CONTINUOUS
10
96.8063
20
-131.74
11
96.7689
21
-131.732
0
LINE
8
BLACK
6
CONTINUOUS
10
96.7689
20
-131.732
11
96.7689
21
-131.732
0
LINE
8
BLACK
6
CONTINUOUS
10
85.3991
20
-123.648
11
96.7853
21
-131.621
0
LINE
8
BLACK
6
CONTINUOUS
10
96.7853
20
-131.621
11
104.758
21
-120.235
0
LINE
8
BLACK
6
CONTINUOUS
10
104.758
20
-120.235
11
93.3718
21
-112.262
0
LINE
8
BLACK
6
CONTINUOUS
10
93.3718
20
-112.262
11
85.3991
21
-123.648
0
LINE
8
BLACK
6
CONTINUOUS
10
206.27
20
-111.987
11
214.301
21
-123.455
0
LINE
8
BLACK
6
CONTINUOUS
10
214.301
20
-123.455
11
214.309
21
-123.493
0
LINE
8
BLACK
6
CONTINUOUS
10
214.309
20
-123.493
11
214.288
21
-123.525
0
LINE
8
BLACK
6
CONTINUOUS
10
214.288
20
-123.525
11
202.82
21
-131.555
0
LINE
8
BLACK
6
CONTINUOUS
10
202.82
20
-131.555
11
202.783
21
-131.563
0
LINE
8
BLACK
6
CONTINUOUS
10
202.783
20
-131.563
11
202.751
21
-131.543
0
LINE
8
BLACK
6
CONTINUOUS
10
202.751
20
-131.543
11
194.72
21
-120.075
0
LINE
8
BLACK
6
CONTINUOUS
10
194.72
20
-120.075
11
194.712
21
-120.037
0
LINE
8
BLACK
6
CONTINUOUS
10
194.712
20
-120.037
11
194.733
21
-120.005
0
LINE
8
BLACK
6
CONTINUOUS
10
194.733
20
-120.005
11
206.201
21
-111.975
0
LINE
8
BLACK
6
CONTINUOUS
10
206.201
20
-111.975
11
206.201
21
-111.975
0
LINE
8
BLACK
6
CONTINUOUS
10
206.201
20
-111.975
11
206.238
21
-111.967
0
LINE
8
BLACK
6
CONTINUOUS
10
206.238
20
-111.967
11
206.27
21
-111.987
0
LINE
8
BLACK
6
CONTINUOUS
10
194.831
20
-120.058
11
202.804
21
-131.445
0
LINE
8
BLACK
6
CONTINUOUS
10
202.804
20
-131.445
11
214.19
21
-123.472
0
LINE
8
BLACK
6
CONTINUOUS
10
214.19
20
-123.472
11
206.217
21
-112.086
0
LINE
8
BLACK
6
CONTINUOUS
10
206.217
20
-112.086
11
194.831
21
-120.058
0
LINE
8
BLACK
6
CONTINUOUS
10
70.6969
20
-105.279
11
83.3852
21
-111.195
0
LINE
8
BLACK
6
CONTINUOUS
10
83.3852
20
-111.195
11
83.3852
21
-111.195
0
LINE
8
BLACK
6
CONTINUOUS
10
83.3852
20
-111.195
11
83.411
21
-111.224
0
LINE
8
BLACK
6
CONTINUOUS
10
83.411
20
-111.224
11
83.4094
21
-111.262
0
LINE
8
BLACK
6
CONTINUOUS
10
83.4094
20
-111.262
11
77.4927
21
-123.95
0
LINE
8
BLACK
6
CONTINUOUS
10
77.4927
20
-123.95
11
77.4645
21
-123.976
0
LINE
8
BLACK
6
CONTINUOUS
10
77.4645
20
-123.976
11
77.4263
21
-123.974
0
LINE
8
BLACK
6
CONTINUOUS
10
77.4263
20
-123.974
11
64.738
21
-118.058
0
LINE
8
BLACK
6
CONTINUOUS
10
64.738
20
-118.058
11
64.7121
21
-118.029
0
LINE
8
BLACK
6
CONTINUOUS
10
64.7121
20
-118.029
11
64.7138
21
-117.991
0
LINE
8
BLACK
6
CONTINUOUS
10
64.7138
20
-117.991
11
70.6304
21
-105.303
0
LINE
8
BLACK
6
CONTINUOUS
10
70.6304
20
-105.303
11
70.6586
21
-105.277
0
LINE
8
BLACK
6
CONTINUOUS
10
70.6586
20
-105.277
11
70.6969
21
-105.279
0
LINE
8
BLACK
6
CONTINUOUS
10
64.8255
20
-117.988
11
77.4232
21
-123.863
0
LINE
8
BLACK
6
CONTINUOUS
10
77.4232
20
-123.863
11
83.2976
21
-111.265
0
LINE
8
BLACK
6
CONTINUOUS
10
83.2976
20
-111.265
11
70.6999
21
-105.39
0
LINE
8
BLACK
6
CONTINUOUS
10
70.6999
20
-105.39
11
64.8255
21
-117.988
0
LINE
8
BLACK
6
CONTINUOUS
10
228.959
20
-105.126
11
234.875
21
-117.814
0
LINE
8
BLACK
6
CONTINUOUS
10
234.875
20
-117.814
11
234.877
21
-117.853
0
LINE
8
BLACK
6
CONTINUOUS
10
234.877
20
-117.853
11
234.851
21
-117.881
0
LINE
8
BLACK
6
CONTINUOUS
10
234.851
20
-117.881
11
222.163
21
-123.798
0
LINE
8
BLACK
6
CONTINUOUS
10
222.163
20
-123.798
11
222.163
21
-123.798
0
LINE
8
BLACK
6
CONTINUOUS
10
222.163
20
-123.798
11
222.125
21
-123.799
0
LINE
8
BLACK
6
CONTINUOUS
10
222.125
20
-123.799
11
222.096
21
-123.773
0
LINE
8
BLACK
6
CONTINUOUS
10
222.096
20
-123.773
11
216.18
21
-111.085
0
LINE
8
BLACK
6
CONTINUOUS
10
216.18
20
-111.085
11
216.178
21
-111.047
0
LINE
8
BLACK
6
CONTINUOUS
10
216.178
20
-111.047
11
216.204
21
-111.019
0
LINE
8
BLACK
6
CONTINUOUS
10
216.204
20
-111.019
11
228.892
21
-105.102
0
LINE
8
BLACK
6
CONTINUOUS
10
228.892
20
-105.102
11
228.93
21
-105.1
0
LINE
8
BLACK
6
CONTINUOUS
10
228.93
20
-105.1
11
228.959
21
-105.126
0
LINE
8
BLACK
6
CONTINUOUS
10
216.291
20
-111.088
11
222.166
21
-123.686
0
LINE
8
BLACK
6
CONTINUOUS
10
222.166
20
-123.686
11
234.764
21
-117.811
0
LINE
8
BLACK
6
CONTINUOUS
10
234.764
20
-117.811
11
228.889
21
-105.214
0
LINE
8
BLACK
6
CONTINUOUS
10
228.889
20
-105.214
11
216.291
21
-111.088
0
LINE
8
BLACK
6
CONTINUOUS
10
193.623
20
-88.6332
11
193.646
21
-88.6636
0
LINE
8
BLACK
6
CONTINUOUS
10
193.646
20
-88.6636
11
193.646
21
-88.6636
0
LINE
8
BLACK
6
CONTINUOUS
10
193.646
20
-88.6636
11
197.27
21
-102.187
0
LINE
8
BLACK
6
CONTINUOUS
10
197.27
20
-102.187
11
197.265
21
-102.224
0
LINE
8
BLACK
6
CONTINUOUS
10
197.265
20
-102.224
11
197.234
21
-102.248
0
LINE
8
BLACK
6
CONTINUOUS
10
197.234
20
-102.248
11
197.234
21
-102.248
0
LINE
8
BLACK
6
CONTINUOUS
10
197.234
20
-102.248
11
183.711
21
-105.871
0
LINE
8
BLACK
6
CONTINUOUS
10
183.711
20
-105.871
11
183.711
21
-105.871
0
LINE
8
BLACK
6
CONTINUOUS
10
183.711
20
-105.871
11
183.673
21
-105.866
0
LINE
8
BLACK
6
CONTINUOUS
10
183.673
20
-105.866
11
183.65
21
-105.836
0
LINE
8
BLACK
6
CONTINUOUS
10
183.65
20
-105.836
11
180.027
21
-92.3129
0
LINE
8
BLACK
6
CONTINUOUS
10
180.027
20
-92.3129
11
180.032
21
-92.275
0
LINE
8
BLACK
6
CONTINUOUS
10
180.032
20
-92.275
11
180.062
21
-92.2517
0
LINE
8
BLACK
6
CONTINUOUS
10
180.062
20
-92.2517
11
193.585
21
-88.6282
0
LINE
8
BLACK
6
CONTINUOUS
10
193.585
20
-88.6282
11
193.585
21
-88.6282
0
LINE
8
BLACK
6
CONTINUOUS
10
193.585
20
-88.6282
11
193.623
21
-88.6332
0
LINE
8
BLACK
6
CONTINUOUS
10
180.136
20
-92.3354
11
183.734
21
-105.762
0
LINE
8
BLACK
6
CONTINUOUS
10
183.734
20
-105.762
11
197.16
21
-102.164
0
LINE
8
BLACK
6
CONTINUOUS
10
197.16
20
-102.164
11
193.563
21
-88.7378
0
LINE
8
BLACK
6
CONTINUOUS
10
193.563
20
-88.7378
11
180.136
21
-92.3354
0
LINE
8
BLACK
6
CONTINUOUS
10
105.105
20
-88.5024
11
118.628
21
-92.1259
0
LINE
8
BLACK
6
CONTINUOUS
10
118.628
20
-92.1259
11
118.628
21
-92.1259
0
LINE
8
BLACK
6
CONTINUOUS
10
118.628
20
-92.1259
11
118.658
21
-92.1492
0
LINE
8
BLACK
6
CONTINUOUS
10
118.658
20
-92.1492
11
118.663
21
-92.1871
0
LINE
8
BLACK
6
CONTINUOUS
10
118.663
20
-92.1871
11
118.663
21
-92.1872
0
LINE
8
BLACK
6
CONTINUOUS
10
118.663
20
-92.1872
11
115.04
21
-105.71
0
LINE
8
BLACK
6
CONTINUOUS
10
115.04
20
-105.71
11
115.017
21
-105.74
0
LINE
8
BLACK
6
CONTINUOUS
10
115.017
20
-105.74
11
114.979
21
-105.745
0
LINE
8
BLACK
6
CONTINUOUS
10
114.979
20
-105.745
11
101.456
21
-102.122
0
LINE
8
BLACK
6
CONTINUOUS
10
101.456
20
-102.122
11
101.425
21
-102.099
0
LINE
8
BLACK
6
CONTINUOUS
10
101.425
20
-102.099
11
101.42
21
-102.061
0
LINE
8
BLACK
6
CONTINUOUS
10
101.42
20
-102.061
11
105.044
21
-88.5378
0
LINE
8
BLACK
6
CONTINUOUS
10
105.044
20
-88.5378
11
105.067
21
-88.5074
0
LINE
8
BLACK
6
CONTINUOUS
10
105.067
20
-88.5074
11
105.105
21
-88.5024
0
LINE
8
BLACK
6
CONTINUOUS
10
105.105
20
-88.5024
11
105.105
21
-88.5024
0
LINE
8
BLACK
6
CONTINUOUS
10
101.53
20
-102.038
11
114.956
21
-105.636
0
LINE
8
BLACK
6
CONTINUOUS
10
114.956
20
-105.636
11
118.554
21
-92.2096
0
LINE
8
BLACK
6
CONTINUOUS
10
118.554
20
-92.2096
11
105.127
21
-88.612
0
LINE
8
BLACK
6
CONTINUOUS
10
105.127
20
-88.612
11
101.53
21
-102.038
0
LINE
8
BLACK
6
CONTINUOUS
10
211.098
20
-79.8582
11
211.121
21
-79.8886
0
LINE
8
BLACK
6
CONTINUOUS
10
211.121
20
-79.8886
11
211.121
21
-79.8886
0
LINE
8
BLACK
6
CONTINUOUS
10
211.121
20
-79.8886
11
214.745
21
-93.4116
0
LINE
8
BLACK
6
CONTINUOUS
10
214.745
20
-93.4116
11
214.74
21
-93.4495
0
LINE
8
BLACK
6
CONTINUOUS
10
214.74
20
-93.4495
11
214.709
21
-93.4728
0
LINE
8
BLACK
6
CONTINUOUS
10
214.709
20
-93.4728
11
214.709
21
-93.4728
0
LINE
8
BLACK
6
CONTINUOUS
10
214.709
20
-93.4728
11
201.186
21
-97.0963
0
LINE
8
BLACK
6
CONTINUOUS
10
201.186
20
-97.0963
11
201.186
21
-97.0963
0
LINE
8
BLACK
6
CONTINUOUS
10
201.186
20
-97.0963
11
201.148
21
-97.0913
0
LINE
8
BLACK
6
CONTINUOUS
10
201.148
20
-97.0913
11
201.125
21
-97.0609
0
LINE
8
BLACK
6
CONTINUOUS
10
201.125
20
-97.0609
11
197.502
21
-83.5379
0
LINE
8
BLACK
6
CONTINUOUS
10
197.502
20
-83.5379
11
197.507
21
-83.5
0
LINE
8
BLACK
6
CONTINUOUS
10
197.507
20
-83.5
11
197.537
21
-83.4767
0
LINE
8
BLACK
6
CONTINUOUS
10
197.537
20
-83.4767
11
211.06
21
-79.8532
0
LINE
8
BLACK
6
CONTINUOUS
10
211.06
20
-79.8532
11
211.06
21
-79.8532
0
LINE
8
BLACK
6
CONTINUOUS
10
211.06
20
-79.8532
11
211.098
21
-79.8582
0
LINE
8
BLACK
6
CONTINUOUS
10
197.611
20
-83.5604
11
201.209
21
-96.9867
0
LINE
8
BLACK
6
CONTINUOUS
10
201.209
20
-96.9867
11
214.635
21
-93.3891
0
LINE
8
BLACK
6
CONTINUOUS
10
214.635
20
-93.3891
11
211.038
21
-79.9628
0
LINE
8
BLACK
6
CONTINUOUS
10
211.038
20
-79.9628
11
197.611
21
-83.5604
0
LINE
8
BLACK
6
CONTINUOUS
10
83.9503
20
-93.3237
11
83.9453
21
-93.2858
0
LINE
8
BLACK
6
CONTINUOUS
10
83.9453
20
-93.2858
11
87.5688
21
-79.7628
0
LINE
8
BLACK
6
CONTINUOUS
10
87.5688
20
-79.7628
11
87.5921
21
-79.7324
0
LINE
8
BLACK
6
CONTINUOUS
10
87.5921
20
-79.7324
11
87.63
21
-79.7274
0
LINE
8
BLACK
6
CONTINUOUS
10
87.63
20
-79.7274
11
87.63
21
-79.7274
0
LINE
8
BLACK
6
CONTINUOUS
10
87.63
20
-79.7274
11
101.153
21
-83.3509
0
LINE
8
BLACK
6
CONTINUOUS
10
101.153
20
-83.3509
11
101.153
21
-83.3509
0
LINE
8
BLACK
6
CONTINUOUS
10
101.153
20
-83.3509
11
101.183
21
-83.3742
0
LINE
8
BLACK
6
CONTINUOUS
10
101.183
20
-83.3742
11
101.188
21
-83.4121
0
LINE
8
BLACK
6
CONTINUOUS
10
101.188
20
-83.4121
11
101.188
21
-83.4121
0
LINE
8
BLACK
6
CONTINUOUS
10
101.188
20
-83.4121
11
97.5649
21
-96.9351
0
LINE
8
BLACK
6
CONTINUOUS
10
97.5649
20
-96.9351
11
97.5416
21
-96.9655
0
LINE
8
BLACK
6
CONTINUOUS
10
97.5416
20
-96.9655
11
97.5036
21
-96.9705
0
LINE
8
BLACK
6
CONTINUOUS
10
97.5036
20
-96.9705
11
83.9807
21
-93.347
0
LINE
8
BLACK
6
CONTINUOUS
10
83.9807
20
-93.347
11
83.9503
21
-93.3237
0
LINE
8
BLACK
6
CONTINUOUS
10
84.0549
20
-93.2633
11
97.4812
21
-96.8609
0
LINE
8
BLACK
6
CONTINUOUS
10
97.4812
20
-96.8609
11
101.079
21
-83.4346
0
LINE
8
BLACK
6
CONTINUOUS
10
101.079
20
-83.4346
11
87.6524
21
-79.837
0
LINE
8
BLACK
6
CONTINUOUS
10
87.6524
20
-79.837
11
84.0549
21
-93.2633
0
LINE
8
BLACK
6
CONTINUOUS
10
268.473
20
-73.5082
11
268.496
21
-73.5386
0
LINE
8
BLACK
6
CONTINUOUS
10
268.496
20
-73.5386
11
268.496
21
-73.5386
0
LINE
8
BLACK
6
CONTINUOUS
10
268.496
20
-73.5386
11
272.12
21
-87.0616
0
LINE
8
BLACK
6
CONTINUOUS
10
272.12
20
-87.0616
11
272.115
21
-87.0995
0
LINE
8
BLACK
6
CONTINUOUS
10
272.115
20
-87.0995
11
272.084
21
-87.1228
0
LINE
8
BLACK
6
CONTINUOUS
10
272.084
20
-87.1228
11
272.084
21
-87.1228
0
LINE
8
BLACK
6
CONTINUOUS
10
272.084
20
-87.1228
11
258.561
21
-90.7463
0
LINE
8
BLACK
6
CONTINUOUS
10
258.561
20
-90.7463
11
258.561
21
-90.7463
0
LINE
8
BLACK
6
CONTINUOUS
10
258.561
20
-90.7463
11
258.523
21
-90.7413
0
LINE
8
BLACK
6
CONTINUOUS
10
258.523
20
-90.7413
11
258.5
21
-90.7109
0
LINE
8
BLACK
6
CONTINUOUS
10
258.5
20
-90.7109
11
254.877
21
-77.1879
0
LINE
8
BLACK
6
CONTINUOUS
10
254.877
20
-77.1879
11
254.882
21
-77.15
0
LINE
8
BLACK
6
CONTINUOUS
10
254.882
20
-77.15
11
254.912
21
-77.1267
0
LINE
8
BLACK
6
CONTINUOUS
10
254.912
20
-77.1267
11
268.435
21
-73.5032
0
LINE
8
BLACK
6
CONTINUOUS
10
268.435
20
-73.5032
11
268.435
21
-73.5032
0
LINE
8
BLACK
6
CONTINUOUS
10
268.435
20
-73.5032
11
268.473
21
-73.5082
0
LINE
8
BLACK
6
CONTINUOUS
10
254.986
20
-77.2104
11
258.584
21
-90.6367
0
LINE
8
BLACK
6
CONTINUOUS
10
258.584
20
-90.6367
11
272.01
21
-87.0391
0
LINE
8
BLACK
6
CONTINUOUS
10
272.01
20
-87.0391
11
268.413
21
-73.6128
0
LINE
8
BLACK
6
CONTINUOUS
10
268.413
20
-73.6128
11
254.986
21
-77.2104
0
LINE
8
BLACK
6
CONTINUOUS
10
26.5753
20
-86.9737
11
26.5703
21
-86.9358
0
LINE
8
BLACK
6
CONTINUOUS
10
26.5703
20
-86.9358
11
30.1938
21
-73.4128
0
LINE
8
BLACK
6
CONTINUOUS
10
30.1938
20
-73.4128
11
30.2171
21
-73.3824
0
LINE
8
BLACK
6
CONTINUOUS
10
30.2171
20
-73.3824
11
30.255
21
-73.3774
0
LINE
8
BLACK
6
CONTINUOUS
10
30.255
20
-73.3774
11
30.255
21
-73.3774
0
LINE
8
BLACK
6
CONTINUOUS
10
30.255
20
-73.3774
11
43.778
21
-77.0009
0
LINE
8
BLACK
6
CONTINUOUS
10
43.778
20
-77.0009
11
43.778
21
-77.0009
0
LINE
8
BLACK
6
CONTINUOUS
10
43.778
20
-77.0009
11
43.8083
21
-77.0242
0
LINE
8
BLACK
6
CONTINUOUS
10
43.8083
20
-77.0242
11
43.8133
21
-77.0621
0
LINE
8
BLACK
6
CONTINUOUS
10
43.8133
20
-77.0621
11
43.8133
21
-77.0622
0
LINE
8
BLACK
6
CONTINUOUS
10
43.8133
20
-77.0622
11
40.1899
21
-90.5851
0
LINE
8
BLACK
6
CONTINUOUS
10
40.1899
20
-90.5851
11
40.1666
21
-90.6155
0
LINE
8
BLACK
6
CONTINUOUS
10
40.1666
20
-90.6155
11
40.1286
21
-90.6205
0
LINE
8
BLACK
6
CONTINUOUS
10
40.1286
20
-90.6205
11
26.6057
21
-86.997
0
LINE
8
BLACK
6
CONTINUOUS
10
26.6057
20
-86.997
11
26.5753
21
-86.9737
0
LINE
8
BLACK
6
CONTINUOUS
10
26.6799
20
-86.9133
11
40.1062
21
-90.5109
0
LINE
8
BLACK
6
CONTINUOUS
10
40.1062
20
-90.5109
11
43.7038
21
-77.0846
0
LINE
8
BLACK
6
CONTINUOUS
10
43.7038
20
-77.0846
11
30.2774
21
-73.487
0
LINE
8
BLACK
6
CONTINUOUS
10
30.2774
20
-73.487
11
26.6799
21
-86.9133
0
LINE
8
BLACK
6
CONTINUOUS
10
188.698
20
-70.2582
11
188.721
21
-70.2886
0
LINE
8
BLACK
6
CONTINUOUS
10
188.721
20
-70.2886
11
188.721
21
-70.2886
0
LINE
8
BLACK
6
CONTINUOUS
10
188.721
20
-70.2886
11
192.345
21
-83.8116
0
LINE
8
BLACK
6
CONTINUOUS
10
192.345
20
-83.8116
11
192.34
21
-83.8495
0
LINE
8
BLACK
6
CONTINUOUS
10
192.34
20
-83.8495
11
192.309
21
-83.8728
0
LINE
8
BLACK
6
CONTINUOUS
10
192.309
20
-83.8728
11
192.309
21
-83.8728
0
LINE
8
BLACK
6
CONTINUOUS
10
192.309
20
-83.8728
11
178.786
21
-87.4963
0
LINE
8
BLACK
6
CONTINUOUS
10
178.786
20
-87.4963
11
178.786
21
-87.4963
0
LINE
8
BLACK
6
CONTINUOUS
10
178.786
20
-87.4963
11
178.748
21
-87.4913
0
LINE
8
BLACK
6
CONTINUOUS
10
178.748
20
-87.4913
11
178.725
21
-87.4609
0
LINE
8
BLACK
6
CONTINUOUS
10
178.725
20
-87.4609
11
175.102
21
-73.9379
0
LINE
8
BLACK
6
CONTINUOUS
10
175.102
20
-73.9379
11
175.107
21
-73.9
0
LINE
8
BLACK
6
CONTINUOUS
10
175.107
20
-73.9
11
175.137
21
-73.8767
0
LINE
8
BLACK
6
CONTINUOUS
10
175.137
20
-73.8767
11
188.66
21
-70.2532
0
LINE
8
BLACK
6
CONTINUOUS
10
188.66
20
-70.2532
11
188.66
21
-70.2532
0
LINE
8
BLACK
6
CONTINUOUS
10
188.66
20
-70.2532
11
188.698
21
-70.2582
0
LINE
8
BLACK
6
CONTINUOUS
10
175.211
20
-73.9604
11
178.809
21
-87.3867
0
LINE
8
BLACK
6
CONTINUOUS
10
178.809
20
-87.3867
11
192.235
21
-83.7891
0
LINE
8
BLACK
6
CONTINUOUS
10
192.235
20
-83.7891
11
188.638
21
-70.3628
0
LINE
8
BLACK
6
CONTINUOUS
10
188.638
20
-70.3628
11
175.211
21
-73.9604
0
LINE
8
BLACK
6
CONTINUOUS
10
228.223
20
-70.2582
11
228.246
21
-70.2886
0
LINE
8
BLACK
6
CONTINUOUS
10
228.246
20
-70.2886
11
228.246
21
-70.2886
0
LINE
8
BLACK
6
CONTINUOUS
10
228.246
20
-70.2886
11
231.87
21
-83.8116
0
LINE
8
BLACK
6
CONTINUOUS
10
231.87
20
-83.8116
11
231.865
21
-83.8495
0
LINE
8
BLACK
6
CONTINUOUS
10
231.865
20
-83.8495
11
231.834
21
-83.8728
0
LINE
8
BLACK
6
CONTINUOUS
10
231.834
20
-83.8728
11
231.834
21
-83.8728
0
LINE
8
BLACK
6
CONTINUOUS
10
231.834
20
-83.8728
11
218.311
21
-87.4963
0
LINE
8
BLACK
6
CONTINUOUS
10
218.311
20
-87.4963
11
218.311
21
-87.4963
0
LINE
8
BLACK
6
CONTINUOUS
10
218.311
20
-87.4963
11
218.273
21
-87.4913
0
LINE
8
BLACK
6
CONTINUOUS
10
218.273
20
-87.4913
11
218.25
21
-87.4609
0
LINE
8
BLACK
6
CONTINUOUS
10
218.25
20
-87.4609
11
214.627
21
-73.9379
0
LINE
8
BLACK
6
CONTINUOUS
10
214.627
20
-73.9379
11
214.632
21
-73.9
0
LINE
8
BLACK
6
CONTINUOUS
10
214.632
20
-73.9
11
214.662
21
-73.8767
0
LINE
8
BLACK
6
CONTINUOUS
10
214.662
20
-73.8767
11
228.185
21
-70.2532
0
LINE
8
BLACK
6
CONTINUOUS
10
228.185
20
-70.2532
11
228.185
21
-70.2532
0
LINE
8
BLACK
6
CONTINUOUS
10
228.185
20
-70.2532
11
228.223
21
-70.2582
0
LINE
8
BLACK
6
CONTINUOUS
10
214.736
20
-73.9604
11
218.334
21
-87.3867
0
LINE
8
BLACK
6
CONTINUOUS
10
218.334
20
-87.3867
11
231.76
21
-83.7891
0
LINE
8
BLACK
6
CONTINUOUS
10
231.76
20
-83.7891
11
228.163
21
-70.3628
0
LINE
8
BLACK
6
CONTINUOUS
10
228.163
20
-70.3628
11
214.736
21
-73.9604
0
LINE
8
BLACK
6
CONTINUOUS
10
106.307
20
-83.725
11
106.302
21
-83.6871
0
LINE
8
BLACK
6
CONTINUOUS
10
106.302
20
-83.6871
11
109.925
21
-70.1641
0
LINE
8
BLACK
6
CONTINUOUS
10
109.925
20
-70.1641
11
109.948
21
-70.1337
0
LINE
8
BLACK
6
CONTINUOUS
10
109.948
20
-70.1337
11
109.986
21
-70.1287
0
LINE
8
BLACK
6
CONTINUOUS
10
109.986
20
-70.1287
11
109.986
21
-70.1287
0
LINE
8
BLACK
6
CONTINUOUS
10
109.986
20
-70.1287
11
123.509
21
-73.7522
0
LINE
8
BLACK
6
CONTINUOUS
10
123.509
20
-73.7522
11
123.509
21
-73.7522
0
LINE
8
BLACK
6
CONTINUOUS
10
123.509
20
-73.7522
11
123.538
21
-73.7742
0
LINE
8
BLACK
6
CONTINUOUS
10
123.538
20
-73.7742
11
123.54
21
-73.7755
0
LINE
8
BLACK
6
CONTINUOUS
10
123.54
20
-73.7755
11
123.545
21
-73.8134
0
LINE
8
BLACK
6
CONTINUOUS
10
123.545
20
-73.8134
11
123.545
21
-73.8134
0
LINE
8
BLACK
6
CONTINUOUS
10
123.545
20
-73.8134
11
119.921
21
-87.3364
0
LINE
8
BLACK
6
CONTINUOUS
10
119.921
20
-87.3364
11
119.898
21
-87.3668
0
LINE
8
BLACK
6
CONTINUOUS
10
119.898
20
-87.3668
11
119.86
21
-87.3718
0
LINE
8
BLACK
6
CONTINUOUS
10
119.86
20
-87.3718
11
106.337
21
-83.7483
0
LINE
8
BLACK
6
CONTINUOUS
10
106.337
20
-83.7483
11
106.307
21
-83.725
0
LINE
8
BLACK
6
CONTINUOUS
10
106.411
20
-83.6646
11
119.838
21
-87.2622
0
LINE
8
BLACK
6
CONTINUOUS
10
119.838
20
-87.2622
11
123.435
21
-73.8359
0
LINE
8
BLACK
6
CONTINUOUS
10
123.435
20
-73.8359
11
110.009
21
-70.2383
0
LINE
8
BLACK
6
CONTINUOUS
10
110.009
20
-70.2383
11
106.411
21
-83.6646
0
LINE
8
BLACK
6
CONTINUOUS
10
66.8253
20
-83.7237
11
66.8203
21
-83.6858
0
LINE
8
BLACK
6
CONTINUOUS
10
66.8203
20
-83.6858
11
70.4438
21
-70.1628
0
LINE
8
BLACK
6
CONTINUOUS
10
70.4438
20
-70.1628
11
70.4671
21
-70.1324
0
LINE
8
BLACK
6
CONTINUOUS
10
70.4671
20
-70.1324
11
70.505
21
-70.1274
0
LINE
8
BLACK
6
CONTINUOUS
10
70.505
20
-70.1274
11
70.505
21
-70.1274
0
LINE
8
BLACK
6
CONTINUOUS
10
70.505
20
-70.1274
11
84.028
21
-73.7509
0
LINE
8
BLACK
6
CONTINUOUS
10
84.028
20
-73.7509
11
84.028
21
-73.7509
0
LINE
8
BLACK
6
CONTINUOUS
10
84.028
20
-73.7509
11
84.0583
21
-73.7742
0
LINE
8
BLACK
6
CONTINUOUS
10
84.0583
20
-73.7742
11
84.0633
21
-73.8121
0
LINE
8
BLACK
6
CONTINUOUS
10
84.0633
20
-73.8121
11
84.0633
21
-73.8122
0
LINE
8
BLACK
6
CONTINUOUS
10
84.0633
20
-73.8122
11
80.4399
21
-87.3351
0
LINE
8
BLACK
6
CONTINUOUS
10
80.4399
20
-87.3351
11
80.4166
21
-87.3655
0
LINE
8
BLACK
6
CONTINUOUS
10
80.4166
20
-87.3655
11
80.3786
21
-87.3705
0
LINE
8
BLACK
6
CONTINUOUS
10
80.3786
20
-87.3705
11
66.8557
21
-83.747
0
LINE
8
BLACK
6
CONTINUOUS
10
66.8557
20
-83.747
11
66.8253
21
-83.7237
0
LINE
8
BLACK
6
CONTINUOUS
10
66.9299
20
-83.6633
11
80.3562
21
-87.2609
0
LINE
8
BLACK
6
CONTINUOUS
10
80.3562
20
-87.2609
11
83.9538
21
-73.8346
0
LINE
8
BLACK
6
CONTINUOUS
10
83.9538
20
-73.8346
11
70.5274
21
-70.237
0
LINE
8
BLACK
6
CONTINUOUS
10
70.5274
20
-70.237
11
66.9299
21
-83.6633
0
LINE
8
BLACK
6
CONTINUOUS
10
247.873
20
-69.9582
11
247.896
21
-69.9886
0
LINE
8
BLACK
6
CONTINUOUS
10
247.896
20
-69.9886
11
247.896
21
-69.9886
0
LINE
8
BLACK
6
CONTINUOUS
10
247.896
20
-69.9886
11
251.52
21
-83.5116
0
LINE
8
BLACK
6
CONTINUOUS
10
251.52
20
-83.5116
11
251.515
21
-83.5495
0
LINE
8
BLACK
6
CONTINUOUS
10
251.515
20
-83.5495
11
251.484
21
-83.5728
0
LINE
8
BLACK
6
CONTINUOUS
10
251.484
20
-83.5728
11
251.484
21
-83.5728
0
LINE
8
BLACK
6
CONTINUOUS
10
251.484
20
-83.5728
11
237.961
21
-87.1963
0
LINE
8
BLACK
6
CONTINUOUS
10
237.961
20
-87.1963
11
237.961
21
-87.1963
0
LINE
8
BLACK
6
CONTINUOUS
10
237.961
20
-87.1963
11
237.923
21
-87.1913
0
LINE
8
BLACK
6
CONTINUOUS
10
237.923
20
-87.1913
11
237.9
21
-87.1609
0
LINE
8
BLACK
6
CONTINUOUS
10
237.9
20
-87.1609
11
234.277
21
-73.6379
0
LINE
8
BLACK
6
CONTINUOUS
10
234.277
20
-73.6379
11
234.282
21
-73.6
0
LINE
8
BLACK
6
CONTINUOUS
10
234.282
20
-73.6
11
234.312
21
-73.5767
0
LINE
8
BLACK
6
CONTINUOUS
10
234.312
20
-73.5767
11
247.835
21
-69.9532
0
LINE
8
BLACK
6
CONTINUOUS
10
247.835
20
-69.9532
11
247.835
21
-69.9532
0
LINE
8
BLACK
6
CONTINUOUS
10
247.835
20
-69.9532
11
247.873
21
-69.9582
0
LINE
8
BLACK
6
CONTINUOUS
10
234.386
20
-73.6604
11
237.984
21
-87.0867
0
LINE
8
BLACK
6
CONTINUOUS
10
237.984
20
-87.0867
11
251.41
21
-83.4891
0
LINE
8
BLACK
6
CONTINUOUS
10
251.41
20
-83.4891
11
247.813
21
-70.0628
0
LINE
8
BLACK
6
CONTINUOUS
10
247.813
20
-70.0628
11
234.386
21
-73.6604
0
LINE
8
BLACK
6
CONTINUOUS
10
47.1753
20
-83.4237
11
47.1703
21
-83.3858
0
LINE
8
BLACK
6
CONTINUOUS
10
47.1703
20
-83.3858
11
50.7938
21
-69.8628
0
LINE
8
BLACK
6
CONTINUOUS
10
50.7938
20
-69.8628
11
50.8171
21
-69.8324
0
LINE
8
BLACK
6
CONTINUOUS
10
50.8171
20
-69.8324
11
50.855
21
-69.8274
0
LINE
8
BLACK
6
CONTINUOUS
10
50.855
20
-69.8274
11
50.855
21
-69.8274
0
LINE
8
BLACK
6
CONTINUOUS
10
50.855
20
-69.8274
11
64.378
21
-73.4509
0
LINE
8
BLACK
6
CONTINUOUS
10
64.378
20
-73.4509
11
64.378
21
-73.4509
0
LINE
8
BLACK
6
CONTINUOUS
10
64.378
20
-73.4509
11
64.4081
21
-73.474
0
LINE
8
BLACK
6
CONTINUOUS
10
64.4081
20
-73.474
11
64.4083
21
-73.4742
0
LINE
8
BLACK
6
CONTINUOUS
10
64.4083
20
-73.4742
11
64.4133
21
-73.5121
0
LINE
8
BLACK
6
CONTINUOUS
10
64.4133
20
-73.5121
11
64.4133
21
-73.5121
0
LINE
8
BLACK
6
CONTINUOUS
10
64.4133
20
-73.5121
11
60.7899
21
-87.0351
0
LINE
8
BLACK
6
CONTINUOUS
10
60.7899
20
-87.0351
11
60.7666
21
-87.0655
0
LINE
8
BLACK
6
CONTINUOUS
10
60.7666
20
-87.0655
11
60.7286
21
-87.0705
0
LINE
8
BLACK
6
CONTINUOUS
10
60.7286
20
-87.0705
11
47.2057
21
-83.447
0
LINE
8
BLACK
6
CONTINUOUS
10
47.2057
20
-83.447
11
47.1753
21
-83.4237
0
LINE
8
BLACK
6
CONTINUOUS
10
47.2799
20
-83.3633
11
60.7062
21
-86.9609
0
LINE
8
BLACK
6
CONTINUOUS
10
60.7062
20
-86.9609
11
64.3038
21
-73.5346
0
LINE
8
BLACK
6
CONTINUOUS
10
64.3038
20
-73.5346
11
50.8774
21
-69.937
0
LINE
8
BLACK
6
CONTINUOUS
10
50.8774
20
-69.937
11
47.2799
21
-83.3633
0
LINE
8
BLACK
6
CONTINUOUS
10
206.173
20
-61.4832
11
206.196
21
-61.5136
0
LINE
8
BLACK
6
CONTINUOUS
10
206.196
20
-61.5136
11
206.196
21
-61.5136
0
LINE
8
BLACK
6
CONTINUOUS
10
206.196
20
-61.5136
11
209.82
21
-75.0366
0
LINE
8
BLACK
6
CONTINUOUS
10
209.82
20
-75.0366
11
209.815
21
-75.0745
0
LINE
8
BLACK
6
CONTINUOUS
10
209.815
20
-75.0745
11
209.784
21
-75.0978
0
LINE
8
BLACK
6
CONTINUOUS
10
209.784
20
-75.0978
11
209.784
21
-75.0978
0
LINE
8
BLACK
6
CONTINUOUS
10
209.784
20
-75.0978
11
196.261
21
-78.7213
0
LINE
8
BLACK
6
CONTINUOUS
10
196.261
20
-78.7213
11
196.261
21
-78.7213
0
LINE
8
BLACK
6
CONTINUOUS
10
196.261
20
-78.7213
11
196.223
21
-78.7163
0
LINE
8
BLACK
6
CONTINUOUS
10
196.223
20
-78.7163
11
196.2
21
-78.6859
0
LINE
8
BLACK
6
CONTINUOUS
10
196.2
20
-78.6859
11
192.577
21
-65.1629
0
LINE
8
BLACK
6
CONTINUOUS
10
192.577
20
-65.1629
11
192.582
21
-65.125
0
LINE
8
BLACK
6
CONTINUOUS
10
192.582
20
-65.125
11
192.612
21
-65.1017
0
LINE
8
BLACK
6
CONTINUOUS
10
192.612
20
-65.1017
11
206.135
21
-61.4782
0
LINE
8
BLACK
6
CONTINUOUS
10
206.135
20
-61.4782
11
206.135
21
-61.4782
0
LINE
8
BLACK
6
CONTINUOUS
10
206.135
20
-61.4782
11
206.173
21
-61.4832
0
LINE
8
BLACK
6
CONTINUOUS
10
192.686
20
-65.1854
11
196.284
21
-78.6117
0
LINE
8
BLACK
6
CONTINUOUS
10
196.284
20
-78.6117
11
209.71
21
-75.0141
0
LINE
8
BLACK
6
CONTINUOUS
10
209.71
20
-75.0141
11
206.113
21
-61.5878
0
LINE
8
BLACK
6
CONTINUOUS
10
206.113
20
-61.5878
11
192.686
21
-65.1854
0
LINE
8
BLACK
6
CONTINUOUS
10
88.8317
20
-74.95
11
88.8267
21
-74.9121
0
LINE
8
BLACK
6
CONTINUOUS
10
88.8267
20
-74.9121
11
92.4502
21
-61.3891
0
LINE
8
BLACK
6
CONTINUOUS
10
92.4502
20
-61.3891
11
92.4735
21
-61.3587
0
LINE
8
BLACK
6
CONTINUOUS
10
92.4735
20
-61.3587
11
92.5114
21
-61.3537
0
LINE
8
BLACK
6
CONTINUOUS
10
92.5114
20
-61.3537
11
92.5114
21
-61.3537
0
LINE
8
BLACK
6
CONTINUOUS
10
92.5114
20
-61.3537
11
106.034
21
-64.9772
0
LINE
8
BLACK
6
CONTINUOUS
10
106.034
20
-64.9772
11
106.034
21
-64.9772
0
LINE
8
BLACK
6
CONTINUOUS
10
106.034
20
-64.9772
11
106.065
21
-65.0005
0
LINE
8
BLACK
6
CONTINUOUS
10
106.065
20
-65.0005
11
106.07
21
-65.0384
0
LINE
8
BLACK
6
CONTINUOUS
10
106.07
20
-65.0384
11
106.07
21
-65.0384
0
LINE
8
BLACK
6
CONTINUOUS
10
106.07
20
-65.0384
11
102.446
21
-78.5614
0
LINE
8
BLACK
6
CONTINUOUS
10
102.446
20
-78.5614
11
102.423
21
-78.5918
0
LINE
8
BLACK
6
CONTINUOUS
10
102.423
20
-78.5918
11
102.385
21
-78.5968
0
LINE
8
BLACK
6
CONTINUOUS
10
102.385
20
-78.5968
11
88.8621
21
-74.9733
0
LINE
8
BLACK
6
CONTINUOUS
10
88.8621
20
-74.9733
11
88.8317
21
-74.95
0
LINE
8
BLACK
6
CONTINUOUS
10
88.9362
20
-74.8896
11
102.363
21
-78.4872
0
LINE
8
BLACK
6
CONTINUOUS
10
102.363
20
-78.4872
11
105.96
21
-65.0609
0
LINE
8
BLACK
6
CONTINUOUS
10
105.96
20
-65.0609
11
92.5338
21
-61.4633
0
LINE
8
BLACK
6
CONTINUOUS
10
92.5338
20
-61.4633
11
88.9362
21
-74.8896
0
LINE
8
BLACK
6
CONTINUOUS
10
263.548
20
-55.1332
11
263.571
21
-55.1636
0
LINE
8
BLACK
6
CONTINUOUS
10
263.571
20
-55.1636
11
263.571
21
-55.1636
0
LINE
8
BLACK
6
CONTINUOUS
10
263.571
20
-55.1636
11
267.195
21
-68.6866
0
LINE
8
BLACK
6
CONTINUOUS
10
267.195
20
-68.6866
11
267.19
21
-68.7245
0
LINE
8
BLACK
6
CONTINUOUS
10
267.19
20
-68.7245
11
267.159
21
-68.7478
0
LINE
8
BLACK
6
CONTINUOUS
10
267.159
20
-68.7478
11
267.159
21
-68.7478
0
LINE
8
BLACK
6
CONTINUOUS
10
267.159
20
-68.7478
11
253.636
21
-72.3713
0
LINE
8
BLACK
6
CONTINUOUS
10
253.636
20
-72.3713
11
253.636
21
-72.3713
0
LINE
8
BLACK
6
CONTINUOUS
10
253.636
20
-72.3713
11
253.598
21
-72.3663
0
LINE
8
BLACK
6
CONTINUOUS
10
253.598
20
-72.3663
11
253.575
21
-72.3359
0
LINE
8
BLACK
6
CONTINUOUS
10
253.575
20
-72.3359
11
249.952
21
-58.8129
0
LINE
8
BLACK
6
CONTINUOUS
10
249.952
20
-58.8129
11
249.957
21
-58.775
0
LINE
8
BLACK
6
CONTINUOUS
10
249.957
20
-58.775
11
249.987
21
-58.7517
0
LINE
8
BLACK
6
CONTINUOUS
10
249.987
20
-58.7517
11
263.51
21
-55.1282
0
LINE
8
BLACK
6
CONTINUOUS
10
263.51
20
-55.1282
11
263.51
21
-55.1282
0
LINE
8
BLACK
6
CONTINUOUS
10
263.51
20
-55.1282
11
263.548
21
-55.1332
0
LINE
8
BLACK
6
CONTINUOUS
10
250.061
20
-58.8354
11
253.659
21
-72.2617
0
LINE
8
BLACK
6
CONTINUOUS
10
253.659
20
-72.2617
11
267.085
21
-68.6641
0
LINE
8
BLACK
6
CONTINUOUS
10
267.085
20
-68.6641
11
263.488
21
-55.2378
0
LINE
8
BLACK
6
CONTINUOUS
10
263.488
20
-55.2378
11
250.061
21
-58.8354
0
LINE
8
BLACK
6
CONTINUOUS
10
35.1364
20
-55.0037
11
48.6594
21
-58.6272
0
LINE
8
BLACK
6
CONTINUOUS
10
48.6594
20
-58.6272
11
48.6594
21
-58.6272
0
LINE
8
BLACK
6
CONTINUOUS
10
48.6594
20
-58.6272
11
48.6897
21
-58.6505
0
LINE
8
BLACK
6
CONTINUOUS
10
48.6897
20
-58.6505
11
48.6947
21
-58.6884
0
LINE
8
BLACK
6
CONTINUOUS
10
48.6947
20
-58.6884
11
48.6947
21
-58.6884
0
LINE
8
BLACK
6
CONTINUOUS
10
48.6947
20
-58.6884
11
45.0713
21
-72.2114
0
LINE
8
BLACK
6
CONTINUOUS
10
45.0713
20
-72.2114
11
45.048
21
-72.2418
0
LINE
8
BLACK
6
CONTINUOUS
10
45.048
20
-72.2418
11
45.01
21
-72.2468
0
LINE
8
BLACK
6
CONTINUOUS
10
45.01
20
-72.2468
11
31.4871
21
-68.6233
0
LINE
8
BLACK
6
CONTINUOUS
10
31.4871
20
-68.6233
11
31.4567
21
-68.6
0
LINE
8
BLACK
6
CONTINUOUS
10
31.4567
20
-68.6
11
31.4517
21
-68.5621
0
LINE
8
BLACK
6
CONTINUOUS
10
31.4517
20
-68.5621
11
35.0752
21
-55.0391
0
LINE
8
BLACK
6
CONTINUOUS
10
35.0752
20
-55.0391
11
35.0985
21
-55.0087
0
LINE
8
BLACK
6
CONTINUOUS
10
35.0985
20
-55.0087
11
35.1364
21
-55.0037
0
LINE
8
BLACK
6
CONTINUOUS
10
35.1364
20
-55.0037
11
35.1364
21
-55.0037
0
LINE
8
BLACK
6
CONTINUOUS
10
31.5612
20
-68.5396
11
44.9876
21
-72.1372
0
LINE
8
BLACK
6
CONTINUOUS
10
44.9876
20
-72.1372
11
48.5852
21
-58.7109
0
LINE
8
BLACK
6
CONTINUOUS
10
48.5852
20
-58.7109
11
35.1588
21
-55.1133
0
LINE
8
BLACK
6
CONTINUOUS
10
35.1588
20
-55.1133
11
31.5612
21
-68.5396
0
LINE
8
BLACK
6
CONTINUOUS
10
223.298
20
-51.8832
11
223.321
21
-51.9136
0
LINE
8
BLACK
6
CONTINUOUS
10
223.321
20
-51.9136
11
223.321
21
-51.9136
0
LINE
8
BLACK
6
CONTINUOUS
10
223.321
20
-51.9136
11
226.945
21
-65.4366
0
LINE
8
BLACK
6
CONTINUOUS
10
226.945
20
-65.4366
11
226.94
21
-65.4745
0
LINE
8
BLACK
6
CONTINUOUS
10
226.94
20
-65.4745
11
226.909
21
-65.4978
0
LINE
8
BLACK
6
CONTINUOUS
10
226.909
20
-65.4978
11
226.909
21
-65.4978
0
LINE
8
BLACK
6
CONTINUOUS
10
226.909
20
-65.4978
11
213.386
21
-69.1213
0
LINE
8
BLACK
6
CONTINUOUS
10
213.386
20
-69.1213
11
213.386
21
-69.1213
0
LINE
8
BLACK
6
CONTINUOUS
10
213.386
20
-69.1213
11
213.348
21
-69.1163
0
LINE
8
BLACK
6
CONTINUOUS
10
213.348
20
-69.1163
11
213.325
21
-69.0859
0
LINE
8
BLACK
6
CONTINUOUS
10
213.325
20
-69.0859
11
209.702
21
-55.5629
0
LINE
8
BLACK
6
CONTINUOUS
10
209.702
20
-55.5629
11
209.707
21
-55.525
0
LINE
8
BLACK
6
CONTINUOUS
10
209.707
20
-55.525
11
209.737
21
-55.5017
0
LINE
8
BLACK
6
CONTINUOUS
10
209.737
20
-55.5017
11
223.26
21
-51.8782
0
LINE
8
BLACK
6
CONTINUOUS
10
223.26
20
-51.8782
11
223.26
21
-51.8782
0
LINE
8
BLACK
6
CONTINUOUS
10
223.26
20
-51.8782
11
223.298
21
-51.8832
0
LINE
8
BLACK
6
CONTINUOUS
10
209.811
20
-55.5854
11
213.409
21
-69.0117
0
LINE
8
BLACK
6
CONTINUOUS
10
213.409
20
-69.0117
11
226.835
21
-65.4141
0
LINE
8
BLACK
6
CONTINUOUS
10
226.835
20
-65.4141
11
223.238
21
-51.9878
0
LINE
8
BLACK
6
CONTINUOUS
10
223.238
20
-51.9878
11
209.811
21
-55.5854
0
LINE
8
BLACK
6
CONTINUOUS
10
183.823
20
-51.8332
11
183.846
21
-51.8636
0
LINE
8
BLACK
6
CONTINUOUS
10
183.846
20
-51.8636
11
183.846
21
-51.8636
0
LINE
8
BLACK
6
CONTINUOUS
10
183.846
20
-51.8636
11
187.47
21
-65.3866
0
LINE
8
BLACK
6
CONTINUOUS
10
187.47
20
-65.3866
11
187.465
21
-65.4245
0
LINE
8
BLACK
6
CONTINUOUS
10
187.465
20
-65.4245
11
187.434
21
-65.4478
0
LINE
8
BLACK
6
CONTINUOUS
10
187.434
20
-65.4478
11
187.434
21
-65.4478
0
LINE
8
BLACK
6
CONTINUOUS
10
187.434
20
-65.4478
11
173.911
21
-69.0713
0
LINE
8
BLACK
6
CONTINUOUS
10
173.911
20
-69.0713
11
173.911
21
-69.0713
0
LINE
8
BLACK
6
CONTINUOUS
10
173.911
20
-69.0713
11
173.873
21
-69.0663
0
LINE
8
BLACK
6
CONTINUOUS
10
173.873
20
-69.0663
11
173.85
21
-69.0359
0
LINE
8
BLACK
6
CONTINUOUS
10
173.85
20
-69.0359
11
170.227
21
-55.5129
0
LINE
8
BLACK
6
CONTINUOUS
10
170.227
20
-55.5129
11
170.232
21
-55.475
0
LINE
8
BLACK
6
CONTINUOUS
10
170.232
20
-55.475
11
170.262
21
-55.4517
0
LINE
8
BLACK
6
CONTINUOUS
10
170.262
20
-55.4517
11
183.785
21
-51.8282
0
LINE
8
BLACK
6
CONTINUOUS
10
183.785
20
-51.8282
11
183.785
21
-51.8282
0
LINE
8
BLACK
6
CONTINUOUS
10
183.785
20
-51.8282
11
183.823
21
-51.8332
0
LINE
8
BLACK
6
CONTINUOUS
10
170.336
20
-55.5354
11
173.934
21
-68.9617
0
LINE
8
BLACK
6
CONTINUOUS
10
173.934
20
-68.9617
11
187.36
21
-65.3641
0
LINE
8
BLACK
6
CONTINUOUS
10
187.36
20
-65.3641
11
183.763
21
-51.9378
0
LINE
8
BLACK
6
CONTINUOUS
10
183.763
20
-51.9378
11
170.336
21
-55.5354
0
LINE
8
BLACK
6
CONTINUOUS
10
71.7067
20
-65.35
11
71.7017
21
-65.3121
0
LINE
8
BLACK
6
CONTINUOUS
10
71.7017
20
-65.3121
11
75.3252
21
-51.7891
0
LINE
8
BLACK
6
CONTINUOUS
10
75.3252
20
-51.7891
11
75.3485
21
-51.7587
0
LINE
8
BLACK
6
CONTINUOUS
10
75.3485
20
-51.7587
11
75.3864
21
-51.7537
0
LINE
8
BLACK
6
CONTINUOUS
10
75.3864
20
-51.7537
11
75.3864
21
-51.7537
0
LINE
8
BLACK
6
CONTINUOUS
10
75.3864
20
-51.7537
11
88.9094
21
-55.3772
0
LINE
8
BLACK
6
CONTINUOUS
10
88.9094
20
-55.3772
11
88.9094
21
-55.3772
0
LINE
8
BLACK
6
CONTINUOUS
10
88.9094
20
-55.3772
11
88.9397
21
-55.4005
0
LINE
8
BLACK
6
CONTINUOUS
10
88.9397
20
-55.4005
11
88.9447
21
-55.4384
0
LINE
8
BLACK
6
CONTINUOUS
10
88.9447
20
-55.4384
11
88.9447
21
-55.4384
0
LINE
8
BLACK
6
CONTINUOUS
10
88.9447
20
-55.4384
11
85.3213
21
-68.9614
0
LINE
8
BLACK
6
CONTINUOUS
10
85.3213
20
-68.9614
11
85.298
21
-68.9918
0
LINE
8
BLACK
6
CONTINUOUS
10
85.298
20
-68.9918
11
85.26
21
-68.9968
0
LINE
8
BLACK
6
CONTINUOUS
10
85.26
20
-68.9968
11
71.7371
21
-65.3733
0
LINE
8
BLACK
6
CONTINUOUS
10
71.7371
20
-65.3733
11
71.7067
21
-65.35
0
LINE
8
BLACK
6
CONTINUOUS
10
71.8112
20
-65.2896
11
85.2376
21
-68.8872
0
LINE
8
BLACK
6
CONTINUOUS
10
85.2376
20
-68.8872
11
88.8352
21
-55.4609
0
LINE
8
BLACK
6
CONTINUOUS
10
88.8352
20
-55.4609
11
75.4088
21
-51.8633
0
LINE
8
BLACK
6
CONTINUOUS
10
75.4088
20
-51.8633
11
71.8112
21
-65.2896
0
LINE
8
BLACK
6
CONTINUOUS
10
114.938
20
-51.7303
11
128.461
21
-55.3537
0
LINE
8
BLACK
6
CONTINUOUS
10
128.461
20
-55.3537
11
128.461
21
-55.3537
0
LINE
8
BLACK
6
CONTINUOUS
10
128.461
20
-55.3537
11
128.492
21
-55.377
0
LINE
8
BLACK
6
CONTINUOUS
10
128.492
20
-55.377
11
128.497
21
-55.415
0
LINE
8
BLACK
6
CONTINUOUS
10
128.497
20
-55.415
11
128.497
21
-55.415
0
LINE
8
BLACK
6
CONTINUOUS
10
128.497
20
-55.415
11
124.873
21
-68.9379
0
LINE
8
BLACK
6
CONTINUOUS
10
124.873
20
-68.9379
11
124.85
21
-68.9683
0
LINE
8
BLACK
6
CONTINUOUS
10
124.85
20
-68.9683
11
124.812
21
-68.9733
0
LINE
8
BLACK
6
CONTINUOUS
10
124.812
20
-68.9733
11
111.289
21
-65.3498
0
LINE
8
BLACK
6
CONTINUOUS
10
111.289
20
-65.3498
11
111.259
21
-65.3265
0
LINE
8
BLACK
6
CONTINUOUS
10
111.259
20
-65.3265
11
111.254
21
-65.2886
0
LINE
8
BLACK
6
CONTINUOUS
10
111.254
20
-65.2886
11
114.877
21
-51.7656
0
LINE
8
BLACK
6
CONTINUOUS
10
114.877
20
-51.7656
11
114.901
21
-51.7353
0
LINE
8
BLACK
6
CONTINUOUS
10
114.901
20
-51.7353
11
114.938
21
-51.7303
0
LINE
8
BLACK
6
CONTINUOUS
10
114.938
20
-51.7303
11
114.938
21
-51.7303
0
LINE
8
BLACK
6
CONTINUOUS
10
111.363
20
-65.2662
11
124.79
21
-68.8638
0
LINE
8
BLACK
6
CONTINUOUS
10
124.79
20
-68.8638
11
128.387
21
-55.4374
0
LINE
8
BLACK
6
CONTINUOUS
10
128.387
20
-55.4374
11
114.961
21
-51.8398
0
LINE
8
BLACK
6
CONTINUOUS
10
114.961
20
-51.8398
11
111.363
21
-65.2662
0
LINE
8
BLACK
6
CONTINUOUS
10
242.948
20
-51.5832
11
242.971
21
-51.6136
0
LINE
8
BLACK
6
CONTINUOUS
10
242.971
20
-51.6136
11
242.971
21
-51.6136
0
LINE
8
BLACK
6
CONTINUOUS
10
242.971
20
-51.6136
11
246.595
21
-65.1366
0
LINE
8
BLACK
6
CONTINUOUS
10
246.595
20
-65.1366
11
246.59
21
-65.1745
0
LINE
8
BLACK
6
CONTINUOUS
10
246.59
20
-65.1745
11
246.559
21
-65.1978
0
LINE
8
BLACK
6
CONTINUOUS
10
246.559
20
-65.1978
11
246.559
21
-65.1978
0
LINE
8
BLACK
6
CONTINUOUS
10
246.559
20
-65.1978
11
233.036
21
-68.8213
0
LINE
8
BLACK
6
CONTINUOUS
10
233.036
20
-68.8213
11
233.036
21
-68.8213
0
LINE
8
BLACK
6
CONTINUOUS
10
233.036
20
-68.8213
11
232.998
21
-68.8163
0
LINE
8
BLACK
6
CONTINUOUS
10
232.998
20
-68.8163
11
232.975
21
-68.7859
0
LINE
8
BLACK
6
CONTINUOUS
10
232.975
20
-68.7859
11
229.352
21
-55.2629
0
LINE
8
BLACK
6
CONTINUOUS
10
229.352
20
-55.2629
11
229.357
21
-55.225
0
LINE
8
BLACK
6
CONTINUOUS
10
229.357
20
-55.225
11
229.387
21
-55.2017
0
LINE
8
BLACK
6
CONTINUOUS
10
229.387
20
-55.2017
11
242.91
21
-51.5782
0
LINE
8
BLACK
6
CONTINUOUS
10
242.91
20
-51.5782
11
242.91
21
-51.5782
0
LINE
8
BLACK
6
CONTINUOUS
10
242.91
20
-51.5782
11
242.948
21
-51.5832
0
LINE
8
BLACK
6
CONTINUOUS
10
229.461
20
-55.2854
11
233.059
21
-68.7117
0
LINE
8
BLACK
6
CONTINUOUS
10
233.059
20
-68.7117
11
246.485
21
-65.1141
0
LINE
8
BLACK
6
CONTINUOUS
10
246.485
20
-65.1141
11
242.888
21
-51.6878
0
LINE
8
BLACK
6
CONTINUOUS
10
242.888
20
-51.6878
11
229.461
21
-55.2854
0
LINE
8
BLACK
6
CONTINUOUS
10
55.7364
20
-51.4537
11
69.2594
21
-55.0772
0
LINE
8
BLACK
6
CONTINUOUS
10
69.2594
20
-55.0772
11
69.2594
21
-55.0772
0
LINE
8
BLACK
6
CONTINUOUS
10
69.2594
20
-55.0772
11
69.2895
21
-55.1003
0
LINE
8
BLACK
6
CONTINUOUS
10
69.2895
20
-55.1003
11
69.2897
21
-55.1005
0
LINE
8
BLACK
6
CONTINUOUS
10
69.2897
20
-55.1005
11
69.2947
21
-55.1384
0
LINE
8
BLACK
6
CONTINUOUS
10
69.2947
20
-55.1384
11
69.2947
21
-55.1384
0
LINE
8
BLACK
6
CONTINUOUS
10
69.2947
20
-55.1384
11
65.6713
21
-68.6614
0
LINE
8
BLACK
6
CONTINUOUS
10
65.6713
20
-68.6614
11
65.648
21
-68.6918
0
LINE
8
BLACK
6
CONTINUOUS
10
65.648
20
-68.6918
11
65.61
21
-68.6968
0
LINE
8
BLACK
6
CONTINUOUS
10
65.61
20
-68.6968
11
52.0871
21
-65.0733
0
LINE
8
BLACK
6
CONTINUOUS
10
52.0871
20
-65.0733
11
52.0567
21
-65.05
0
LINE
8
BLACK
6
CONTINUOUS
10
52.0567
20
-65.05
11
52.0517
21
-65.0121
0
LINE
8
BLACK
6
CONTINUOUS
10
52.0517
20
-65.0121
11
55.6752
21
-51.4891
0
LINE
8
BLACK
6
CONTINUOUS
10
55.6752
20
-51.4891
11
55.6985
21
-51.4587
0
LINE
8
BLACK
6
CONTINUOUS
10
55.6985
20
-51.4587
11
55.7364
21
-51.4537
0
LINE
8
BLACK
6
CONTINUOUS
10
55.7364
20
-51.4537
11
55.7364
21
-51.4537
0
LINE
8
BLACK
6
CONTINUOUS
10
52.1612
20
-64.9896
11
65.5876
21
-68.5872
0
LINE
8
BLACK
6
CONTINUOUS
10
65.5876
20
-68.5872
11
69.1852
21
-55.1609
0
LINE
8
BLACK
6
CONTINUOUS
10
69.1852
20
-55.1609
11
55.7588
21
-51.5633
0
LINE
8
BLACK
6
CONTINUOUS
10
55.7588
20
-51.5633
11
52.1612
21
-64.9896
0
LINE
8
BLACK
6
CONTINUOUS
10
201.298
20
-43.0582
11
201.321
21
-43.0886
0
LINE
8
BLACK
6
CONTINUOUS
10
201.321
20
-43.0886
11
201.321
21
-43.0886
0
LINE
8
BLACK
6
CONTINUOUS
10
201.321
20
-43.0886
11
204.945
21
-56.6116
0
LINE
8
BLACK
6
CONTINUOUS
10
204.945
20
-56.6116
11
204.94
21
-56.6495
0
LINE
8
BLACK
6
CONTINUOUS
10
204.94
20
-56.6495
11
204.909
21
-56.6728
0
LINE
8
BLACK
6
CONTINUOUS
10
204.909
20
-56.6728
11
204.909
21
-56.6728
0
LINE
8
BLACK
6
CONTINUOUS
10
204.909
20
-56.6728
11
191.386
21
-60.2963
0
LINE
8
BLACK
6
CONTINUOUS
10
191.386
20
-60.2963
11
191.386
21
-60.2963
0
LINE
8
BLACK
6
CONTINUOUS
10
191.386
20
-60.2963
11
191.348
21
-60.2913
0
LINE
8
BLACK
6
CONTINUOUS
10
191.348
20
-60.2913
11
191.325
21
-60.2609
0
LINE
8
BLACK
6
CONTINUOUS
10
191.325
20
-60.2609
11
187.702
21
-46.7379
0
LINE
8
BLACK
6
CONTINUOUS
10
187.702
20
-46.7379
11
187.707
21
-46.7
0
LINE
8
BLACK
6
CONTINUOUS
10
187.707
20
-46.7
11
187.737
21
-46.6767
0
LINE
8
BLACK
6
CONTINUOUS
10
187.737
20
-46.6767
11
201.26
21
-43.0532
0
LINE
8
BLACK
6
CONTINUOUS
10
201.26
20
-43.0532
11
201.26
21
-43.0532
0
LINE
8
BLACK
6
CONTINUOUS
10
201.26
20
-43.0532
11
201.298
21
-43.0582
0
LINE
8
BLACK
6
CONTINUOUS
10
187.811
20
-46.7604
11
191.409
21
-60.1867
0
LINE
8
BLACK
6
CONTINUOUS
10
191.409
20
-60.1867
11
204.835
21
-56.5891
0
LINE
8
BLACK
6
CONTINUOUS
10
204.835
20
-56.5891
11
201.238
21
-43.1628
0
LINE
8
BLACK
6
CONTINUOUS
10
201.238
20
-43.1628
11
187.811
21
-46.7604
0
LINE
8
BLACK
6
CONTINUOUS
10
93.8547
20
-56.5393
11
93.8497
21
-56.5013
0
LINE
8
BLACK
6
CONTINUOUS
10
93.8497
20
-56.5013
11
97.4732
21
-42.9784
0
LINE
8
BLACK
6
CONTINUOUS
10
97.4732
20
-42.9784
11
97.4965
21
-42.948
0
LINE
8
BLACK
6
CONTINUOUS
10
97.4965
20
-42.948
11
97.5344
21
-42.943
0
LINE
8
BLACK
6
CONTINUOUS
10
97.5344
20
-42.943
11
97.5344
21
-42.943
0
LINE
8
BLACK
6
CONTINUOUS
10
97.5344
20
-42.943
11
111.057
21
-46.5665
0
LINE
8
BLACK
6
CONTINUOUS
10
111.057
20
-46.5665
11
111.057
21
-46.5665
0
LINE
8
BLACK
6
CONTINUOUS
10
111.057
20
-46.5665
11
111.088
21
-46.5898
0
LINE
8
BLACK
6
CONTINUOUS
10
111.088
20
-46.5898
11
111.093
21
-46.6277
0
LINE
8
BLACK
6
CONTINUOUS
10
111.093
20
-46.6277
11
111.093
21
-46.6277
0
LINE
8
BLACK
6
CONTINUOUS
10
111.093
20
-46.6277
11
107.469
21
-60.1507
0
LINE
8
BLACK
6
CONTINUOUS
10
107.469
20
-60.1507
11
107.446
21
-60.181
0
LINE
8
BLACK
6
CONTINUOUS
10
107.446
20
-60.181
11
107.408
21
-60.186
0
LINE
8
BLACK
6
CONTINUOUS
10
107.408
20
-60.186
11
93.8851
21
-56.5626
0
LINE
8
BLACK
6
CONTINUOUS
10
93.8851
20
-56.5626
11
93.8547
21
-56.5393
0
LINE
8
BLACK
6
CONTINUOUS
10
93.9593
20
-56.4789
11
107.386
21
-60.0765
0
LINE
8
BLACK
6
CONTINUOUS
10
107.386
20
-60.0765
11
110.983
21
-46.6501
0
LINE
8
BLACK
6
CONTINUOUS
10
110.983
20
-46.6501
11
97.5568
21
-43.0525
0
LINE
8
BLACK
6
CONTINUOUS
10
97.5568
20
-43.0525
11
93.9593
21
-56.4789
0
LINE
8
BLACK
6
CONTINUOUS
10
258.673
20
-36.7082
11
258.696
21
-36.7386
0
LINE
8
BLACK
6
CONTINUOUS
10
258.696
20
-36.7386
11
258.696
21
-36.7386
0
LINE
8
BLACK
6
CONTINUOUS
10
258.696
20
-36.7386
11
262.32
21
-50.2616
0
LINE
8
BLACK
6
CONTINUOUS
10
262.32
20
-50.2616
11
262.315
21
-50.2995
0
LINE
8
BLACK
6
CONTINUOUS
10
262.315
20
-50.2995
11
262.284
21
-50.3228
0
LINE
8
BLACK
6
CONTINUOUS
10
262.284
20
-50.3228
11
262.284
21
-50.3228
0
LINE
8
BLACK
6
CONTINUOUS
10
262.284
20
-50.3228
11
248.761
21
-53.9463
0
LINE
8
BLACK
6
CONTINUOUS
10
248.761
20
-53.9463
11
248.761
21
-53.9463
0
LINE
8
BLACK
6
CONTINUOUS
10
248.761
20
-53.9463
11
248.723
21
-53.9413
0
LINE
8
BLACK
6
CONTINUOUS
10
248.723
20
-53.9413
11
248.7
21
-53.9109
0
LINE
8
BLACK
6
CONTINUOUS
10
248.7
20
-53.9109
11
245.077
21
-40.3879
0
LINE
8
BLACK
6
CONTINUOUS
10
245.077
20
-40.3879
11
245.082
21
-40.35
0
LINE
8
BLACK
6
CONTINUOUS
10
245.082
20
-40.35
11
245.112
21
-40.3267
0
LINE
8
BLACK
6
CONTINUOUS
10
245.112
20
-40.3267
11
258.635
21
-36.7032
0
LINE
8
BLACK
6
CONTINUOUS
10
258.635
20
-36.7032
11
258.635
21
-36.7032
0
LINE
8
BLACK
6
CONTINUOUS
10
258.635
20
-36.7032
11
258.673
21
-36.7082
0
LINE
8
BLACK
6
CONTINUOUS
10
245.186
20
-40.4104
11
248.784
21
-53.8367
0
LINE
8
BLACK
6
CONTINUOUS
10
248.784
20
-53.8367
11
262.21
21
-50.2391
0
LINE
8
BLACK
6
CONTINUOUS
10
262.21
20
-50.2391
11
258.613
21
-36.8128
0
LINE
8
BLACK
6
CONTINUOUS
10
258.613
20
-36.8128
11
245.186
21
-40.4104
0
LINE
8
BLACK
6
CONTINUOUS
10
40.0733
20
-36.6082
11
53.5962
21
-40.2316
0
LINE
8
BLACK
6
CONTINUOUS
10
53.5962
20
-40.2316
11
53.5962
21
-40.2316
0
LINE
8
BLACK
6
CONTINUOUS
10
53.5962
20
-40.2316
11
53.6266
21
-40.2549
0
LINE
8
BLACK
6
CONTINUOUS
10
53.6266
20
-40.2549
11
53.6316
21
-40.2929
0
LINE
8
BLACK
6
CONTINUOUS
10
53.6316
20
-40.2929
11
53.6316
21
-40.2929
0
LINE
8
BLACK
6
CONTINUOUS
10
53.6316
20
-40.2929
11
50.0081
21
-53.8158
0
LINE
8
BLACK
6
CONTINUOUS
10
50.0081
20
-53.8158
11
49.9848
21
-53.8462
0
LINE
8
BLACK
6
CONTINUOUS
10
49.9848
20
-53.8462
11
49.9469
21
-53.8512
0
LINE
8
BLACK
6
CONTINUOUS
10
49.9469
20
-53.8512
11
36.4239
21
-50.2277
0
LINE
8
BLACK
6
CONTINUOUS
10
36.4239
20
-50.2277
11
36.3936
21
-50.2044
0
LINE
8
BLACK
6
CONTINUOUS
10
36.3936
20
-50.2044
11
36.3886
21
-50.1665
0
LINE
8
BLACK
6
CONTINUOUS
10
36.3886
20
-50.1665
11
40.012
21
-36.6435
0
LINE
8
BLACK
6
CONTINUOUS
10
40.012
20
-36.6435
11
40.0353
21
-36.6132
0
LINE
8
BLACK
6
CONTINUOUS
10
40.0353
20
-36.6132
11
40.0733
21
-36.6082
0
LINE
8
BLACK
6
CONTINUOUS
10
40.0733
20
-36.6082
11
40.0733
21
-36.6082
0
LINE
8
BLACK
6
CONTINUOUS
10
36.4981
20
-50.1441
11
49.9245
21
-53.7416
0
LINE
8
BLACK
6
CONTINUOUS
10
49.9245
20
-53.7416
11
53.5221
21
-40.3153
0
LINE
8
BLACK
6
CONTINUOUS
10
53.5221
20
-40.3153
11
40.0957
21
-36.7177
0
LINE
8
BLACK
6
CONTINUOUS
10
40.0957
20
-36.7177
11
36.4981
21
-50.1441
0
LINE
8
BLACK
6
CONTINUOUS
10
218.423
20
-33.4582
11
218.446
21
-33.4886
0
LINE
8
BLACK
6
CONTINUOUS
10
218.446
20
-33.4886
11
218.446
21
-33.4886
0
LINE
8
BLACK
6
CONTINUOUS
10
218.446
20
-33.4886
11
222.07
21
-47.0116
0
LINE
8
BLACK
6
CONTINUOUS
10
222.07
20
-47.0116
11
222.065
21
-47.0495
0
LINE
8
BLACK
6
CONTINUOUS
10
222.065
20
-47.0495
11
222.034
21
-47.0728
0
LINE
8
BLACK
6
CONTINUOUS
10
222.034
20
-47.0728
11
222.034
21
-47.0728
0
LINE
8
BLACK
6
CONTINUOUS
10
222.034
20
-47.0728
11
208.511
21
-50.6963
0
LINE
8
BLACK
6
CONTINUOUS
10
208.511
20
-50.6963
11
208.511
21
-50.6963
0
LINE
8
BLACK
6
CONTINUOUS
10
208.511
20
-50.6963
11
208.473
21
-50.6913
0
LINE
8
BLACK
6
CONTINUOUS
10
208.473
20
-50.6913
11
208.45
21
-50.6609
0
LINE
8
BLACK
6
CONTINUOUS
10
208.45
20
-50.6609
11
204.827
21
-37.1379
0
LINE
8
BLACK
6
CONTINUOUS
10
204.827
20
-37.1379
11
204.832
21
-37.1
0
LINE
8
BLACK
6
CONTINUOUS
10
204.832
20
-37.1
11
204.862
21
-37.0767
0
LINE
8
BLACK
6
CONTINUOUS
10
204.862
20
-37.0767
11
218.385
21
-33.4532
0
LINE
8
BLACK
6
CONTINUOUS
10
218.385
20
-33.4532
11
218.385
21
-33.4532
0
LINE
8
BLACK
6
CONTINUOUS
10
218.385
20
-33.4532
11
218.423
21
-33.4582
0
LINE
8
BLACK
6
CONTINUOUS
10
204.936
20
-37.1604
11
208.534
21
-50.5867
0
LINE
8
BLACK
6
CONTINUOUS
10
208.534
20
-50.5867
11
221.96
21
-46.9891
0
LINE
8
BLACK
6
CONTINUOUS
10
221.96
20
-46.9891
11
218.363
21
-33.5628
0
LINE
8
BLACK
6
CONTINUOUS
10
218.363
20
-33.5628
11
204.936
21
-37.1604
0
LINE
8
BLACK
6
CONTINUOUS
10
80.3157
20
-33.3991
11
93.8386
21
-37.0226
0
LINE
8
BLACK
6
CONTINUOUS
10
93.8386
20
-37.0226
11
93.8386
21
-37.0226
0
LINE
8
BLACK
6
CONTINUOUS
10
93.8386
20
-37.0226
11
93.869
21
-37.0459
0
LINE
8
BLACK
6
CONTINUOUS
10
93.869
20
-37.0459
11
93.874
21
-37.0838
0
LINE
8
BLACK
6
CONTINUOUS
10
93.874
20
-37.0838
11
93.874
21
-37.0838
0
LINE
8
BLACK
6
CONTINUOUS
10
93.874
20
-37.0838
11
90.2505
21
-50.6068
0
LINE
8
BLACK
6
CONTINUOUS
10
90.2505
20
-50.6068
11
90.2272
21
-50.6371
0
LINE
8
BLACK
6
CONTINUOUS
10
90.2272
20
-50.6371
11
90.1893
21
-50.6421
0
LINE
8
BLACK
6
CONTINUOUS
10
90.1893
20
-50.6421
11
76.6663
21
-47.0187
0
LINE
8
BLACK
6
CONTINUOUS
10
76.6663
20
-47.0187
11
76.636
21
-46.9954
0
LINE
8
BLACK
6
CONTINUOUS
10
76.636
20
-46.9954
11
76.631
21
-46.9574
0
LINE
8
BLACK
6
CONTINUOUS
10
76.631
20
-46.9574
11
80.2544
21
-33.4345
0
LINE
8
BLACK
6
CONTINUOUS
10
80.2544
20
-33.4345
11
80.2777
21
-33.4041
0
LINE
8
BLACK
6
CONTINUOUS
10
80.2777
20
-33.4041
11
80.3157
21
-33.3991
0
LINE
8
BLACK
6
CONTINUOUS
10
80.3157
20
-33.3991
11
80.3157
21
-33.3991
0
LINE
8
BLACK
6
CONTINUOUS
10
76.7405
20
-46.935
11
90.1669
21
-50.5326
0
LINE
8
BLACK
6
CONTINUOUS
10
90.1669
20
-50.5326
11
93.7645
21
-37.1062
0
LINE
8
BLACK
6
CONTINUOUS
10
93.7645
20
-37.1062
11
80.3381
21
-33.5086
0
LINE
8
BLACK
6
CONTINUOUS
10
80.3381
20
-33.5086
11
76.7405
21
-46.935
0
LINE
8
BLACK
6
CONTINUOUS
10
238.073
20
-33.1582
11
238.096
21
-33.1886
0
LINE
8
BLACK
6
CONTINUOUS
10
238.096
20
-33.1886
11
238.096
21
-33.1886
0
LINE
8
BLACK
6
CONTINUOUS
10
238.096
20
-33.1886
11
241.72
21
-46.7116
0
LINE
8
BLACK
6
CONTINUOUS
10
241.72
20
-46.7116
11
241.715
21
-46.7495
0
LINE
8
BLACK
6
CONTINUOUS
10
241.715
20
-46.7495
11
241.684
21
-46.7728
0
LINE
8
BLACK
6
CONTINUOUS
10
241.684
20
-46.7728
11
241.684
21
-46.7728
0
LINE
8
BLACK
6
CONTINUOUS
10
241.684
20
-46.7728
11
228.161
21
-50.3963
0
LINE
8
BLACK
6
CONTINUOUS
10
228.161
20
-50.3963
11
228.161
21
-50.3963
0
LINE
8
BLACK
6
CONTINUOUS
10
228.161
20
-50.3963
11
228.123
21
-50.3913
0
LINE
8
BLACK
6
CONTINUOUS
10
228.123
20
-50.3913
11
228.1
21
-50.3609
0
LINE
8
BLACK
6
CONTINUOUS
10
228.1
20
-50.3609
11
224.477
21
-36.8379
0
LINE
8
BLACK
6
CONTINUOUS
10
224.477
20
-36.8379
11
224.482
21
-36.8
0
LINE
8
BLACK
6
CONTINUOUS
10
224.482
20
-36.8
11
224.512
21
-36.7767
0
LINE
8
BLACK
6
CONTINUOUS
10
224.512
20
-36.7767
11
238.035
21
-33.1532
0
LINE
8
BLACK
6
CONTINUOUS
10
238.035
20
-33.1532
11
238.035
21
-33.1532
0
LINE
8
BLACK
6
CONTINUOUS
10
238.035
20
-33.1532
11
238.073
21
-33.1582
0
LINE
8
BLACK
6
CONTINUOUS
10
224.586
20
-36.8604
11
228.184
21
-50.2867
0
LINE
8
BLACK
6
CONTINUOUS
10
228.184
20
-50.2867
11
241.61
21
-46.6891
0
LINE
8
BLACK
6
CONTINUOUS
10
241.61
20
-46.6891
11
238.013
21
-33.2628
0
LINE
8
BLACK
6
CONTINUOUS
10
238.013
20
-33.2628
11
224.586
21
-36.8604
0
LINE
8
BLACK
6
CONTINUOUS
10
60.686
20
-33.0698
11
74.2089
21
-36.6932
0
LINE
8
BLACK
6
CONTINUOUS
10
74.2089
20
-36.6932
11
74.2089
21
-36.6932
0
LINE
8
BLACK
6
CONTINUOUS
10
74.2089
20
-36.6932
11
74.2285
21
-36.7082
0
LINE
8
BLACK
6
CONTINUOUS
10
74.2285
20
-36.7082
11
74.2393
21
-36.7165
0
LINE
8
BLACK
6
CONTINUOUS
10
74.2393
20
-36.7165
11
74.2443
21
-36.7545
0
LINE
8
BLACK
6
CONTINUOUS
10
74.2443
20
-36.7545
11
74.2443
21
-36.7545
0
LINE
8
BLACK
6
CONTINUOUS
10
74.2443
20
-36.7545
11
70.6208
21
-50.2774
0
LINE
8
BLACK
6
CONTINUOUS
10
70.6208
20
-50.2774
11
70.5975
21
-50.3078
0
LINE
8
BLACK
6
CONTINUOUS
10
70.5975
20
-50.3078
11
70.5596
21
-50.3128
0
LINE
8
BLACK
6
CONTINUOUS
10
70.5596
20
-50.3128
11
57.0366
21
-46.6893
0
LINE
8
BLACK
6
CONTINUOUS
10
57.0366
20
-46.6893
11
57.0063
21
-46.666
0
LINE
8
BLACK
6
CONTINUOUS
10
57.0063
20
-46.666
11
57.0013
21
-46.6281
0
LINE
8
BLACK
6
CONTINUOUS
10
57.0013
20
-46.6281
11
60.6247
21
-33.1051
0
LINE
8
BLACK
6
CONTINUOUS
10
60.6247
20
-33.1051
11
60.648
21
-33.0748
0
LINE
8
BLACK
6
CONTINUOUS
10
60.648
20
-33.0748
11
60.686
21
-33.0698
0
LINE
8
BLACK
6
CONTINUOUS
10
60.686
20
-33.0698
11
60.686
21
-33.0698
0
LINE
8
BLACK
6
CONTINUOUS
10
57.1108
20
-46.6057
11
70.5372
21
-50.2033
0
LINE
8
BLACK
6
CONTINUOUS
10
70.5372
20
-50.2033
11
74.1348
21
-36.7769
0
LINE
8
BLACK
6
CONTINUOUS
10
74.1348
20
-36.7769
11
60.7084
21
-33.1793
0
LINE
8
BLACK
6
CONTINUOUS
10
60.7084
20
-33.1793
11
57.1108
21
-46.6057
  0
ENDSEC
  0
EOF
