G04 #@! TF.GenerationSoftware,KiCad,Pcbnew,(6.0.4)*
G04 #@! TF.CreationDate,2022-05-01T20:55:42-04:00*
G04 #@! TF.ProjectId,crowboard,63726f77-626f-4617-9264-2e6b69636164,rev?*
G04 #@! TF.SameCoordinates,Original*
G04 #@! TF.FileFunction,Soldermask,Top*
G04 #@! TF.FilePolarity,Negative*
%FSLAX46Y46*%
G04 Gerber Fmt 4.6, Leading zero omitted, Abs format (unit mm)*
G04 Created by KiCad (PCBNEW (6.0.4)) date 2022-05-01 20:55:42*
%MOMM*%
%LPD*%
G01*
G04 APERTURE LIST*
G04 Aperture macros list*
%AMRotRect*
0 Rectangle, with rotation*
0 The origin of the aperture is its center*
0 $1 length*
0 $2 width*
0 $3 Rotation angle, in degrees counterclockwise*
0 Add horizontal line*
21,1,$1,$2,0,0,$3*%
G04 Aperture macros list end*
%ADD10C,1.750000*%
%ADD11C,4.000000*%
%ADD12RotRect,1.600000X1.600000X345.000000*%
%ADD13C,1.600000*%
%ADD14RotRect,1.600000X1.600000X15.000000*%
%ADD15O,1.500000X1.500000*%
%ADD16O,1.800000X1.800000*%
%ADD17R,3.500000X1.700000*%
%ADD18O,1.700000X1.700000*%
%ADD19R,1.700000X1.700000*%
%ADD20R,1.700000X3.500000*%
G04 APERTURE END LIST*
D10*
X87637726Y-87031338D03*
D11*
X92544629Y-88346139D03*
D10*
X97451532Y-89660940D03*
D12*
X41574288Y-73045175D03*
D13*
X34040066Y-71026387D03*
D14*
X202392307Y-59078709D03*
D13*
X194858085Y-61097497D03*
D10*
X70510764Y-42998160D03*
X60696958Y-40368558D03*
D11*
X65603861Y-41683359D03*
D14*
X264785284Y-71121827D03*
D13*
X257251062Y-73140615D03*
D11*
X223285982Y-78954529D03*
D10*
X228192885Y-77639728D03*
X218379079Y-80269330D03*
D12*
X103967265Y-61002057D03*
D13*
X96433043Y-58983269D03*
D12*
X116410461Y-88166965D03*
D13*
X108876239Y-86148177D03*
D12*
X111479959Y-106567852D03*
D13*
X103945737Y-104549064D03*
D10*
X35160087Y-62287241D03*
X44973893Y-64916843D03*
D11*
X40066990Y-63602042D03*
D14*
X207322809Y-77479596D03*
D13*
X199788587Y-79498384D03*
D14*
X244124583Y-67618590D03*
D13*
X236590361Y-69637378D03*
D11*
X85237373Y-42013640D03*
D10*
X90144276Y-43328441D03*
X80330470Y-40698839D03*
D12*
X99036762Y-79402944D03*
D13*
X91502540Y-77384156D03*
D12*
X76937998Y-88273106D03*
D13*
X69403776Y-86254318D03*
D11*
X201187218Y-70084367D03*
D10*
X196280315Y-71399168D03*
X206094121Y-68769566D03*
X208638037Y-118881203D03*
D11*
X204476745Y-121794971D03*
D10*
X200315453Y-124708739D03*
D14*
X224491071Y-67948871D03*
D13*
X216956849Y-69967659D03*
D12*
X62234988Y-69541938D03*
D13*
X54700766Y-67523150D03*
D11*
X35136488Y-82002929D03*
D10*
X30229585Y-80688128D03*
X40043391Y-83317730D03*
D12*
X57304486Y-87942825D03*
D13*
X49770264Y-85924037D03*
D12*
X94106260Y-97803831D03*
D13*
X86572038Y-95785043D03*
D12*
X86684300Y-51440598D03*
D13*
X79150078Y-49421810D03*
D12*
X36643785Y-91446062D03*
D13*
X29109563Y-89427274D03*
D10*
X228151586Y-43137275D03*
D11*
X233058489Y-41822474D03*
D10*
X237965392Y-40507673D03*
X50835952Y-77170332D03*
X60649758Y-79799934D03*
D11*
X55742855Y-78485133D03*
X44997493Y-45201155D03*
D10*
X49904396Y-46515956D03*
X40090590Y-43886354D03*
X193705258Y-95919915D03*
X183891452Y-98549517D03*
D11*
X188798355Y-97234716D03*
D10*
X118120736Y-138916360D03*
X110936532Y-131732156D03*
D11*
X114528634Y-135324258D03*
D10*
X114981097Y-59022702D03*
X124794903Y-61652304D03*
D11*
X119888000Y-60337503D03*
D14*
X185018608Y-67842729D03*
D13*
X177484386Y-69861517D03*
D12*
X46571198Y-54662082D03*
D13*
X39036976Y-52643294D03*
D10*
X258727626Y-83427728D03*
D11*
X263634529Y-82112927D03*
D10*
X268541432Y-80798126D03*
D11*
X253773523Y-45311153D03*
D10*
X248866620Y-46625954D03*
X258680426Y-43996352D03*
X174084780Y-61733185D03*
X183898586Y-59103583D03*
D11*
X178991683Y-60418384D03*
D10*
X92568229Y-68630451D03*
X102382035Y-71260053D03*
D11*
X97475132Y-69945252D03*
D14*
X195701364Y-107711318D03*
D13*
X188167142Y-109730106D03*
D11*
X183867852Y-78833829D03*
D10*
X188774755Y-77519028D03*
X178960949Y-80148630D03*
D11*
X75376368Y-78815414D03*
D10*
X70469465Y-77500613D03*
X80283271Y-80130215D03*
D11*
X80306871Y-60414527D03*
D10*
X75399968Y-59099726D03*
X85213774Y-61729328D03*
D11*
X237988992Y-60223361D03*
D10*
X242895895Y-58908560D03*
X233082089Y-61538162D03*
D11*
X95115308Y-121904969D03*
D10*
X90954016Y-118991201D03*
X99276600Y-124818737D03*
D15*
X151523000Y-49896000D03*
D16*
X151823000Y-46866000D03*
D15*
X146673000Y-49896000D03*
D16*
X146373000Y-46866000D03*
D17*
X139308000Y-46736000D03*
D18*
X140208000Y-46736000D03*
D17*
X139308000Y-49276000D03*
D18*
X140208000Y-49276000D03*
D19*
X140208000Y-51816000D03*
D17*
X139308000Y-51816000D03*
X139308000Y-54356000D03*
D18*
X140208000Y-54356000D03*
X140208000Y-56896000D03*
D17*
X139308000Y-56896000D03*
D18*
X140208000Y-59436000D03*
D17*
X139308000Y-59436000D03*
X139308000Y-61976000D03*
D18*
X140208000Y-61976000D03*
D19*
X140208000Y-64516000D03*
D17*
X139308000Y-64516000D03*
D18*
X140208000Y-67056000D03*
D17*
X139308000Y-67056000D03*
D18*
X140208000Y-69596000D03*
D17*
X139308000Y-69596000D03*
D18*
X140208000Y-72136000D03*
D17*
X139308000Y-72136000D03*
X139308000Y-74676000D03*
D18*
X140208000Y-74676000D03*
D19*
X140208000Y-77216000D03*
D17*
X139308000Y-77216000D03*
D18*
X140208000Y-79756000D03*
D17*
X139308000Y-79756000D03*
X139308000Y-82296000D03*
D18*
X140208000Y-82296000D03*
D17*
X139308000Y-84836000D03*
D18*
X140208000Y-84836000D03*
D17*
X139308000Y-87376000D03*
D18*
X140208000Y-87376000D03*
D17*
X139308000Y-89916000D03*
D19*
X140208000Y-89916000D03*
D18*
X140208000Y-92456000D03*
D17*
X139308000Y-92456000D03*
X139308000Y-94996000D03*
D18*
X140208000Y-94996000D03*
X157988000Y-94996000D03*
D17*
X158888000Y-94996000D03*
D18*
X157988000Y-92456000D03*
D17*
X158888000Y-92456000D03*
X158888000Y-89916000D03*
D19*
X157988000Y-89916000D03*
D18*
X157988000Y-87376000D03*
D17*
X158888000Y-87376000D03*
D18*
X157988000Y-84836000D03*
D17*
X158888000Y-84836000D03*
D18*
X157988000Y-82296000D03*
D17*
X158888000Y-82296000D03*
X158888000Y-79756000D03*
D18*
X157988000Y-79756000D03*
D17*
X158888000Y-77216000D03*
D19*
X157988000Y-77216000D03*
D18*
X157988000Y-74676000D03*
D17*
X158888000Y-74676000D03*
D18*
X157988000Y-72136000D03*
D17*
X158888000Y-72136000D03*
D18*
X157988000Y-69596000D03*
D17*
X158888000Y-69596000D03*
X158888000Y-67056000D03*
D18*
X157988000Y-67056000D03*
D17*
X158888000Y-64516000D03*
D19*
X157988000Y-64516000D03*
D18*
X157988000Y-61976000D03*
D17*
X158888000Y-61976000D03*
D18*
X157988000Y-59436000D03*
D17*
X158888000Y-59436000D03*
D18*
X157988000Y-56896000D03*
D17*
X158888000Y-56896000D03*
X158888000Y-54356000D03*
D18*
X157988000Y-54356000D03*
D17*
X158888000Y-51816000D03*
D19*
X157988000Y-51816000D03*
D17*
X158888000Y-49276000D03*
D18*
X157988000Y-49276000D03*
D17*
X158888000Y-46736000D03*
D18*
X157988000Y-46736000D03*
X146558000Y-94766000D03*
D20*
X146558000Y-95666000D03*
D19*
X149098000Y-94766000D03*
D20*
X149098000Y-95666000D03*
X151638000Y-95666000D03*
D18*
X151638000Y-94766000D03*
D14*
X197344865Y-113844947D03*
D13*
X189810643Y-115863735D03*
D14*
X194879613Y-104644503D03*
D13*
X187345391Y-106663291D03*
D10*
X181471318Y-138806362D03*
D11*
X185063420Y-135214260D03*
D10*
X188655522Y-131622158D03*
X109996261Y-77409030D03*
D11*
X114903164Y-78723831D03*
D10*
X119810067Y-80038632D03*
D11*
X196311048Y-51668921D03*
D10*
X191404145Y-52983722D03*
X201217951Y-50354120D03*
X105065758Y-95809917D03*
D11*
X109972661Y-97124718D03*
D10*
X114879564Y-98439519D03*
D14*
X212253312Y-95880483D03*
D13*
X204719090Y-97899271D03*
D14*
X249055086Y-86019477D03*
D13*
X241520864Y-88038265D03*
D12*
X67165491Y-51141051D03*
D13*
X59631269Y-49122263D03*
D12*
X109022925Y-115737627D03*
D13*
X101488703Y-113718839D03*
D10*
X253797123Y-65026841D03*
D11*
X258704026Y-63712040D03*
D10*
X263610929Y-62397239D03*
X97553065Y-50244122D03*
X107366871Y-52873724D03*
D11*
X102459968Y-51558923D03*
D14*
X239079377Y-49248438D03*
D13*
X231545155Y-51267226D03*
D10*
X201210818Y-89800055D03*
D11*
X206117721Y-88485254D03*
D10*
X211024624Y-87170453D03*
D11*
X225533571Y-114509310D03*
D10*
X230137615Y-112362409D03*
X220929527Y-116656211D03*
D14*
X189949111Y-86243616D03*
D13*
X182414889Y-88262404D03*
D14*
X229421574Y-86349758D03*
D13*
X221887352Y-88368546D03*
D14*
X269715787Y-89522714D03*
D13*
X262181565Y-91541502D03*
D14*
X259854781Y-52720940D03*
D13*
X252320559Y-54739728D03*
D11*
X213424976Y-42152755D03*
D10*
X218331879Y-40837954D03*
X208518073Y-43467556D03*
D14*
X219560568Y-49547984D03*
D13*
X212026346Y-51566772D03*
D11*
X242919495Y-78624248D03*
D10*
X238012592Y-79939049D03*
X247826398Y-77309447D03*
D12*
X109844675Y-112670813D03*
D13*
X102310453Y-110652025D03*
D12*
X81868501Y-69872219D03*
D13*
X74334279Y-67853431D03*
D14*
X196523114Y-110778132D03*
D13*
X188988892Y-112796920D03*
D12*
X110658208Y-109634666D03*
D13*
X103123986Y-107615878D03*
D12*
X121340964Y-69766078D03*
D13*
X113806742Y-67747290D03*
D11*
X60673358Y-60084246D03*
D10*
X55766455Y-58769445D03*
X65580261Y-61399047D03*
D11*
X218355479Y-60553642D03*
D10*
X213448576Y-61868443D03*
X223262382Y-59238841D03*
D11*
X74058482Y-114619308D03*
D10*
X78662526Y-116766209D03*
X69454438Y-112472407D03*
M02*
