G04 #@! TF.GenerationSoftware,KiCad,Pcbnew,(6.0.4)*
G04 #@! TF.CreationDate,2022-05-01T20:55:42-04:00*
G04 #@! TF.ProjectId,crowboard,63726f77-626f-4617-9264-2e6b69636164,rev?*
G04 #@! TF.SameCoordinates,Original*
G04 #@! TF.FileFunction,Soldermask,Bot*
G04 #@! TF.FilePolarity,Negative*
%FSLAX46Y46*%
G04 Gerber Fmt 4.6, Leading zero omitted, Abs format (unit mm)*
G04 Created by KiCad (PCBNEW (6.0.4)) date 2022-05-01 20:55:42*
%MOMM*%
%LPD*%
G01*
G04 APERTURE LIST*
G04 Aperture macros list*
%AMRotRect*
0 Rectangle, with rotation*
0 The origin of the aperture is its center*
0 $1 length*
0 $2 width*
0 $3 Rotation angle, in degrees counterclockwise*
0 Add horizontal line*
21,1,$1,$2,0,0,$3*%
G04 Aperture macros list end*
%ADD10C,1.750000*%
%ADD11C,4.000000*%
%ADD12C,2.500000*%
%ADD13RotRect,1.600000X1.200000X345.000000*%
%ADD14RotRect,1.600000X1.600000X345.000000*%
%ADD15C,1.600000*%
%ADD16RotRect,1.600000X1.200000X15.000000*%
%ADD17RotRect,1.600000X1.600000X15.000000*%
%ADD18O,1.500000X1.500000*%
%ADD19O,1.800000X1.800000*%
%ADD20O,1.700000X1.700000*%
%ADD21R,1.700000X1.700000*%
G04 APERTURE END LIST*
D10*
X87637726Y-87031338D03*
D11*
X92544629Y-88346139D03*
D10*
X97451532Y-89660940D03*
D12*
X89521852Y-84906587D03*
X96312881Y-84096636D03*
D13*
X39159473Y-72398128D03*
D14*
X41574288Y-73045175D03*
D15*
X34040066Y-71026387D03*
D13*
X36454881Y-71673434D03*
D16*
X199977492Y-59725756D03*
D17*
X202392307Y-59078709D03*
D16*
X197272900Y-60450450D03*
D15*
X194858085Y-61097497D03*
D10*
X70510764Y-42998160D03*
X60696958Y-40368558D03*
D11*
X65603861Y-41683359D03*
D12*
X62581084Y-38243807D03*
X69372113Y-37433856D03*
D17*
X264785284Y-71121827D03*
D16*
X262370469Y-71768874D03*
X259665877Y-72493568D03*
D15*
X257251062Y-73140615D03*
D11*
X223285982Y-78954529D03*
D10*
X228192885Y-77639728D03*
X218379079Y-80269330D03*
D12*
X218948404Y-77487178D03*
X224424633Y-73390225D03*
D14*
X103967265Y-61002057D03*
D13*
X101552450Y-60355010D03*
D15*
X96433043Y-58983269D03*
D13*
X98847858Y-59630316D03*
X113995646Y-87519918D03*
D14*
X116410461Y-88166965D03*
D15*
X108876239Y-86148177D03*
D13*
X111291054Y-86795224D03*
D14*
X111479959Y-106567852D03*
D13*
X109065144Y-105920805D03*
X106360552Y-105196111D03*
D15*
X103945737Y-104549064D03*
D10*
X35160087Y-62287241D03*
X44973893Y-64916843D03*
D11*
X40066990Y-63602042D03*
D12*
X37044213Y-60162490D03*
X43835242Y-59352539D03*
D16*
X204907994Y-78126643D03*
D17*
X207322809Y-77479596D03*
D16*
X202203402Y-78851337D03*
D15*
X199788587Y-79498384D03*
D17*
X244124583Y-67618590D03*
D16*
X241709768Y-68265637D03*
X239005176Y-68990331D03*
D15*
X236590361Y-69637378D03*
D11*
X85237373Y-42013640D03*
D10*
X90144276Y-43328441D03*
X80330470Y-40698839D03*
D12*
X82214596Y-38574088D03*
X89005625Y-37764137D03*
D13*
X96621947Y-78755897D03*
D14*
X99036762Y-79402944D03*
D13*
X93917355Y-78031203D03*
D15*
X91502540Y-77384156D03*
D13*
X74523183Y-87626059D03*
D14*
X76937998Y-88273106D03*
D13*
X71818591Y-86901365D03*
D15*
X69403776Y-86254318D03*
D11*
X201187218Y-70084367D03*
D10*
X196280315Y-71399168D03*
X206094121Y-68769566D03*
D12*
X196849640Y-68617016D03*
X202325869Y-64520063D03*
D10*
X208638037Y-118881203D03*
D11*
X204476745Y-121794971D03*
D10*
X200315453Y-124708739D03*
D12*
X199898892Y-121899651D03*
X203643623Y-116176794D03*
D16*
X222076256Y-68595918D03*
D17*
X224491071Y-67948871D03*
D15*
X216956849Y-69967659D03*
D16*
X219371664Y-69320612D03*
D14*
X62234988Y-69541938D03*
D13*
X59820173Y-68894891D03*
X57115581Y-68170197D03*
D15*
X54700766Y-67523150D03*
D11*
X35136488Y-82002929D03*
D10*
X30229585Y-80688128D03*
X40043391Y-83317730D03*
D12*
X32113711Y-78563377D03*
X38904740Y-77753426D03*
D14*
X57304486Y-87942825D03*
D13*
X54889671Y-87295778D03*
X52185079Y-86571084D03*
D15*
X49770264Y-85924037D03*
D13*
X91691445Y-97156784D03*
D14*
X94106260Y-97803831D03*
D15*
X86572038Y-95785043D03*
D13*
X88986853Y-96432090D03*
D14*
X86684300Y-51440598D03*
D13*
X84269485Y-50793551D03*
X81564893Y-50068857D03*
D15*
X79150078Y-49421810D03*
D14*
X36643785Y-91446062D03*
D13*
X34228970Y-90799015D03*
X31524378Y-90074321D03*
D15*
X29109563Y-89427274D03*
D10*
X228151586Y-43137275D03*
D11*
X233058489Y-41822474D03*
D10*
X237965392Y-40507673D03*
D12*
X228720911Y-40355123D03*
X234197140Y-36258170D03*
D10*
X50835952Y-77170332D03*
X60649758Y-79799934D03*
D11*
X55742855Y-78485133D03*
D12*
X52720078Y-75045581D03*
X59511107Y-74235630D03*
D11*
X44997493Y-45201155D03*
D10*
X49904396Y-46515956D03*
X40090590Y-43886354D03*
D12*
X41974716Y-41761603D03*
X48765745Y-40951652D03*
D10*
X193705258Y-95919915D03*
X183891452Y-98549517D03*
D11*
X188798355Y-97234716D03*
D12*
X184460777Y-95767365D03*
X189937006Y-91670412D03*
D10*
X118120736Y-138916360D03*
X110936532Y-131732156D03*
D11*
X114528634Y-135324258D03*
D12*
X113630608Y-130834130D03*
X119916788Y-133528207D03*
D10*
X114981097Y-59022702D03*
X124794903Y-61652304D03*
D11*
X119888000Y-60337503D03*
D12*
X116865223Y-56897951D03*
X123656252Y-56088000D03*
D16*
X182603793Y-68489776D03*
D17*
X185018608Y-67842729D03*
D15*
X177484386Y-69861517D03*
D16*
X179899201Y-69214470D03*
D14*
X46571198Y-54662082D03*
D13*
X44156383Y-54015035D03*
D15*
X39036976Y-52643294D03*
D13*
X41451791Y-53290341D03*
D10*
X258727626Y-83427728D03*
D11*
X263634529Y-82112927D03*
D10*
X268541432Y-80798126D03*
D12*
X259296951Y-80645576D03*
X264773180Y-76548623D03*
D11*
X253773523Y-45311153D03*
D10*
X248866620Y-46625954D03*
X258680426Y-43996352D03*
D12*
X249435945Y-43843802D03*
X254912174Y-39746849D03*
D10*
X174084780Y-61733185D03*
X183898586Y-59103583D03*
D11*
X178991683Y-60418384D03*
D12*
X174654105Y-58951033D03*
X180130334Y-54854080D03*
D10*
X92568229Y-68630451D03*
X102382035Y-71260053D03*
D11*
X97475132Y-69945252D03*
D12*
X94452355Y-66505700D03*
X101243384Y-65695749D03*
D17*
X195701364Y-107711318D03*
D16*
X193286549Y-108358365D03*
D15*
X188167142Y-109730106D03*
D16*
X190581957Y-109083059D03*
D11*
X183867852Y-78833829D03*
D10*
X188774755Y-77519028D03*
X178960949Y-80148630D03*
D12*
X179530274Y-77366478D03*
X185006503Y-73269525D03*
D11*
X75376368Y-78815414D03*
D10*
X70469465Y-77500613D03*
X80283271Y-80130215D03*
D12*
X72353591Y-75375862D03*
X79144620Y-74565911D03*
D11*
X80306871Y-60414527D03*
D10*
X75399968Y-59099726D03*
X85213774Y-61729328D03*
D12*
X77284094Y-56974975D03*
X84075123Y-56165024D03*
D11*
X237988992Y-60223361D03*
D10*
X242895895Y-58908560D03*
X233082089Y-61538162D03*
D12*
X233651414Y-58756010D03*
X239127643Y-54659057D03*
D11*
X95115308Y-121904969D03*
D10*
X90954016Y-118991201D03*
X99276600Y-124818737D03*
D12*
X93451223Y-117638997D03*
X100109722Y-119200561D03*
D18*
X151523000Y-49896000D03*
D19*
X151823000Y-46866000D03*
D18*
X146673000Y-49896000D03*
D19*
X146373000Y-46866000D03*
D20*
X140208000Y-46736000D03*
X140208000Y-49276000D03*
D21*
X140208000Y-51816000D03*
D20*
X140208000Y-54356000D03*
X140208000Y-56896000D03*
X140208000Y-59436000D03*
X140208000Y-61976000D03*
D21*
X140208000Y-64516000D03*
D20*
X140208000Y-67056000D03*
X140208000Y-69596000D03*
X140208000Y-72136000D03*
X140208000Y-74676000D03*
D21*
X140208000Y-77216000D03*
D20*
X140208000Y-79756000D03*
X140208000Y-82296000D03*
X140208000Y-84836000D03*
X140208000Y-87376000D03*
D21*
X140208000Y-89916000D03*
D20*
X140208000Y-92456000D03*
X140208000Y-94996000D03*
X157988000Y-94996000D03*
X157988000Y-92456000D03*
D21*
X157988000Y-89916000D03*
D20*
X157988000Y-87376000D03*
X157988000Y-84836000D03*
X157988000Y-82296000D03*
X157988000Y-79756000D03*
D21*
X157988000Y-77216000D03*
D20*
X157988000Y-74676000D03*
X157988000Y-72136000D03*
X157988000Y-69596000D03*
X157988000Y-67056000D03*
D21*
X157988000Y-64516000D03*
D20*
X157988000Y-61976000D03*
X157988000Y-59436000D03*
X157988000Y-56896000D03*
X157988000Y-54356000D03*
D21*
X157988000Y-51816000D03*
D20*
X157988000Y-49276000D03*
X157988000Y-46736000D03*
X146558000Y-94766000D03*
D21*
X149098000Y-94766000D03*
D20*
X151638000Y-94766000D03*
D16*
X194930050Y-114491994D03*
D17*
X197344865Y-113844947D03*
D16*
X192225458Y-115216688D03*
D15*
X189810643Y-115863735D03*
D17*
X194879613Y-104644503D03*
D16*
X192464798Y-105291550D03*
D15*
X187345391Y-106663291D03*
D16*
X189760206Y-106016244D03*
D10*
X181471318Y-138806362D03*
D11*
X185063420Y-135214260D03*
D10*
X188655522Y-131622158D03*
D12*
X180573292Y-136112286D03*
X183267369Y-129826106D03*
D10*
X109996261Y-77409030D03*
D11*
X114903164Y-78723831D03*
D10*
X119810067Y-80038632D03*
D12*
X111880387Y-75284279D03*
X118671416Y-74474328D03*
D11*
X196311048Y-51668921D03*
D10*
X191404145Y-52983722D03*
X201217951Y-50354120D03*
D12*
X191973470Y-50201570D03*
X197449699Y-46104617D03*
D10*
X105065758Y-95809917D03*
D11*
X109972661Y-97124718D03*
D10*
X114879564Y-98439519D03*
D12*
X106949884Y-93685166D03*
X113740913Y-92875215D03*
D17*
X212253312Y-95880483D03*
D16*
X209838497Y-96527530D03*
D15*
X204719090Y-97899271D03*
D16*
X207133905Y-97252224D03*
X246640271Y-86666524D03*
D17*
X249055086Y-86019477D03*
D16*
X243935679Y-87391218D03*
D15*
X241520864Y-88038265D03*
D13*
X64750676Y-50494004D03*
D14*
X67165491Y-51141051D03*
D15*
X59631269Y-49122263D03*
D13*
X62046084Y-49769310D03*
D14*
X109022925Y-115737627D03*
D13*
X106608110Y-115090580D03*
X103903518Y-114365886D03*
D15*
X101488703Y-113718839D03*
D10*
X253797123Y-65026841D03*
D11*
X258704026Y-63712040D03*
D10*
X263610929Y-62397239D03*
D12*
X254366448Y-62244689D03*
X259842677Y-58147736D03*
D10*
X97553065Y-50244122D03*
X107366871Y-52873724D03*
D11*
X102459968Y-51558923D03*
D12*
X99437191Y-48119371D03*
X106228220Y-47309420D03*
D16*
X236664562Y-49895485D03*
D17*
X239079377Y-49248438D03*
D15*
X231545155Y-51267226D03*
D16*
X233959970Y-50620179D03*
D10*
X201210818Y-89800055D03*
D11*
X206117721Y-88485254D03*
D10*
X211024624Y-87170453D03*
D12*
X201780143Y-87017903D03*
X207256372Y-82920950D03*
D11*
X225533571Y-114509310D03*
D10*
X230137615Y-112362409D03*
X220929527Y-116656211D03*
D12*
X221007088Y-113817464D03*
X225688692Y-108831816D03*
D16*
X187534296Y-86890663D03*
D17*
X189949111Y-86243616D03*
D16*
X184829704Y-87615357D03*
D15*
X182414889Y-88262404D03*
D17*
X229421574Y-86349758D03*
D16*
X227006759Y-86996805D03*
D15*
X221887352Y-88368546D03*
D16*
X224302167Y-87721499D03*
X267300972Y-90169761D03*
D17*
X269715787Y-89522714D03*
D15*
X262181565Y-91541502D03*
D16*
X264596380Y-90894455D03*
X257439966Y-53367987D03*
D17*
X259854781Y-52720940D03*
D15*
X252320559Y-54739728D03*
D16*
X254735374Y-54092681D03*
D11*
X213424976Y-42152755D03*
D10*
X218331879Y-40837954D03*
X208518073Y-43467556D03*
D12*
X209087398Y-40685404D03*
X214563627Y-36588451D03*
D16*
X217145753Y-50195031D03*
D17*
X219560568Y-49547984D03*
D15*
X212026346Y-51566772D03*
D16*
X214441161Y-50919725D03*
D11*
X242919495Y-78624248D03*
D10*
X238012592Y-79939049D03*
X247826398Y-77309447D03*
D12*
X238581917Y-77156897D03*
X244058146Y-73059944D03*
D13*
X107429860Y-112023766D03*
D14*
X109844675Y-112670813D03*
D15*
X102310453Y-110652025D03*
D13*
X104725268Y-111299072D03*
D14*
X81868501Y-69872219D03*
D13*
X79453686Y-69225172D03*
X76749094Y-68500478D03*
D15*
X74334279Y-67853431D03*
D17*
X196523114Y-110778132D03*
D16*
X194108299Y-111425179D03*
D15*
X188988892Y-112796920D03*
D16*
X191403707Y-112149873D03*
D14*
X110658208Y-109634666D03*
D13*
X108243393Y-108987619D03*
X105538801Y-108262925D03*
D15*
X103123986Y-107615878D03*
D14*
X121340964Y-69766078D03*
D13*
X118926149Y-69119031D03*
D15*
X113806742Y-67747290D03*
D13*
X116221557Y-68394337D03*
D11*
X60673358Y-60084246D03*
D10*
X55766455Y-58769445D03*
X65580261Y-61399047D03*
D12*
X57650581Y-56644694D03*
X64441610Y-55834743D03*
D11*
X218355479Y-60553642D03*
D10*
X213448576Y-61868443D03*
X223262382Y-59238841D03*
D12*
X214017901Y-59086291D03*
X219494130Y-54989338D03*
D11*
X74058482Y-114619308D03*
D10*
X78662526Y-116766209D03*
X69454438Y-112472407D03*
D12*
X71678900Y-110707111D03*
X78507405Y-111088715D03*
M02*
