%FSLAX45Y45*%
G04 Gerber Fmt 4.5, Leading zero omitted, Abs format (unit mm)*
G04 Created by KiCad (PCBNEW (6.0.4)) date 2023-02-24 10:49:21*
%MOMM*%
%LPD*%
G01*
G04 APERTURE LIST*
%TA.AperFunction,Profile*%
%ADD10C,0.100000*%
%TD*%
%ADD11C,0.200000*%
%ADD12C,0.150000*%
%ADD13C,0.170180*%
%ADD14C,0.180000*%
%ADD15C,0.300000*%
%ADD16C,0.398780*%
G04 APERTURE END LIST*
D10*
X5887500Y-3002500D02*
X7725000Y-3495000D01*
X17160000Y-13522500D02*
X12800000Y-13532500D01*
X9745000Y-13517500D02*
X7865000Y-12727500D01*
X7725000Y-3495000D02*
X7850000Y-3035000D01*
X20175000Y-3542500D02*
X20297500Y-4002500D01*
X3825000Y-3352500D02*
X5662500Y-3845000D01*
X20212500Y-13507500D02*
X18507500Y-14867500D01*
X23980000Y-3017500D02*
X22140000Y-3507500D01*
X22015000Y-3047500D02*
X20175000Y-3542500D01*
X13805000Y-4487500D02*
X13155000Y-5360000D01*
X11412500Y-4482500D02*
X11310000Y-4865000D01*
X11310000Y-4865000D02*
X13155000Y-5360000D01*
X24205000Y-3857500D02*
X23980000Y-3017500D01*
X2345000Y-8875000D02*
X3825000Y-3352500D01*
X18567500Y-4877500D02*
X16732500Y-5370000D01*
X12800000Y-13532500D02*
X11452500Y-14880000D01*
X26052500Y-3365000D02*
X27530000Y-8885000D01*
X23820000Y-11912500D02*
X22092500Y-12717500D01*
X7865000Y-12727500D02*
X6140000Y-11922500D01*
X5662500Y-3845000D02*
X5887500Y-3002500D01*
X18465000Y-4492500D02*
X18567500Y-4877500D01*
X9567500Y-3990000D02*
X11412500Y-4482500D01*
X11452500Y-14880000D02*
X9745000Y-13517500D01*
X27530000Y-8885000D02*
X23820000Y-11912500D01*
X7850000Y-3035000D02*
X9690000Y-3527500D01*
X22092500Y-12717500D02*
X20212500Y-13507500D01*
X9690000Y-3527500D02*
X9567500Y-3990000D01*
X6140000Y-11922500D02*
X2345000Y-8875000D01*
X18507500Y-14867500D02*
X17160000Y-13522500D01*
X20297500Y-4002500D02*
X18465000Y-4492500D01*
X26052500Y-3365000D02*
X24205000Y-3857500D01*
X22140000Y-3507500D02*
X22015000Y-3047500D01*
X16017500Y-4487500D02*
X13805000Y-4487500D01*
X16732500Y-5370000D02*
X16017500Y-4487500D01*
D11*
D12*
X14592300Y-4914600D02*
X14742300Y-5064600D01*
X14742300Y-4914600D02*
X14592300Y-5064600D01*
X15077300Y-4914600D02*
X15227300Y-5064600D01*
X15227300Y-4914600D02*
X15077300Y-5064600D01*
D13*
X3108048Y-8068813D02*
G75*
G03*
X3108048Y-8068813I-85090J0D01*
G01*
X3601099Y-6228724D02*
G75*
G03*
X3601099Y-6228724I-85090J0D01*
G01*
X4089429Y-8331773D02*
G75*
G03*
X4089429Y-8331773I-85090J0D01*
G01*
X4094149Y-4388635D02*
G75*
G03*
X4094149Y-4388635I-85090J0D01*
G01*
X4582479Y-6491684D02*
G75*
G03*
X4582479Y-6491684I-85090J0D01*
G01*
X5075530Y-4651596D02*
G75*
G03*
X5075530Y-4651596I-85090J0D01*
G01*
X5168685Y-7717033D02*
G75*
G03*
X5168685Y-7717033I-85090J0D01*
G01*
X5661735Y-5876944D02*
G75*
G03*
X5661735Y-5876944I-85090J0D01*
G01*
X6150066Y-7979993D02*
G75*
G03*
X6150066Y-7979993I-85090J0D01*
G01*
X6154786Y-4036856D02*
G75*
G03*
X6154786Y-4036856I-85090J0D01*
G01*
X6643116Y-6139905D02*
G75*
G03*
X6643116Y-6139905I-85090J0D01*
G01*
X7030534Y-11247241D02*
G75*
G03*
X7030534Y-11247241I-85090J0D01*
G01*
X7132036Y-7750061D02*
G75*
G03*
X7132036Y-7750061I-85090J0D01*
G01*
X7136166Y-4299816D02*
G75*
G03*
X7136166Y-4299816I-85090J0D01*
G01*
X7625087Y-5909973D02*
G75*
G03*
X7625087Y-5909973I-85090J0D01*
G01*
X7951343Y-11676621D02*
G75*
G03*
X7951343Y-11676621I-85090J0D01*
G01*
X8113417Y-8013021D02*
G75*
G03*
X8113417Y-8013021I-85090J0D01*
G01*
X8118137Y-4069884D02*
G75*
G03*
X8118137Y-4069884I-85090J0D01*
G01*
X8606467Y-6172933D02*
G75*
G03*
X8606467Y-6172933I-85090J0D01*
G01*
X8848863Y-8703134D02*
G75*
G03*
X8848863Y-8703134I-85090J0D01*
G01*
X9099518Y-4332844D02*
G75*
G03*
X9099518Y-4332844I-85090J0D01*
G01*
X9180492Y-11899120D02*
G75*
G03*
X9180492Y-11899120I-85090J0D01*
G01*
X9341913Y-6863045D02*
G75*
G03*
X9341913Y-6863045I-85090J0D01*
G01*
X9830243Y-8966094D02*
G75*
G03*
X9830243Y-8966094I-85090J0D01*
G01*
X9840397Y-5024412D02*
G75*
G03*
X9840397Y-5024412I-85090J0D01*
G01*
X10012750Y-12481874D02*
G75*
G03*
X10012750Y-12481874I-85090J0D01*
G01*
X10323294Y-7126005D02*
G75*
G03*
X10323294Y-7126005I-85090J0D01*
G01*
X10591666Y-9580992D02*
G75*
G03*
X10591666Y-9580992I-85090J0D01*
G01*
X10821777Y-5287372D02*
G75*
G03*
X10821777Y-5287372I-85090J0D01*
G01*
X11084716Y-7740903D02*
G75*
G03*
X11084716Y-7740903I-85090J0D01*
G01*
X11178743Y-13173216D02*
G75*
G03*
X11178743Y-13173216I-85090J0D01*
G01*
X11573046Y-9843952D02*
G75*
G03*
X11573046Y-9843952I-85090J0D01*
G01*
X11583200Y-5902270D02*
G75*
G03*
X11583200Y-5902270I-85090J0D01*
G01*
X11897164Y-13891636D02*
G75*
G03*
X11897164Y-13891636I-85090J0D01*
G01*
X12066097Y-8003863D02*
G75*
G03*
X12066097Y-8003863I-85090J0D01*
G01*
X12564580Y-6165230D02*
G75*
G03*
X12564580Y-6165230I-85090J0D01*
G01*
X17493568Y-6173318D02*
G75*
G03*
X17493568Y-6173318I-85090J0D01*
G01*
X17981185Y-8014863D02*
G75*
G03*
X17981185Y-8014863I-85090J0D01*
G01*
X18232222Y-13880636D02*
G75*
G03*
X18232222Y-13880636I-85090J0D01*
G01*
X18474235Y-9854952D02*
G75*
G03*
X18474235Y-9854952I-85090J0D01*
G01*
X18474949Y-5910358D02*
G75*
G03*
X18474949Y-5910358I-85090J0D01*
G01*
X18950642Y-13162216D02*
G75*
G03*
X18950642Y-13162216I-85090J0D01*
G01*
X18962566Y-7751903D02*
G75*
G03*
X18962566Y-7751903I-85090J0D01*
G01*
X19225505Y-5298372D02*
G75*
G03*
X19225505Y-5298372I-85090J0D01*
G01*
X19455616Y-9591992D02*
G75*
G03*
X19455616Y-9591992I-85090J0D01*
G01*
X19713122Y-7139917D02*
G75*
G03*
X19713122Y-7139917I-85090J0D01*
G01*
X20116635Y-12470874D02*
G75*
G03*
X20116635Y-12470874I-85090J0D01*
G01*
X20206172Y-8980006D02*
G75*
G03*
X20206172Y-8980006I-85090J0D01*
G01*
X20206885Y-5035412D02*
G75*
G03*
X20206885Y-5035412I-85090J0D01*
G01*
X20694502Y-6876957D02*
G75*
G03*
X20694502Y-6876957I-85090J0D01*
G01*
X20936897Y-4346756D02*
G75*
G03*
X20936897Y-4346756I-85090J0D01*
G01*
X20948894Y-11888120D02*
G75*
G03*
X20948894Y-11888120I-85090J0D01*
G01*
X21187552Y-8717045D02*
G75*
G03*
X21187552Y-8717045I-85090J0D01*
G01*
X21429948Y-6186844D02*
G75*
G03*
X21429948Y-6186844I-85090J0D01*
G01*
X21918278Y-4083795D02*
G75*
G03*
X21918278Y-4083795I-85090J0D01*
G01*
X21922998Y-8026933D02*
G75*
G03*
X21922998Y-8026933I-85090J0D01*
G01*
X22178043Y-11665621D02*
G75*
G03*
X22178043Y-11665621I-85090J0D01*
G01*
X22411328Y-5923884D02*
G75*
G03*
X22411328Y-5923884I-85090J0D01*
G01*
X22900249Y-4313728D02*
G75*
G03*
X22900249Y-4313728I-85090J0D01*
G01*
X22904378Y-7763973D02*
G75*
G03*
X22904378Y-7763973I-85090J0D01*
G01*
X23098851Y-11236241D02*
G75*
G03*
X23098851Y-11236241I-85090J0D01*
G01*
X23393299Y-6153816D02*
G75*
G03*
X23393299Y-6153816I-85090J0D01*
G01*
X23881629Y-4050767D02*
G75*
G03*
X23881629Y-4050767I-85090J0D01*
G01*
X23886349Y-7993905D02*
G75*
G03*
X23886349Y-7993905I-85090J0D01*
G01*
X24374679Y-5890856D02*
G75*
G03*
X24374679Y-5890856I-85090J0D01*
G01*
X24867730Y-7730945D02*
G75*
G03*
X24867730Y-7730945I-85090J0D01*
G01*
X24971752Y-4662595D02*
G75*
G03*
X24971752Y-4662595I-85090J0D01*
G01*
X25464802Y-6502684D02*
G75*
G03*
X25464802Y-6502684I-85090J0D01*
G01*
X25953133Y-4399635D02*
G75*
G03*
X25953133Y-4399635I-85090J0D01*
G01*
X25957853Y-8342773D02*
G75*
G03*
X25957853Y-8342773I-85090J0D01*
G01*
X26446183Y-6239724D02*
G75*
G03*
X26446183Y-6239724I-85090J0D01*
G01*
X26939233Y-8079813D02*
G75*
G03*
X26939233Y-8079813I-85090J0D01*
G01*
D14*
X14637300Y-4596600D02*
X14637300Y-4776600D01*
X14547300Y-4686600D02*
X14727300Y-4686600D01*
X15182300Y-4596600D02*
X15182300Y-4776600D01*
X15092300Y-4686600D02*
X15272300Y-4686600D01*
D15*
X3317438Y-7962405D02*
X3317438Y-7750271D01*
X3105304Y-7750271D01*
X3105304Y-7962405D01*
X3317438Y-7962405D01*
X3810488Y-6122316D02*
X3810488Y-5910182D01*
X3598354Y-5910182D01*
X3598354Y-6122316D01*
X3810488Y-6122316D01*
X3996541Y-7881410D02*
X3996541Y-7669276D01*
X3784407Y-7669276D01*
X3784407Y-7881410D01*
X3996541Y-7881410D01*
X4303539Y-4282227D02*
X4303539Y-4070093D01*
X4091405Y-4070093D01*
X4091405Y-4282227D01*
X4303539Y-4282227D01*
X4489591Y-6041321D02*
X4489591Y-5829187D01*
X4277457Y-5829187D01*
X4277457Y-6041321D01*
X4489591Y-6041321D01*
X4982642Y-4201232D02*
X4982642Y-3989098D01*
X4770508Y-3989098D01*
X4770508Y-4201232D01*
X4982642Y-4201232D01*
X5378075Y-7610625D02*
X5378075Y-7398491D01*
X5165941Y-7398491D01*
X5165941Y-7610625D01*
X5378075Y-7610625D01*
X5871125Y-5770536D02*
X5871125Y-5558402D01*
X5658991Y-5558402D01*
X5658991Y-5770536D01*
X5871125Y-5770536D01*
X6057178Y-7529630D02*
X6057178Y-7317496D01*
X5845044Y-7317496D01*
X5845044Y-7529630D01*
X6057178Y-7529630D01*
X6364175Y-3930448D02*
X6364175Y-3718314D01*
X6152041Y-3718314D01*
X6152041Y-3930448D01*
X6364175Y-3930448D01*
X6550228Y-5689541D02*
X6550228Y-5477407D01*
X6338094Y-5477407D01*
X6338094Y-5689541D01*
X6550228Y-5689541D01*
X7043278Y-3849453D02*
X7043278Y-3637319D01*
X6831144Y-3637319D01*
X6831144Y-3849453D01*
X7043278Y-3849453D01*
X7273957Y-11176778D02*
X7273957Y-10964644D01*
X7061823Y-10964644D01*
X7061823Y-11176778D01*
X7273957Y-11176778D01*
X7341426Y-7643653D02*
X7341426Y-7431519D01*
X7129292Y-7431519D01*
X7129292Y-7643653D01*
X7341426Y-7643653D01*
X7834476Y-5803564D02*
X7834476Y-5591431D01*
X7622342Y-5591431D01*
X7622342Y-5803564D01*
X7834476Y-5803564D01*
X7956807Y-11214938D02*
X7956807Y-11002805D01*
X7744673Y-11002805D01*
X7744673Y-11214938D01*
X7956807Y-11214938D01*
X8020529Y-7562658D02*
X8020529Y-7350524D01*
X7808395Y-7350524D01*
X7808395Y-7562658D01*
X8020529Y-7562658D01*
X8327527Y-3963476D02*
X8327527Y-3751342D01*
X8115393Y-3751342D01*
X8115393Y-3963476D01*
X8327527Y-3963476D01*
X8513579Y-5722569D02*
X8513579Y-5510435D01*
X8301445Y-5510435D01*
X8301445Y-5722569D01*
X8513579Y-5722569D01*
X9006630Y-3882481D02*
X9006630Y-3670347D01*
X8794496Y-3670347D01*
X8794496Y-3882481D01*
X9006630Y-3882481D01*
X9058252Y-8596726D02*
X9058252Y-8384592D01*
X8846118Y-8384592D01*
X8846118Y-8596726D01*
X9058252Y-8596726D01*
X9451189Y-11869967D02*
X9451189Y-11657833D01*
X9239055Y-11657833D01*
X9239055Y-11869967D01*
X9451189Y-11869967D01*
X9551303Y-6756637D02*
X9551303Y-6544503D01*
X9339169Y-6544503D01*
X9339169Y-6756637D01*
X9551303Y-6756637D01*
X9737355Y-8515731D02*
X9737355Y-8303597D01*
X9525221Y-8303597D01*
X9525221Y-8515731D01*
X9737355Y-8515731D01*
X10049786Y-4918004D02*
X10049786Y-4705870D01*
X9837652Y-4705870D01*
X9837652Y-4918004D01*
X10049786Y-4918004D01*
X10117039Y-12026123D02*
X10117039Y-11813989D01*
X9904905Y-11813989D01*
X9904905Y-12026123D01*
X10117039Y-12026123D01*
X10230405Y-6675642D02*
X10230405Y-6463508D01*
X10018271Y-6463508D01*
X10018271Y-6675642D01*
X10230405Y-6675642D01*
X10728889Y-4837009D02*
X10728889Y-4624875D01*
X10516755Y-4624875D01*
X10516755Y-4837009D01*
X10728889Y-4837009D01*
X10801055Y-9474584D02*
X10801055Y-9262450D01*
X10588921Y-9262450D01*
X10588921Y-9474584D01*
X10801055Y-9474584D01*
X11294106Y-7634495D02*
X11294106Y-7422361D01*
X11081972Y-7422361D01*
X11081972Y-7634495D01*
X11294106Y-7634495D01*
X11469128Y-13189480D02*
X11469128Y-12977346D01*
X11256994Y-12977346D01*
X11256994Y-13189480D01*
X11469128Y-13189480D01*
X11480158Y-9393589D02*
X11480158Y-9181455D01*
X11268024Y-9181455D01*
X11268024Y-9393589D01*
X11480158Y-9393589D01*
X11792589Y-5795862D02*
X11792589Y-5583728D01*
X11580455Y-5583728D01*
X11580455Y-5795862D01*
X11792589Y-5795862D01*
X11973209Y-7553500D02*
X11973209Y-7341366D01*
X11761075Y-7341366D01*
X11761075Y-7553500D01*
X11973209Y-7553500D01*
X12097746Y-13458888D02*
X12097746Y-13246754D01*
X11885612Y-13246754D01*
X11885612Y-13458888D01*
X12097746Y-13458888D01*
X12471692Y-5714867D02*
X12471692Y-5502733D01*
X12259558Y-5502733D01*
X12259558Y-5714867D01*
X12471692Y-5714867D01*
X17571478Y-6001170D02*
X17571478Y-5789036D01*
X17359344Y-5789036D01*
X17359344Y-6001170D01*
X17571478Y-6001170D01*
X18059094Y-7842715D02*
X18059094Y-7630581D01*
X17846960Y-7630581D01*
X17846960Y-7842715D01*
X18059094Y-7842715D01*
X18119100Y-5591475D02*
X18119100Y-5379341D01*
X17906966Y-5379341D01*
X17906966Y-5591475D01*
X18119100Y-5591475D01*
X18163396Y-13717296D02*
X18163396Y-13505162D01*
X17951262Y-13505162D01*
X17951262Y-13717296D01*
X18163396Y-13717296D01*
X18432804Y-13088678D02*
X18432804Y-12876544D01*
X18220670Y-12876544D01*
X18220670Y-13088678D01*
X18432804Y-13088678D01*
X18552145Y-9682804D02*
X18552145Y-9470670D01*
X18340011Y-9470670D01*
X18340011Y-9682804D01*
X18552145Y-9682804D01*
X18606717Y-7433019D02*
X18606717Y-7220885D01*
X18394583Y-7220885D01*
X18394583Y-7433019D01*
X18606717Y-7433019D01*
X19099768Y-9273108D02*
X19099768Y-9060974D01*
X18887634Y-9060974D01*
X18887634Y-9273108D01*
X19099768Y-9273108D01*
X19303414Y-5126224D02*
X19303414Y-4914090D01*
X19091280Y-4914090D01*
X19091280Y-5126224D01*
X19303414Y-5126224D01*
X19791031Y-6967769D02*
X19791031Y-6755635D01*
X19578897Y-6755635D01*
X19578897Y-6967769D01*
X19791031Y-6967769D01*
X19851037Y-4716529D02*
X19851037Y-4504395D01*
X19638903Y-4504395D01*
X19638903Y-4716529D01*
X19851037Y-4716529D01*
X20095956Y-12296032D02*
X20095956Y-12083898D01*
X19883822Y-12083898D01*
X19883822Y-12296032D01*
X20095956Y-12296032D01*
X20284081Y-8807857D02*
X20284081Y-8595723D01*
X20071947Y-8595723D01*
X20071947Y-8807857D01*
X20284081Y-8807857D01*
X20338654Y-6558073D02*
X20338654Y-6345939D01*
X20126520Y-6345939D01*
X20126520Y-6558073D01*
X20338654Y-6558073D01*
X20470429Y-11723746D02*
X20470429Y-11511612D01*
X20258295Y-11511612D01*
X20258295Y-11723746D01*
X20470429Y-11723746D01*
X20831704Y-8398162D02*
X20831704Y-8186028D01*
X20619570Y-8186028D01*
X20619570Y-8398162D01*
X20831704Y-8398162D01*
X21014807Y-4174607D02*
X21014807Y-3962473D01*
X20802673Y-3962473D01*
X20802673Y-4174607D01*
X21014807Y-4174607D01*
X21507857Y-6014696D02*
X21507857Y-5802562D01*
X21295723Y-5802562D01*
X21295723Y-6014696D01*
X21507857Y-6014696D01*
X21562430Y-3764912D02*
X21562430Y-3552778D01*
X21350296Y-3552778D01*
X21350296Y-3764912D01*
X21562430Y-3764912D01*
X22000907Y-7854785D02*
X22000907Y-7642651D01*
X21788773Y-7642651D01*
X21788773Y-7854785D01*
X22000907Y-7854785D01*
X22055480Y-5605001D02*
X22055480Y-5392867D01*
X21843346Y-5392867D01*
X21843346Y-5605001D01*
X22055480Y-5605001D01*
X22206776Y-11487813D02*
X22206776Y-11275679D01*
X21994642Y-11275679D01*
X21994642Y-11487813D01*
X22206776Y-11487813D01*
X22548530Y-7445089D02*
X22548530Y-7232955D01*
X22336396Y-7232955D01*
X22336396Y-7445089D01*
X22548530Y-7445089D01*
X22674936Y-10989249D02*
X22674936Y-10777115D01*
X22462802Y-10777115D01*
X22462802Y-10989249D01*
X22674936Y-10989249D01*
X22978158Y-4141579D02*
X22978158Y-3929445D01*
X22766024Y-3929445D01*
X22766024Y-4141579D01*
X22978158Y-4141579D01*
X23471208Y-5981668D02*
X23471208Y-5769534D01*
X23259074Y-5769534D01*
X23259074Y-5981668D01*
X23471208Y-5981668D01*
X23525781Y-3731884D02*
X23525781Y-3519750D01*
X23313647Y-3519750D01*
X23313647Y-3731884D01*
X23525781Y-3731884D01*
X23964259Y-7821757D02*
X23964259Y-7609623D01*
X23752125Y-7609623D01*
X23752125Y-7821757D01*
X23964259Y-7821757D01*
X24018831Y-5571973D02*
X24018831Y-5359839D01*
X23806697Y-5359839D01*
X23806697Y-5571973D01*
X24018831Y-5571973D01*
X24511882Y-7412061D02*
X24511882Y-7199927D01*
X24299748Y-7199927D01*
X24299748Y-7412061D01*
X24511882Y-7412061D01*
X25049661Y-4490447D02*
X25049661Y-4278313D01*
X24837527Y-4278313D01*
X24837527Y-4490447D01*
X25049661Y-4490447D01*
X25542712Y-6330536D02*
X25542712Y-6118402D01*
X25330578Y-6118402D01*
X25330578Y-6330536D01*
X25542712Y-6330536D01*
X25597284Y-4080752D02*
X25597284Y-3868618D01*
X25385150Y-3868618D01*
X25385150Y-4080752D01*
X25597284Y-4080752D01*
X26035762Y-8170625D02*
X26035762Y-7958491D01*
X25823628Y-7958491D01*
X25823628Y-8170625D01*
X26035762Y-8170625D01*
X26090335Y-5920841D02*
X26090335Y-5708707D01*
X25878201Y-5708707D01*
X25878201Y-5920841D01*
X26090335Y-5920841D01*
X26583385Y-7760929D02*
X26583385Y-7548795D01*
X26371251Y-7548795D01*
X26371251Y-7760929D01*
X26583385Y-7760929D01*
D16*
X3513649Y-8399683D02*
X3713039Y-8200293D01*
X3513649Y-8000903D01*
X3314259Y-8200293D01*
X3513649Y-8399683D01*
X4006699Y-6559594D02*
X4206089Y-6360204D01*
X4006699Y-6160814D01*
X3807309Y-6360204D01*
X4006699Y-6559594D01*
X4499749Y-4719506D02*
X4699139Y-4520116D01*
X4499749Y-4320726D01*
X4300359Y-4520116D01*
X4499749Y-4719506D01*
X5574286Y-8047903D02*
X5773675Y-7848513D01*
X5574286Y-7649123D01*
X5374896Y-7848513D01*
X5574286Y-8047903D01*
X6067336Y-6207815D02*
X6266726Y-6008425D01*
X6067336Y-5809035D01*
X5867946Y-6008425D01*
X6067336Y-6207815D01*
X6560386Y-4367726D02*
X6759776Y-4168336D01*
X6560386Y-3968946D01*
X6360996Y-4168336D01*
X6560386Y-4367726D01*
X7405848Y-11661321D02*
X7605238Y-11461931D01*
X7405848Y-11262541D01*
X7206458Y-11461931D01*
X7405848Y-11661321D01*
X7537637Y-8080931D02*
X7737027Y-7881541D01*
X7537637Y-7682151D01*
X7338247Y-7881541D01*
X7537637Y-8080931D01*
X8030687Y-6240843D02*
X8230077Y-6041453D01*
X8030687Y-5842063D01*
X7831297Y-6041453D01*
X8030687Y-6240843D01*
X8523737Y-4400754D02*
X8723127Y-4201364D01*
X8523737Y-4001974D01*
X8324347Y-4201364D01*
X8523737Y-4400754D01*
X9254463Y-9034004D02*
X9453853Y-8834614D01*
X9254463Y-8635224D01*
X9055073Y-8834614D01*
X9254463Y-9034004D01*
X9511531Y-12389887D02*
X9710921Y-12190497D01*
X9511531Y-11991107D01*
X9312141Y-12190497D01*
X9511531Y-12389887D01*
X9747513Y-7193915D02*
X9946903Y-6994525D01*
X9747513Y-6795135D01*
X9548123Y-6994525D01*
X9747513Y-7193915D01*
X10245997Y-5355282D02*
X10445387Y-5155892D01*
X10245997Y-4956502D01*
X10046607Y-5155892D01*
X10245997Y-5355282D01*
X10997266Y-9911862D02*
X11196656Y-9712472D01*
X10997266Y-9513082D01*
X10797876Y-9712472D01*
X10997266Y-9911862D01*
X11452863Y-13731816D02*
X11652253Y-13532426D01*
X11452863Y-13333036D01*
X11253473Y-13532426D01*
X11452863Y-13731816D01*
X11490316Y-8071773D02*
X11689706Y-7872383D01*
X11490316Y-7672993D01*
X11290926Y-7872383D01*
X11490316Y-8071773D01*
X11988800Y-6233140D02*
X12188190Y-6033750D01*
X11988800Y-5834360D01*
X11789410Y-6033750D01*
X11988800Y-6233140D01*
X17899168Y-6241228D02*
X18098558Y-6041838D01*
X17899168Y-5842448D01*
X17699778Y-6041838D01*
X17899168Y-6241228D01*
X18386785Y-8082773D02*
X18586175Y-7883383D01*
X18386785Y-7683993D01*
X18187395Y-7883383D01*
X18386785Y-8082773D01*
X18506342Y-13720816D02*
X18705732Y-13521426D01*
X18506342Y-13322036D01*
X18306952Y-13521426D01*
X18506342Y-13720816D01*
X18879836Y-9922862D02*
X19079226Y-9723472D01*
X18879836Y-9524082D01*
X18680446Y-9723472D01*
X18879836Y-9922862D01*
X19631105Y-5366282D02*
X19830495Y-5166892D01*
X19631105Y-4967502D01*
X19431715Y-5166892D01*
X19631105Y-5366282D01*
X20118722Y-7207827D02*
X20318112Y-7008437D01*
X20118722Y-6809047D01*
X19919332Y-7008437D01*
X20118722Y-7207827D01*
X20447675Y-12378887D02*
X20647065Y-12179497D01*
X20447675Y-11980107D01*
X20248285Y-12179497D01*
X20447675Y-12378887D01*
X20611772Y-9047915D02*
X20811162Y-8848525D01*
X20611772Y-8649135D01*
X20412382Y-8848525D01*
X20611772Y-9047915D01*
X21342498Y-4414666D02*
X21541888Y-4215276D01*
X21342498Y-4015885D01*
X21143108Y-4215276D01*
X21342498Y-4414666D01*
X21835548Y-6254754D02*
X22034938Y-6055364D01*
X21835548Y-5855974D01*
X21636158Y-6055364D01*
X21835548Y-6254754D01*
X22328598Y-8094843D02*
X22527988Y-7895453D01*
X22328598Y-7696063D01*
X22129208Y-7895453D01*
X22328598Y-8094843D01*
X22553357Y-11650321D02*
X22752747Y-11450931D01*
X22553357Y-11251541D01*
X22353967Y-11450931D01*
X22553357Y-11650321D01*
X23305849Y-4381637D02*
X23505239Y-4182247D01*
X23305849Y-3982857D01*
X23106459Y-4182247D01*
X23305849Y-4381637D01*
X23798899Y-6221726D02*
X23998289Y-6022336D01*
X23798899Y-5822946D01*
X23599509Y-6022336D01*
X23798899Y-6221726D01*
X24291949Y-8061815D02*
X24491339Y-7862425D01*
X24291949Y-7663035D01*
X24092559Y-7862425D01*
X24291949Y-8061815D01*
X25377352Y-4730505D02*
X25576742Y-4531115D01*
X25377352Y-4331725D01*
X25177962Y-4531115D01*
X25377352Y-4730505D01*
X25870403Y-6570594D02*
X26069793Y-6371204D01*
X25870403Y-6171814D01*
X25671013Y-6371204D01*
X25870403Y-6570594D01*
X26363453Y-8410683D02*
X26562843Y-8211293D01*
X26363453Y-8011903D01*
X26164063Y-8211293D01*
X26363453Y-8410683D01*
D11*
X2597619Y-15195476D02*
X2597619Y-14995476D01*
X2645238Y-14995476D01*
X2673810Y-15005000D01*
X2692857Y-15024048D01*
X2702381Y-15043095D01*
X2711905Y-15081190D01*
X2711905Y-15109762D01*
X2702381Y-15147857D01*
X2692857Y-15166905D01*
X2673810Y-15185952D01*
X2645238Y-15195476D01*
X2597619Y-15195476D01*
X2797619Y-15195476D02*
X2797619Y-15062143D01*
X2797619Y-15100238D02*
X2807143Y-15081190D01*
X2816667Y-15071667D01*
X2835714Y-15062143D01*
X2854762Y-15062143D01*
X2921428Y-15195476D02*
X2921428Y-15062143D01*
X2921428Y-14995476D02*
X2911905Y-15005000D01*
X2921428Y-15014524D01*
X2930952Y-15005000D01*
X2921428Y-14995476D01*
X2921428Y-15014524D01*
X3045238Y-15195476D02*
X3026190Y-15185952D01*
X3016667Y-15166905D01*
X3016667Y-14995476D01*
X3150000Y-15195476D02*
X3130952Y-15185952D01*
X3121428Y-15166905D01*
X3121428Y-14995476D01*
X3378571Y-15195476D02*
X3378571Y-14995476D01*
X3445238Y-15138333D01*
X3511905Y-14995476D01*
X3511905Y-15195476D01*
X3692857Y-15195476D02*
X3692857Y-15090714D01*
X3683333Y-15071667D01*
X3664286Y-15062143D01*
X3626190Y-15062143D01*
X3607143Y-15071667D01*
X3692857Y-15185952D02*
X3673809Y-15195476D01*
X3626190Y-15195476D01*
X3607143Y-15185952D01*
X3597619Y-15166905D01*
X3597619Y-15147857D01*
X3607143Y-15128809D01*
X3626190Y-15119286D01*
X3673809Y-15119286D01*
X3692857Y-15109762D01*
X3788095Y-15062143D02*
X3788095Y-15262143D01*
X3788095Y-15071667D02*
X3807143Y-15062143D01*
X3845238Y-15062143D01*
X3864286Y-15071667D01*
X3873809Y-15081190D01*
X3883333Y-15100238D01*
X3883333Y-15157381D01*
X3873809Y-15176428D01*
X3864286Y-15185952D01*
X3845238Y-15195476D01*
X3807143Y-15195476D01*
X3788095Y-15185952D01*
X3969048Y-15176428D02*
X3978571Y-15185952D01*
X3969048Y-15195476D01*
X3959524Y-15185952D01*
X3969048Y-15176428D01*
X3969048Y-15195476D01*
X3969048Y-15071667D02*
X3978571Y-15081190D01*
X3969048Y-15090714D01*
X3959524Y-15081190D01*
X3969048Y-15071667D01*
X3969048Y-15090714D01*
D12*
X2190000Y-15450000D02*
X2340000Y-15600000D01*
X2340000Y-15450000D02*
X2190000Y-15600000D01*
D11*
X2702381Y-15615476D02*
X2588095Y-15615476D01*
X2645238Y-15615476D02*
X2645238Y-15415476D01*
X2626190Y-15444048D01*
X2607143Y-15463095D01*
X2588095Y-15472619D01*
X2788095Y-15596428D02*
X2797619Y-15605952D01*
X2788095Y-15615476D01*
X2778571Y-15605952D01*
X2788095Y-15596428D01*
X2788095Y-15615476D01*
X2978571Y-15415476D02*
X2883333Y-15415476D01*
X2873809Y-15510714D01*
X2883333Y-15501190D01*
X2902381Y-15491667D01*
X2950000Y-15491667D01*
X2969048Y-15501190D01*
X2978571Y-15510714D01*
X2988095Y-15529762D01*
X2988095Y-15577381D01*
X2978571Y-15596428D01*
X2969048Y-15605952D01*
X2950000Y-15615476D01*
X2902381Y-15615476D01*
X2883333Y-15605952D01*
X2873809Y-15596428D01*
X3111905Y-15415476D02*
X3130952Y-15415476D01*
X3150000Y-15425000D01*
X3159524Y-15434524D01*
X3169048Y-15453571D01*
X3178571Y-15491667D01*
X3178571Y-15539286D01*
X3169048Y-15577381D01*
X3159524Y-15596428D01*
X3150000Y-15605952D01*
X3130952Y-15615476D01*
X3111905Y-15615476D01*
X3092857Y-15605952D01*
X3083333Y-15596428D01*
X3073809Y-15577381D01*
X3064286Y-15539286D01*
X3064286Y-15491667D01*
X3073809Y-15453571D01*
X3083333Y-15434524D01*
X3092857Y-15425000D01*
X3111905Y-15415476D01*
X3302381Y-15415476D02*
X3321428Y-15415476D01*
X3340476Y-15425000D01*
X3350000Y-15434524D01*
X3359524Y-15453571D01*
X3369048Y-15491667D01*
X3369048Y-15539286D01*
X3359524Y-15577381D01*
X3350000Y-15596428D01*
X3340476Y-15605952D01*
X3321428Y-15615476D01*
X3302381Y-15615476D01*
X3283333Y-15605952D01*
X3273809Y-15596428D01*
X3264286Y-15577381D01*
X3254762Y-15539286D01*
X3254762Y-15491667D01*
X3264286Y-15453571D01*
X3273809Y-15434524D01*
X3283333Y-15425000D01*
X3302381Y-15415476D01*
X3454762Y-15615476D02*
X3454762Y-15482143D01*
X3454762Y-15501190D02*
X3464286Y-15491667D01*
X3483333Y-15482143D01*
X3511905Y-15482143D01*
X3530952Y-15491667D01*
X3540476Y-15510714D01*
X3540476Y-15615476D01*
X3540476Y-15510714D02*
X3550000Y-15491667D01*
X3569048Y-15482143D01*
X3597619Y-15482143D01*
X3616667Y-15491667D01*
X3626190Y-15510714D01*
X3626190Y-15615476D01*
X3721428Y-15615476D02*
X3721428Y-15482143D01*
X3721428Y-15501190D02*
X3730952Y-15491667D01*
X3750000Y-15482143D01*
X3778571Y-15482143D01*
X3797619Y-15491667D01*
X3807143Y-15510714D01*
X3807143Y-15615476D01*
X3807143Y-15510714D02*
X3816667Y-15491667D01*
X3835714Y-15482143D01*
X3864286Y-15482143D01*
X3883333Y-15491667D01*
X3892857Y-15510714D01*
X3892857Y-15615476D01*
X4283333Y-15405952D02*
X4111905Y-15663095D01*
X4540476Y-15415476D02*
X4559524Y-15415476D01*
X4578571Y-15425000D01*
X4588095Y-15434524D01*
X4597619Y-15453571D01*
X4607143Y-15491667D01*
X4607143Y-15539286D01*
X4597619Y-15577381D01*
X4588095Y-15596428D01*
X4578571Y-15605952D01*
X4559524Y-15615476D01*
X4540476Y-15615476D01*
X4521429Y-15605952D01*
X4511905Y-15596428D01*
X4502381Y-15577381D01*
X4492857Y-15539286D01*
X4492857Y-15491667D01*
X4502381Y-15453571D01*
X4511905Y-15434524D01*
X4521429Y-15425000D01*
X4540476Y-15415476D01*
X4692857Y-15596428D02*
X4702381Y-15605952D01*
X4692857Y-15615476D01*
X4683333Y-15605952D01*
X4692857Y-15596428D01*
X4692857Y-15615476D01*
X4826190Y-15415476D02*
X4845238Y-15415476D01*
X4864286Y-15425000D01*
X4873810Y-15434524D01*
X4883333Y-15453571D01*
X4892857Y-15491667D01*
X4892857Y-15539286D01*
X4883333Y-15577381D01*
X4873810Y-15596428D01*
X4864286Y-15605952D01*
X4845238Y-15615476D01*
X4826190Y-15615476D01*
X4807143Y-15605952D01*
X4797619Y-15596428D01*
X4788095Y-15577381D01*
X4778571Y-15539286D01*
X4778571Y-15491667D01*
X4788095Y-15453571D01*
X4797619Y-15434524D01*
X4807143Y-15425000D01*
X4826190Y-15415476D01*
X5073810Y-15415476D02*
X4978571Y-15415476D01*
X4969048Y-15510714D01*
X4978571Y-15501190D01*
X4997619Y-15491667D01*
X5045238Y-15491667D01*
X5064286Y-15501190D01*
X5073810Y-15510714D01*
X5083333Y-15529762D01*
X5083333Y-15577381D01*
X5073810Y-15596428D01*
X5064286Y-15605952D01*
X5045238Y-15615476D01*
X4997619Y-15615476D01*
X4978571Y-15605952D01*
X4969048Y-15596428D01*
X5178571Y-15615476D02*
X5216667Y-15615476D01*
X5235714Y-15605952D01*
X5245238Y-15596428D01*
X5264286Y-15567857D01*
X5273810Y-15529762D01*
X5273810Y-15453571D01*
X5264286Y-15434524D01*
X5254762Y-15425000D01*
X5235714Y-15415476D01*
X5197619Y-15415476D01*
X5178571Y-15425000D01*
X5169048Y-15434524D01*
X5159524Y-15453571D01*
X5159524Y-15501190D01*
X5169048Y-15520238D01*
X5178571Y-15529762D01*
X5197619Y-15539286D01*
X5235714Y-15539286D01*
X5254762Y-15529762D01*
X5264286Y-15520238D01*
X5273810Y-15501190D01*
X5464286Y-15615476D02*
X5350000Y-15615476D01*
X5407143Y-15615476D02*
X5407143Y-15415476D01*
X5388095Y-15444048D01*
X5369048Y-15463095D01*
X5350000Y-15472619D01*
X5540476Y-15415476D02*
X5540476Y-15453571D01*
X5616667Y-15415476D02*
X5616667Y-15453571D01*
X5911905Y-15691667D02*
X5902381Y-15682143D01*
X5883333Y-15653571D01*
X5873809Y-15634524D01*
X5864286Y-15605952D01*
X5854762Y-15558333D01*
X5854762Y-15520238D01*
X5864286Y-15472619D01*
X5873809Y-15444048D01*
X5883333Y-15425000D01*
X5902381Y-15396428D01*
X5911905Y-15386905D01*
X5978571Y-15434524D02*
X5988095Y-15425000D01*
X6007143Y-15415476D01*
X6054762Y-15415476D01*
X6073809Y-15425000D01*
X6083333Y-15434524D01*
X6092857Y-15453571D01*
X6092857Y-15472619D01*
X6083333Y-15501190D01*
X5969048Y-15615476D01*
X6092857Y-15615476D01*
X6330952Y-15615476D02*
X6330952Y-15415476D01*
X6416667Y-15615476D02*
X6416667Y-15510714D01*
X6407143Y-15491667D01*
X6388095Y-15482143D01*
X6359524Y-15482143D01*
X6340476Y-15491667D01*
X6330952Y-15501190D01*
X6540476Y-15615476D02*
X6521428Y-15605952D01*
X6511905Y-15596428D01*
X6502381Y-15577381D01*
X6502381Y-15520238D01*
X6511905Y-15501190D01*
X6521428Y-15491667D01*
X6540476Y-15482143D01*
X6569048Y-15482143D01*
X6588095Y-15491667D01*
X6597619Y-15501190D01*
X6607143Y-15520238D01*
X6607143Y-15577381D01*
X6597619Y-15596428D01*
X6588095Y-15605952D01*
X6569048Y-15615476D01*
X6540476Y-15615476D01*
X6721428Y-15615476D02*
X6702381Y-15605952D01*
X6692857Y-15586905D01*
X6692857Y-15415476D01*
X6873809Y-15605952D02*
X6854762Y-15615476D01*
X6816667Y-15615476D01*
X6797619Y-15605952D01*
X6788095Y-15586905D01*
X6788095Y-15510714D01*
X6797619Y-15491667D01*
X6816667Y-15482143D01*
X6854762Y-15482143D01*
X6873809Y-15491667D01*
X6883333Y-15510714D01*
X6883333Y-15529762D01*
X6788095Y-15548809D01*
X6959524Y-15605952D02*
X6978571Y-15615476D01*
X7016667Y-15615476D01*
X7035714Y-15605952D01*
X7045238Y-15586905D01*
X7045238Y-15577381D01*
X7035714Y-15558333D01*
X7016667Y-15548809D01*
X6988095Y-15548809D01*
X6969048Y-15539286D01*
X6959524Y-15520238D01*
X6959524Y-15510714D01*
X6969048Y-15491667D01*
X6988095Y-15482143D01*
X7016667Y-15482143D01*
X7035714Y-15491667D01*
X7111905Y-15691667D02*
X7121428Y-15682143D01*
X7140476Y-15653571D01*
X7150000Y-15634524D01*
X7159524Y-15605952D01*
X7169048Y-15558333D01*
X7169048Y-15520238D01*
X7159524Y-15472619D01*
X7150000Y-15444048D01*
X7140476Y-15425000D01*
X7121428Y-15396428D01*
X7111905Y-15386905D01*
X7473809Y-15691667D02*
X7464286Y-15682143D01*
X7445238Y-15653571D01*
X7435714Y-15634524D01*
X7426190Y-15605952D01*
X7416667Y-15558333D01*
X7416667Y-15520238D01*
X7426190Y-15472619D01*
X7435714Y-15444048D01*
X7445238Y-15425000D01*
X7464286Y-15396428D01*
X7473809Y-15386905D01*
X7550000Y-15482143D02*
X7550000Y-15615476D01*
X7550000Y-15501190D02*
X7559524Y-15491667D01*
X7578571Y-15482143D01*
X7607143Y-15482143D01*
X7626190Y-15491667D01*
X7635714Y-15510714D01*
X7635714Y-15615476D01*
X7759524Y-15615476D02*
X7740476Y-15605952D01*
X7730952Y-15596428D01*
X7721428Y-15577381D01*
X7721428Y-15520238D01*
X7730952Y-15501190D01*
X7740476Y-15491667D01*
X7759524Y-15482143D01*
X7788095Y-15482143D01*
X7807143Y-15491667D01*
X7816667Y-15501190D01*
X7826190Y-15520238D01*
X7826190Y-15577381D01*
X7816667Y-15596428D01*
X7807143Y-15605952D01*
X7788095Y-15615476D01*
X7759524Y-15615476D01*
X7883333Y-15482143D02*
X7959524Y-15482143D01*
X7911905Y-15415476D02*
X7911905Y-15586905D01*
X7921428Y-15605952D01*
X7940476Y-15615476D01*
X7959524Y-15615476D01*
X8178571Y-15482143D02*
X8178571Y-15682143D01*
X8178571Y-15491667D02*
X8197619Y-15482143D01*
X8235714Y-15482143D01*
X8254762Y-15491667D01*
X8264286Y-15501190D01*
X8273809Y-15520238D01*
X8273809Y-15577381D01*
X8264286Y-15596428D01*
X8254762Y-15605952D01*
X8235714Y-15615476D01*
X8197619Y-15615476D01*
X8178571Y-15605952D01*
X8388095Y-15615476D02*
X8369048Y-15605952D01*
X8359524Y-15586905D01*
X8359524Y-15415476D01*
X8550000Y-15615476D02*
X8550000Y-15510714D01*
X8540476Y-15491667D01*
X8521429Y-15482143D01*
X8483333Y-15482143D01*
X8464286Y-15491667D01*
X8550000Y-15605952D02*
X8530952Y-15615476D01*
X8483333Y-15615476D01*
X8464286Y-15605952D01*
X8454762Y-15586905D01*
X8454762Y-15567857D01*
X8464286Y-15548809D01*
X8483333Y-15539286D01*
X8530952Y-15539286D01*
X8550000Y-15529762D01*
X8616667Y-15482143D02*
X8692857Y-15482143D01*
X8645238Y-15415476D02*
X8645238Y-15586905D01*
X8654762Y-15605952D01*
X8673810Y-15615476D01*
X8692857Y-15615476D01*
X8835714Y-15605952D02*
X8816667Y-15615476D01*
X8778571Y-15615476D01*
X8759524Y-15605952D01*
X8750000Y-15586905D01*
X8750000Y-15510714D01*
X8759524Y-15491667D01*
X8778571Y-15482143D01*
X8816667Y-15482143D01*
X8835714Y-15491667D01*
X8845238Y-15510714D01*
X8845238Y-15529762D01*
X8750000Y-15548809D01*
X9016667Y-15615476D02*
X9016667Y-15415476D01*
X9016667Y-15605952D02*
X8997619Y-15615476D01*
X8959524Y-15615476D01*
X8940476Y-15605952D01*
X8930952Y-15596428D01*
X8921429Y-15577381D01*
X8921429Y-15520238D01*
X8930952Y-15501190D01*
X8940476Y-15491667D01*
X8959524Y-15482143D01*
X8997619Y-15482143D01*
X9016667Y-15491667D01*
X9092857Y-15691667D02*
X9102381Y-15682143D01*
X9121429Y-15653571D01*
X9130952Y-15634524D01*
X9140476Y-15605952D01*
X9150000Y-15558333D01*
X9150000Y-15520238D01*
X9140476Y-15472619D01*
X9130952Y-15444048D01*
X9121429Y-15425000D01*
X9102381Y-15396428D01*
X9092857Y-15386905D01*
D13*
X2340000Y-15795000D02*
G75*
G03*
X2340000Y-15795000I-85090J0D01*
G01*
D11*
X2702381Y-15885476D02*
X2588095Y-15885476D01*
X2645238Y-15885476D02*
X2645238Y-15685476D01*
X2626190Y-15714048D01*
X2607143Y-15733095D01*
X2588095Y-15742619D01*
X2788095Y-15866428D02*
X2797619Y-15875952D01*
X2788095Y-15885476D01*
X2778571Y-15875952D01*
X2788095Y-15866428D01*
X2788095Y-15885476D01*
X2864286Y-15685476D02*
X2997619Y-15685476D01*
X2911905Y-15885476D01*
X3111905Y-15685476D02*
X3130952Y-15685476D01*
X3150000Y-15695000D01*
X3159524Y-15704524D01*
X3169048Y-15723571D01*
X3178571Y-15761667D01*
X3178571Y-15809286D01*
X3169048Y-15847381D01*
X3159524Y-15866428D01*
X3150000Y-15875952D01*
X3130952Y-15885476D01*
X3111905Y-15885476D01*
X3092857Y-15875952D01*
X3083333Y-15866428D01*
X3073809Y-15847381D01*
X3064286Y-15809286D01*
X3064286Y-15761667D01*
X3073809Y-15723571D01*
X3083333Y-15704524D01*
X3092857Y-15695000D01*
X3111905Y-15685476D01*
X3254762Y-15704524D02*
X3264286Y-15695000D01*
X3283333Y-15685476D01*
X3330952Y-15685476D01*
X3350000Y-15695000D01*
X3359524Y-15704524D01*
X3369048Y-15723571D01*
X3369048Y-15742619D01*
X3359524Y-15771190D01*
X3245238Y-15885476D01*
X3369048Y-15885476D01*
X3454762Y-15885476D02*
X3454762Y-15752143D01*
X3454762Y-15771190D02*
X3464286Y-15761667D01*
X3483333Y-15752143D01*
X3511905Y-15752143D01*
X3530952Y-15761667D01*
X3540476Y-15780714D01*
X3540476Y-15885476D01*
X3540476Y-15780714D02*
X3550000Y-15761667D01*
X3569048Y-15752143D01*
X3597619Y-15752143D01*
X3616667Y-15761667D01*
X3626190Y-15780714D01*
X3626190Y-15885476D01*
X3721428Y-15885476D02*
X3721428Y-15752143D01*
X3721428Y-15771190D02*
X3730952Y-15761667D01*
X3750000Y-15752143D01*
X3778571Y-15752143D01*
X3797619Y-15761667D01*
X3807143Y-15780714D01*
X3807143Y-15885476D01*
X3807143Y-15780714D02*
X3816667Y-15761667D01*
X3835714Y-15752143D01*
X3864286Y-15752143D01*
X3883333Y-15761667D01*
X3892857Y-15780714D01*
X3892857Y-15885476D01*
X4283333Y-15675952D02*
X4111905Y-15933095D01*
X4540476Y-15685476D02*
X4559524Y-15685476D01*
X4578571Y-15695000D01*
X4588095Y-15704524D01*
X4597619Y-15723571D01*
X4607143Y-15761667D01*
X4607143Y-15809286D01*
X4597619Y-15847381D01*
X4588095Y-15866428D01*
X4578571Y-15875952D01*
X4559524Y-15885476D01*
X4540476Y-15885476D01*
X4521429Y-15875952D01*
X4511905Y-15866428D01*
X4502381Y-15847381D01*
X4492857Y-15809286D01*
X4492857Y-15761667D01*
X4502381Y-15723571D01*
X4511905Y-15704524D01*
X4521429Y-15695000D01*
X4540476Y-15685476D01*
X4692857Y-15866428D02*
X4702381Y-15875952D01*
X4692857Y-15885476D01*
X4683333Y-15875952D01*
X4692857Y-15866428D01*
X4692857Y-15885476D01*
X4826190Y-15685476D02*
X4845238Y-15685476D01*
X4864286Y-15695000D01*
X4873810Y-15704524D01*
X4883333Y-15723571D01*
X4892857Y-15761667D01*
X4892857Y-15809286D01*
X4883333Y-15847381D01*
X4873810Y-15866428D01*
X4864286Y-15875952D01*
X4845238Y-15885476D01*
X4826190Y-15885476D01*
X4807143Y-15875952D01*
X4797619Y-15866428D01*
X4788095Y-15847381D01*
X4778571Y-15809286D01*
X4778571Y-15761667D01*
X4788095Y-15723571D01*
X4797619Y-15704524D01*
X4807143Y-15695000D01*
X4826190Y-15685476D01*
X5064286Y-15685476D02*
X5026190Y-15685476D01*
X5007143Y-15695000D01*
X4997619Y-15704524D01*
X4978571Y-15733095D01*
X4969048Y-15771190D01*
X4969048Y-15847381D01*
X4978571Y-15866428D01*
X4988095Y-15875952D01*
X5007143Y-15885476D01*
X5045238Y-15885476D01*
X5064286Y-15875952D01*
X5073810Y-15866428D01*
X5083333Y-15847381D01*
X5083333Y-15799762D01*
X5073810Y-15780714D01*
X5064286Y-15771190D01*
X5045238Y-15761667D01*
X5007143Y-15761667D01*
X4988095Y-15771190D01*
X4978571Y-15780714D01*
X4969048Y-15799762D01*
X5150000Y-15685476D02*
X5283333Y-15685476D01*
X5197619Y-15885476D01*
X5397619Y-15685476D02*
X5416667Y-15685476D01*
X5435714Y-15695000D01*
X5445238Y-15704524D01*
X5454762Y-15723571D01*
X5464286Y-15761667D01*
X5464286Y-15809286D01*
X5454762Y-15847381D01*
X5445238Y-15866428D01*
X5435714Y-15875952D01*
X5416667Y-15885476D01*
X5397619Y-15885476D01*
X5378571Y-15875952D01*
X5369048Y-15866428D01*
X5359524Y-15847381D01*
X5350000Y-15809286D01*
X5350000Y-15761667D01*
X5359524Y-15723571D01*
X5369048Y-15704524D01*
X5378571Y-15695000D01*
X5397619Y-15685476D01*
X5540476Y-15685476D02*
X5540476Y-15723571D01*
X5616667Y-15685476D02*
X5616667Y-15723571D01*
X5911905Y-15961667D02*
X5902381Y-15952143D01*
X5883333Y-15923571D01*
X5873809Y-15904524D01*
X5864286Y-15875952D01*
X5854762Y-15828333D01*
X5854762Y-15790238D01*
X5864286Y-15742619D01*
X5873809Y-15714048D01*
X5883333Y-15695000D01*
X5902381Y-15666428D01*
X5911905Y-15656905D01*
X5969048Y-15685476D02*
X6102381Y-15685476D01*
X6016667Y-15885476D01*
X6169048Y-15704524D02*
X6178571Y-15695000D01*
X6197619Y-15685476D01*
X6245238Y-15685476D01*
X6264286Y-15695000D01*
X6273809Y-15704524D01*
X6283333Y-15723571D01*
X6283333Y-15742619D01*
X6273809Y-15771190D01*
X6159524Y-15885476D01*
X6283333Y-15885476D01*
X6521428Y-15885476D02*
X6521428Y-15685476D01*
X6607143Y-15885476D02*
X6607143Y-15780714D01*
X6597619Y-15761667D01*
X6578571Y-15752143D01*
X6550000Y-15752143D01*
X6530952Y-15761667D01*
X6521428Y-15771190D01*
X6730952Y-15885476D02*
X6711905Y-15875952D01*
X6702381Y-15866428D01*
X6692857Y-15847381D01*
X6692857Y-15790238D01*
X6702381Y-15771190D01*
X6711905Y-15761667D01*
X6730952Y-15752143D01*
X6759524Y-15752143D01*
X6778571Y-15761667D01*
X6788095Y-15771190D01*
X6797619Y-15790238D01*
X6797619Y-15847381D01*
X6788095Y-15866428D01*
X6778571Y-15875952D01*
X6759524Y-15885476D01*
X6730952Y-15885476D01*
X6911905Y-15885476D02*
X6892857Y-15875952D01*
X6883333Y-15856905D01*
X6883333Y-15685476D01*
X7064286Y-15875952D02*
X7045238Y-15885476D01*
X7007143Y-15885476D01*
X6988095Y-15875952D01*
X6978571Y-15856905D01*
X6978571Y-15780714D01*
X6988095Y-15761667D01*
X7007143Y-15752143D01*
X7045238Y-15752143D01*
X7064286Y-15761667D01*
X7073809Y-15780714D01*
X7073809Y-15799762D01*
X6978571Y-15818809D01*
X7150000Y-15875952D02*
X7169048Y-15885476D01*
X7207143Y-15885476D01*
X7226190Y-15875952D01*
X7235714Y-15856905D01*
X7235714Y-15847381D01*
X7226190Y-15828333D01*
X7207143Y-15818809D01*
X7178571Y-15818809D01*
X7159524Y-15809286D01*
X7150000Y-15790238D01*
X7150000Y-15780714D01*
X7159524Y-15761667D01*
X7178571Y-15752143D01*
X7207143Y-15752143D01*
X7226190Y-15761667D01*
X7302381Y-15961667D02*
X7311905Y-15952143D01*
X7330952Y-15923571D01*
X7340476Y-15904524D01*
X7350000Y-15875952D01*
X7359524Y-15828333D01*
X7359524Y-15790238D01*
X7350000Y-15742619D01*
X7340476Y-15714048D01*
X7330952Y-15695000D01*
X7311905Y-15666428D01*
X7302381Y-15656905D01*
X7664286Y-15961667D02*
X7654762Y-15952143D01*
X7635714Y-15923571D01*
X7626190Y-15904524D01*
X7616667Y-15875952D01*
X7607143Y-15828333D01*
X7607143Y-15790238D01*
X7616667Y-15742619D01*
X7626190Y-15714048D01*
X7635714Y-15695000D01*
X7654762Y-15666428D01*
X7664286Y-15656905D01*
X7740476Y-15752143D02*
X7740476Y-15885476D01*
X7740476Y-15771190D02*
X7750000Y-15761667D01*
X7769048Y-15752143D01*
X7797619Y-15752143D01*
X7816667Y-15761667D01*
X7826190Y-15780714D01*
X7826190Y-15885476D01*
X7950000Y-15885476D02*
X7930952Y-15875952D01*
X7921428Y-15866428D01*
X7911905Y-15847381D01*
X7911905Y-15790238D01*
X7921428Y-15771190D01*
X7930952Y-15761667D01*
X7950000Y-15752143D01*
X7978571Y-15752143D01*
X7997619Y-15761667D01*
X8007143Y-15771190D01*
X8016667Y-15790238D01*
X8016667Y-15847381D01*
X8007143Y-15866428D01*
X7997619Y-15875952D01*
X7978571Y-15885476D01*
X7950000Y-15885476D01*
X8073809Y-15752143D02*
X8150000Y-15752143D01*
X8102381Y-15685476D02*
X8102381Y-15856905D01*
X8111905Y-15875952D01*
X8130952Y-15885476D01*
X8150000Y-15885476D01*
X8369048Y-15752143D02*
X8369048Y-15952143D01*
X8369048Y-15761667D02*
X8388095Y-15752143D01*
X8426190Y-15752143D01*
X8445238Y-15761667D01*
X8454762Y-15771190D01*
X8464286Y-15790238D01*
X8464286Y-15847381D01*
X8454762Y-15866428D01*
X8445238Y-15875952D01*
X8426190Y-15885476D01*
X8388095Y-15885476D01*
X8369048Y-15875952D01*
X8578571Y-15885476D02*
X8559524Y-15875952D01*
X8550000Y-15856905D01*
X8550000Y-15685476D01*
X8740476Y-15885476D02*
X8740476Y-15780714D01*
X8730952Y-15761667D01*
X8711905Y-15752143D01*
X8673810Y-15752143D01*
X8654762Y-15761667D01*
X8740476Y-15875952D02*
X8721429Y-15885476D01*
X8673810Y-15885476D01*
X8654762Y-15875952D01*
X8645238Y-15856905D01*
X8645238Y-15837857D01*
X8654762Y-15818809D01*
X8673810Y-15809286D01*
X8721429Y-15809286D01*
X8740476Y-15799762D01*
X8807143Y-15752143D02*
X8883333Y-15752143D01*
X8835714Y-15685476D02*
X8835714Y-15856905D01*
X8845238Y-15875952D01*
X8864286Y-15885476D01*
X8883333Y-15885476D01*
X9026190Y-15875952D02*
X9007143Y-15885476D01*
X8969048Y-15885476D01*
X8950000Y-15875952D01*
X8940476Y-15856905D01*
X8940476Y-15780714D01*
X8950000Y-15761667D01*
X8969048Y-15752143D01*
X9007143Y-15752143D01*
X9026190Y-15761667D01*
X9035714Y-15780714D01*
X9035714Y-15799762D01*
X8940476Y-15818809D01*
X9207143Y-15885476D02*
X9207143Y-15685476D01*
X9207143Y-15875952D02*
X9188095Y-15885476D01*
X9150000Y-15885476D01*
X9130952Y-15875952D01*
X9121429Y-15866428D01*
X9111905Y-15847381D01*
X9111905Y-15790238D01*
X9121429Y-15771190D01*
X9130952Y-15761667D01*
X9150000Y-15752143D01*
X9188095Y-15752143D01*
X9207143Y-15761667D01*
X9283333Y-15961667D02*
X9292857Y-15952143D01*
X9311905Y-15923571D01*
X9321429Y-15904524D01*
X9330952Y-15875952D01*
X9340476Y-15828333D01*
X9340476Y-15790238D01*
X9330952Y-15742619D01*
X9321429Y-15714048D01*
X9311905Y-15695000D01*
X9292857Y-15666428D01*
X9283333Y-15656905D01*
D14*
X2250000Y-15995180D02*
X2250000Y-16175180D01*
X2160000Y-16085180D02*
X2340000Y-16085180D01*
D11*
X2702381Y-16175656D02*
X2588095Y-16175656D01*
X2645238Y-16175656D02*
X2645238Y-15975656D01*
X2626190Y-16004228D01*
X2607143Y-16023275D01*
X2588095Y-16032799D01*
X2788095Y-16156608D02*
X2797619Y-16166132D01*
X2788095Y-16175656D01*
X2778571Y-16166132D01*
X2788095Y-16156608D01*
X2788095Y-16175656D01*
X2911905Y-16061370D02*
X2892857Y-16051847D01*
X2883333Y-16042323D01*
X2873809Y-16023275D01*
X2873809Y-16013751D01*
X2883333Y-15994704D01*
X2892857Y-15985180D01*
X2911905Y-15975656D01*
X2950000Y-15975656D01*
X2969048Y-15985180D01*
X2978571Y-15994704D01*
X2988095Y-16013751D01*
X2988095Y-16023275D01*
X2978571Y-16042323D01*
X2969048Y-16051847D01*
X2950000Y-16061370D01*
X2911905Y-16061370D01*
X2892857Y-16070894D01*
X2883333Y-16080418D01*
X2873809Y-16099466D01*
X2873809Y-16137561D01*
X2883333Y-16156608D01*
X2892857Y-16166132D01*
X2911905Y-16175656D01*
X2950000Y-16175656D01*
X2969048Y-16166132D01*
X2978571Y-16156608D01*
X2988095Y-16137561D01*
X2988095Y-16099466D01*
X2978571Y-16080418D01*
X2969048Y-16070894D01*
X2950000Y-16061370D01*
X3111905Y-15975656D02*
X3130952Y-15975656D01*
X3150000Y-15985180D01*
X3159524Y-15994704D01*
X3169048Y-16013751D01*
X3178571Y-16051847D01*
X3178571Y-16099466D01*
X3169048Y-16137561D01*
X3159524Y-16156608D01*
X3150000Y-16166132D01*
X3130952Y-16175656D01*
X3111905Y-16175656D01*
X3092857Y-16166132D01*
X3083333Y-16156608D01*
X3073809Y-16137561D01*
X3064286Y-16099466D01*
X3064286Y-16051847D01*
X3073809Y-16013751D01*
X3083333Y-15994704D01*
X3092857Y-15985180D01*
X3111905Y-15975656D01*
X3302381Y-15975656D02*
X3321428Y-15975656D01*
X3340476Y-15985180D01*
X3350000Y-15994704D01*
X3359524Y-16013751D01*
X3369048Y-16051847D01*
X3369048Y-16099466D01*
X3359524Y-16137561D01*
X3350000Y-16156608D01*
X3340476Y-16166132D01*
X3321428Y-16175656D01*
X3302381Y-16175656D01*
X3283333Y-16166132D01*
X3273809Y-16156608D01*
X3264286Y-16137561D01*
X3254762Y-16099466D01*
X3254762Y-16051847D01*
X3264286Y-16013751D01*
X3273809Y-15994704D01*
X3283333Y-15985180D01*
X3302381Y-15975656D01*
X3454762Y-16175656D02*
X3454762Y-16042323D01*
X3454762Y-16061370D02*
X3464286Y-16051847D01*
X3483333Y-16042323D01*
X3511905Y-16042323D01*
X3530952Y-16051847D01*
X3540476Y-16070894D01*
X3540476Y-16175656D01*
X3540476Y-16070894D02*
X3550000Y-16051847D01*
X3569048Y-16042323D01*
X3597619Y-16042323D01*
X3616667Y-16051847D01*
X3626190Y-16070894D01*
X3626190Y-16175656D01*
X3721428Y-16175656D02*
X3721428Y-16042323D01*
X3721428Y-16061370D02*
X3730952Y-16051847D01*
X3750000Y-16042323D01*
X3778571Y-16042323D01*
X3797619Y-16051847D01*
X3807143Y-16070894D01*
X3807143Y-16175656D01*
X3807143Y-16070894D02*
X3816667Y-16051847D01*
X3835714Y-16042323D01*
X3864286Y-16042323D01*
X3883333Y-16051847D01*
X3892857Y-16070894D01*
X3892857Y-16175656D01*
X4283333Y-15966132D02*
X4111905Y-16223275D01*
X4540476Y-15975656D02*
X4559524Y-15975656D01*
X4578571Y-15985180D01*
X4588095Y-15994704D01*
X4597619Y-16013751D01*
X4607143Y-16051847D01*
X4607143Y-16099466D01*
X4597619Y-16137561D01*
X4588095Y-16156608D01*
X4578571Y-16166132D01*
X4559524Y-16175656D01*
X4540476Y-16175656D01*
X4521429Y-16166132D01*
X4511905Y-16156608D01*
X4502381Y-16137561D01*
X4492857Y-16099466D01*
X4492857Y-16051847D01*
X4502381Y-16013751D01*
X4511905Y-15994704D01*
X4521429Y-15985180D01*
X4540476Y-15975656D01*
X4692857Y-16156608D02*
X4702381Y-16166132D01*
X4692857Y-16175656D01*
X4683333Y-16166132D01*
X4692857Y-16156608D01*
X4692857Y-16175656D01*
X4826190Y-15975656D02*
X4845238Y-15975656D01*
X4864286Y-15985180D01*
X4873810Y-15994704D01*
X4883333Y-16013751D01*
X4892857Y-16051847D01*
X4892857Y-16099466D01*
X4883333Y-16137561D01*
X4873810Y-16156608D01*
X4864286Y-16166132D01*
X4845238Y-16175656D01*
X4826190Y-16175656D01*
X4807143Y-16166132D01*
X4797619Y-16156608D01*
X4788095Y-16137561D01*
X4778571Y-16099466D01*
X4778571Y-16051847D01*
X4788095Y-16013751D01*
X4797619Y-15994704D01*
X4807143Y-15985180D01*
X4826190Y-15975656D01*
X4959524Y-15975656D02*
X5092857Y-15975656D01*
X5007143Y-16175656D01*
X5207143Y-15975656D02*
X5226190Y-15975656D01*
X5245238Y-15985180D01*
X5254762Y-15994704D01*
X5264286Y-16013751D01*
X5273810Y-16051847D01*
X5273810Y-16099466D01*
X5264286Y-16137561D01*
X5254762Y-16156608D01*
X5245238Y-16166132D01*
X5226190Y-16175656D01*
X5207143Y-16175656D01*
X5188095Y-16166132D01*
X5178571Y-16156608D01*
X5169048Y-16137561D01*
X5159524Y-16099466D01*
X5159524Y-16051847D01*
X5169048Y-16013751D01*
X5178571Y-15994704D01*
X5188095Y-15985180D01*
X5207143Y-15975656D01*
X5369048Y-16175656D02*
X5407143Y-16175656D01*
X5426190Y-16166132D01*
X5435714Y-16156608D01*
X5454762Y-16128037D01*
X5464286Y-16089942D01*
X5464286Y-16013751D01*
X5454762Y-15994704D01*
X5445238Y-15985180D01*
X5426190Y-15975656D01*
X5388095Y-15975656D01*
X5369048Y-15985180D01*
X5359524Y-15994704D01*
X5350000Y-16013751D01*
X5350000Y-16061370D01*
X5359524Y-16080418D01*
X5369048Y-16089942D01*
X5388095Y-16099466D01*
X5426190Y-16099466D01*
X5445238Y-16089942D01*
X5454762Y-16080418D01*
X5464286Y-16061370D01*
X5540476Y-15975656D02*
X5540476Y-16013751D01*
X5616667Y-15975656D02*
X5616667Y-16013751D01*
X5911905Y-16251847D02*
X5902381Y-16242323D01*
X5883333Y-16213751D01*
X5873809Y-16194704D01*
X5864286Y-16166132D01*
X5854762Y-16118513D01*
X5854762Y-16080418D01*
X5864286Y-16032799D01*
X5873809Y-16004228D01*
X5883333Y-15985180D01*
X5902381Y-15956608D01*
X5911905Y-15947085D01*
X5978571Y-15994704D02*
X5988095Y-15985180D01*
X6007143Y-15975656D01*
X6054762Y-15975656D01*
X6073809Y-15985180D01*
X6083333Y-15994704D01*
X6092857Y-16013751D01*
X6092857Y-16032799D01*
X6083333Y-16061370D01*
X5969048Y-16175656D01*
X6092857Y-16175656D01*
X6330952Y-16175656D02*
X6330952Y-15975656D01*
X6416667Y-16175656D02*
X6416667Y-16070894D01*
X6407143Y-16051847D01*
X6388095Y-16042323D01*
X6359524Y-16042323D01*
X6340476Y-16051847D01*
X6330952Y-16061370D01*
X6540476Y-16175656D02*
X6521428Y-16166132D01*
X6511905Y-16156608D01*
X6502381Y-16137561D01*
X6502381Y-16080418D01*
X6511905Y-16061370D01*
X6521428Y-16051847D01*
X6540476Y-16042323D01*
X6569048Y-16042323D01*
X6588095Y-16051847D01*
X6597619Y-16061370D01*
X6607143Y-16080418D01*
X6607143Y-16137561D01*
X6597619Y-16156608D01*
X6588095Y-16166132D01*
X6569048Y-16175656D01*
X6540476Y-16175656D01*
X6721428Y-16175656D02*
X6702381Y-16166132D01*
X6692857Y-16147085D01*
X6692857Y-15975656D01*
X6873809Y-16166132D02*
X6854762Y-16175656D01*
X6816667Y-16175656D01*
X6797619Y-16166132D01*
X6788095Y-16147085D01*
X6788095Y-16070894D01*
X6797619Y-16051847D01*
X6816667Y-16042323D01*
X6854762Y-16042323D01*
X6873809Y-16051847D01*
X6883333Y-16070894D01*
X6883333Y-16089942D01*
X6788095Y-16108989D01*
X6959524Y-16166132D02*
X6978571Y-16175656D01*
X7016667Y-16175656D01*
X7035714Y-16166132D01*
X7045238Y-16147085D01*
X7045238Y-16137561D01*
X7035714Y-16118513D01*
X7016667Y-16108989D01*
X6988095Y-16108989D01*
X6969048Y-16099466D01*
X6959524Y-16080418D01*
X6959524Y-16070894D01*
X6969048Y-16051847D01*
X6988095Y-16042323D01*
X7016667Y-16042323D01*
X7035714Y-16051847D01*
X7111905Y-16251847D02*
X7121428Y-16242323D01*
X7140476Y-16213751D01*
X7150000Y-16194704D01*
X7159524Y-16166132D01*
X7169048Y-16118513D01*
X7169048Y-16080418D01*
X7159524Y-16032799D01*
X7150000Y-16004228D01*
X7140476Y-15985180D01*
X7121428Y-15956608D01*
X7111905Y-15947085D01*
X7473809Y-16251847D02*
X7464286Y-16242323D01*
X7445238Y-16213751D01*
X7435714Y-16194704D01*
X7426190Y-16166132D01*
X7416667Y-16118513D01*
X7416667Y-16080418D01*
X7426190Y-16032799D01*
X7435714Y-16004228D01*
X7445238Y-15985180D01*
X7464286Y-15956608D01*
X7473809Y-15947085D01*
X7550000Y-16042323D02*
X7550000Y-16175656D01*
X7550000Y-16061370D02*
X7559524Y-16051847D01*
X7578571Y-16042323D01*
X7607143Y-16042323D01*
X7626190Y-16051847D01*
X7635714Y-16070894D01*
X7635714Y-16175656D01*
X7759524Y-16175656D02*
X7740476Y-16166132D01*
X7730952Y-16156608D01*
X7721428Y-16137561D01*
X7721428Y-16080418D01*
X7730952Y-16061370D01*
X7740476Y-16051847D01*
X7759524Y-16042323D01*
X7788095Y-16042323D01*
X7807143Y-16051847D01*
X7816667Y-16061370D01*
X7826190Y-16080418D01*
X7826190Y-16137561D01*
X7816667Y-16156608D01*
X7807143Y-16166132D01*
X7788095Y-16175656D01*
X7759524Y-16175656D01*
X7883333Y-16042323D02*
X7959524Y-16042323D01*
X7911905Y-15975656D02*
X7911905Y-16147085D01*
X7921428Y-16166132D01*
X7940476Y-16175656D01*
X7959524Y-16175656D01*
X8178571Y-16042323D02*
X8178571Y-16242323D01*
X8178571Y-16051847D02*
X8197619Y-16042323D01*
X8235714Y-16042323D01*
X8254762Y-16051847D01*
X8264286Y-16061370D01*
X8273809Y-16080418D01*
X8273809Y-16137561D01*
X8264286Y-16156608D01*
X8254762Y-16166132D01*
X8235714Y-16175656D01*
X8197619Y-16175656D01*
X8178571Y-16166132D01*
X8388095Y-16175656D02*
X8369048Y-16166132D01*
X8359524Y-16147085D01*
X8359524Y-15975656D01*
X8550000Y-16175656D02*
X8550000Y-16070894D01*
X8540476Y-16051847D01*
X8521429Y-16042323D01*
X8483333Y-16042323D01*
X8464286Y-16051847D01*
X8550000Y-16166132D02*
X8530952Y-16175656D01*
X8483333Y-16175656D01*
X8464286Y-16166132D01*
X8454762Y-16147085D01*
X8454762Y-16128037D01*
X8464286Y-16108989D01*
X8483333Y-16099466D01*
X8530952Y-16099466D01*
X8550000Y-16089942D01*
X8616667Y-16042323D02*
X8692857Y-16042323D01*
X8645238Y-15975656D02*
X8645238Y-16147085D01*
X8654762Y-16166132D01*
X8673810Y-16175656D01*
X8692857Y-16175656D01*
X8835714Y-16166132D02*
X8816667Y-16175656D01*
X8778571Y-16175656D01*
X8759524Y-16166132D01*
X8750000Y-16147085D01*
X8750000Y-16070894D01*
X8759524Y-16051847D01*
X8778571Y-16042323D01*
X8816667Y-16042323D01*
X8835714Y-16051847D01*
X8845238Y-16070894D01*
X8845238Y-16089942D01*
X8750000Y-16108989D01*
X9016667Y-16175656D02*
X9016667Y-15975656D01*
X9016667Y-16166132D02*
X8997619Y-16175656D01*
X8959524Y-16175656D01*
X8940476Y-16166132D01*
X8930952Y-16156608D01*
X8921429Y-16137561D01*
X8921429Y-16080418D01*
X8930952Y-16061370D01*
X8940476Y-16051847D01*
X8959524Y-16042323D01*
X8997619Y-16042323D01*
X9016667Y-16051847D01*
X9092857Y-16251847D02*
X9102381Y-16242323D01*
X9121429Y-16213751D01*
X9130952Y-16194704D01*
X9140476Y-16166132D01*
X9150000Y-16118513D01*
X9150000Y-16080418D01*
X9140476Y-16032799D01*
X9130952Y-16004228D01*
X9121429Y-15985180D01*
X9102381Y-15956608D01*
X9092857Y-15947085D01*
X2310711Y-16455891D02*
X2310711Y-16314469D01*
X2169289Y-16314469D01*
X2169289Y-16455891D01*
X2310711Y-16455891D01*
X2578571Y-16275656D02*
X2702381Y-16275656D01*
X2635714Y-16351847D01*
X2664286Y-16351847D01*
X2683333Y-16361370D01*
X2692857Y-16370894D01*
X2702381Y-16389942D01*
X2702381Y-16437561D01*
X2692857Y-16456608D01*
X2683333Y-16466132D01*
X2664286Y-16475656D01*
X2607143Y-16475656D01*
X2588095Y-16466132D01*
X2578571Y-16456608D01*
X2788095Y-16456608D02*
X2797619Y-16466132D01*
X2788095Y-16475656D01*
X2778571Y-16466132D01*
X2788095Y-16456608D01*
X2788095Y-16475656D01*
X2921428Y-16275656D02*
X2940476Y-16275656D01*
X2959524Y-16285180D01*
X2969048Y-16294704D01*
X2978571Y-16313751D01*
X2988095Y-16351847D01*
X2988095Y-16399466D01*
X2978571Y-16437561D01*
X2969048Y-16456608D01*
X2959524Y-16466132D01*
X2940476Y-16475656D01*
X2921428Y-16475656D01*
X2902381Y-16466132D01*
X2892857Y-16456608D01*
X2883333Y-16437561D01*
X2873809Y-16399466D01*
X2873809Y-16351847D01*
X2883333Y-16313751D01*
X2892857Y-16294704D01*
X2902381Y-16285180D01*
X2921428Y-16275656D01*
X3111905Y-16275656D02*
X3130952Y-16275656D01*
X3150000Y-16285180D01*
X3159524Y-16294704D01*
X3169048Y-16313751D01*
X3178571Y-16351847D01*
X3178571Y-16399466D01*
X3169048Y-16437561D01*
X3159524Y-16456608D01*
X3150000Y-16466132D01*
X3130952Y-16475656D01*
X3111905Y-16475656D01*
X3092857Y-16466132D01*
X3083333Y-16456608D01*
X3073809Y-16437561D01*
X3064286Y-16399466D01*
X3064286Y-16351847D01*
X3073809Y-16313751D01*
X3083333Y-16294704D01*
X3092857Y-16285180D01*
X3111905Y-16275656D01*
X3302381Y-16275656D02*
X3321428Y-16275656D01*
X3340476Y-16285180D01*
X3350000Y-16294704D01*
X3359524Y-16313751D01*
X3369048Y-16351847D01*
X3369048Y-16399466D01*
X3359524Y-16437561D01*
X3350000Y-16456608D01*
X3340476Y-16466132D01*
X3321428Y-16475656D01*
X3302381Y-16475656D01*
X3283333Y-16466132D01*
X3273809Y-16456608D01*
X3264286Y-16437561D01*
X3254762Y-16399466D01*
X3254762Y-16351847D01*
X3264286Y-16313751D01*
X3273809Y-16294704D01*
X3283333Y-16285180D01*
X3302381Y-16275656D01*
X3454762Y-16475656D02*
X3454762Y-16342323D01*
X3454762Y-16361370D02*
X3464286Y-16351847D01*
X3483333Y-16342323D01*
X3511905Y-16342323D01*
X3530952Y-16351847D01*
X3540476Y-16370894D01*
X3540476Y-16475656D01*
X3540476Y-16370894D02*
X3550000Y-16351847D01*
X3569048Y-16342323D01*
X3597619Y-16342323D01*
X3616667Y-16351847D01*
X3626190Y-16370894D01*
X3626190Y-16475656D01*
X3721428Y-16475656D02*
X3721428Y-16342323D01*
X3721428Y-16361370D02*
X3730952Y-16351847D01*
X3750000Y-16342323D01*
X3778571Y-16342323D01*
X3797619Y-16351847D01*
X3807143Y-16370894D01*
X3807143Y-16475656D01*
X3807143Y-16370894D02*
X3816667Y-16351847D01*
X3835714Y-16342323D01*
X3864286Y-16342323D01*
X3883333Y-16351847D01*
X3892857Y-16370894D01*
X3892857Y-16475656D01*
X4283333Y-16266132D02*
X4111905Y-16523275D01*
X4540476Y-16275656D02*
X4559524Y-16275656D01*
X4578571Y-16285180D01*
X4588095Y-16294704D01*
X4597619Y-16313751D01*
X4607143Y-16351847D01*
X4607143Y-16399466D01*
X4597619Y-16437561D01*
X4588095Y-16456608D01*
X4578571Y-16466132D01*
X4559524Y-16475656D01*
X4540476Y-16475656D01*
X4521429Y-16466132D01*
X4511905Y-16456608D01*
X4502381Y-16437561D01*
X4492857Y-16399466D01*
X4492857Y-16351847D01*
X4502381Y-16313751D01*
X4511905Y-16294704D01*
X4521429Y-16285180D01*
X4540476Y-16275656D01*
X4692857Y-16456608D02*
X4702381Y-16466132D01*
X4692857Y-16475656D01*
X4683333Y-16466132D01*
X4692857Y-16456608D01*
X4692857Y-16475656D01*
X4892857Y-16475656D02*
X4778571Y-16475656D01*
X4835714Y-16475656D02*
X4835714Y-16275656D01*
X4816667Y-16304228D01*
X4797619Y-16323275D01*
X4778571Y-16332799D01*
X5083333Y-16475656D02*
X4969048Y-16475656D01*
X5026190Y-16475656D02*
X5026190Y-16275656D01*
X5007143Y-16304228D01*
X4988095Y-16323275D01*
X4969048Y-16332799D01*
X5197619Y-16361370D02*
X5178571Y-16351847D01*
X5169048Y-16342323D01*
X5159524Y-16323275D01*
X5159524Y-16313751D01*
X5169048Y-16294704D01*
X5178571Y-16285180D01*
X5197619Y-16275656D01*
X5235714Y-16275656D01*
X5254762Y-16285180D01*
X5264286Y-16294704D01*
X5273810Y-16313751D01*
X5273810Y-16323275D01*
X5264286Y-16342323D01*
X5254762Y-16351847D01*
X5235714Y-16361370D01*
X5197619Y-16361370D01*
X5178571Y-16370894D01*
X5169048Y-16380418D01*
X5159524Y-16399466D01*
X5159524Y-16437561D01*
X5169048Y-16456608D01*
X5178571Y-16466132D01*
X5197619Y-16475656D01*
X5235714Y-16475656D01*
X5254762Y-16466132D01*
X5264286Y-16456608D01*
X5273810Y-16437561D01*
X5273810Y-16399466D01*
X5264286Y-16380418D01*
X5254762Y-16370894D01*
X5235714Y-16361370D01*
X5464286Y-16475656D02*
X5350000Y-16475656D01*
X5407143Y-16475656D02*
X5407143Y-16275656D01*
X5388095Y-16304228D01*
X5369048Y-16323275D01*
X5350000Y-16332799D01*
X5540476Y-16275656D02*
X5540476Y-16313751D01*
X5616667Y-16275656D02*
X5616667Y-16313751D01*
X5911905Y-16551847D02*
X5902381Y-16542323D01*
X5883333Y-16513751D01*
X5873809Y-16494704D01*
X5864286Y-16466132D01*
X5854762Y-16418513D01*
X5854762Y-16380418D01*
X5864286Y-16332799D01*
X5873809Y-16304228D01*
X5883333Y-16285180D01*
X5902381Y-16256608D01*
X5911905Y-16247085D01*
X5969048Y-16275656D02*
X6102381Y-16275656D01*
X6016667Y-16475656D01*
X6169048Y-16294704D02*
X6178571Y-16285180D01*
X6197619Y-16275656D01*
X6245238Y-16275656D01*
X6264286Y-16285180D01*
X6273809Y-16294704D01*
X6283333Y-16313751D01*
X6283333Y-16332799D01*
X6273809Y-16361370D01*
X6159524Y-16475656D01*
X6283333Y-16475656D01*
X6521428Y-16475656D02*
X6521428Y-16275656D01*
X6607143Y-16475656D02*
X6607143Y-16370894D01*
X6597619Y-16351847D01*
X6578571Y-16342323D01*
X6550000Y-16342323D01*
X6530952Y-16351847D01*
X6521428Y-16361370D01*
X6730952Y-16475656D02*
X6711905Y-16466132D01*
X6702381Y-16456608D01*
X6692857Y-16437561D01*
X6692857Y-16380418D01*
X6702381Y-16361370D01*
X6711905Y-16351847D01*
X6730952Y-16342323D01*
X6759524Y-16342323D01*
X6778571Y-16351847D01*
X6788095Y-16361370D01*
X6797619Y-16380418D01*
X6797619Y-16437561D01*
X6788095Y-16456608D01*
X6778571Y-16466132D01*
X6759524Y-16475656D01*
X6730952Y-16475656D01*
X6911905Y-16475656D02*
X6892857Y-16466132D01*
X6883333Y-16447085D01*
X6883333Y-16275656D01*
X7064286Y-16466132D02*
X7045238Y-16475656D01*
X7007143Y-16475656D01*
X6988095Y-16466132D01*
X6978571Y-16447085D01*
X6978571Y-16370894D01*
X6988095Y-16351847D01*
X7007143Y-16342323D01*
X7045238Y-16342323D01*
X7064286Y-16351847D01*
X7073809Y-16370894D01*
X7073809Y-16389942D01*
X6978571Y-16408989D01*
X7150000Y-16466132D02*
X7169048Y-16475656D01*
X7207143Y-16475656D01*
X7226190Y-16466132D01*
X7235714Y-16447085D01*
X7235714Y-16437561D01*
X7226190Y-16418513D01*
X7207143Y-16408989D01*
X7178571Y-16408989D01*
X7159524Y-16399466D01*
X7150000Y-16380418D01*
X7150000Y-16370894D01*
X7159524Y-16351847D01*
X7178571Y-16342323D01*
X7207143Y-16342323D01*
X7226190Y-16351847D01*
X7302381Y-16551847D02*
X7311905Y-16542323D01*
X7330952Y-16513751D01*
X7340476Y-16494704D01*
X7350000Y-16466132D01*
X7359524Y-16418513D01*
X7359524Y-16380418D01*
X7350000Y-16332799D01*
X7340476Y-16304228D01*
X7330952Y-16285180D01*
X7311905Y-16256608D01*
X7302381Y-16247085D01*
X7664286Y-16551847D02*
X7654762Y-16542323D01*
X7635714Y-16513751D01*
X7626190Y-16494704D01*
X7616667Y-16466132D01*
X7607143Y-16418513D01*
X7607143Y-16380418D01*
X7616667Y-16332799D01*
X7626190Y-16304228D01*
X7635714Y-16285180D01*
X7654762Y-16256608D01*
X7664286Y-16247085D01*
X7740476Y-16342323D02*
X7740476Y-16475656D01*
X7740476Y-16361370D02*
X7750000Y-16351847D01*
X7769048Y-16342323D01*
X7797619Y-16342323D01*
X7816667Y-16351847D01*
X7826190Y-16370894D01*
X7826190Y-16475656D01*
X7950000Y-16475656D02*
X7930952Y-16466132D01*
X7921428Y-16456608D01*
X7911905Y-16437561D01*
X7911905Y-16380418D01*
X7921428Y-16361370D01*
X7930952Y-16351847D01*
X7950000Y-16342323D01*
X7978571Y-16342323D01*
X7997619Y-16351847D01*
X8007143Y-16361370D01*
X8016667Y-16380418D01*
X8016667Y-16437561D01*
X8007143Y-16456608D01*
X7997619Y-16466132D01*
X7978571Y-16475656D01*
X7950000Y-16475656D01*
X8073809Y-16342323D02*
X8150000Y-16342323D01*
X8102381Y-16275656D02*
X8102381Y-16447085D01*
X8111905Y-16466132D01*
X8130952Y-16475656D01*
X8150000Y-16475656D01*
X8369048Y-16342323D02*
X8369048Y-16542323D01*
X8369048Y-16351847D02*
X8388095Y-16342323D01*
X8426190Y-16342323D01*
X8445238Y-16351847D01*
X8454762Y-16361370D01*
X8464286Y-16380418D01*
X8464286Y-16437561D01*
X8454762Y-16456608D01*
X8445238Y-16466132D01*
X8426190Y-16475656D01*
X8388095Y-16475656D01*
X8369048Y-16466132D01*
X8578571Y-16475656D02*
X8559524Y-16466132D01*
X8550000Y-16447085D01*
X8550000Y-16275656D01*
X8740476Y-16475656D02*
X8740476Y-16370894D01*
X8730952Y-16351847D01*
X8711905Y-16342323D01*
X8673810Y-16342323D01*
X8654762Y-16351847D01*
X8740476Y-16466132D02*
X8721429Y-16475656D01*
X8673810Y-16475656D01*
X8654762Y-16466132D01*
X8645238Y-16447085D01*
X8645238Y-16428037D01*
X8654762Y-16408989D01*
X8673810Y-16399466D01*
X8721429Y-16399466D01*
X8740476Y-16389942D01*
X8807143Y-16342323D02*
X8883333Y-16342323D01*
X8835714Y-16275656D02*
X8835714Y-16447085D01*
X8845238Y-16466132D01*
X8864286Y-16475656D01*
X8883333Y-16475656D01*
X9026190Y-16466132D02*
X9007143Y-16475656D01*
X8969048Y-16475656D01*
X8950000Y-16466132D01*
X8940476Y-16447085D01*
X8940476Y-16370894D01*
X8950000Y-16351847D01*
X8969048Y-16342323D01*
X9007143Y-16342323D01*
X9026190Y-16351847D01*
X9035714Y-16370894D01*
X9035714Y-16389942D01*
X8940476Y-16408989D01*
X9207143Y-16475656D02*
X9207143Y-16275656D01*
X9207143Y-16466132D02*
X9188095Y-16475656D01*
X9150000Y-16475656D01*
X9130952Y-16466132D01*
X9121429Y-16456608D01*
X9111905Y-16437561D01*
X9111905Y-16380418D01*
X9121429Y-16361370D01*
X9130952Y-16351847D01*
X9150000Y-16342323D01*
X9188095Y-16342323D01*
X9207143Y-16351847D01*
X9283333Y-16551847D02*
X9292857Y-16542323D01*
X9311905Y-16513751D01*
X9321429Y-16494704D01*
X9330952Y-16466132D01*
X9340476Y-16418513D01*
X9340476Y-16380418D01*
X9330952Y-16332799D01*
X9321429Y-16304228D01*
X9311905Y-16285180D01*
X9292857Y-16256608D01*
X9283333Y-16247085D01*
X2240000Y-16805180D02*
X2340000Y-16705180D01*
X2240000Y-16605180D01*
X2140000Y-16705180D01*
X2240000Y-16805180D01*
X2578571Y-16595656D02*
X2702381Y-16595656D01*
X2635714Y-16671847D01*
X2664286Y-16671847D01*
X2683333Y-16681370D01*
X2692857Y-16690894D01*
X2702381Y-16709942D01*
X2702381Y-16757561D01*
X2692857Y-16776608D01*
X2683333Y-16786132D01*
X2664286Y-16795656D01*
X2607143Y-16795656D01*
X2588095Y-16786132D01*
X2578571Y-16776608D01*
X2788095Y-16776608D02*
X2797619Y-16786132D01*
X2788095Y-16795656D01*
X2778571Y-16786132D01*
X2788095Y-16776608D01*
X2788095Y-16795656D01*
X2892857Y-16795656D02*
X2930952Y-16795656D01*
X2950000Y-16786132D01*
X2959524Y-16776608D01*
X2978571Y-16748037D01*
X2988095Y-16709942D01*
X2988095Y-16633751D01*
X2978571Y-16614704D01*
X2969048Y-16605180D01*
X2950000Y-16595656D01*
X2911905Y-16595656D01*
X2892857Y-16605180D01*
X2883333Y-16614704D01*
X2873809Y-16633751D01*
X2873809Y-16681370D01*
X2883333Y-16700418D01*
X2892857Y-16709942D01*
X2911905Y-16719466D01*
X2950000Y-16719466D01*
X2969048Y-16709942D01*
X2978571Y-16700418D01*
X2988095Y-16681370D01*
X3102381Y-16681370D02*
X3083333Y-16671847D01*
X3073809Y-16662323D01*
X3064286Y-16643275D01*
X3064286Y-16633751D01*
X3073809Y-16614704D01*
X3083333Y-16605180D01*
X3102381Y-16595656D01*
X3140476Y-16595656D01*
X3159524Y-16605180D01*
X3169048Y-16614704D01*
X3178571Y-16633751D01*
X3178571Y-16643275D01*
X3169048Y-16662323D01*
X3159524Y-16671847D01*
X3140476Y-16681370D01*
X3102381Y-16681370D01*
X3083333Y-16690894D01*
X3073809Y-16700418D01*
X3064286Y-16719466D01*
X3064286Y-16757561D01*
X3073809Y-16776608D01*
X3083333Y-16786132D01*
X3102381Y-16795656D01*
X3140476Y-16795656D01*
X3159524Y-16786132D01*
X3169048Y-16776608D01*
X3178571Y-16757561D01*
X3178571Y-16719466D01*
X3169048Y-16700418D01*
X3159524Y-16690894D01*
X3140476Y-16681370D01*
X3292857Y-16681370D02*
X3273809Y-16671847D01*
X3264286Y-16662323D01*
X3254762Y-16643275D01*
X3254762Y-16633751D01*
X3264286Y-16614704D01*
X3273809Y-16605180D01*
X3292857Y-16595656D01*
X3330952Y-16595656D01*
X3350000Y-16605180D01*
X3359524Y-16614704D01*
X3369048Y-16633751D01*
X3369048Y-16643275D01*
X3359524Y-16662323D01*
X3350000Y-16671847D01*
X3330952Y-16681370D01*
X3292857Y-16681370D01*
X3273809Y-16690894D01*
X3264286Y-16700418D01*
X3254762Y-16719466D01*
X3254762Y-16757561D01*
X3264286Y-16776608D01*
X3273809Y-16786132D01*
X3292857Y-16795656D01*
X3330952Y-16795656D01*
X3350000Y-16786132D01*
X3359524Y-16776608D01*
X3369048Y-16757561D01*
X3369048Y-16719466D01*
X3359524Y-16700418D01*
X3350000Y-16690894D01*
X3330952Y-16681370D01*
X3454762Y-16795656D02*
X3454762Y-16662323D01*
X3454762Y-16681370D02*
X3464286Y-16671847D01*
X3483333Y-16662323D01*
X3511905Y-16662323D01*
X3530952Y-16671847D01*
X3540476Y-16690894D01*
X3540476Y-16795656D01*
X3540476Y-16690894D02*
X3550000Y-16671847D01*
X3569048Y-16662323D01*
X3597619Y-16662323D01*
X3616667Y-16671847D01*
X3626190Y-16690894D01*
X3626190Y-16795656D01*
X3721428Y-16795656D02*
X3721428Y-16662323D01*
X3721428Y-16681370D02*
X3730952Y-16671847D01*
X3750000Y-16662323D01*
X3778571Y-16662323D01*
X3797619Y-16671847D01*
X3807143Y-16690894D01*
X3807143Y-16795656D01*
X3807143Y-16690894D02*
X3816667Y-16671847D01*
X3835714Y-16662323D01*
X3864286Y-16662323D01*
X3883333Y-16671847D01*
X3892857Y-16690894D01*
X3892857Y-16795656D01*
X4283333Y-16586132D02*
X4111905Y-16843275D01*
X4540476Y-16595656D02*
X4559524Y-16595656D01*
X4578571Y-16605180D01*
X4588095Y-16614704D01*
X4597619Y-16633751D01*
X4607143Y-16671847D01*
X4607143Y-16719466D01*
X4597619Y-16757561D01*
X4588095Y-16776608D01*
X4578571Y-16786132D01*
X4559524Y-16795656D01*
X4540476Y-16795656D01*
X4521429Y-16786132D01*
X4511905Y-16776608D01*
X4502381Y-16757561D01*
X4492857Y-16719466D01*
X4492857Y-16671847D01*
X4502381Y-16633751D01*
X4511905Y-16614704D01*
X4521429Y-16605180D01*
X4540476Y-16595656D01*
X4692857Y-16776608D02*
X4702381Y-16786132D01*
X4692857Y-16795656D01*
X4683333Y-16786132D01*
X4692857Y-16776608D01*
X4692857Y-16795656D01*
X4892857Y-16795656D02*
X4778571Y-16795656D01*
X4835714Y-16795656D02*
X4835714Y-16595656D01*
X4816667Y-16624228D01*
X4797619Y-16643275D01*
X4778571Y-16652799D01*
X5073810Y-16595656D02*
X4978571Y-16595656D01*
X4969048Y-16690894D01*
X4978571Y-16681370D01*
X4997619Y-16671847D01*
X5045238Y-16671847D01*
X5064286Y-16681370D01*
X5073810Y-16690894D01*
X5083333Y-16709942D01*
X5083333Y-16757561D01*
X5073810Y-16776608D01*
X5064286Y-16786132D01*
X5045238Y-16795656D01*
X4997619Y-16795656D01*
X4978571Y-16786132D01*
X4969048Y-16776608D01*
X5150000Y-16595656D02*
X5283333Y-16595656D01*
X5197619Y-16795656D01*
X5397619Y-16595656D02*
X5416667Y-16595656D01*
X5435714Y-16605180D01*
X5445238Y-16614704D01*
X5454762Y-16633751D01*
X5464286Y-16671847D01*
X5464286Y-16719466D01*
X5454762Y-16757561D01*
X5445238Y-16776608D01*
X5435714Y-16786132D01*
X5416667Y-16795656D01*
X5397619Y-16795656D01*
X5378571Y-16786132D01*
X5369048Y-16776608D01*
X5359524Y-16757561D01*
X5350000Y-16719466D01*
X5350000Y-16671847D01*
X5359524Y-16633751D01*
X5369048Y-16614704D01*
X5378571Y-16605180D01*
X5397619Y-16595656D01*
X5540476Y-16595656D02*
X5540476Y-16633751D01*
X5616667Y-16595656D02*
X5616667Y-16633751D01*
X5911905Y-16871847D02*
X5902381Y-16862323D01*
X5883333Y-16833751D01*
X5873809Y-16814704D01*
X5864286Y-16786132D01*
X5854762Y-16738513D01*
X5854762Y-16700418D01*
X5864286Y-16652799D01*
X5873809Y-16624228D01*
X5883333Y-16605180D01*
X5902381Y-16576608D01*
X5911905Y-16567085D01*
X5969048Y-16595656D02*
X6092857Y-16595656D01*
X6026190Y-16671847D01*
X6054762Y-16671847D01*
X6073809Y-16681370D01*
X6083333Y-16690894D01*
X6092857Y-16709942D01*
X6092857Y-16757561D01*
X6083333Y-16776608D01*
X6073809Y-16786132D01*
X6054762Y-16795656D01*
X5997619Y-16795656D01*
X5978571Y-16786132D01*
X5969048Y-16776608D01*
X6264286Y-16595656D02*
X6226190Y-16595656D01*
X6207143Y-16605180D01*
X6197619Y-16614704D01*
X6178571Y-16643275D01*
X6169048Y-16681370D01*
X6169048Y-16757561D01*
X6178571Y-16776608D01*
X6188095Y-16786132D01*
X6207143Y-16795656D01*
X6245238Y-16795656D01*
X6264286Y-16786132D01*
X6273809Y-16776608D01*
X6283333Y-16757561D01*
X6283333Y-16709942D01*
X6273809Y-16690894D01*
X6264286Y-16681370D01*
X6245238Y-16671847D01*
X6207143Y-16671847D01*
X6188095Y-16681370D01*
X6178571Y-16690894D01*
X6169048Y-16709942D01*
X6521428Y-16795656D02*
X6521428Y-16595656D01*
X6607143Y-16795656D02*
X6607143Y-16690894D01*
X6597619Y-16671847D01*
X6578571Y-16662323D01*
X6550000Y-16662323D01*
X6530952Y-16671847D01*
X6521428Y-16681370D01*
X6730952Y-16795656D02*
X6711905Y-16786132D01*
X6702381Y-16776608D01*
X6692857Y-16757561D01*
X6692857Y-16700418D01*
X6702381Y-16681370D01*
X6711905Y-16671847D01*
X6730952Y-16662323D01*
X6759524Y-16662323D01*
X6778571Y-16671847D01*
X6788095Y-16681370D01*
X6797619Y-16700418D01*
X6797619Y-16757561D01*
X6788095Y-16776608D01*
X6778571Y-16786132D01*
X6759524Y-16795656D01*
X6730952Y-16795656D01*
X6911905Y-16795656D02*
X6892857Y-16786132D01*
X6883333Y-16767085D01*
X6883333Y-16595656D01*
X7064286Y-16786132D02*
X7045238Y-16795656D01*
X7007143Y-16795656D01*
X6988095Y-16786132D01*
X6978571Y-16767085D01*
X6978571Y-16690894D01*
X6988095Y-16671847D01*
X7007143Y-16662323D01*
X7045238Y-16662323D01*
X7064286Y-16671847D01*
X7073809Y-16690894D01*
X7073809Y-16709942D01*
X6978571Y-16728989D01*
X7150000Y-16786132D02*
X7169048Y-16795656D01*
X7207143Y-16795656D01*
X7226190Y-16786132D01*
X7235714Y-16767085D01*
X7235714Y-16757561D01*
X7226190Y-16738513D01*
X7207143Y-16728989D01*
X7178571Y-16728989D01*
X7159524Y-16719466D01*
X7150000Y-16700418D01*
X7150000Y-16690894D01*
X7159524Y-16671847D01*
X7178571Y-16662323D01*
X7207143Y-16662323D01*
X7226190Y-16671847D01*
X7302381Y-16871847D02*
X7311905Y-16862323D01*
X7330952Y-16833751D01*
X7340476Y-16814704D01*
X7350000Y-16786132D01*
X7359524Y-16738513D01*
X7359524Y-16700418D01*
X7350000Y-16652799D01*
X7340476Y-16624228D01*
X7330952Y-16605180D01*
X7311905Y-16576608D01*
X7302381Y-16567085D01*
X7664286Y-16871847D02*
X7654762Y-16862323D01*
X7635714Y-16833751D01*
X7626190Y-16814704D01*
X7616667Y-16786132D01*
X7607143Y-16738513D01*
X7607143Y-16700418D01*
X7616667Y-16652799D01*
X7626190Y-16624228D01*
X7635714Y-16605180D01*
X7654762Y-16576608D01*
X7664286Y-16567085D01*
X7740476Y-16662323D02*
X7740476Y-16795656D01*
X7740476Y-16681370D02*
X7750000Y-16671847D01*
X7769048Y-16662323D01*
X7797619Y-16662323D01*
X7816667Y-16671847D01*
X7826190Y-16690894D01*
X7826190Y-16795656D01*
X7950000Y-16795656D02*
X7930952Y-16786132D01*
X7921428Y-16776608D01*
X7911905Y-16757561D01*
X7911905Y-16700418D01*
X7921428Y-16681370D01*
X7930952Y-16671847D01*
X7950000Y-16662323D01*
X7978571Y-16662323D01*
X7997619Y-16671847D01*
X8007143Y-16681370D01*
X8016667Y-16700418D01*
X8016667Y-16757561D01*
X8007143Y-16776608D01*
X7997619Y-16786132D01*
X7978571Y-16795656D01*
X7950000Y-16795656D01*
X8073809Y-16662323D02*
X8150000Y-16662323D01*
X8102381Y-16595656D02*
X8102381Y-16767085D01*
X8111905Y-16786132D01*
X8130952Y-16795656D01*
X8150000Y-16795656D01*
X8369048Y-16662323D02*
X8369048Y-16862323D01*
X8369048Y-16671847D02*
X8388095Y-16662323D01*
X8426190Y-16662323D01*
X8445238Y-16671847D01*
X8454762Y-16681370D01*
X8464286Y-16700418D01*
X8464286Y-16757561D01*
X8454762Y-16776608D01*
X8445238Y-16786132D01*
X8426190Y-16795656D01*
X8388095Y-16795656D01*
X8369048Y-16786132D01*
X8578571Y-16795656D02*
X8559524Y-16786132D01*
X8550000Y-16767085D01*
X8550000Y-16595656D01*
X8740476Y-16795656D02*
X8740476Y-16690894D01*
X8730952Y-16671847D01*
X8711905Y-16662323D01*
X8673810Y-16662323D01*
X8654762Y-16671847D01*
X8740476Y-16786132D02*
X8721429Y-16795656D01*
X8673810Y-16795656D01*
X8654762Y-16786132D01*
X8645238Y-16767085D01*
X8645238Y-16748037D01*
X8654762Y-16728989D01*
X8673810Y-16719466D01*
X8721429Y-16719466D01*
X8740476Y-16709942D01*
X8807143Y-16662323D02*
X8883333Y-16662323D01*
X8835714Y-16595656D02*
X8835714Y-16767085D01*
X8845238Y-16786132D01*
X8864286Y-16795656D01*
X8883333Y-16795656D01*
X9026190Y-16786132D02*
X9007143Y-16795656D01*
X8969048Y-16795656D01*
X8950000Y-16786132D01*
X8940476Y-16767085D01*
X8940476Y-16690894D01*
X8950000Y-16671847D01*
X8969048Y-16662323D01*
X9007143Y-16662323D01*
X9026190Y-16671847D01*
X9035714Y-16690894D01*
X9035714Y-16709942D01*
X8940476Y-16728989D01*
X9207143Y-16795656D02*
X9207143Y-16595656D01*
X9207143Y-16786132D02*
X9188095Y-16795656D01*
X9150000Y-16795656D01*
X9130952Y-16786132D01*
X9121429Y-16776608D01*
X9111905Y-16757561D01*
X9111905Y-16700418D01*
X9121429Y-16681370D01*
X9130952Y-16671847D01*
X9150000Y-16662323D01*
X9188095Y-16662323D01*
X9207143Y-16671847D01*
X9283333Y-16871847D02*
X9292857Y-16862323D01*
X9311905Y-16833751D01*
X9321429Y-16814704D01*
X9330952Y-16786132D01*
X9340476Y-16738513D01*
X9340476Y-16700418D01*
X9330952Y-16652799D01*
X9321429Y-16624228D01*
X9311905Y-16605180D01*
X9292857Y-16576608D01*
X9283333Y-16567085D01*
M02*
