M48
; DRILL file {KiCad (6.0.4)} date Fri Feb 24 10:48:46 2023
; FORMAT={-:-/ absolute / metric / decimal}
; #@! TF.CreationDate,2023-02-24T10:48:46-05:00
; #@! TF.GenerationSoftware,Kicad,Pcbnew,(6.0.4)
; #@! TF.FileFunction,NonPlated,1,2,NPTH
FMAT,2
METRIC
; #@! TA.AperFunction,NonPlated,NPTH,ComponentDrill
T1C1.500
; #@! TA.AperFunction,NonPlated,NPTH,ComponentDrill
T2C1.702
; #@! TA.AperFunction,NonPlated,NPTH,ComponentDrill
T3C1.800
; #@! TA.AperFunction,NonPlated,NPTH,ComponentDrill
T4C3.000
; #@! TA.AperFunction,NonPlated,NPTH,ComponentDrill
T5C3.988
%
G90
G05
T1
X146.673Y-49.896
X151.523Y-49.896
T2
X30.23Y-80.688
X35.16Y-62.287
X40.043Y-83.318
X40.091Y-43.886
X44.974Y-64.917
X49.904Y-46.516
X50.836Y-77.17
X55.766Y-58.769
X60.65Y-79.8
X60.697Y-40.369
X65.58Y-61.399
X69.454Y-112.472
X70.469Y-77.501
X70.511Y-42.998
X75.4Y-59.1
X78.663Y-116.766
X80.283Y-80.13
X80.33Y-40.699
X85.214Y-61.729
X87.638Y-87.031
X90.144Y-43.328
X90.954Y-118.991
X92.568Y-68.63
X97.452Y-89.661
X97.553Y-50.244
X99.277Y-124.819
X102.382Y-71.26
X105.066Y-95.81
X107.367Y-52.874
X109.996Y-77.409
X110.937Y-131.732
X114.88Y-98.44
X114.981Y-59.023
X118.121Y-138.916
X119.81Y-80.039
X124.795Y-61.652
X174.085Y-61.733
X178.961Y-80.149
X181.471Y-138.806
X183.891Y-98.55
X183.899Y-59.104
X188.656Y-131.622
X188.775Y-77.519
X191.404Y-52.984
X193.705Y-95.92
X196.28Y-71.399
X200.315Y-124.709
X201.211Y-89.8
X201.218Y-50.354
X206.094Y-68.77
X208.518Y-43.468
X208.638Y-118.881
X211.025Y-87.17
X213.449Y-61.868
X218.332Y-40.838
X218.379Y-80.269
X220.93Y-116.656
X223.262Y-59.239
X228.152Y-43.137
X228.193Y-77.64
X230.138Y-112.362
X233.082Y-61.538
X237.965Y-40.508
X238.013Y-79.939
X242.896Y-58.909
X247.826Y-77.309
X248.867Y-46.626
X253.797Y-65.027
X258.68Y-43.996
X258.728Y-83.428
X263.611Y-62.397
X268.541Y-80.798
T3
X146.373Y-46.866
X151.823Y-46.866
T4
X32.114Y-78.563
X37.044Y-60.162
X38.905Y-77.753
X41.975Y-41.762
X43.835Y-59.353
X48.766Y-40.952
X52.72Y-75.046
X57.651Y-56.645
X59.511Y-74.236
X62.581Y-38.244
X64.442Y-55.835
X69.372Y-37.434
X71.679Y-110.707
X72.354Y-75.376
X77.284Y-56.975
X78.507Y-111.089
X79.145Y-74.566
X82.215Y-38.574
X84.075Y-56.165
X89.006Y-37.764
X89.522Y-84.907
X93.451Y-117.639
X94.452Y-66.506
X96.313Y-84.097
X99.437Y-48.119
X100.11Y-119.201
X101.243Y-65.696
X106.228Y-47.309
X106.95Y-93.685
X111.88Y-75.284
X113.631Y-130.834
X113.741Y-92.875
X116.865Y-56.898
X118.671Y-74.474
X119.917Y-133.528
X123.656Y-56.088
X174.654Y-58.951
X179.53Y-77.366
X180.13Y-54.854
X180.573Y-136.112
X183.267Y-129.826
X184.461Y-95.767
X185.007Y-73.27
X189.937Y-91.67
X191.973Y-50.202
X196.85Y-68.617
X197.45Y-46.105
X199.899Y-121.9
X201.78Y-87.018
X202.326Y-64.52
X203.644Y-116.177
X207.256Y-82.921
X209.087Y-40.685
X214.018Y-59.086
X214.564Y-36.588
X218.948Y-77.487
X219.494Y-54.989
X221.007Y-113.817
X224.425Y-73.39
X225.689Y-108.832
X228.721Y-40.355
X233.651Y-58.756
X234.197Y-36.258
X238.582Y-77.157
X239.128Y-54.659
X244.058Y-73.06
X249.436Y-43.844
X254.366Y-62.245
X254.912Y-39.747
X259.297Y-80.646
X259.843Y-58.148
X264.773Y-76.549
T5
X35.136Y-82.003
X40.067Y-63.602
X44.997Y-45.201
X55.743Y-78.485
X60.673Y-60.084
X65.604Y-41.683
X74.058Y-114.619
X75.376Y-78.815
X80.307Y-60.415
X85.237Y-42.014
X92.545Y-88.346
X95.115Y-121.905
X97.475Y-69.945
X102.46Y-51.559
X109.973Y-97.125
X114.529Y-135.324
X114.903Y-78.724
X119.888Y-60.338
X178.992Y-60.418
X183.868Y-78.834
X185.063Y-135.214
X188.798Y-97.235
X196.311Y-51.669
X201.187Y-70.084
X204.477Y-121.795
X206.118Y-88.485
X213.425Y-42.153
X218.355Y-60.554
X223.286Y-78.955
X225.534Y-114.509
X233.058Y-41.822
X237.989Y-60.223
X242.919Y-78.624
X253.774Y-45.311
X258.704Y-63.712
X263.635Y-82.113
T0
M30
