G04 #@! TF.GenerationSoftware,KiCad,Pcbnew,(6.0.4)*
G04 #@! TF.CreationDate,2023-02-24T10:48:44-05:00*
G04 #@! TF.ProjectId,crowboard,63726f77-626f-4617-9264-2e6b69636164,rev?*
G04 #@! TF.SameCoordinates,Original*
G04 #@! TF.FileFunction,Profile,NP*
%FSLAX46Y46*%
G04 Gerber Fmt 4.6, Leading zero omitted, Abs format (unit mm)*
G04 Created by KiCad (PCBNEW (6.0.4)) date 2023-02-24 10:48:44*
%MOMM*%
%LPD*%
G01*
G04 APERTURE LIST*
G04 #@! TA.AperFunction,Profile*
%ADD10C,0.100000*%
G04 #@! TD*
G04 APERTURE END LIST*
D10*
X58875000Y-30025000D02*
X77250000Y-34950000D01*
X171600000Y-135225000D02*
X128000000Y-135325000D01*
X97450000Y-135175000D02*
X78650000Y-127275000D01*
X77250000Y-34950000D02*
X78500000Y-30350000D01*
X201750000Y-35425000D02*
X202975000Y-40025000D01*
X38250000Y-33525000D02*
X56625000Y-38450000D01*
X202125000Y-135075000D02*
X185075000Y-148675000D01*
X239800000Y-30175000D02*
X221400000Y-35075000D01*
X220150000Y-30475000D02*
X201750000Y-35425000D01*
X138050000Y-44875000D02*
X131550000Y-53600000D01*
X114125000Y-44825000D02*
X113100000Y-48650000D01*
X113100000Y-48650000D02*
X131550000Y-53600000D01*
X242050000Y-38575000D02*
X239800000Y-30175000D01*
X23450000Y-88750000D02*
X38250000Y-33525000D01*
X185675000Y-48775000D02*
X167325000Y-53700000D01*
X128000000Y-135325000D02*
X114525000Y-148800000D01*
X260525000Y-33650000D02*
X275300000Y-88850000D01*
X238200000Y-119125000D02*
X220925000Y-127175000D01*
X78650000Y-127275000D02*
X61400000Y-119225000D01*
X56625000Y-38450000D02*
X58875000Y-30025000D01*
X184650000Y-44925000D02*
X185675000Y-48775000D01*
X95675000Y-39900000D02*
X114125000Y-44825000D01*
X114525000Y-148800000D02*
X97450000Y-135175000D01*
X275300000Y-88850000D02*
X238200000Y-119125000D01*
X78500000Y-30350000D02*
X96900000Y-35275000D01*
X220925000Y-127175000D02*
X202125000Y-135075000D01*
X96900000Y-35275000D02*
X95675000Y-39900000D01*
X61400000Y-119225000D02*
X23450000Y-88750000D01*
X185075000Y-148675000D02*
X171600000Y-135225000D01*
X202975000Y-40025000D02*
X184650000Y-44925000D01*
X260525000Y-33650000D02*
X242050000Y-38575000D01*
X221400000Y-35075000D02*
X220150000Y-30475000D01*
X160175000Y-44875000D02*
X138050000Y-44875000D01*
X167325000Y-53700000D02*
X160175000Y-44875000D01*
M02*
