M48
; DRILL file {KiCad (6.0.4)} date Fri Feb 24 10:48:46 2023
; FORMAT={-:-/ absolute / metric / decimal}
; #@! TF.CreationDate,2023-02-24T10:48:46-05:00
; #@! TF.GenerationSoftware,Kicad,Pcbnew,(6.0.4)
; #@! TF.FileFunction,Plated,1,2,PTH
FMAT,2
METRIC
; #@! TA.AperFunction,Plated,PTH,ViaDrill
T1C0.400
; #@! TA.AperFunction,Plated,PTH,ComponentDrill
T2C1.000
; #@! TA.AperFunction,Plated,PTH,ComponentDrill
T3C1.020
%
G90
G05
T1
X52.388Y-50.202
X72.994Y-50.176
X92.301Y-52.531
X98.62Y-108.79
X98.65Y-106.89
X107.956Y-63.576
X124.06Y-73.49
X156.614Y-97.394
X186.495Y-118.155
X187.294Y-119.404
X187.55Y-117.1
X188.25Y-118.51
X190.89Y-122.81
X192.202Y-121.438
X199.78Y-98.59
X213.558Y-93.318
X230.726Y-82.246
X250.1Y-74.77
X266.16Y-74.3
T2
X29.11Y-89.427
X34.04Y-71.026
X36.644Y-91.446
X39.037Y-52.643
X41.574Y-73.045
X46.571Y-54.662
X49.77Y-85.924
X54.701Y-67.523
X57.304Y-87.943
X59.631Y-49.122
X62.235Y-69.542
X67.165Y-51.141
X69.404Y-86.254
X74.334Y-67.853
X76.938Y-88.273
X79.15Y-49.422
X81.869Y-69.872
X86.572Y-95.785
X86.684Y-51.441
X91.503Y-77.384
X94.106Y-97.804
X96.433Y-58.983
X99.037Y-79.403
X101.489Y-113.719
X102.31Y-110.652
X103.124Y-107.616
X103.946Y-104.549
X103.967Y-61.002
X108.876Y-86.148
X109.023Y-115.738
X109.845Y-112.671
X110.658Y-109.635
X111.48Y-106.568
X113.807Y-67.747
X116.41Y-88.167
X121.341Y-69.766
X177.484Y-69.862
X182.415Y-88.262
X185.019Y-67.843
X187.345Y-106.663
X188.167Y-109.73
X188.989Y-112.797
X189.811Y-115.864
X189.949Y-86.244
X194.858Y-61.097
X194.88Y-104.645
X195.701Y-107.711
X196.523Y-110.778
X197.345Y-113.845
X199.789Y-79.498
X202.392Y-59.079
X204.719Y-97.899
X207.323Y-77.48
X212.026Y-51.567
X212.253Y-95.88
X216.957Y-69.968
X219.561Y-49.548
X221.887Y-88.369
X224.491Y-67.949
X229.422Y-86.35
X231.545Y-51.267
X236.59Y-69.637
X239.079Y-49.248
X241.521Y-88.038
X244.125Y-67.619
X249.055Y-86.019
X252.321Y-54.74
X257.251Y-73.141
X259.855Y-52.721
X262.182Y-91.542
X264.785Y-71.122
X269.716Y-89.523
T3
X140.208Y-46.736
X140.208Y-49.276
X140.208Y-51.816
X140.208Y-54.356
X140.208Y-56.896
X140.208Y-59.436
X140.208Y-61.976
X140.208Y-64.516
X140.208Y-67.056
X140.208Y-69.596
X140.208Y-72.136
X140.208Y-74.676
X140.208Y-77.216
X140.208Y-79.756
X140.208Y-82.296
X140.208Y-84.836
X140.208Y-87.376
X140.208Y-89.916
X140.208Y-92.456
X140.208Y-94.996
X146.558Y-94.766
X149.098Y-94.766
X151.638Y-94.766
X157.988Y-46.736
X157.988Y-49.276
X157.988Y-51.816
X157.988Y-54.356
X157.988Y-56.896
X157.988Y-59.436
X157.988Y-61.976
X157.988Y-64.516
X157.988Y-67.056
X157.988Y-69.596
X157.988Y-72.136
X157.988Y-74.676
X157.988Y-77.216
X157.988Y-79.756
X157.988Y-82.296
X157.988Y-84.836
X157.988Y-87.376
X157.988Y-89.916
X157.988Y-92.456
X157.988Y-94.996
T0
M30
